<svg width="17" height="8" viewBox="0 0 17 8" fill="none" xmlns="http://www.w3.org/2000/svg">
<path d="M0.506157 6.43557C0.194429 6.70833 0.162841 7.18215 0.435603 7.49388C0.708364 7.8056 1.18219 7.83719 1.49391 7.56443L0.506157 6.43557ZM7.32218 1.46813L6.8283 0.903693L7.32218 1.46813ZM9.81397 1.46813L9.32009 2.03256L9.32009 2.03256L9.81397 1.46813ZM15.6422 7.56443C15.954 7.83719 16.4278 7.80561 16.7005 7.49388C16.9733 7.18215 16.9417 6.70833 16.63 6.43557L15.6422 7.56443ZM1.49391 7.56443L7.81606 2.03256L6.8283 0.903693L0.506157 6.43557L1.49391 7.56443ZM9.32009 2.03256L15.6422 7.56443L16.63 6.43557L10.3078 0.903695L9.32009 2.03256ZM7.81606 2.03256C8.24662 1.65581 8.88952 1.65581 9.32009 2.03256L10.3078 0.903695C9.31174 0.0321025 7.82441 0.0321 6.8283 0.903693L7.81606 2.03256Z" fill="white"/>
</svg>
