<svg width="741" height="557" viewBox="0 0 741 557" fill="none" xmlns="http://www.w3.org/2000/svg">
<circle cx="570" cy="3" r="3" fill="#202256"/>
<circle cx="591" cy="3" r="3" fill="#202256"/>
<circle cx="612" cy="3" r="3" fill="#202256"/>
<circle cx="633" cy="3" r="3" fill="#202256"/>
<circle cx="654" cy="3" r="3" fill="#202256"/>
<circle cx="675" cy="3" r="3" fill="#202256"/>
<circle cx="696" cy="3" r="3" fill="#202256"/>
<circle cx="717" cy="3" r="3" fill="#202256"/>
<circle cx="738" cy="3" r="3" fill="#202256"/>
<circle cx="570" cy="22" r="3" fill="#202256"/>
<circle cx="591" cy="22" r="3" fill="#202256"/>
<circle cx="612" cy="22" r="3" fill="#202256"/>
<circle cx="633" cy="22" r="3" fill="#202256"/>
<circle cx="654" cy="22" r="3" fill="#202256"/>
<circle cx="675" cy="22" r="3" fill="#202256"/>
<circle cx="696" cy="22" r="3" fill="#202256"/>
<circle cx="717" cy="22" r="3" fill="#202256"/>
<circle cx="738" cy="22" r="3" fill="#202256"/>
<circle cx="570" cy="41" r="3" fill="#202256"/>
<circle cx="591" cy="41" r="3" fill="#202256"/>
<circle cx="612" cy="41" r="3" fill="#202256"/>
<circle cx="633" cy="41" r="3" fill="#202256"/>
<circle cx="654" cy="41" r="3" fill="#202256"/>
<circle cx="675" cy="41" r="3" fill="#202256"/>
<circle cx="696" cy="41" r="3" fill="#202256"/>
<circle cx="717" cy="41" r="3" fill="#202256"/>
<circle cx="738" cy="41" r="3" fill="#202256"/>
<circle cx="570" cy="60" r="3" fill="#202256"/>
<circle cx="591" cy="60" r="3" fill="#202256"/>
<circle cx="612" cy="60" r="3" fill="#202256"/>
<circle cx="633" cy="60" r="3" fill="#202256"/>
<circle cx="654" cy="60" r="3" fill="#202256"/>
<circle cx="675" cy="60" r="3" fill="#202256"/>
<circle cx="696" cy="60" r="3" fill="#202256"/>
<circle cx="717" cy="60" r="3" fill="#202256"/>
<circle cx="738" cy="60" r="3" fill="#202256"/>
<circle cx="570" cy="79" r="3" fill="#202256"/>
<circle cx="591" cy="79" r="3" fill="#202256"/>
<circle cx="612" cy="79" r="3" fill="#202256"/>
<circle cx="633" cy="79" r="3" fill="#202256"/>
<circle cx="654" cy="79" r="3" fill="#202256"/>
<circle cx="675" cy="79" r="3" fill="#202256"/>
<circle cx="696" cy="79" r="3" fill="#202256"/>
<circle cx="717" cy="79" r="3" fill="#202256"/>
<circle cx="738" cy="79" r="3" fill="#202256"/>
<circle cx="570" cy="98" r="3" fill="#202256"/>
<circle cx="591" cy="98" r="3" fill="#202256"/>
<circle cx="612" cy="98" r="3" fill="#202256"/>
<circle cx="633" cy="98" r="3" fill="#202256"/>
<circle cx="654" cy="98" r="3" fill="#202256"/>
<circle cx="675" cy="98" r="3" fill="#202256"/>
<circle cx="696" cy="98" r="3" fill="#202256"/>
<circle cx="717" cy="98" r="3" fill="#202256"/>
<circle cx="738" cy="98" r="3" fill="#202256"/>
<circle cx="570" cy="117" r="3" fill="#202256"/>
<circle cx="591" cy="117" r="3" fill="#202256"/>
<circle cx="612" cy="117" r="3" fill="#202256"/>
<circle cx="633" cy="117" r="3" fill="#202256"/>
<circle cx="654" cy="117" r="3" fill="#202256"/>
<circle cx="675" cy="117" r="3" fill="#202256"/>
<circle cx="696" cy="117" r="3" fill="#202256"/>
<circle cx="717" cy="117" r="3" fill="#202256"/>
<circle cx="738" cy="117" r="3" fill="#202256"/>
<circle cx="570" cy="136" r="3" fill="#202256"/>
<circle cx="591" cy="136" r="3" fill="#202256"/>
<circle cx="612" cy="136" r="3" fill="#202256"/>
<circle cx="633" cy="136" r="3" fill="#202256"/>
<circle cx="654" cy="136" r="3" fill="#202256"/>
<circle cx="675" cy="136" r="3" fill="#202256"/>
<circle cx="696" cy="136" r="3" fill="#202256"/>
<circle cx="717" cy="136" r="3" fill="#202256"/>
<circle cx="738" cy="136" r="3" fill="#202256"/>
<circle cx="570" cy="155" r="3" fill="#202256"/>
<circle cx="591" cy="155" r="3" fill="#202256"/>
<circle cx="612" cy="155" r="3" fill="#202256"/>
<circle cx="633" cy="155" r="3" fill="#202256"/>
<circle cx="654" cy="155" r="3" fill="#202256"/>
<circle cx="675" cy="155" r="3" fill="#202256"/>
<circle cx="696" cy="155" r="3" fill="#202256"/>
<circle cx="717" cy="155" r="3" fill="#202256"/>
<circle cx="738" cy="155" r="3" fill="#202256"/>
<circle cx="570" cy="174" r="3" fill="#202256"/>
<circle cx="591" cy="174" r="3" fill="#202256"/>
<circle cx="612" cy="174" r="3" fill="#202256"/>
<circle cx="633" cy="174" r="3" fill="#202256"/>
<circle cx="654" cy="174" r="3" fill="#202256"/>
<circle cx="675" cy="174" r="3" fill="#202256"/>
<circle cx="696" cy="174" r="3" fill="#202256"/>
<circle cx="717" cy="174" r="3" fill="#202256"/>
<circle cx="738" cy="174" r="3" fill="#202256"/>
<circle cx="570" cy="193" r="3" fill="#202256"/>
<circle cx="591" cy="193" r="3" fill="#202256"/>
<circle cx="612" cy="193" r="3" fill="#202256"/>
<circle cx="633" cy="193" r="3" fill="#202256"/>
<circle cx="654" cy="193" r="3" fill="#202256"/>
<circle cx="675" cy="193" r="3" fill="#202256"/>
<circle cx="696" cy="193" r="3" fill="#202256"/>
<circle cx="717" cy="193" r="3" fill="#202256"/>
<circle cx="738" cy="193" r="3" fill="#202256"/>
<circle cx="570" cy="212" r="3" fill="#202256"/>
<circle cx="591" cy="212" r="3" fill="#202256"/>
<circle cx="612" cy="212" r="3" fill="#202256"/>
<circle cx="633" cy="212" r="3" fill="#202256"/>
<circle cx="654" cy="212" r="3" fill="#202256"/>
<circle cx="675" cy="212" r="3" fill="#202256"/>
<circle cx="696" cy="212" r="3" fill="#202256"/>
<circle cx="717" cy="212" r="3" fill="#202256"/>
<circle cx="738" cy="212" r="3" fill="#202256"/>
<circle cx="570" cy="231" r="3" fill="#202256"/>
<circle cx="591" cy="231" r="3" fill="#202256"/>
<circle cx="612" cy="231" r="3" fill="#202256"/>
<circle cx="633" cy="231" r="3" fill="#202256"/>
<circle cx="654" cy="231" r="3" fill="#202256"/>
<circle cx="675" cy="231" r="3" fill="#202256"/>
<circle cx="696" cy="231" r="3" fill="#202256"/>
<circle cx="717" cy="231" r="3" fill="#202256"/>
<circle cx="738" cy="231" r="3" fill="#202256"/>
<circle cx="570" cy="250" r="3" fill="#202256"/>
<circle cx="591" cy="250" r="3" fill="#202256"/>
<circle cx="612" cy="250" r="3" fill="#202256"/>
<circle cx="633" cy="250" r="3" fill="#202256"/>
<circle cx="654" cy="250" r="3" fill="#202256"/>
<circle cx="675" cy="250" r="3" fill="#202256"/>
<circle cx="696" cy="250" r="3" fill="#202256"/>
<circle cx="717" cy="250" r="3" fill="#202256"/>
<circle cx="738" cy="250" r="3" fill="#202256"/>
<circle cx="570" cy="269" r="3" fill="#202256"/>
<circle cx="591" cy="269" r="3" fill="#202256"/>
<circle cx="612" cy="269" r="3" fill="#202256"/>
<circle cx="633" cy="269" r="3" fill="#202256"/>
<circle cx="654" cy="269" r="3" fill="#202256"/>
<circle cx="675" cy="269" r="3" fill="#202256"/>
<circle cx="696" cy="269" r="3" fill="#202256"/>
<circle cx="717" cy="269" r="3" fill="#202256"/>
<circle cx="738" cy="269" r="3" fill="#202256"/>
<circle cx="570" cy="288" r="3" fill="#202256"/>
<circle cx="591" cy="288" r="3" fill="#202256"/>
<circle cx="612" cy="288" r="3" fill="#202256"/>
<circle cx="633" cy="288" r="3" fill="#202256"/>
<circle cx="654" cy="288" r="3" fill="#202256"/>
<circle cx="675" cy="288" r="3" fill="#202256"/>
<circle cx="696" cy="288" r="3" fill="#202256"/>
<circle cx="717" cy="288" r="3" fill="#202256"/>
<circle cx="738" cy="288" r="3" fill="#202256"/>
<circle cx="570" cy="307" r="3" fill="#202256"/>
<circle cx="591" cy="307" r="3" fill="#202256"/>
<circle cx="612" cy="307" r="3" fill="#202256"/>
<circle cx="633" cy="307" r="3" fill="#202256"/>
<circle cx="654" cy="307" r="3" fill="#202256"/>
<circle cx="675" cy="307" r="3" fill="#202256"/>
<circle cx="696" cy="307" r="3" fill="#202256"/>
<circle cx="717" cy="307" r="3" fill="#202256"/>
<circle cx="738" cy="307" r="3" fill="#202256"/>
<circle cx="570" cy="326" r="3" fill="#202256"/>
<circle cx="591" cy="326" r="3" fill="#202256"/>
<circle cx="612" cy="326" r="3" fill="#202256"/>
<circle cx="633" cy="326" r="3" fill="#202256"/>
<circle cx="654" cy="326" r="3" fill="#202256"/>
<circle cx="675" cy="326" r="3" fill="#202256"/>
<circle cx="696" cy="326" r="3" fill="#202256"/>
<circle cx="717" cy="326" r="3" fill="#202256"/>
<circle cx="738" cy="326" r="3" fill="#202256"/>
<circle cx="570" cy="345" r="3" fill="#202256"/>
<circle cx="591" cy="345" r="3" fill="#202256"/>
<circle cx="612" cy="345" r="3" fill="#202256"/>
<circle cx="633" cy="345" r="3" fill="#202256"/>
<circle cx="654" cy="345" r="3" fill="#202256"/>
<circle cx="675" cy="345" r="3" fill="#202256"/>
<circle cx="696" cy="345" r="3" fill="#202256"/>
<circle cx="717" cy="345" r="3" fill="#202256"/>
<circle cx="738" cy="345" r="3" fill="#202256"/>
<circle cx="570" cy="364" r="3" fill="#202256"/>
<circle cx="591" cy="364" r="3" fill="#202256"/>
<circle cx="612" cy="364" r="3" fill="#202256"/>
<circle cx="633" cy="364" r="3" fill="#202256"/>
<circle cx="654" cy="364" r="3" fill="#202256"/>
<circle cx="675" cy="364" r="3" fill="#202256"/>
<circle cx="696" cy="364" r="3" fill="#202256"/>
<circle cx="717" cy="364" r="3" fill="#202256"/>
<circle cx="738" cy="364" r="3" fill="#202256"/>
<circle cx="570" cy="383" r="3" fill="#202256"/>
<circle cx="591" cy="383" r="3" fill="#202256"/>
<circle cx="612" cy="383" r="3" fill="#202256"/>
<circle cx="633" cy="383" r="3" fill="#202256"/>
<circle cx="654" cy="383" r="3" fill="#202256"/>
<circle cx="675" cy="383" r="3" fill="#202256"/>
<circle cx="696" cy="383" r="3" fill="#202256"/>
<circle cx="717" cy="383" r="3" fill="#202256"/>
<circle cx="738" cy="383" r="3" fill="#202256"/>
<circle cx="570" cy="402" r="3" fill="#202256"/>
<circle cx="591" cy="402" r="3" fill="#202256"/>
<circle cx="612" cy="402" r="3" fill="#202256"/>
<circle cx="633" cy="402" r="3" fill="#202256"/>
<circle cx="654" cy="402" r="3" fill="#202256"/>
<circle cx="675" cy="402" r="3" fill="#202256"/>
<circle cx="696" cy="402" r="3" fill="#202256"/>
<circle cx="717" cy="402" r="3" fill="#202256"/>
<circle cx="738" cy="402" r="3" fill="#202256"/>
<circle cx="570" cy="421" r="3" fill="#202256"/>
<circle cx="591" cy="421" r="3" fill="#202256"/>
<circle cx="612" cy="421" r="3" fill="#202256"/>
<circle cx="633" cy="421" r="3" fill="#202256"/>
<circle cx="654" cy="421" r="3" fill="#202256"/>
<circle cx="675" cy="421" r="3" fill="#202256"/>
<circle cx="696" cy="421" r="3" fill="#202256"/>
<circle cx="717" cy="421" r="3" fill="#202256"/>
<circle cx="738" cy="421" r="3" fill="#202256"/>
<circle cx="570" cy="440" r="3" fill="#202256"/>
<circle cx="591" cy="440" r="3" fill="#202256"/>
<circle cx="612" cy="440" r="3" fill="#202256"/>
<circle cx="633" cy="440" r="3" fill="#202256"/>
<circle cx="654" cy="440" r="3" fill="#202256"/>
<circle cx="675" cy="440" r="3" fill="#202256"/>
<circle cx="696" cy="440" r="3" fill="#202256"/>
<circle cx="717" cy="440" r="3" fill="#202256"/>
<circle cx="738" cy="440" r="3" fill="#202256"/>
<circle cx="570" cy="459" r="3" fill="#202256"/>
<circle cx="591" cy="459" r="3" fill="#202256"/>
<circle cx="612" cy="459" r="3" fill="#202256"/>
<circle cx="633" cy="459" r="3" fill="#202256"/>
<circle cx="654" cy="459" r="3" fill="#202256"/>
<circle cx="675" cy="459" r="3" fill="#202256"/>
<circle cx="696" cy="459" r="3" fill="#202256"/>
<circle cx="717" cy="459" r="3" fill="#202256"/>
<circle cx="738" cy="459" r="3" fill="#202256"/>
<circle cx="570" cy="478" r="3" fill="#202256"/>
<circle cx="591" cy="478" r="3" fill="#202256"/>
<circle cx="612" cy="478" r="3" fill="#202256"/>
<circle cx="633" cy="478" r="3" fill="#202256"/>
<circle cx="654" cy="478" r="3" fill="#202256"/>
<circle cx="675" cy="478" r="3" fill="#202256"/>
<circle cx="696" cy="478" r="3" fill="#202256"/>
<circle cx="717" cy="478" r="3" fill="#202256"/>
<circle cx="738" cy="478" r="3" fill="#202256"/>
<circle cx="570" cy="497" r="3" fill="#202256"/>
<circle cx="591" cy="497" r="3" fill="#202256"/>
<circle cx="612" cy="497" r="3" fill="#202256"/>
<circle cx="633" cy="497" r="3" fill="#202256"/>
<circle cx="654" cy="497" r="3" fill="#202256"/>
<circle cx="675" cy="497" r="3" fill="#202256"/>
<circle cx="696" cy="497" r="3" fill="#202256"/>
<circle cx="717" cy="497" r="3" fill="#202256"/>
<circle cx="738" cy="497" r="3" fill="#202256"/>
<circle cx="570" cy="516" r="3" fill="#202256"/>
<circle cx="591" cy="516" r="3" fill="#202256"/>
<circle cx="612" cy="516" r="3" fill="#202256"/>
<circle cx="633" cy="516" r="3" fill="#202256"/>
<circle cx="654" cy="516" r="3" fill="#202256"/>
<circle cx="675" cy="516" r="3" fill="#202256"/>
<circle cx="696" cy="516" r="3" fill="#202256"/>
<circle cx="717" cy="516" r="3" fill="#202256"/>
<circle cx="738" cy="516" r="3" fill="#202256"/>
<circle cx="570" cy="535" r="3" fill="#202256"/>
<circle cx="591" cy="535" r="3" fill="#202256"/>
<circle cx="612" cy="535" r="3" fill="#202256"/>
<circle cx="633" cy="535" r="3" fill="#202256"/>
<circle cx="654" cy="535" r="3" fill="#202256"/>
<circle cx="675" cy="535" r="3" fill="#202256"/>
<circle cx="696" cy="535" r="3" fill="#202256"/>
<circle cx="717" cy="535" r="3" fill="#202256"/>
<circle cx="738" cy="535" r="3" fill="#202256"/>
<circle cx="570" cy="554" r="3" fill="#202256"/>
<circle cx="591" cy="554" r="3" fill="#202256"/>
<circle cx="612" cy="554" r="3" fill="#202256"/>
<circle cx="633" cy="554" r="3" fill="#202256"/>
<circle cx="654" cy="554" r="3" fill="#202256"/>
<circle cx="675" cy="554" r="3" fill="#202256"/>
<circle cx="696" cy="554" r="3" fill="#202256"/>
<circle cx="717" cy="554" r="3" fill="#202256"/>
<circle cx="738" cy="554" r="3" fill="#202256"/>
<circle cx="381" cy="3" r="3" fill="#202256"/>
<circle cx="402" cy="3" r="3" fill="#202256"/>
<circle cx="423" cy="3" r="3" fill="#202256"/>
<circle cx="444" cy="3" r="3" fill="#202256"/>
<circle cx="465" cy="3" r="3" fill="#202256"/>
<circle cx="486" cy="3" r="3" fill="#202256"/>
<circle cx="507" cy="3" r="3" fill="#202256"/>
<circle cx="528" cy="3" r="3" fill="#202256"/>
<circle cx="549" cy="3" r="3" fill="#202256"/>
<circle cx="381" cy="22" r="3" fill="#202256"/>
<circle cx="402" cy="22" r="3" fill="#202256"/>
<circle cx="423" cy="22" r="3" fill="#202256"/>
<circle cx="444" cy="22" r="3" fill="#202256"/>
<circle cx="465" cy="22" r="3" fill="#202256"/>
<circle cx="486" cy="22" r="3" fill="#202256"/>
<circle cx="507" cy="22" r="3" fill="#202256"/>
<circle cx="528" cy="22" r="3" fill="#202256"/>
<circle cx="549" cy="22" r="3" fill="#202256"/>
<circle cx="381" cy="41" r="3" fill="#202256"/>
<circle cx="402" cy="41" r="3" fill="#202256"/>
<circle cx="423" cy="41" r="3" fill="#202256"/>
<circle cx="444" cy="41" r="3" fill="#202256"/>
<circle cx="465" cy="41" r="3" fill="#202256"/>
<circle cx="486" cy="41" r="3" fill="#202256"/>
<circle cx="507" cy="41" r="3" fill="#202256"/>
<circle cx="528" cy="41" r="3" fill="#202256"/>
<circle cx="549" cy="41" r="3" fill="#202256"/>
<circle cx="381" cy="60" r="3" fill="#202256"/>
<circle cx="402" cy="60" r="3" fill="#202256"/>
<circle cx="423" cy="60" r="3" fill="#202256"/>
<circle cx="444" cy="60" r="3" fill="#202256"/>
<circle cx="465" cy="60" r="3" fill="#202256"/>
<circle cx="486" cy="60" r="3" fill="#202256"/>
<circle cx="507" cy="60" r="3" fill="#202256"/>
<circle cx="528" cy="60" r="3" fill="#202256"/>
<circle cx="549" cy="60" r="3" fill="#202256"/>
<circle cx="381" cy="79" r="3" fill="#202256"/>
<circle cx="402" cy="79" r="3" fill="#202256"/>
<circle cx="423" cy="79" r="3" fill="#202256"/>
<circle cx="444" cy="79" r="3" fill="#202256"/>
<circle cx="465" cy="79" r="3" fill="#202256"/>
<circle cx="486" cy="79" r="3" fill="#202256"/>
<circle cx="507" cy="79" r="3" fill="#202256"/>
<circle cx="528" cy="79" r="3" fill="#202256"/>
<circle cx="549" cy="79" r="3" fill="#202256"/>
<circle cx="381" cy="98" r="3" fill="#202256"/>
<circle cx="402" cy="98" r="3" fill="#202256"/>
<circle cx="423" cy="98" r="3" fill="#202256"/>
<circle cx="444" cy="98" r="3" fill="#202256"/>
<circle cx="465" cy="98" r="3" fill="#202256"/>
<circle cx="486" cy="98" r="3" fill="#202256"/>
<circle cx="507" cy="98" r="3" fill="#202256"/>
<circle cx="528" cy="98" r="3" fill="#202256"/>
<circle cx="549" cy="98" r="3" fill="#202256"/>
<circle cx="381" cy="117" r="3" fill="#202256"/>
<circle cx="402" cy="117" r="3" fill="#202256"/>
<circle cx="423" cy="117" r="3" fill="#202256"/>
<circle cx="444" cy="117" r="3" fill="#202256"/>
<circle cx="465" cy="117" r="3" fill="#202256"/>
<circle cx="486" cy="117" r="3" fill="#202256"/>
<circle cx="507" cy="117" r="3" fill="#202256"/>
<circle cx="528" cy="117" r="3" fill="#202256"/>
<circle cx="549" cy="117" r="3" fill="#202256"/>
<circle cx="381" cy="136" r="3" fill="#202256"/>
<circle cx="402" cy="136" r="3" fill="#202256"/>
<circle cx="423" cy="136" r="3" fill="#202256"/>
<circle cx="444" cy="136" r="3" fill="#202256"/>
<circle cx="465" cy="136" r="3" fill="#202256"/>
<circle cx="486" cy="136" r="3" fill="#202256"/>
<circle cx="507" cy="136" r="3" fill="#202256"/>
<circle cx="528" cy="136" r="3" fill="#202256"/>
<circle cx="549" cy="136" r="3" fill="#202256"/>
<circle cx="381" cy="155" r="3" fill="#202256"/>
<circle cx="402" cy="155" r="3" fill="#202256"/>
<circle cx="423" cy="155" r="3" fill="#202256"/>
<circle cx="444" cy="155" r="3" fill="#202256"/>
<circle cx="465" cy="155" r="3" fill="#202256"/>
<circle cx="486" cy="155" r="3" fill="#202256"/>
<circle cx="507" cy="155" r="3" fill="#202256"/>
<circle cx="528" cy="155" r="3" fill="#202256"/>
<circle cx="549" cy="155" r="3" fill="#202256"/>
<circle cx="381" cy="174" r="3" fill="#202256"/>
<circle cx="402" cy="174" r="3" fill="#202256"/>
<circle cx="423" cy="174" r="3" fill="#202256"/>
<circle cx="444" cy="174" r="3" fill="#202256"/>
<circle cx="465" cy="174" r="3" fill="#202256"/>
<circle cx="486" cy="174" r="3" fill="#202256"/>
<circle cx="507" cy="174" r="3" fill="#202256"/>
<circle cx="528" cy="174" r="3" fill="#202256"/>
<circle cx="549" cy="174" r="3" fill="#202256"/>
<circle cx="381" cy="193" r="3" fill="#202256"/>
<circle cx="402" cy="193" r="3" fill="#202256"/>
<circle cx="423" cy="193" r="3" fill="#202256"/>
<circle cx="444" cy="193" r="3" fill="#202256"/>
<circle cx="465" cy="193" r="3" fill="#202256"/>
<circle cx="486" cy="193" r="3" fill="#202256"/>
<circle cx="507" cy="193" r="3" fill="#202256"/>
<circle cx="528" cy="193" r="3" fill="#202256"/>
<circle cx="549" cy="193" r="3" fill="#202256"/>
<circle cx="381" cy="212" r="3" fill="#202256"/>
<circle cx="402" cy="212" r="3" fill="#202256"/>
<circle cx="423" cy="212" r="3" fill="#202256"/>
<circle cx="444" cy="212" r="3" fill="#202256"/>
<circle cx="465" cy="212" r="3" fill="#202256"/>
<circle cx="486" cy="212" r="3" fill="#202256"/>
<circle cx="507" cy="212" r="3" fill="#202256"/>
<circle cx="528" cy="212" r="3" fill="#202256"/>
<circle cx="549" cy="212" r="3" fill="#202256"/>
<circle cx="381" cy="231" r="3" fill="#202256"/>
<circle cx="402" cy="231" r="3" fill="#202256"/>
<circle cx="423" cy="231" r="3" fill="#202256"/>
<circle cx="444" cy="231" r="3" fill="#202256"/>
<circle cx="465" cy="231" r="3" fill="#202256"/>
<circle cx="486" cy="231" r="3" fill="#202256"/>
<circle cx="507" cy="231" r="3" fill="#202256"/>
<circle cx="528" cy="231" r="3" fill="#202256"/>
<circle cx="549" cy="231" r="3" fill="#202256"/>
<circle cx="381" cy="250" r="3" fill="#202256"/>
<circle cx="402" cy="250" r="3" fill="#202256"/>
<circle cx="423" cy="250" r="3" fill="#202256"/>
<circle cx="444" cy="250" r="3" fill="#202256"/>
<circle cx="465" cy="250" r="3" fill="#202256"/>
<circle cx="486" cy="250" r="3" fill="#202256"/>
<circle cx="507" cy="250" r="3" fill="#202256"/>
<circle cx="528" cy="250" r="3" fill="#202256"/>
<circle cx="549" cy="250" r="3" fill="#202256"/>
<circle cx="381" cy="269" r="3" fill="#202256"/>
<circle cx="402" cy="269" r="3" fill="#202256"/>
<circle cx="423" cy="269" r="3" fill="#202256"/>
<circle cx="444" cy="269" r="3" fill="#202256"/>
<circle cx="465" cy="269" r="3" fill="#202256"/>
<circle cx="486" cy="269" r="3" fill="#202256"/>
<circle cx="507" cy="269" r="3" fill="#202256"/>
<circle cx="528" cy="269" r="3" fill="#202256"/>
<circle cx="549" cy="269" r="3" fill="#202256"/>
<circle cx="381" cy="288" r="3" fill="#202256"/>
<circle cx="402" cy="288" r="3" fill="#202256"/>
<circle cx="423" cy="288" r="3" fill="#202256"/>
<circle cx="444" cy="288" r="3" fill="#202256"/>
<circle cx="465" cy="288" r="3" fill="#202256"/>
<circle cx="486" cy="288" r="3" fill="#202256"/>
<circle cx="507" cy="288" r="3" fill="#202256"/>
<circle cx="528" cy="288" r="3" fill="#202256"/>
<circle cx="549" cy="288" r="3" fill="#202256"/>
<circle cx="381" cy="307" r="3" fill="#202256"/>
<circle cx="402" cy="307" r="3" fill="#202256"/>
<circle cx="423" cy="307" r="3" fill="#202256"/>
<circle cx="444" cy="307" r="3" fill="#202256"/>
<circle cx="465" cy="307" r="3" fill="#202256"/>
<circle cx="486" cy="307" r="3" fill="#202256"/>
<circle cx="507" cy="307" r="3" fill="#202256"/>
<circle cx="528" cy="307" r="3" fill="#202256"/>
<circle cx="549" cy="307" r="3" fill="#202256"/>
<circle cx="381" cy="326" r="3" fill="#202256"/>
<circle cx="402" cy="326" r="3" fill="#202256"/>
<circle cx="423" cy="326" r="3" fill="#202256"/>
<circle cx="444" cy="326" r="3" fill="#202256"/>
<circle cx="465" cy="326" r="3" fill="#202256"/>
<circle cx="486" cy="326" r="3" fill="#202256"/>
<circle cx="507" cy="326" r="3" fill="#202256"/>
<circle cx="528" cy="326" r="3" fill="#202256"/>
<circle cx="549" cy="326" r="3" fill="#202256"/>
<circle cx="381" cy="345" r="3" fill="#202256"/>
<circle cx="402" cy="345" r="3" fill="#202256"/>
<circle cx="423" cy="345" r="3" fill="#202256"/>
<circle cx="444" cy="345" r="3" fill="#202256"/>
<circle cx="465" cy="345" r="3" fill="#202256"/>
<circle cx="486" cy="345" r="3" fill="#202256"/>
<circle cx="507" cy="345" r="3" fill="#202256"/>
<circle cx="528" cy="345" r="3" fill="#202256"/>
<circle cx="549" cy="345" r="3" fill="#202256"/>
<circle cx="381" cy="364" r="3" fill="#202256"/>
<circle cx="402" cy="364" r="3" fill="#202256"/>
<circle cx="423" cy="364" r="3" fill="#202256"/>
<circle cx="444" cy="364" r="3" fill="#202256"/>
<circle cx="465" cy="364" r="3" fill="#202256"/>
<circle cx="486" cy="364" r="3" fill="#202256"/>
<circle cx="507" cy="364" r="3" fill="#202256"/>
<circle cx="528" cy="364" r="3" fill="#202256"/>
<circle cx="549" cy="364" r="3" fill="#202256"/>
<circle cx="381" cy="383" r="3" fill="#202256"/>
<circle cx="402" cy="383" r="3" fill="#202256"/>
<circle cx="423" cy="383" r="3" fill="#202256"/>
<circle cx="444" cy="383" r="3" fill="#202256"/>
<circle cx="465" cy="383" r="3" fill="#202256"/>
<circle cx="486" cy="383" r="3" fill="#202256"/>
<circle cx="507" cy="383" r="3" fill="#202256"/>
<circle cx="528" cy="383" r="3" fill="#202256"/>
<circle cx="549" cy="383" r="3" fill="#202256"/>
<circle cx="381" cy="402" r="3" fill="#202256"/>
<circle cx="402" cy="402" r="3" fill="#202256"/>
<circle cx="423" cy="402" r="3" fill="#202256"/>
<circle cx="444" cy="402" r="3" fill="#202256"/>
<circle cx="465" cy="402" r="3" fill="#202256"/>
<circle cx="486" cy="402" r="3" fill="#202256"/>
<circle cx="507" cy="402" r="3" fill="#202256"/>
<circle cx="528" cy="402" r="3" fill="#202256"/>
<circle cx="549" cy="402" r="3" fill="#202256"/>
<circle cx="381" cy="421" r="3" fill="#202256"/>
<circle cx="402" cy="421" r="3" fill="#202256"/>
<circle cx="423" cy="421" r="3" fill="#202256"/>
<circle cx="444" cy="421" r="3" fill="#202256"/>
<circle cx="465" cy="421" r="3" fill="#202256"/>
<circle cx="486" cy="421" r="3" fill="#202256"/>
<circle cx="507" cy="421" r="3" fill="#202256"/>
<circle cx="528" cy="421" r="3" fill="#202256"/>
<circle cx="549" cy="421" r="3" fill="#202256"/>
<circle cx="381" cy="440" r="3" fill="#202256"/>
<circle cx="402" cy="440" r="3" fill="#202256"/>
<circle cx="423" cy="440" r="3" fill="#202256"/>
<circle cx="444" cy="440" r="3" fill="#202256"/>
<circle cx="465" cy="440" r="3" fill="#202256"/>
<circle cx="486" cy="440" r="3" fill="#202256"/>
<circle cx="507" cy="440" r="3" fill="#202256"/>
<circle cx="528" cy="440" r="3" fill="#202256"/>
<circle cx="549" cy="440" r="3" fill="#202256"/>
<circle cx="381" cy="459" r="3" fill="#202256"/>
<circle cx="402" cy="459" r="3" fill="#202256"/>
<circle cx="423" cy="459" r="3" fill="#202256"/>
<circle cx="444" cy="459" r="3" fill="#202256"/>
<circle cx="465" cy="459" r="3" fill="#202256"/>
<circle cx="486" cy="459" r="3" fill="#202256"/>
<circle cx="507" cy="459" r="3" fill="#202256"/>
<circle cx="528" cy="459" r="3" fill="#202256"/>
<circle cx="549" cy="459" r="3" fill="#202256"/>
<circle cx="381" cy="478" r="3" fill="#202256"/>
<circle cx="402" cy="478" r="3" fill="#202256"/>
<circle cx="423" cy="478" r="3" fill="#202256"/>
<circle cx="444" cy="478" r="3" fill="#202256"/>
<circle cx="465" cy="478" r="3" fill="#202256"/>
<circle cx="486" cy="478" r="3" fill="#202256"/>
<circle cx="507" cy="478" r="3" fill="#202256"/>
<circle cx="528" cy="478" r="3" fill="#202256"/>
<circle cx="549" cy="478" r="3" fill="#202256"/>
<circle cx="381" cy="497" r="3" fill="#202256"/>
<circle cx="402" cy="497" r="3" fill="#202256"/>
<circle cx="423" cy="497" r="3" fill="#202256"/>
<circle cx="444" cy="497" r="3" fill="#202256"/>
<circle cx="465" cy="497" r="3" fill="#202256"/>
<circle cx="486" cy="497" r="3" fill="#202256"/>
<circle cx="507" cy="497" r="3" fill="#202256"/>
<circle cx="528" cy="497" r="3" fill="#202256"/>
<circle cx="549" cy="497" r="3" fill="#202256"/>
<circle cx="381" cy="516" r="3" fill="#202256"/>
<circle cx="402" cy="516" r="3" fill="#202256"/>
<circle cx="423" cy="516" r="3" fill="#202256"/>
<circle cx="444" cy="516" r="3" fill="#202256"/>
<circle cx="465" cy="516" r="3" fill="#202256"/>
<circle cx="486" cy="516" r="3" fill="#202256"/>
<circle cx="507" cy="516" r="3" fill="#202256"/>
<circle cx="528" cy="516" r="3" fill="#202256"/>
<circle cx="549" cy="516" r="3" fill="#202256"/>
<circle cx="381" cy="535" r="3" fill="#202256"/>
<circle cx="402" cy="535" r="3" fill="#202256"/>
<circle cx="423" cy="535" r="3" fill="#202256"/>
<circle cx="444" cy="535" r="3" fill="#202256"/>
<circle cx="465" cy="535" r="3" fill="#202256"/>
<circle cx="486" cy="535" r="3" fill="#202256"/>
<circle cx="507" cy="535" r="3" fill="#202256"/>
<circle cx="528" cy="535" r="3" fill="#202256"/>
<circle cx="549" cy="535" r="3" fill="#202256"/>
<circle cx="381" cy="554" r="3" fill="#202256"/>
<circle cx="402" cy="554" r="3" fill="#202256"/>
<circle cx="423" cy="554" r="3" fill="#202256"/>
<circle cx="444" cy="554" r="3" fill="#202256"/>
<circle cx="465" cy="554" r="3" fill="#202256"/>
<circle cx="486" cy="554" r="3" fill="#202256"/>
<circle cx="507" cy="554" r="3" fill="#202256"/>
<circle cx="528" cy="554" r="3" fill="#202256"/>
<circle cx="549" cy="554" r="3" fill="#202256"/>
<circle cx="192" cy="3" r="3" fill="#202256"/>
<circle cx="213" cy="3" r="3" fill="#202256"/>
<circle cx="234" cy="3" r="3" fill="#202256"/>
<circle cx="255" cy="3" r="3" fill="#202256"/>
<circle cx="276" cy="3" r="3" fill="#202256"/>
<circle cx="297" cy="3" r="3" fill="#202256"/>
<circle cx="318" cy="3" r="3" fill="#202256"/>
<circle cx="339" cy="3" r="3" fill="#202256"/>
<circle cx="360" cy="3" r="3" fill="#202256"/>
<circle cx="192" cy="22" r="3" fill="#202256"/>
<circle cx="213" cy="22" r="3" fill="#202256"/>
<circle cx="234" cy="22" r="3" fill="#202256"/>
<circle cx="255" cy="22" r="3" fill="#202256"/>
<circle cx="276" cy="22" r="3" fill="#202256"/>
<circle cx="297" cy="22" r="3" fill="#202256"/>
<circle cx="318" cy="22" r="3" fill="#202256"/>
<circle cx="339" cy="22" r="3" fill="#202256"/>
<circle cx="360" cy="22" r="3" fill="#202256"/>
<circle cx="192" cy="41" r="3" fill="#202256"/>
<circle cx="213" cy="41" r="3" fill="#202256"/>
<circle cx="234" cy="41" r="3" fill="#202256"/>
<circle cx="255" cy="41" r="3" fill="#202256"/>
<circle cx="276" cy="41" r="3" fill="#202256"/>
<circle cx="297" cy="41" r="3" fill="#202256"/>
<circle cx="318" cy="41" r="3" fill="#202256"/>
<circle cx="339" cy="41" r="3" fill="#202256"/>
<circle cx="360" cy="41" r="3" fill="#202256"/>
<circle cx="192" cy="60" r="3" fill="#202256"/>
<circle cx="213" cy="60" r="3" fill="#202256"/>
<circle cx="234" cy="60" r="3" fill="#202256"/>
<circle cx="255" cy="60" r="3" fill="#202256"/>
<circle cx="276" cy="60" r="3" fill="#202256"/>
<circle cx="297" cy="60" r="3" fill="#202256"/>
<circle cx="318" cy="60" r="3" fill="#202256"/>
<circle cx="339" cy="60" r="3" fill="#202256"/>
<circle cx="360" cy="60" r="3" fill="#202256"/>
<circle cx="192" cy="79" r="3" fill="#202256"/>
<circle cx="213" cy="79" r="3" fill="#202256"/>
<circle cx="234" cy="79" r="3" fill="#202256"/>
<circle cx="255" cy="79" r="3" fill="#202256"/>
<circle cx="276" cy="79" r="3" fill="#202256"/>
<circle cx="297" cy="79" r="3" fill="#202256"/>
<circle cx="318" cy="79" r="3" fill="#202256"/>
<circle cx="339" cy="79" r="3" fill="#202256"/>
<circle cx="360" cy="79" r="3" fill="#202256"/>
<circle cx="192" cy="98" r="3" fill="#202256"/>
<circle cx="213" cy="98" r="3" fill="#202256"/>
<circle cx="234" cy="98" r="3" fill="#202256"/>
<circle cx="255" cy="98" r="3" fill="#202256"/>
<circle cx="276" cy="98" r="3" fill="#202256"/>
<circle cx="297" cy="98" r="3" fill="#202256"/>
<circle cx="318" cy="98" r="3" fill="#202256"/>
<circle cx="339" cy="98" r="3" fill="#202256"/>
<circle cx="360" cy="98" r="3" fill="#202256"/>
<circle cx="192" cy="117" r="3" fill="#202256"/>
<circle cx="213" cy="117" r="3" fill="#202256"/>
<circle cx="234" cy="117" r="3" fill="#202256"/>
<circle cx="255" cy="117" r="3" fill="#202256"/>
<circle cx="276" cy="117" r="3" fill="#202256"/>
<circle cx="297" cy="117" r="3" fill="#202256"/>
<circle cx="318" cy="117" r="3" fill="#202256"/>
<circle cx="339" cy="117" r="3" fill="#202256"/>
<circle cx="360" cy="117" r="3" fill="#202256"/>
<circle cx="192" cy="136" r="3" fill="#202256"/>
<circle cx="213" cy="136" r="3" fill="#202256"/>
<circle cx="234" cy="136" r="3" fill="#202256"/>
<circle cx="255" cy="136" r="3" fill="#202256"/>
<circle cx="276" cy="136" r="3" fill="#202256"/>
<circle cx="297" cy="136" r="3" fill="#202256"/>
<circle cx="318" cy="136" r="3" fill="#202256"/>
<circle cx="339" cy="136" r="3" fill="#202256"/>
<circle cx="360" cy="136" r="3" fill="#202256"/>
<circle cx="192" cy="155" r="3" fill="#202256"/>
<circle cx="213" cy="155" r="3" fill="#202256"/>
<circle cx="234" cy="155" r="3" fill="#202256"/>
<circle cx="255" cy="155" r="3" fill="#202256"/>
<circle cx="276" cy="155" r="3" fill="#202256"/>
<circle cx="297" cy="155" r="3" fill="#202256"/>
<circle cx="318" cy="155" r="3" fill="#202256"/>
<circle cx="339" cy="155" r="3" fill="#202256"/>
<circle cx="360" cy="155" r="3" fill="#202256"/>
<circle cx="192" cy="174" r="3" fill="#202256"/>
<circle cx="213" cy="174" r="3" fill="#202256"/>
<circle cx="234" cy="174" r="3" fill="#202256"/>
<circle cx="255" cy="174" r="3" fill="#202256"/>
<circle cx="276" cy="174" r="3" fill="#202256"/>
<circle cx="297" cy="174" r="3" fill="#202256"/>
<circle cx="318" cy="174" r="3" fill="#202256"/>
<circle cx="339" cy="174" r="3" fill="#202256"/>
<circle cx="360" cy="174" r="3" fill="#202256"/>
<circle cx="192" cy="193" r="3" fill="#202256"/>
<circle cx="213" cy="193" r="3" fill="#202256"/>
<circle cx="234" cy="193" r="3" fill="#202256"/>
<circle cx="255" cy="193" r="3" fill="#202256"/>
<circle cx="276" cy="193" r="3" fill="#202256"/>
<circle cx="297" cy="193" r="3" fill="#202256"/>
<circle cx="318" cy="193" r="3" fill="#202256"/>
<circle cx="339" cy="193" r="3" fill="#202256"/>
<circle cx="360" cy="193" r="3" fill="#202256"/>
<circle cx="192" cy="212" r="3" fill="#202256"/>
<circle cx="213" cy="212" r="3" fill="#202256"/>
<circle cx="234" cy="212" r="3" fill="#202256"/>
<circle cx="255" cy="212" r="3" fill="#202256"/>
<circle cx="276" cy="212" r="3" fill="#202256"/>
<circle cx="297" cy="212" r="3" fill="#202256"/>
<circle cx="318" cy="212" r="3" fill="#202256"/>
<circle cx="339" cy="212" r="3" fill="#202256"/>
<circle cx="360" cy="212" r="3" fill="#202256"/>
<circle cx="192" cy="231" r="3" fill="#202256"/>
<circle cx="213" cy="231" r="3" fill="#202256"/>
<circle cx="234" cy="231" r="3" fill="#202256"/>
<circle cx="255" cy="231" r="3" fill="#202256"/>
<circle cx="276" cy="231" r="3" fill="#202256"/>
<circle cx="297" cy="231" r="3" fill="#202256"/>
<circle cx="318" cy="231" r="3" fill="#202256"/>
<circle cx="339" cy="231" r="3" fill="#202256"/>
<circle cx="360" cy="231" r="3" fill="#202256"/>
<circle cx="192" cy="250" r="3" fill="#202256"/>
<circle cx="213" cy="250" r="3" fill="#202256"/>
<circle cx="234" cy="250" r="3" fill="#202256"/>
<circle cx="255" cy="250" r="3" fill="#202256"/>
<circle cx="276" cy="250" r="3" fill="#202256"/>
<circle cx="297" cy="250" r="3" fill="#202256"/>
<circle cx="318" cy="250" r="3" fill="#202256"/>
<circle cx="339" cy="250" r="3" fill="#202256"/>
<circle cx="360" cy="250" r="3" fill="#202256"/>
<circle cx="192" cy="269" r="3" fill="#202256"/>
<circle cx="213" cy="269" r="3" fill="#202256"/>
<circle cx="234" cy="269" r="3" fill="#202256"/>
<circle cx="255" cy="269" r="3" fill="#202256"/>
<circle cx="276" cy="269" r="3" fill="#202256"/>
<circle cx="297" cy="269" r="3" fill="#202256"/>
<circle cx="318" cy="269" r="3" fill="#202256"/>
<circle cx="339" cy="269" r="3" fill="#202256"/>
<circle cx="360" cy="269" r="3" fill="#202256"/>
<circle cx="192" cy="288" r="3" fill="#202256"/>
<circle cx="213" cy="288" r="3" fill="#202256"/>
<circle cx="234" cy="288" r="3" fill="#202256"/>
<circle cx="255" cy="288" r="3" fill="#202256"/>
<circle cx="276" cy="288" r="3" fill="#202256"/>
<circle cx="297" cy="288" r="3" fill="#202256"/>
<circle cx="318" cy="288" r="3" fill="#202256"/>
<circle cx="339" cy="288" r="3" fill="#202256"/>
<circle cx="360" cy="288" r="3" fill="#202256"/>
<circle cx="192" cy="307" r="3" fill="#202256"/>
<circle cx="213" cy="307" r="3" fill="#202256"/>
<circle cx="234" cy="307" r="3" fill="#202256"/>
<circle cx="255" cy="307" r="3" fill="#202256"/>
<circle cx="276" cy="307" r="3" fill="#202256"/>
<circle cx="297" cy="307" r="3" fill="#202256"/>
<circle cx="318" cy="307" r="3" fill="#202256"/>
<circle cx="339" cy="307" r="3" fill="#202256"/>
<circle cx="360" cy="307" r="3" fill="#202256"/>
<circle cx="192" cy="326" r="3" fill="#202256"/>
<circle cx="213" cy="326" r="3" fill="#202256"/>
<circle cx="234" cy="326" r="3" fill="#202256"/>
<circle cx="255" cy="326" r="3" fill="#202256"/>
<circle cx="276" cy="326" r="3" fill="#202256"/>
<circle cx="297" cy="326" r="3" fill="#202256"/>
<circle cx="318" cy="326" r="3" fill="#202256"/>
<circle cx="339" cy="326" r="3" fill="#202256"/>
<circle cx="360" cy="326" r="3" fill="#202256"/>
<circle cx="192" cy="345" r="3" fill="#202256"/>
<circle cx="213" cy="345" r="3" fill="#202256"/>
<circle cx="234" cy="345" r="3" fill="#202256"/>
<circle cx="255" cy="345" r="3" fill="#202256"/>
<circle cx="276" cy="345" r="3" fill="#202256"/>
<circle cx="297" cy="345" r="3" fill="#202256"/>
<circle cx="318" cy="345" r="3" fill="#202256"/>
<circle cx="339" cy="345" r="3" fill="#202256"/>
<circle cx="360" cy="345" r="3" fill="#202256"/>
<circle cx="192" cy="364" r="3" fill="#202256"/>
<circle cx="213" cy="364" r="3" fill="#202256"/>
<circle cx="234" cy="364" r="3" fill="#202256"/>
<circle cx="255" cy="364" r="3" fill="#202256"/>
<circle cx="276" cy="364" r="3" fill="#202256"/>
<circle cx="297" cy="364" r="3" fill="#202256"/>
<circle cx="318" cy="364" r="3" fill="#202256"/>
<circle cx="339" cy="364" r="3" fill="#202256"/>
<circle cx="360" cy="364" r="3" fill="#202256"/>
<circle cx="192" cy="383" r="3" fill="#202256"/>
<circle cx="213" cy="383" r="3" fill="#202256"/>
<circle cx="234" cy="383" r="3" fill="#202256"/>
<circle cx="255" cy="383" r="3" fill="#202256"/>
<circle cx="276" cy="383" r="3" fill="#202256"/>
<circle cx="297" cy="383" r="3" fill="#202256"/>
<circle cx="318" cy="383" r="3" fill="#202256"/>
<circle cx="339" cy="383" r="3" fill="#202256"/>
<circle cx="360" cy="383" r="3" fill="#202256"/>
<circle cx="192" cy="402" r="3" fill="#202256"/>
<circle cx="213" cy="402" r="3" fill="#202256"/>
<circle cx="234" cy="402" r="3" fill="#202256"/>
<circle cx="255" cy="402" r="3" fill="#202256"/>
<circle cx="276" cy="402" r="3" fill="#202256"/>
<circle cx="297" cy="402" r="3" fill="#202256"/>
<circle cx="318" cy="402" r="3" fill="#202256"/>
<circle cx="339" cy="402" r="3" fill="#202256"/>
<circle cx="360" cy="402" r="3" fill="#202256"/>
<circle cx="192" cy="421" r="3" fill="#202256"/>
<circle cx="213" cy="421" r="3" fill="#202256"/>
<circle cx="234" cy="421" r="3" fill="#202256"/>
<circle cx="255" cy="421" r="3" fill="#202256"/>
<circle cx="276" cy="421" r="3" fill="#202256"/>
<circle cx="297" cy="421" r="3" fill="#202256"/>
<circle cx="318" cy="421" r="3" fill="#202256"/>
<circle cx="339" cy="421" r="3" fill="#202256"/>
<circle cx="360" cy="421" r="3" fill="#202256"/>
<circle cx="192" cy="440" r="3" fill="#202256"/>
<circle cx="213" cy="440" r="3" fill="#202256"/>
<circle cx="234" cy="440" r="3" fill="#202256"/>
<circle cx="255" cy="440" r="3" fill="#202256"/>
<circle cx="276" cy="440" r="3" fill="#202256"/>
<circle cx="297" cy="440" r="3" fill="#202256"/>
<circle cx="318" cy="440" r="3" fill="#202256"/>
<circle cx="339" cy="440" r="3" fill="#202256"/>
<circle cx="360" cy="440" r="3" fill="#202256"/>
<circle cx="192" cy="459" r="3" fill="#202256"/>
<circle cx="213" cy="459" r="3" fill="#202256"/>
<circle cx="234" cy="459" r="3" fill="#202256"/>
<circle cx="255" cy="459" r="3" fill="#202256"/>
<circle cx="276" cy="459" r="3" fill="#202256"/>
<circle cx="297" cy="459" r="3" fill="#202256"/>
<circle cx="318" cy="459" r="3" fill="#202256"/>
<circle cx="339" cy="459" r="3" fill="#202256"/>
<circle cx="360" cy="459" r="3" fill="#202256"/>
<circle cx="192" cy="478" r="3" fill="#202256"/>
<circle cx="213" cy="478" r="3" fill="#202256"/>
<circle cx="234" cy="478" r="3" fill="#202256"/>
<circle cx="255" cy="478" r="3" fill="#202256"/>
<circle cx="276" cy="478" r="3" fill="#202256"/>
<circle cx="297" cy="478" r="3" fill="#202256"/>
<circle cx="318" cy="478" r="3" fill="#202256"/>
<circle cx="339" cy="478" r="3" fill="#202256"/>
<circle cx="360" cy="478" r="3" fill="#202256"/>
<circle cx="192" cy="497" r="3" fill="#202256"/>
<circle cx="213" cy="497" r="3" fill="#202256"/>
<circle cx="234" cy="497" r="3" fill="#202256"/>
<circle cx="255" cy="497" r="3" fill="#202256"/>
<circle cx="276" cy="497" r="3" fill="#202256"/>
<circle cx="297" cy="497" r="3" fill="#202256"/>
<circle cx="318" cy="497" r="3" fill="#202256"/>
<circle cx="339" cy="497" r="3" fill="#202256"/>
<circle cx="360" cy="497" r="3" fill="#202256"/>
<circle cx="192" cy="516" r="3" fill="#202256"/>
<circle cx="213" cy="516" r="3" fill="#202256"/>
<circle cx="234" cy="516" r="3" fill="#202256"/>
<circle cx="255" cy="516" r="3" fill="#202256"/>
<circle cx="276" cy="516" r="3" fill="#202256"/>
<circle cx="297" cy="516" r="3" fill="#202256"/>
<circle cx="318" cy="516" r="3" fill="#202256"/>
<circle cx="339" cy="516" r="3" fill="#202256"/>
<circle cx="360" cy="516" r="3" fill="#202256"/>
<circle cx="192" cy="535" r="3" fill="#202256"/>
<circle cx="213" cy="535" r="3" fill="#202256"/>
<circle cx="234" cy="535" r="3" fill="#202256"/>
<circle cx="255" cy="535" r="3" fill="#202256"/>
<circle cx="276" cy="535" r="3" fill="#202256"/>
<circle cx="297" cy="535" r="3" fill="#202256"/>
<circle cx="318" cy="535" r="3" fill="#202256"/>
<circle cx="339" cy="535" r="3" fill="#202256"/>
<circle cx="360" cy="535" r="3" fill="#202256"/>
<circle cx="192" cy="554" r="3" fill="#202256"/>
<circle cx="213" cy="554" r="3" fill="#202256"/>
<circle cx="234" cy="554" r="3" fill="#202256"/>
<circle cx="255" cy="554" r="3" fill="#202256"/>
<circle cx="276" cy="554" r="3" fill="#202256"/>
<circle cx="297" cy="554" r="3" fill="#202256"/>
<circle cx="318" cy="554" r="3" fill="#202256"/>
<circle cx="339" cy="554" r="3" fill="#202256"/>
<circle cx="360" cy="554" r="3" fill="#202256"/>
<circle cx="3" cy="3" r="3" fill="#202256"/>
<circle cx="24" cy="3" r="3" fill="#202256"/>
<circle cx="45" cy="3" r="3" fill="#202256"/>
<circle cx="66" cy="3" r="3" fill="#202256"/>
<circle cx="87" cy="3" r="3" fill="#202256"/>
<circle cx="108" cy="3" r="3" fill="#202256"/>
<circle cx="129" cy="3" r="3" fill="#202256"/>
<circle cx="150" cy="3" r="3" fill="#202256"/>
<circle cx="171" cy="3" r="3" fill="#202256"/>
<circle cx="3" cy="22" r="3" fill="#202256"/>
<circle cx="24" cy="22" r="3" fill="#202256"/>
<circle cx="45" cy="22" r="3" fill="#202256"/>
<circle cx="66" cy="22" r="3" fill="#202256"/>
<circle cx="87" cy="22" r="3" fill="#202256"/>
<circle cx="108" cy="22" r="3" fill="#202256"/>
<circle cx="129" cy="22" r="3" fill="#202256"/>
<circle cx="150" cy="22" r="3" fill="#202256"/>
<circle cx="171" cy="22" r="3" fill="#202256"/>
<circle cx="3" cy="41" r="3" fill="#202256"/>
<circle cx="24" cy="41" r="3" fill="#202256"/>
<circle cx="45" cy="41" r="3" fill="#202256"/>
<circle cx="66" cy="41" r="3" fill="#202256"/>
<circle cx="87" cy="41" r="3" fill="#202256"/>
<circle cx="108" cy="41" r="3" fill="#202256"/>
<circle cx="129" cy="41" r="3" fill="#202256"/>
<circle cx="150" cy="41" r="3" fill="#202256"/>
<circle cx="171" cy="41" r="3" fill="#202256"/>
<circle cx="3" cy="60" r="3" fill="#202256"/>
<circle cx="24" cy="60" r="3" fill="#202256"/>
<circle cx="45" cy="60" r="3" fill="#202256"/>
<circle cx="66" cy="60" r="3" fill="#202256"/>
<circle cx="87" cy="60" r="3" fill="#202256"/>
<circle cx="108" cy="60" r="3" fill="#202256"/>
<circle cx="129" cy="60" r="3" fill="#202256"/>
<circle cx="150" cy="60" r="3" fill="#202256"/>
<circle cx="171" cy="60" r="3" fill="#202256"/>
<circle cx="3" cy="79" r="3" fill="#202256"/>
<circle cx="24" cy="79" r="3" fill="#202256"/>
<circle cx="45" cy="79" r="3" fill="#202256"/>
<circle cx="66" cy="79" r="3" fill="#202256"/>
<circle cx="87" cy="79" r="3" fill="#202256"/>
<circle cx="108" cy="79" r="3" fill="#202256"/>
<circle cx="129" cy="79" r="3" fill="#202256"/>
<circle cx="150" cy="79" r="3" fill="#202256"/>
<circle cx="171" cy="79" r="3" fill="#202256"/>
<circle cx="3" cy="98" r="3" fill="#202256"/>
<circle cx="24" cy="98" r="3" fill="#202256"/>
<circle cx="45" cy="98" r="3" fill="#202256"/>
<circle cx="66" cy="98" r="3" fill="#202256"/>
<circle cx="87" cy="98" r="3" fill="#202256"/>
<circle cx="108" cy="98" r="3" fill="#202256"/>
<circle cx="129" cy="98" r="3" fill="#202256"/>
<circle cx="150" cy="98" r="3" fill="#202256"/>
<circle cx="171" cy="98" r="3" fill="#202256"/>
<circle cx="3" cy="117" r="3" fill="#202256"/>
<circle cx="24" cy="117" r="3" fill="#202256"/>
<circle cx="45" cy="117" r="3" fill="#202256"/>
<circle cx="66" cy="117" r="3" fill="#202256"/>
<circle cx="87" cy="117" r="3" fill="#202256"/>
<circle cx="108" cy="117" r="3" fill="#202256"/>
<circle cx="129" cy="117" r="3" fill="#202256"/>
<circle cx="150" cy="117" r="3" fill="#202256"/>
<circle cx="171" cy="117" r="3" fill="#202256"/>
<circle cx="3" cy="136" r="3" fill="#202256"/>
<circle cx="24" cy="136" r="3" fill="#202256"/>
<circle cx="45" cy="136" r="3" fill="#202256"/>
<circle cx="66" cy="136" r="3" fill="#202256"/>
<circle cx="87" cy="136" r="3" fill="#202256"/>
<circle cx="108" cy="136" r="3" fill="#202256"/>
<circle cx="129" cy="136" r="3" fill="#202256"/>
<circle cx="150" cy="136" r="3" fill="#202256"/>
<circle cx="171" cy="136" r="3" fill="#202256"/>
<circle cx="3" cy="155" r="3" fill="#202256"/>
<circle cx="24" cy="155" r="3" fill="#202256"/>
<circle cx="45" cy="155" r="3" fill="#202256"/>
<circle cx="66" cy="155" r="3" fill="#202256"/>
<circle cx="87" cy="155" r="3" fill="#202256"/>
<circle cx="108" cy="155" r="3" fill="#202256"/>
<circle cx="129" cy="155" r="3" fill="#202256"/>
<circle cx="150" cy="155" r="3" fill="#202256"/>
<circle cx="171" cy="155" r="3" fill="#202256"/>
<circle cx="3" cy="174" r="3" fill="#202256"/>
<circle cx="24" cy="174" r="3" fill="#202256"/>
<circle cx="45" cy="174" r="3" fill="#202256"/>
<circle cx="66" cy="174" r="3" fill="#202256"/>
<circle cx="87" cy="174" r="3" fill="#202256"/>
<circle cx="108" cy="174" r="3" fill="#202256"/>
<circle cx="129" cy="174" r="3" fill="#202256"/>
<circle cx="150" cy="174" r="3" fill="#202256"/>
<circle cx="171" cy="174" r="3" fill="#202256"/>
<circle cx="3" cy="193" r="3" fill="#202256"/>
<circle cx="24" cy="193" r="3" fill="#202256"/>
<circle cx="45" cy="193" r="3" fill="#202256"/>
<circle cx="66" cy="193" r="3" fill="#202256"/>
<circle cx="87" cy="193" r="3" fill="#202256"/>
<circle cx="108" cy="193" r="3" fill="#202256"/>
<circle cx="129" cy="193" r="3" fill="#202256"/>
<circle cx="150" cy="193" r="3" fill="#202256"/>
<circle cx="171" cy="193" r="3" fill="#202256"/>
<circle cx="3" cy="212" r="3" fill="#202256"/>
<circle cx="24" cy="212" r="3" fill="#202256"/>
<circle cx="45" cy="212" r="3" fill="#202256"/>
<circle cx="66" cy="212" r="3" fill="#202256"/>
<circle cx="87" cy="212" r="3" fill="#202256"/>
<circle cx="108" cy="212" r="3" fill="#202256"/>
<circle cx="129" cy="212" r="3" fill="#202256"/>
<circle cx="150" cy="212" r="3" fill="#202256"/>
<circle cx="171" cy="212" r="3" fill="#202256"/>
<circle cx="3" cy="231" r="3" fill="#202256"/>
<circle cx="24" cy="231" r="3" fill="#202256"/>
<circle cx="45" cy="231" r="3" fill="#202256"/>
<circle cx="66" cy="231" r="3" fill="#202256"/>
<circle cx="87" cy="231" r="3" fill="#202256"/>
<circle cx="108" cy="231" r="3" fill="#202256"/>
<circle cx="129" cy="231" r="3" fill="#202256"/>
<circle cx="150" cy="231" r="3" fill="#202256"/>
<circle cx="171" cy="231" r="3" fill="#202256"/>
<circle cx="3" cy="250" r="3" fill="#202256"/>
<circle cx="24" cy="250" r="3" fill="#202256"/>
<circle cx="45" cy="250" r="3" fill="#202256"/>
<circle cx="66" cy="250" r="3" fill="#202256"/>
<circle cx="87" cy="250" r="3" fill="#202256"/>
<circle cx="108" cy="250" r="3" fill="#202256"/>
<circle cx="129" cy="250" r="3" fill="#202256"/>
<circle cx="150" cy="250" r="3" fill="#202256"/>
<circle cx="171" cy="250" r="3" fill="#202256"/>
<circle cx="3" cy="269" r="3" fill="#202256"/>
<circle cx="24" cy="269" r="3" fill="#202256"/>
<circle cx="45" cy="269" r="3" fill="#202256"/>
<circle cx="66" cy="269" r="3" fill="#202256"/>
<circle cx="87" cy="269" r="3" fill="#202256"/>
<circle cx="108" cy="269" r="3" fill="#202256"/>
<circle cx="129" cy="269" r="3" fill="#202256"/>
<circle cx="150" cy="269" r="3" fill="#202256"/>
<circle cx="171" cy="269" r="3" fill="#202256"/>
<circle cx="3" cy="288" r="3" fill="#202256"/>
<circle cx="24" cy="288" r="3" fill="#202256"/>
<circle cx="45" cy="288" r="3" fill="#202256"/>
<circle cx="66" cy="288" r="3" fill="#202256"/>
<circle cx="87" cy="288" r="3" fill="#202256"/>
<circle cx="108" cy="288" r="3" fill="#202256"/>
<circle cx="129" cy="288" r="3" fill="#202256"/>
<circle cx="150" cy="288" r="3" fill="#202256"/>
<circle cx="171" cy="288" r="3" fill="#202256"/>
<circle cx="3" cy="307" r="3" fill="#202256"/>
<circle cx="24" cy="307" r="3" fill="#202256"/>
<circle cx="45" cy="307" r="3" fill="#202256"/>
<circle cx="66" cy="307" r="3" fill="#202256"/>
<circle cx="87" cy="307" r="3" fill="#202256"/>
<circle cx="108" cy="307" r="3" fill="#202256"/>
<circle cx="129" cy="307" r="3" fill="#202256"/>
<circle cx="150" cy="307" r="3" fill="#202256"/>
<circle cx="171" cy="307" r="3" fill="#202256"/>
<circle cx="3" cy="326" r="3" fill="#202256"/>
<circle cx="24" cy="326" r="3" fill="#202256"/>
<circle cx="45" cy="326" r="3" fill="#202256"/>
<circle cx="66" cy="326" r="3" fill="#202256"/>
<circle cx="87" cy="326" r="3" fill="#202256"/>
<circle cx="108" cy="326" r="3" fill="#202256"/>
<circle cx="129" cy="326" r="3" fill="#202256"/>
<circle cx="150" cy="326" r="3" fill="#202256"/>
<circle cx="171" cy="326" r="3" fill="#202256"/>
<circle cx="3" cy="345" r="3" fill="#202256"/>
<circle cx="24" cy="345" r="3" fill="#202256"/>
<circle cx="45" cy="345" r="3" fill="#202256"/>
<circle cx="66" cy="345" r="3" fill="#202256"/>
<circle cx="87" cy="345" r="3" fill="#202256"/>
<circle cx="108" cy="345" r="3" fill="#202256"/>
<circle cx="129" cy="345" r="3" fill="#202256"/>
<circle cx="150" cy="345" r="3" fill="#202256"/>
<circle cx="171" cy="345" r="3" fill="#202256"/>
<circle cx="3" cy="364" r="3" fill="#202256"/>
<circle cx="24" cy="364" r="3" fill="#202256"/>
<circle cx="45" cy="364" r="3" fill="#202256"/>
<circle cx="66" cy="364" r="3" fill="#202256"/>
<circle cx="87" cy="364" r="3" fill="#202256"/>
<circle cx="108" cy="364" r="3" fill="#202256"/>
<circle cx="129" cy="364" r="3" fill="#202256"/>
<circle cx="150" cy="364" r="3" fill="#202256"/>
<circle cx="171" cy="364" r="3" fill="#202256"/>
</svg>
