<svg width="38" height="38" viewBox="0 0 38 38" fill="none" xmlns="http://www.w3.org/2000/svg">
<path d="M36.1004 19C36.1004 28.4478 28.4439 36.1 19.0004 36.1C13.7122 36.1 8.98407 33.7018 5.85048 29.9312C3.3838 26.9686 1.90039 23.1596 1.90039 19C1.90039 9.55654 9.5569 1.90002 19.0004 1.90002C23.0873 1.90002 26.8407 3.33642 29.7819 5.73469C33.638 8.86399 36.1004 13.6434 36.1004 19Z" fill="#F4C85B"/>
<path d="M21.0983 31.9704C28.2595 30.8096 33.1237 24.0631 31.9628 16.9019C30.802 9.74066 24.0555 4.87642 16.8943 6.03731C9.73306 7.1982 4.86882 13.9446 6.02971 21.1058C7.1906 28.2671 13.937 33.1313 21.0983 31.9704Z" fill="#EFB250"/>
<path d="M25.4728 19.8388C25.2095 19.4908 24.8748 19.2007 24.4777 18.9687C24.1787 18.7902 23.844 18.6474 23.4737 18.5403C24.1475 18.21 24.6473 17.7727 24.982 17.2328C25.3122 16.6928 25.4773 16.1172 25.4773 15.5014C25.4773 14.8454 25.2898 14.2162 24.915 13.6138C24.5402 13.0113 24.0225 12.5651 23.3621 12.275C22.8623 12.0519 22.2376 11.918 21.4879 11.8645V10.0795H19.6047V11.8377H18.6542V10.0795H16.7756V11.8377H15.9768V11.8333H13.875V13.52H15.3565V24.4708H13.875V26.1576H15.3565V26.1621H16.7756V27.9247H18.6542V26.1621H19.6047V27.9247H21.4879V26.1487C22.1126 26.1175 22.6615 26.0416 23.1301 25.9211C23.7548 25.7649 24.2814 25.5284 24.6964 25.2161C25.1114 24.9037 25.4639 24.4574 25.745 23.8818C26.0306 23.3062 26.1734 22.6814 26.1734 22.012C26.1734 21.1776 25.9369 20.4547 25.4728 19.8388ZM17.2531 13.529H20.1135C21.1443 13.529 21.8716 13.5959 22.2911 13.7298C22.7151 13.8637 23.0408 14.1091 23.2684 14.4705C23.496 14.832 23.612 15.2515 23.612 15.7289C23.612 16.2287 23.4915 16.6437 23.2461 16.9784C23.0007 17.3087 22.6392 17.5496 22.1572 17.6924C21.7913 17.804 21.1889 17.8575 20.35 17.8575H17.2531V13.529ZM23.9243 23.2169C23.7369 23.565 23.496 23.8327 23.2014 24.0112C22.9069 24.1942 22.5455 24.3236 22.1082 24.4039C21.8583 24.4485 21.4299 24.4708 20.8185 24.4708H17.2531V19.5488H20.5642C21.4745 19.5488 22.1751 19.6291 22.6615 19.7853C22.9515 19.8835 23.2014 20.0218 23.4201 20.2003C23.5629 20.3208 23.6879 20.4591 23.7994 20.6198C24.0716 21.0125 24.21 21.4765 24.21 22.012C24.21 22.4672 24.1118 22.8688 23.9243 23.2169Z" fill="#CC903A"/>
<path d="M25.0539 19.8388C24.7906 19.4908 24.4559 19.2007 24.0588 18.9687C23.7598 18.7902 23.4251 18.6474 23.0547 18.5403C23.7285 18.21 24.2283 17.7727 24.563 17.2328C24.8932 16.6928 25.0583 16.1172 25.0583 15.5014C25.0583 14.8454 24.8709 14.2162 24.4961 13.6138C24.1212 13.0113 23.6036 12.5651 22.9432 12.275C22.4434 12.0519 21.8186 11.918 21.0689 11.8645V10.0795H19.1858V11.8377H18.2353V10.0795H16.3566V11.8377H15.5578V11.8333H13.4561V13.52H14.9376V24.4708H13.4561V26.1576H14.9376V26.1621H16.3566V27.9247H18.2353V26.1621H19.1858V27.9247H21.0689V26.1487C21.6937 26.1175 22.2426 26.0416 22.7111 25.9211C23.3358 25.7649 23.8624 25.5284 24.2774 25.2161C24.6924 24.9037 25.0449 24.4574 25.3261 23.8818C25.6117 23.3062 25.7545 22.6814 25.7545 22.012C25.7545 21.1776 25.518 20.4547 25.0539 19.8388ZM16.8341 13.529H19.6945C20.7253 13.529 21.4527 13.5959 21.8722 13.7298C22.2961 13.8637 22.6218 14.1091 22.8494 14.4705C23.077 14.832 23.193 15.2515 23.193 15.7289C23.193 16.2287 23.0726 16.6437 22.8271 16.9784C22.5817 17.3087 22.2202 17.5496 21.7383 17.6924C21.3724 17.804 20.77 17.8575 19.931 17.8575H16.8341V13.529ZM23.5054 23.2169C23.318 23.565 23.077 23.8327 22.7825 24.0112C22.488 24.1942 22.1265 24.3236 21.6892 24.4039C21.4393 24.4485 21.0109 24.4708 20.3996 24.4708H16.8341V19.5488H20.1452C21.0555 19.5488 21.7561 19.6291 22.2426 19.7853C22.5326 19.8835 22.7825 20.0218 23.0012 20.2003C23.1439 20.3208 23.2689 20.4591 23.3805 20.6198C23.6527 21.0125 23.791 21.4765 23.791 22.012C23.791 22.4672 23.6928 22.8688 23.5054 23.2169Z" fill="#FCD462"/>
</svg>
