<svg width="16" height="16" viewBox="0 0 16 16" fill="none" xmlns="http://www.w3.org/2000/svg">
<path d="M10.5 1C10.5 0.585786 10.1642 0.25 9.75 0.25C9.33579 0.25 9 0.585786 9 1H10.5ZM9 2.75C9 3.16421 9.33579 3.5 9.75 3.5C10.1642 3.5 10.5 3.16421 10.5 2.75H9ZM13.125 1C13.125 0.585786 12.7892 0.25 12.375 0.25C11.9608 0.25 11.625 0.585786 11.625 1H13.125ZM11.625 2.75C11.625 3.16421 11.9608 3.5 12.375 3.5C12.7892 3.5 13.125 3.16421 13.125 2.75H11.625ZM7 1C7 0.585786 6.66421 0.25 6.25 0.25C5.83579 0.25 5.5 0.585786 5.5 1H7ZM5.5 2.75C5.5 3.16421 5.83579 3.5 6.25 3.5C6.66421 3.5 7 3.16421 7 2.75H5.5ZM4.375 1C4.375 0.585786 4.03921 0.25 3.625 0.25C3.21079 0.25 2.875 0.585786 2.875 1H4.375ZM2.875 2.75C2.875 3.16421 3.21079 3.5 3.625 3.5C4.03921 3.5 4.375 3.16421 4.375 2.75H2.875ZM7.125 9.84375C7.53921 9.84375 7.875 9.50796 7.875 9.09375C7.875 8.67954 7.53921 8.34375 7.125 8.34375V9.84375ZM3.625 8.34375C3.21079 8.34375 2.875 8.67954 2.875 9.09375C2.875 9.50796 3.21079 9.84375 3.625 9.84375V8.34375ZM10.625 7.21875C11.0392 7.21875 11.375 6.88296 11.375 6.46875C11.375 6.05454 11.0392 5.71875 10.625 5.71875V7.21875ZM3.625 5.71875C3.21079 5.71875 2.875 6.05454 2.875 6.46875C2.875 6.88296 3.21079 7.21875 3.625 7.21875V5.71875ZM8.875 12.4688C9.28922 12.4688 9.625 12.133 9.625 11.7188C9.625 11.3045 9.28922 10.9688 8.875 10.9688V12.4688ZM3.625 10.9688C3.21079 10.9688 2.875 11.3045 2.875 11.7188C2.875 12.133 3.21079 12.4688 3.625 12.4688V10.9688ZM14.25 3.625V13.25H15.75V3.625H14.25ZM13.25 14.25H2.75V15.75H13.25V14.25ZM1.75 13.25V3.625H0.25V13.25H1.75ZM13.25 1.125H2.75V2.625H13.25V1.125ZM2.75 14.25C2.19772 14.25 1.75 13.8023 1.75 13.25H0.25C0.25 14.6307 1.36929 15.75 2.75 15.75V14.25ZM14.25 13.25C14.25 13.8023 13.8023 14.25 13.25 14.25V15.75C14.6307 15.75 15.75 14.6307 15.75 13.25H14.25ZM15.75 3.625C15.75 2.24429 14.6307 1.125 13.25 1.125V2.625C13.8023 2.625 14.25 3.07272 14.25 3.625H15.75ZM1.75 3.625C1.75 3.07272 2.19772 2.625 2.75 2.625V1.125C1.36929 1.125 0.25 2.24429 0.25 3.625H1.75ZM9 1V2.75H10.5V1H9ZM11.625 1V2.75H13.125V1H11.625ZM5.5 1V2.75H7V1H5.5ZM2.875 1V2.75H4.375V1H2.875ZM7.125 8.34375H3.625V9.84375H7.125V8.34375ZM10.625 5.71875H3.625V7.21875H10.625V5.71875ZM8.875 10.9688H3.625V12.4688H8.875V10.9688Z" fill="white"/>
</svg>
