<svg width="68" height="68" viewBox="0 0 68 68" fill="none" xmlns="http://www.w3.org/2000/svg">
<circle cx="34" cy="34" r="33" stroke="url(#paint0_linear)" stroke-width="2"/>
<path d="M43.5441 22.7957L44.6372 22.1894L43.5441 22.7957ZM46.5127 28.1479L45.4196 28.7542L46.5127 28.1479ZM46.346 32.2264L47.3834 32.9238V32.9238L46.346 32.2264ZM36.7653 46.4768L35.7279 45.7793H35.7279L36.7653 46.4768ZM31.2347 46.4768L30.1974 47.1742H30.1974L31.2347 46.4768ZM21.654 32.2264L20.6166 32.9238L20.6166 32.9238L21.654 32.2264ZM21.4873 28.1479L20.3942 27.5416L21.4873 28.1479ZM24.4559 22.7957L23.3628 22.1894L23.3628 22.1894L24.4559 22.7957ZM46.8221 31.4968C47.5125 31.4968 48.0721 30.9372 48.0721 30.2468C48.0721 29.5565 47.5125 28.9968 46.8221 28.9968V31.4968ZM21.1779 28.9968C20.4875 28.9968 19.9279 29.5565 19.9279 30.2468C19.9279 30.9372 20.4875 31.4968 21.1779 31.4968V28.9968ZM39.1288 30.2468L40.3234 30.6149L40.4138 30.3215L40.358 30.0196L39.1288 30.2468ZM38.6484 20.7727C38.5229 20.0939 37.8708 19.6453 37.192 19.7708C36.5131 19.8963 36.0645 20.5484 36.1901 21.2273L38.6484 20.7727ZM34 46.8911L32.8054 47.2592C32.967 47.7834 33.4514 48.1411 34 48.1411C34.5486 48.1411 35.033 47.7834 35.1946 47.2592L34 46.8911ZM28.8712 30.2468L27.642 30.0196L27.5862 30.3215L27.6766 30.6149L28.8712 30.2468ZM31.8099 21.2273C31.9355 20.5484 31.4869 19.8963 30.808 19.7708C30.1292 19.6453 29.4771 20.0939 29.3516 20.7727L31.8099 21.2273ZM40.6121 19.75H27.3879V22.25H40.6121V19.75ZM42.451 23.4021L45.4196 28.7542L47.6058 27.5416L44.6372 22.1894L42.451 23.4021ZM45.3087 31.5289L35.7279 45.7793L37.8026 47.1742L47.3834 32.9238L45.3087 31.5289ZM32.2721 45.7793L22.6913 31.5289L20.6166 32.9238L30.1974 47.1742L32.2721 45.7793ZM22.5804 28.7542L25.549 23.4021L23.3628 22.1894L20.3942 27.5416L22.5804 28.7542ZM22.6913 31.5289C22.1484 30.7214 22.1005 29.6194 22.5804 28.7542L20.3942 27.5416C19.4624 29.2215 19.5457 31.3309 20.6166 32.9238L22.6913 31.5289ZM45.4196 28.7542C45.8995 29.6194 45.8516 30.7214 45.3087 31.5289L47.3834 32.9238C48.4543 31.3309 48.5376 29.2215 47.6058 27.5416L45.4196 28.7542ZM35.7279 45.7793C34.8578 47.0736 33.1422 47.0736 32.2721 45.7793L30.1974 47.1742C32.0582 49.9419 35.9418 49.9419 37.8026 47.1742L35.7279 45.7793ZM40.6121 22.25C41.3259 22.25 42.0369 22.6555 42.451 23.4021L44.6372 22.1894C43.8155 20.7079 42.3005 19.75 40.6121 19.75V22.25ZM27.3879 19.75C25.6995 19.75 24.1845 20.7079 23.3628 22.1894L25.549 23.4021C25.9631 22.6555 26.6741 22.25 27.3879 22.25V19.75ZM46.8221 28.9968H21.1779V31.4968H46.8221V28.9968ZM40.358 30.0196L38.6484 20.7727L36.1901 21.2273L37.8997 30.4741L40.358 30.0196ZM37.9343 29.8787L32.8054 46.523L35.1946 47.2592L40.3234 30.6149L37.9343 29.8787ZM30.1003 30.4741L31.8099 21.2273L29.3516 20.7727L27.642 30.0196L30.1003 30.4741ZM27.6766 30.6149L32.8054 47.2592L35.1946 46.523L30.0657 29.8787L27.6766 30.6149Z" fill="#29A3E8"/>
<defs>
<linearGradient id="paint0_linear" x1="9.35" y1="7.65" x2="62.9" y2="68" gradientUnits="userSpaceOnUse">
<stop offset="0.305602" stop-color="#191B46" stop-opacity="0"/>
<stop offset="1" stop-color="#29A3E8"/>
</linearGradient>
</defs>
</svg>
