<svg width="24" height="24" viewBox="0 0 24 24" fill="none" xmlns="http://www.w3.org/2000/svg">
<path d="M19.9655 19.2069V19.9655C19.9655 21.6414 18.6069 23 16.931 23H4.03448C2.35858 23 1 21.6414 1 19.9655V7.06897C1 5.39307 2.35858 4.03448 4.03448 4.03448H4.7931M19.9655 19.2069H7.82759C6.15169 19.2069 4.7931 17.8483 4.7931 16.1724V4.03448M19.9655 19.2069C21.6414 19.2069 23 17.8483 23 16.1724V8.58621M4.7931 4.03448C4.7931 2.35858 6.15169 1 7.82759 1H15.4138M23 8.58621H18.4483C16.7724 8.58621 15.4138 7.22762 15.4138 5.55172V1M23 8.58621L15.4138 1" stroke="#6B6EAF" stroke-width="1.5" stroke-linecap="round" stroke-linejoin="round"/>
</svg>
