<svg width="68" height="68" viewBox="0 0 68 68" fill="none" xmlns="http://www.w3.org/2000/svg">
<circle cx="34" cy="34" r="33" stroke="url(#paint0_linear)" stroke-width="2"/>
<path d="M36.8333 45.25C37.5237 45.25 38.0833 44.6904 38.0833 44C38.0833 43.3096 37.5237 42.75 36.8333 42.75V45.25ZM45.0833 34.5C45.0833 35.1904 45.643 35.75 46.3333 35.75C47.0237 35.75 47.5833 35.1904 47.5833 34.5H45.0833ZM21 28.5C20.3096 28.5 19.75 29.0596 19.75 29.75C19.75 30.4404 20.3096 31 21 31V28.5ZM46.3333 31C47.0237 31 47.5833 30.4404 47.5833 29.75C47.5833 29.0596 47.0237 28.5 46.3333 28.5V31ZM25.75 38C25.0596 38 24.5 38.5596 24.5 39.25C24.5 39.9404 25.0596 40.5 25.75 40.5V38ZM32.0833 40.5C32.7737 40.5 33.3333 39.9404 33.3333 39.25C33.3333 38.5596 32.7737 38 32.0833 38V40.5ZM46.2897 39.478C46.7779 38.9899 46.7779 38.1984 46.2897 37.7103C45.8016 37.2221 45.0101 37.2221 44.522 37.7103L46.2897 39.478ZM40.0436 42.1886C39.5555 42.6768 39.5555 43.4682 40.0436 43.9564C40.5318 44.4445 41.3232 44.4445 41.8114 43.9564L40.0436 42.1886ZM44.522 43.9564C45.0101 44.4445 45.8016 44.4445 46.2897 43.9564C46.7779 43.4682 46.7779 42.6768 46.2897 42.1886L44.522 43.9564ZM41.8114 37.7103C41.3232 37.2221 40.5318 37.2221 40.0436 37.7103C39.5555 38.1984 39.5555 38.9899 40.0436 39.478L41.8114 37.7103ZM22.25 40.8333V28.1667H19.75V40.8333H22.25ZM43.1667 23.75H24.1667V26.25H43.1667V23.75ZM36.8333 42.75H24.1667V45.25H36.8333V42.75ZM45.0833 28.1667V34.5H47.5833V28.1667H45.0833ZM19.75 40.8333C19.75 43.2726 21.7274 45.25 24.1667 45.25V42.75C23.1081 42.75 22.25 41.8919 22.25 40.8333H19.75ZM43.1667 26.25C44.2252 26.25 45.0833 27.1081 45.0833 28.1667H47.5833C47.5833 25.7274 45.6059 23.75 43.1667 23.75V26.25ZM22.25 28.1667C22.25 27.1081 23.1081 26.25 24.1667 26.25V23.75C21.7274 23.75 19.75 25.7274 19.75 28.1667H22.25ZM21 31H46.3333V28.5H21V31ZM25.75 40.5H32.0833V38H25.75V40.5ZM44.522 37.7103L40.0436 42.1886L41.8114 43.9564L46.2897 39.478L44.522 37.7103ZM46.2897 42.1886L41.8114 37.7103L40.0436 39.478L44.522 43.9564L46.2897 42.1886Z" fill="#FF7D7D"/>
<defs>
<linearGradient id="paint0_linear" x1="9.35" y1="7.65" x2="62.9" y2="68" gradientUnits="userSpaceOnUse">
<stop offset="0.305602" stop-color="#191B46" stop-opacity="0"/>
<stop offset="1" stop-color="#FF7D7D"/>
</linearGradient>
</defs>
</svg>
