<svg width="68" height="68" viewBox="0 0 68 68" fill="none" xmlns="http://www.w3.org/2000/svg">
<circle cx="34" cy="34" r="33" stroke="url(#paint0_linear)" stroke-width="2"/>
<path d="M27.3879 19.75C26.6975 19.75 26.1379 20.3096 26.1379 21C26.1379 21.6904 26.6975 22.25 27.3879 22.25V19.75ZM43.5441 22.7957L44.6372 22.1894V22.1894L43.5441 22.7957ZM46.5127 28.1479L45.4196 28.7542V28.7542L46.5127 28.1479ZM46.346 32.2264L47.3834 32.9238V32.9238L46.346 32.2264ZM37.8026 47.1742C38.1878 46.6013 38.0356 45.8246 37.4627 45.4394C36.8898 45.0542 36.1131 45.2064 35.7279 45.7793L37.8026 47.1742ZM31.2347 46.4768L30.1974 47.1742L31.2347 46.4768ZM21.654 32.2264L20.6166 32.9238H20.6166L21.654 32.2264ZM22.5804 28.7542C22.9152 28.1505 22.6973 27.3896 22.0936 27.0548C21.4899 26.7199 20.729 26.9379 20.3942 27.5416L22.5804 28.7542ZM46.8221 31.4968C47.5125 31.4968 48.0721 30.9372 48.0721 30.2468C48.0721 29.5565 47.5125 28.9968 46.8221 28.9968V31.4968ZM21.1779 28.9968C20.4875 28.9968 19.9279 29.5565 19.9279 30.2468C19.9279 30.9372 20.4875 31.4968 21.1779 31.4968V28.9968ZM39.1288 30.2468L40.3234 30.6149L40.4138 30.3215L40.358 30.0196L39.1288 30.2468ZM38.6484 20.7727C38.5229 20.0939 37.8708 19.6453 37.192 19.7708C36.5131 19.8963 36.0645 20.5484 36.1901 21.2273L38.6484 20.7727ZM34 46.8911L32.8054 47.2592C32.967 47.7834 33.4514 48.1411 34 48.1411C34.5486 48.1411 35.033 47.7834 35.1946 47.2592L34 46.8911ZM28.8712 30.2468L27.642 30.0196L27.5862 30.3215L27.6766 30.6149L28.8712 30.2468ZM44.1162 33.3026C43.731 33.8755 43.8832 34.6522 44.4562 35.0373C45.0291 35.4225 45.8057 35.2703 46.1909 34.6974L44.1162 33.3026ZM30.5662 27.9544C30.6917 27.2756 30.2431 26.6235 29.5643 26.498C28.8854 26.3725 28.2334 26.821 28.1078 27.4999L30.5662 27.9544ZM40.6121 19.75H27.3879V22.25H40.6121V19.75ZM42.451 23.4021L45.4196 28.7542L47.6058 27.5416L44.6372 22.1894L42.451 23.4021ZM32.2721 45.7793L22.6913 31.5289L20.6166 32.9238L30.1974 47.1742L32.2721 45.7793ZM22.6913 31.5289C22.1484 30.7214 22.1005 29.6194 22.5804 28.7542L20.3942 27.5416C19.4624 29.2215 19.5457 31.3309 20.6166 32.9238L22.6913 31.5289ZM45.4196 28.7542C45.8995 29.6194 45.8516 30.7214 45.3087 31.5289L47.3834 32.9238C48.4543 31.3309 48.5376 29.2215 47.6058 27.5416L45.4196 28.7542ZM35.7279 45.7793C34.8578 47.0736 33.1422 47.0736 32.2721 45.7793L30.1974 47.1742C32.0582 49.9419 35.9418 49.9419 37.8026 47.1742L35.7279 45.7793ZM40.6121 22.25C41.3259 22.25 42.0369 22.6555 42.451 23.4021L44.6372 22.1894C43.8155 20.7079 42.3005 19.75 40.6121 19.75V22.25ZM46.8221 28.9968H21.1779V31.4968H46.8221V28.9968ZM40.358 30.0196L38.6484 20.7727L36.1901 21.2273L37.8997 30.4741L40.358 30.0196ZM37.9343 29.8787L32.8054 46.523L35.1946 47.2592L40.3234 30.6149L37.9343 29.8787ZM27.6766 30.6149L32.8054 47.2592L35.1946 46.523L30.0657 29.8787L27.6766 30.6149ZM45.3087 31.5289L44.1162 33.3026L46.1909 34.6974L47.3834 32.9238L45.3087 31.5289ZM30.1003 30.4741L30.5662 27.9544L28.1078 27.4999L27.642 30.0196L30.1003 30.4741Z" fill="#FF7D7D"/>
<defs>
<linearGradient id="paint0_linear" x1="9.35" y1="7.65" x2="62.9" y2="68" gradientUnits="userSpaceOnUse">
<stop offset="0.305602" stop-color="#191B46" stop-opacity="0"/>
<stop offset="1" stop-color="#FF7D7D"/>
</linearGradient>
</defs>
</svg>
