<svg width="34" height="34" viewBox="0 0 34 34" fill="none" xmlns="http://www.w3.org/2000/svg">
<g clip-path="url(#clip0)">
<path d="M17.0121 25.9207L7.57617 21.3138L17.0035 34L18.4198 32.0939V25.2312L17.0121 25.9207Z" fill="#708299"/>
<path d="M17.0036 0L6.17578 19.4288H27.8317L17.0036 0Z" fill="#708299"/>
<path d="M27.832 19.4576L17.0039 0V19.4576H27.832Z" fill="#68788E"/>
<path d="M17.0026 14.1526L16.9601 14.1323L6.17578 19.4448H6.18538L16.9697 24.7573L17.0122 24.7371L18.4189 24.0486V14.8462L17.0026 14.1526Z" fill="#3C3C47"/>
<path d="M17.0125 25.9207L17.0039 34L26.438 21.3052L17.0125 25.9207Z" fill="#68788E"/>
<path d="M27.8114 19.4448L17.0035 14.1526L16.9609 14.1323L16.9705 24.7573L17.0131 24.7371L27.821 19.4448H27.8114Z" fill="#31313B"/>
</g>
<defs>
<clipPath id="clip0">
<rect width="34" height="34" fill="white"/>
</clipPath>
</defs>
</svg>
