<svg width="68" height="68" viewBox="0 0 68 68" fill="none" xmlns="http://www.w3.org/2000/svg">
<circle cx="34" cy="33.9998" r="27.2" fill="#29A3E8"/>
<path d="M36.978 26.5303C37.2709 26.2374 37.2709 25.7626 36.978 25.4697C36.6852 25.1768 36.2103 25.1768 35.9174 25.4697L36.978 26.5303ZM29.3905 33.0572L29.9209 33.5875H29.9209L29.3905 33.0572ZM29.3905 34.9428L29.9209 34.4125L29.9209 34.4125L29.3905 34.9428ZM35.9174 42.5303C36.2103 42.8232 36.6852 42.8232 36.978 42.5303C37.2709 42.2374 37.2709 41.7626 36.978 41.4697L35.9174 42.5303ZM35.9174 25.4697L28.8602 32.5269L29.9209 33.5875L36.978 26.5303L35.9174 25.4697ZM28.8602 35.4731L35.9174 42.5303L36.978 41.4697L29.9209 34.4125L28.8602 35.4731ZM28.8602 32.5269C28.0466 33.3405 28.0466 34.6595 28.8602 35.4731L29.9209 34.4125C29.693 34.1847 29.693 33.8153 29.9209 33.5875L28.8602 32.5269Z" fill="white"/>
<circle cx="34" cy="34" r="33" stroke="url(#paint0_linear)" stroke-width="2"/>
<defs>
<linearGradient id="paint0_linear" x1="9.35" y1="7.65" x2="62.9" y2="68" gradientUnits="userSpaceOnUse">
<stop offset="0.305602" stop-color="#191B46"/>
<stop offset="1" stop-color="#29A3E8"/>
</linearGradient>
</defs>
</svg>
