<svg width="6" height="12" viewBox="0 0 6 12" fill="none" xmlns="http://www.w3.org/2000/svg">
<path d="M5.37028 1.33599C5.55585 1.13149 5.54049 0.815278 5.33599 0.629716C5.13149 0.444153 4.81528 0.459507 4.62972 0.664009L5.37028 1.33599ZM1.37967 4.98985L1.74995 5.32584H1.74995L1.37967 4.98985ZM1.37967 7.01015L1.74995 6.67416H1.74995L1.37967 7.01015ZM4.62972 11.336C4.81528 11.5405 5.13149 11.5558 5.33599 11.3703C5.54049 11.1847 5.55585 10.8685 5.37028 10.664L4.62972 11.336ZM4.62972 0.664009L1.00938 4.65386L1.74995 5.32584L5.37028 1.33599L4.62972 0.664009ZM1.00938 7.34614L4.62972 11.336L5.37028 10.664L1.74995 6.67416L1.00938 7.34614ZM1.00938 4.65386C0.330205 5.40236 0.330206 6.59764 1.00938 7.34614L1.74995 6.67416C1.41668 6.30688 1.41668 5.69312 1.74995 5.32584L1.00938 4.65386Z" fill="#191B46"/>
</svg>
