<svg width="45" height="44" viewBox="0 0 45 44" fill="none" xmlns="http://www.w3.org/2000/svg">
<path d="M25.1025 29.3334C28.0449 29.3334 30.4302 28.3231 30.4302 27.077C30.4302 25.8308 28.0449 24.8206 25.1025 24.8206C22.1602 24.8206 19.7749 25.8308 19.7749 27.077C19.7749 28.3231 22.1602 29.3334 25.1025 29.3334Z" fill="#CE7D13"/>
<path d="M19.7749 25.7607V26.8576C19.7749 27.7977 21.0911 28.5812 22.9715 28.926C23.4102 29.02 23.9117 29.0826 24.4131 29.0826C24.6325 29.0826 24.8832 29.114 25.1025 29.114C25.8547 29.114 26.5755 29.0513 27.2336 28.926C29.1139 28.5812 30.0854 27.7664 30.0854 26.8262L30.4302 25.6354C29.678 24.7892 27.3589 24.5698 25.1025 24.5698C23.2849 24.6012 20.7464 25.1966 19.7749 25.7607Z" fill="#FFC50D"/>
<g opacity="0.43">
<path opacity="0.43" d="M22.9715 26.9202V28.9259C23.4102 29.0199 23.9117 29.0826 24.4131 29.0826V26.9202H22.9715Z" fill="#FFFC8F"/>
</g>
<path d="M27.0142 28.9572V24.6324C28.5498 24.7578 29.8974 25.0085 30.4302 25.6353V26.8262C30.4302 27.7977 29.0199 28.6438 27.0142 28.9572Z" fill="#F19D00"/>
<path d="M25.1025 28.0171C28.0449 28.0171 30.4302 27.0069 30.4302 25.7607C30.4302 24.5145 28.0449 23.5043 25.1025 23.5043C22.1602 23.5043 19.7749 24.5145 19.7749 25.7607C19.7749 27.0069 22.1602 28.0171 25.1025 28.0171Z" fill="#FFD400"/>
<path d="M22.0626 27.5471C21.1538 27.265 20.4643 26.8576 20.1509 26.4189L24.4444 23.5984C24.6951 23.5984 24.9458 23.567 25.1652 23.567C26.0427 23.567 26.9202 23.661 27.6723 23.8491L22.0626 27.5471Z" fill="#FFFC8F"/>
<path d="M24.413 27.9231C23.9743 27.8918 23.5669 27.8605 23.1595 27.7664L28.7065 24.1311C29.0199 24.2565 29.3019 24.3818 29.5526 24.5385L24.413 27.9231Z" fill="#FFFC8F"/>
<path d="M25.1025 27.7664C28.0449 27.7664 30.4302 26.7561 30.4302 25.51C30.4302 24.2638 28.0449 23.2535 25.1025 23.2535C22.1602 23.2535 19.7749 24.2638 19.7749 25.51C19.7749 26.7561 22.1602 27.7664 25.1025 27.7664Z" fill="#CE7D13"/>
<path d="M19.7749 24.1937V25.2906C19.7749 26.2307 21.0911 27.0142 22.9715 27.3589C23.4102 27.453 23.9117 27.5156 24.4131 27.5156C24.6325 27.5156 24.8832 27.547 25.1025 27.547C25.8547 27.547 26.5755 27.4843 27.2336 27.3589C29.1139 27.0142 30.0854 26.1994 30.0854 25.2592L30.4302 24.0683C29.678 23.2222 27.3589 23.0028 25.1025 23.0028C23.2849 23.0341 20.7464 23.6296 19.7749 24.1937Z" fill="#FFC50D"/>
<g opacity="0.43">
<path opacity="0.43" d="M22.9715 25.3531V27.3588C23.4102 27.4529 23.9117 27.5155 24.4131 27.5155V25.3531H22.9715Z" fill="#FFFC8F"/>
</g>
<path d="M27.0142 27.3902V23.0654C28.5498 23.1908 29.8974 23.4415 30.4302 24.0683V25.2592C30.4302 26.2307 29.0199 27.0768 27.0142 27.3902Z" fill="#F19D00"/>
<path d="M25.1025 26.4501C28.0449 26.4501 30.4302 25.4398 30.4302 24.1937C30.4302 22.9475 28.0449 21.9373 25.1025 21.9373C22.1602 21.9373 19.7749 22.9475 19.7749 24.1937C19.7749 25.4398 22.1602 26.4501 25.1025 26.4501Z" fill="#FFD400"/>
<path d="M22.0626 25.9801C21.1538 25.698 20.4643 25.2906 20.1509 24.8519L24.4444 22.0313C24.6951 22.0313 24.9458 22 25.1652 22C26.0427 22 26.9202 22.094 27.6723 22.2821L22.0626 25.9801Z" fill="#FFFC8F"/>
<path d="M24.413 26.3561C23.9743 26.3248 23.5669 26.2934 23.1595 26.1994L28.7065 22.5641C29.0199 22.6894 29.3019 22.8148 29.5526 22.9715L24.413 26.3561Z" fill="#FFFC8F"/>
<path d="M25.1025 26.1995C28.0449 26.1995 30.4302 25.1892 30.4302 23.9431C30.4302 22.6969 28.0449 21.6866 25.1025 21.6866C22.1602 21.6866 19.7749 22.6969 19.7749 23.9431C19.7749 25.1892 22.1602 26.1995 25.1025 26.1995Z" fill="#CE7D13"/>
<path d="M19.7749 22.6268V23.7237C19.7749 24.6638 21.0911 25.4473 22.9715 25.792C23.4102 25.886 23.9117 25.9487 24.4131 25.9487C24.6325 25.9487 24.8832 25.9801 25.1025 25.9801C25.8547 25.9801 26.5755 25.9174 27.2336 25.792C29.1139 25.4473 30.0854 24.6325 30.0854 23.6923L30.4302 22.5014C29.678 21.6553 27.3589 21.4359 25.1025 21.4359C23.2849 21.4673 20.7464 22.0627 19.7749 22.6268Z" fill="#FFC50D"/>
<g opacity="0.43">
<path opacity="0.43" d="M22.9715 23.7863V25.792C23.4102 25.886 23.9117 25.9486 24.4131 25.9486V23.7863H22.9715Z" fill="#FFFC8F"/>
</g>
<path d="M27.0142 25.8233V21.4985C28.5498 21.6239 29.8974 21.8746 30.4302 22.5014V23.6923C30.4302 24.6638 29.0199 25.5099 27.0142 25.8233Z" fill="#F19D00"/>
<path d="M25.1025 24.8832C28.0449 24.8832 30.4302 23.873 30.4302 22.6268C30.4302 21.3806 28.0449 20.3704 25.1025 20.3704C22.1602 20.3704 19.7749 21.3806 19.7749 22.6268C19.7749 23.873 22.1602 24.8832 25.1025 24.8832Z" fill="#FFD400"/>
<path d="M22.0626 24.4132C21.1538 24.1311 20.4643 23.7237 20.1509 23.285L24.4444 20.4644C24.6951 20.4644 24.9458 20.4331 25.1652 20.4331C26.0427 20.4331 26.9202 20.5271 27.6723 20.7152L22.0626 24.4132Z" fill="#FFFC8F"/>
<path d="M24.413 24.7892C23.9743 24.7579 23.5669 24.7265 23.1595 24.6325L28.7065 20.9972C29.0199 21.1225 29.3019 21.2479 29.5526 21.4046L24.413 24.7892Z" fill="#FFFC8F"/>
<path d="M25.1025 24.6325C28.0449 24.6325 30.4302 23.6222 30.4302 22.376C30.4302 21.1299 28.0449 20.1196 25.1025 20.1196C22.1602 20.1196 19.7749 21.1299 19.7749 22.376C19.7749 23.6222 22.1602 24.6325 25.1025 24.6325Z" fill="#CE7D13"/>
<path d="M19.7749 21.0598V22.1566C19.7749 23.0968 21.0911 23.8803 22.9715 24.225C23.4102 24.319 23.9117 24.3817 24.4131 24.3817C24.6325 24.3817 24.8832 24.4131 25.1025 24.4131C25.8547 24.4131 26.5755 24.3504 27.2336 24.225C29.1139 23.8803 30.0854 23.0655 30.0854 22.1253L30.4302 20.9344C29.678 20.0883 27.3589 19.8689 25.1025 19.8689C23.2849 19.9002 20.7464 20.4957 19.7749 21.0598Z" fill="#FFC50D"/>
<g opacity="0.43">
<path opacity="0.43" d="M22.9715 22.2192V24.2249C23.4102 24.319 23.9117 24.3816 24.4131 24.3816V22.2192H22.9715Z" fill="#FFFC8F"/>
</g>
<path d="M27.0142 24.2563V19.9315C28.5498 20.0569 29.8974 20.3076 30.4302 20.9344V22.1253C30.4302 23.0968 29.0199 23.9429 27.0142 24.2563Z" fill="#F19D00"/>
<path d="M25.1025 23.3162C28.0449 23.3162 30.4302 22.3059 30.4302 21.0598C30.4302 19.8136 28.0449 18.8033 25.1025 18.8033C22.1602 18.8033 19.7749 19.8136 19.7749 21.0598C19.7749 22.3059 22.1602 23.3162 25.1025 23.3162Z" fill="#FFD400"/>
<path d="M22.0626 22.8461C21.1538 22.5641 20.4643 22.1567 20.1509 21.7179L24.4444 18.8974C24.6951 18.8974 24.9458 18.8661 25.1652 18.8661C26.0427 18.8661 26.9202 18.9601 27.6723 19.1481L22.0626 22.8461Z" fill="#FFFC8F"/>
<path d="M24.413 23.2222C23.9743 23.1909 23.5669 23.1595 23.1595 23.0655L28.7065 19.4302C29.0199 19.5555 29.3019 19.6809 29.5526 19.8376L24.413 23.2222Z" fill="#FFFC8F"/>
<path d="M25.1025 23.0656C28.0449 23.0656 30.4302 22.0553 30.4302 20.8091C30.4302 19.563 28.0449 18.5527 25.1025 18.5527C22.1602 18.5527 19.7749 19.563 19.7749 20.8091C19.7749 22.0553 22.1602 23.0656 25.1025 23.0656Z" fill="#CE7D13"/>
<path d="M19.7749 19.4929V20.5897C19.7749 21.5299 21.0911 22.3134 22.9715 22.6581C23.4102 22.7521 23.9117 22.8148 24.4131 22.8148C24.6325 22.8148 24.8832 22.8462 25.1025 22.8462C25.8547 22.8462 26.5755 22.7835 27.2336 22.6581C29.1139 22.3134 30.0854 21.4986 30.0854 20.5584L30.4302 19.3675C29.678 18.5214 27.3589 18.302 25.1025 18.302C23.2849 18.3333 20.7464 18.9288 19.7749 19.4929Z" fill="#FFC50D"/>
<g opacity="0.43">
<path opacity="0.43" d="M22.9715 20.6523V22.658C23.4102 22.7521 23.9117 22.8147 24.4131 22.8147V20.6523H22.9715Z" fill="#FFFC8F"/>
</g>
<path d="M27.0142 22.6894V18.3646C28.5498 18.49 29.8974 18.7407 30.4302 19.3675V20.5584C30.4302 21.5299 29.0199 22.376 27.0142 22.6894Z" fill="#F19D00"/>
<path d="M25.1025 21.7493C28.0449 21.7493 30.4302 20.739 30.4302 19.4929C30.4302 18.2467 28.0449 17.2365 25.1025 17.2365C22.1602 17.2365 19.7749 18.2467 19.7749 19.4929C19.7749 20.739 22.1602 21.7493 25.1025 21.7493Z" fill="#FFD400"/>
<path d="M22.0626 21.2793C21.1538 20.9972 20.4643 20.5898 20.1509 20.151L24.4444 17.3305C24.6951 17.3305 24.9458 17.2992 25.1652 17.2992C26.0427 17.2992 26.9202 17.3932 27.6723 17.5812L22.0626 21.2793Z" fill="#FFFC8F"/>
<path d="M24.413 21.6553C23.9743 21.624 23.5669 21.5926 23.1595 21.4986L28.7065 17.8633C29.0199 17.9886 29.3019 18.114 29.5526 18.2707L24.413 21.6553Z" fill="#FFFC8F"/>
<path d="M25.1025 21.4985C28.0449 21.4985 30.4302 20.4883 30.4302 19.2421C30.4302 17.9959 28.0449 16.9857 25.1025 16.9857C22.1602 16.9857 19.7749 17.9959 19.7749 19.2421C19.7749 20.4883 22.1602 21.4985 25.1025 21.4985Z" fill="#CE7D13"/>
<path d="M19.7749 17.9259V19.0227C19.7749 19.9629 21.0911 20.7464 22.9715 21.0911C23.4102 21.1851 23.9117 21.2478 24.4131 21.2478C24.6325 21.2478 24.8832 21.2791 25.1025 21.2791C25.8547 21.2791 26.5755 21.2165 27.2336 21.0911C29.1139 20.7464 30.0854 19.9316 30.0854 18.9914L30.4302 17.8005C29.678 16.9544 27.3589 16.735 25.1025 16.735C23.2849 16.7663 20.7464 17.3618 19.7749 17.9259Z" fill="#FFC50D"/>
<g opacity="0.43">
<path opacity="0.43" d="M22.9715 19.0853V21.091C23.4102 21.185 23.9117 21.2477 24.4131 21.2477V19.0853H22.9715Z" fill="#FFFC8F"/>
</g>
<path d="M27.0142 21.1224V16.7976C28.5498 16.923 29.8974 17.1737 30.4302 17.8005V18.9913C30.4302 19.9628 29.0199 20.809 27.0142 21.1224Z" fill="#F19D00"/>
<path d="M25.1025 20.1823C28.0449 20.1823 30.4302 19.172 30.4302 17.9258C30.4302 16.6797 28.0449 15.6694 25.1025 15.6694C22.1602 15.6694 19.7749 16.6797 19.7749 17.9258C19.7749 19.172 22.1602 20.1823 25.1025 20.1823Z" fill="#FFD400"/>
<path d="M22.0626 19.7122C21.1538 19.4302 20.4643 19.0228 20.1509 18.584L24.4444 15.7635C24.6951 15.7635 24.9458 15.7322 25.1652 15.7322C26.0427 15.7322 26.9202 15.8262 27.6723 16.0142L22.0626 19.7122Z" fill="#FFFC8F"/>
<path d="M24.413 20.0883C23.9743 20.0569 23.5669 20.0256 23.1595 19.9316L28.7065 16.2963C29.0199 16.4216 29.3019 16.547 29.5526 16.7037L24.413 20.0883Z" fill="#FFFC8F"/>
<path d="M25.1025 19.9316C28.0449 19.9316 30.4302 18.9214 30.4302 17.6752C30.4302 16.4291 28.0449 15.4188 25.1025 15.4188C22.1602 15.4188 19.7749 16.4291 19.7749 17.6752C19.7749 18.9214 22.1602 19.9316 25.1025 19.9316Z" fill="#CE7D13"/>
<path d="M19.7749 16.359V17.4558C19.7749 18.396 21.0911 19.1795 22.9715 19.5242C23.4102 19.6182 23.9117 19.6809 24.4131 19.6809C24.6325 19.6809 24.8832 19.7122 25.1025 19.7122C25.8547 19.7122 26.5755 19.6496 27.2336 19.5242C29.1139 19.1795 30.0854 18.3647 30.0854 17.4245L30.4302 16.2336C29.678 15.3875 27.3589 15.1681 25.1025 15.1681C23.2849 15.1994 20.7464 15.7949 19.7749 16.359Z" fill="#FFC50D"/>
<g opacity="0.43">
<path opacity="0.43" d="M22.9715 17.5184V19.5241C23.4102 19.6181 23.9117 19.6808 24.4131 19.6808V17.5184H22.9715Z" fill="#FFFC8F"/>
</g>
<path d="M27.0142 19.5555V15.2307C28.5498 15.3561 29.8974 15.6068 30.4302 16.2336V17.4244C30.4302 18.396 29.0199 19.2421 27.0142 19.5555Z" fill="#F19D00"/>
<path d="M25.1025 18.6154C28.0449 18.6154 30.4302 17.6051 30.4302 16.359C30.4302 15.1128 28.0449 14.1025 25.1025 14.1025C22.1602 14.1025 19.7749 15.1128 19.7749 16.359C19.7749 17.6051 22.1602 18.6154 25.1025 18.6154Z" fill="#FFD400"/>
<path d="M22.0626 18.1453C21.1538 17.8633 20.4643 17.4559 20.1509 17.0171L24.4444 14.1966C24.6951 14.1966 24.9458 14.1653 25.1652 14.1653C26.0427 14.1653 26.9202 14.2593 27.6723 14.4473L22.0626 18.1453Z" fill="#FFFC8F"/>
<path d="M24.413 18.5214C23.9743 18.4901 23.5669 18.4587 23.1595 18.3647L28.7065 14.7294C29.0199 14.8547 29.3019 14.9801 29.5526 15.1368L24.413 18.5214Z" fill="#FFFC8F"/>
<path d="M25.1025 18.3646C28.0449 18.3646 30.4302 17.3544 30.4302 16.1082C30.4302 14.862 28.0449 13.8518 25.1025 13.8518C22.1602 13.8518 19.7749 14.862 19.7749 16.1082C19.7749 17.3544 22.1602 18.3646 25.1025 18.3646Z" fill="#CE7D13"/>
<path d="M19.7749 14.792V15.8888C19.7749 16.829 21.0911 17.6125 22.9715 17.9572C23.4102 18.0512 23.9117 18.1139 24.4131 18.1139C24.6325 18.1139 24.8832 18.1452 25.1025 18.1452C25.8547 18.1452 26.5755 18.0826 27.2336 17.9572C29.1139 17.6125 30.0854 16.7977 30.0854 15.8575L30.4302 14.6666C29.678 13.8204 27.3589 13.6011 25.1025 13.6011C23.2849 13.6324 20.7464 14.2279 19.7749 14.792Z" fill="#FFC50D"/>
<g opacity="0.43">
<path opacity="0.43" d="M22.9715 15.9514V17.9571C23.4102 18.0511 23.9117 18.1138 24.4131 18.1138V15.9514H22.9715Z" fill="#FFFC8F"/>
</g>
<path d="M27.0142 17.9885V13.6637C28.5498 13.7891 29.8974 14.0398 30.4302 14.6665V15.8574C30.4302 16.8289 29.0199 17.6751 27.0142 17.9885Z" fill="#F19D00"/>
<path d="M25.1025 17.0483C28.0449 17.0483 30.4302 16.0381 30.4302 14.7919C30.4302 13.5458 28.0449 12.5355 25.1025 12.5355C22.1602 12.5355 19.7749 13.5458 19.7749 14.7919C19.7749 16.0381 22.1602 17.0483 25.1025 17.0483Z" fill="#FFD400"/>
<path d="M22.0626 16.5783C21.1538 16.2963 20.4643 15.8889 20.1509 15.4501L24.4444 12.6296C24.6951 12.6296 24.9458 12.5983 25.1652 12.5983C26.0427 12.5983 26.9202 12.6923 27.6723 12.8803L22.0626 16.5783Z" fill="#FFFC8F"/>
<path d="M24.413 16.9544C23.9743 16.923 23.5669 16.8917 23.1595 16.7977L28.7065 13.1624C29.0199 13.2877 29.3019 13.4131 29.5526 13.5698L24.413 16.9544Z" fill="#FFFC8F"/>
<path d="M25.1025 16.7977C28.0449 16.7977 30.4302 15.7875 30.4302 14.5413C30.4302 13.2951 28.0449 12.2849 25.1025 12.2849C22.1602 12.2849 19.7749 13.2951 19.7749 14.5413C19.7749 15.7875 22.1602 16.7977 25.1025 16.7977Z" fill="#CE7D13"/>
<path d="M19.7749 13.2251V14.3219C19.7749 15.2621 21.0911 16.0456 22.9715 16.3903C23.4102 16.4843 23.9117 16.547 24.4131 16.547C24.6325 16.547 24.8832 16.5783 25.1025 16.5783C25.8547 16.5783 26.5755 16.5157 27.2336 16.3903C29.1139 16.0456 30.0854 15.2308 30.0854 14.2906L30.4302 13.0997C29.678 12.2536 27.3589 12.0342 25.1025 12.0342C23.2849 12.0655 20.7464 12.661 19.7749 13.2251Z" fill="#FFC50D"/>
<g opacity="0.43">
<path opacity="0.43" d="M22.9715 14.3845V16.3902C23.4102 16.4842 23.9117 16.5469 24.4131 16.5469V14.3845H22.9715Z" fill="#FFFC8F"/>
</g>
<path d="M27.0142 16.4216V12.0968C28.5498 12.2222 29.8974 12.4729 30.4302 13.0997V14.2905C30.4302 15.262 29.0199 16.1082 27.0142 16.4216Z" fill="#F19D00"/>
<path d="M25.1025 15.4814C28.0449 15.4814 30.4302 14.4712 30.4302 13.225C30.4302 11.9789 28.0449 10.9686 25.1025 10.9686C22.1602 10.9686 19.7749 11.9789 19.7749 13.225C19.7749 14.4712 22.1602 15.4814 25.1025 15.4814Z" fill="#FFD400"/>
<path d="M22.0626 15.0114C21.1538 14.7294 20.4643 14.322 20.1509 13.8832L24.4444 11.0627C24.6951 11.0627 24.9458 11.0314 25.1652 11.0314C26.0427 11.0314 26.9202 11.1254 27.6723 11.3134L22.0626 15.0114Z" fill="#FFFC8F"/>
<path d="M24.413 15.3875C23.9743 15.3561 23.5669 15.3248 23.1595 15.2308L28.7065 11.5955C29.0199 11.7208 29.3019 11.8462 29.5526 12.0029L24.413 15.3875Z" fill="#FFFC8F"/>
<path d="M25.1025 15.2307C28.0449 15.2307 30.4302 14.2205 30.4302 12.9743C30.4302 11.7281 28.0449 10.7179 25.1025 10.7179C22.1602 10.7179 19.7749 11.7281 19.7749 12.9743C19.7749 14.2205 22.1602 15.2307 25.1025 15.2307Z" fill="#CE7D13"/>
<path d="M19.7749 11.658V12.7549C19.7749 13.6951 21.0911 14.4786 22.9715 14.8233C23.4102 14.9173 23.9117 14.98 24.4131 14.98C24.6325 14.98 24.8832 15.0113 25.1025 15.0113C25.8547 15.0113 26.5755 14.9486 27.2336 14.8233C29.1139 14.4786 30.0854 13.6637 30.0854 12.7236L30.4302 11.5327C29.678 10.6865 27.3589 10.4672 25.1025 10.4672C23.2849 10.4985 20.7464 11.0939 19.7749 11.658Z" fill="#FFC50D"/>
<g opacity="0.43">
<path opacity="0.43" d="M22.9715 12.8175V14.8232C23.4102 14.9172 23.9117 14.9799 24.4131 14.9799V12.8175H22.9715Z" fill="#FFFC8F"/>
</g>
<path d="M27.0142 14.8546V10.5298C28.5498 10.6551 29.8974 10.9059 30.4302 11.5326V12.7235C30.4302 13.695 29.0199 14.5412 27.0142 14.8546Z" fill="#F19D00"/>
<path d="M25.1025 13.9144C28.0449 13.9144 30.4302 12.9042 30.4302 11.658C30.4302 10.4118 28.0449 9.40161 25.1025 9.40161C22.1602 9.40161 19.7749 10.4118 19.7749 11.658C19.7749 12.9042 22.1602 13.9144 25.1025 13.9144Z" fill="#FFD400"/>
<path d="M22.0626 13.4444C21.1538 13.1624 20.4643 12.755 20.1509 12.3162L24.4444 9.49569C24.6951 9.49569 24.9458 9.46436 25.1652 9.46436C26.0427 9.46436 26.9202 9.55837 27.6723 9.74641L22.0626 13.4444Z" fill="#FFFC8F"/>
<path d="M24.413 13.8205C23.9743 13.7891 23.5669 13.7578 23.1595 13.6638L28.7065 10.0284C29.0199 10.1538 29.3019 10.2792 29.5526 10.4358L24.413 13.8205Z" fill="#FFFC8F"/>
<path d="M25.1025 13.6638C28.0449 13.6638 30.4302 12.6536 30.4302 11.4074C30.4302 10.1612 28.0449 9.151 25.1025 9.151C22.1602 9.151 19.7749 10.1612 19.7749 11.4074C19.7749 12.6536 22.1602 13.6638 25.1025 13.6638Z" fill="#CE7D13"/>
<path d="M19.7749 10.0912V11.188C19.7749 12.1282 21.0911 12.9117 22.9715 13.2564C23.4102 13.3504 23.9117 13.4131 24.4131 13.4131C24.6325 13.4131 24.8832 13.4444 25.1025 13.4444C25.8547 13.4444 26.5755 13.3817 27.2336 13.2564C29.1139 12.9117 30.0854 12.0968 30.0854 11.1567L30.4302 9.9658C29.678 9.11964 27.3589 8.90027 25.1025 8.90027C23.2849 8.93161 20.7464 9.52705 19.7749 10.0912Z" fill="#FFC50D"/>
<g opacity="0.43">
<path opacity="0.43" d="M22.9715 11.2506V13.2563C23.4102 13.3503 23.9117 13.413 24.4131 13.413V11.2506H22.9715Z" fill="#FFFC8F"/>
</g>
<path d="M27.0142 13.2877V8.96289C28.5498 9.08825 29.8974 9.33896 30.4302 9.96574V11.1566C30.4302 12.1281 29.0199 12.9743 27.0142 13.2877Z" fill="#F19D00"/>
<path d="M25.1025 12.3475C28.0449 12.3475 30.4302 11.3373 30.4302 10.0911C30.4302 8.84495 28.0449 7.83472 25.1025 7.83472C22.1602 7.83472 19.7749 8.84495 19.7749 10.0911C19.7749 11.3373 22.1602 12.3475 25.1025 12.3475Z" fill="#FFD400"/>
<path d="M22.0626 11.8775C21.1538 11.5955 20.4643 11.1881 20.1509 10.7493L24.4444 7.9288C24.6951 7.9288 24.9458 7.89746 25.1652 7.89746C26.0427 7.89746 26.9202 7.99148 27.6723 8.17951L22.0626 11.8775Z" fill="#FFFC8F"/>
<path d="M24.413 12.2536C23.9743 12.2222 23.5669 12.1909 23.1595 12.0969L28.7065 8.46155C29.0199 8.5869 29.3019 8.71226 29.5526 8.86896L24.413 12.2536Z" fill="#FFFC8F"/>
<path d="M25.1025 12.0968C28.0449 12.0968 30.4302 11.0866 30.4302 9.84039C30.4302 8.59421 28.0449 7.58398 25.1025 7.58398C22.1602 7.58398 19.7749 8.59421 19.7749 9.84039C19.7749 11.0866 22.1602 12.0968 25.1025 12.0968Z" fill="#CE7D13"/>
<path d="M19.7749 8.52414V9.621C19.7749 10.5612 21.0911 11.3446 22.9715 11.6894C23.4102 11.7834 23.9117 11.8461 24.4131 11.8461C24.6325 11.8461 24.8832 11.8774 25.1025 11.8774C25.8547 11.8774 26.5755 11.8147 27.2336 11.6894C29.1139 11.3446 30.0854 10.5298 30.0854 9.58966L30.4302 8.39878C29.678 7.55263 27.3589 7.33325 25.1025 7.33325C23.2849 7.36459 20.7464 7.96003 19.7749 8.52414Z" fill="#FFC50D"/>
<g opacity="0.43">
<path opacity="0.43" d="M22.9715 9.68359V11.6893C23.4102 11.7833 23.9117 11.846 24.4131 11.846V9.68359H22.9715Z" fill="#FFFC8F"/>
</g>
<path d="M27.0142 11.7207V7.39587C28.5498 7.52123 29.8974 7.77194 30.4302 8.39872V9.58961C30.4302 10.5611 29.0199 11.4073 27.0142 11.7207Z" fill="#F19D00"/>
<path d="M25.1025 10.7805C28.0449 10.7805 30.4302 9.77029 30.4302 8.52411C30.4302 7.27793 28.0449 6.2677 25.1025 6.2677C22.1602 6.2677 19.7749 7.27793 19.7749 8.52411C19.7749 9.77029 22.1602 10.7805 25.1025 10.7805Z" fill="#FFD400"/>
<path d="M22.0626 10.3105C21.1538 10.0285 20.4643 9.62104 20.1509 9.1823L24.4444 6.36178C24.6951 6.36178 24.9458 6.33044 25.1652 6.33044C26.0427 6.33044 26.9202 6.42446 27.6723 6.6125L22.0626 10.3105Z" fill="#FFFC8F"/>
<path d="M24.413 10.6866C23.9743 10.6552 23.5669 10.6239 23.1595 10.5299L28.7065 6.89453C29.0199 7.01989 29.3019 7.14524 29.5526 7.30194L24.413 10.6866Z" fill="#FFFC8F"/>
<path d="M25.1025 10.5299C28.0449 10.5299 30.4302 9.51968 30.4302 8.2735C30.4302 7.02732 28.0449 6.01709 25.1025 6.01709C22.1602 6.01709 19.7749 7.02732 19.7749 8.2735C19.7749 9.51968 22.1602 10.5299 25.1025 10.5299Z" fill="#CE7D13"/>
<path d="M19.7749 6.95724V8.05411C19.7749 8.99428 21.0911 9.77775 22.9715 10.1225C23.4102 10.2165 23.9117 10.2792 24.4131 10.2792C24.6325 10.2792 24.8832 10.3105 25.1025 10.3105C25.8547 10.3105 26.5755 10.2478 27.2336 10.1225C29.1139 9.77775 30.0854 8.96294 30.0854 8.02277L30.4302 6.83188C29.678 5.98573 27.3589 5.76636 25.1025 5.76636C23.2849 5.7977 20.7464 6.39314 19.7749 6.95724Z" fill="#FFC50D"/>
<g opacity="0.43">
<path opacity="0.43" d="M22.9715 8.1167V10.1224C23.4102 10.2164 23.9117 10.2791 24.4131 10.2791V8.1167H22.9715Z" fill="#FFFC8F"/>
</g>
<path d="M27.0142 10.1538V5.82898C28.5498 5.95434 29.8974 6.20505 30.4302 6.83183V8.02271C30.4302 8.99422 29.0199 9.84038 27.0142 10.1538Z" fill="#F19D00"/>
<path d="M25.1025 9.21363C28.0449 9.21363 30.4302 8.2034 30.4302 6.95722C30.4302 5.71104 28.0449 4.70081 25.1025 4.70081C22.1602 4.70081 19.7749 5.71104 19.7749 6.95722C19.7749 8.2034 22.1602 9.21363 25.1025 9.21363Z" fill="#FFD400"/>
<path d="M22.0626 8.74361C21.1538 8.46156 20.4643 8.05415 20.1509 7.6154L24.4444 4.79489C24.6951 4.79489 24.9458 4.76355 25.1652 4.76355C26.0427 4.76355 26.9202 4.85757 27.6723 5.0456L22.0626 8.74361Z" fill="#FFFC8F"/>
<path d="M24.413 9.11966C23.9743 9.08832 23.5669 9.05698 23.1595 8.96296L28.7065 5.32764C29.0199 5.45299 29.3019 5.57835 29.5526 5.73504L24.413 9.11966Z" fill="#FFFC8F"/>
<path d="M33.6581 32.7806C36.6005 32.7806 38.9858 31.7704 38.9858 30.5242C38.9858 29.2781 36.6005 28.2678 33.6581 28.2678C30.7158 28.2678 28.3305 29.2781 28.3305 30.5242C28.3305 31.7704 30.7158 32.7806 33.6581 32.7806Z" fill="#CE7D13"/>
<path d="M28.3305 29.208V30.3048C28.3305 31.245 29.6467 32.0285 31.5271 32.3732C31.9658 32.4672 32.4673 32.5299 32.9687 32.5299C33.1881 32.5299 33.4388 32.5613 33.6581 32.5613C34.4103 32.5613 35.1311 32.4986 35.7892 32.3732C37.6695 32.0285 38.641 31.2137 38.641 30.2735L38.9858 29.0826C38.2336 28.2365 35.9146 28.0171 33.6581 28.0171C31.8718 28.0484 29.302 28.6439 28.3305 29.208Z" fill="#FFC50D"/>
<g opacity="0.43">
<path opacity="0.43" d="M31.5271 30.3674V32.3731C31.9658 32.4671 32.4673 32.5298 32.9687 32.5298V30.3674H31.5271Z" fill="#FFFC8F"/>
</g>
<path d="M35.5698 32.4045V28.1111C37.1054 28.2364 38.453 28.4872 38.9858 29.1139V30.3048C38.9858 31.245 37.5755 32.0911 35.5698 32.4045Z" fill="#F19D00"/>
<path d="M33.6581 31.4644C36.6005 31.4644 38.9858 30.4541 38.9858 29.2079C38.9858 27.9618 36.6005 26.9515 33.6581 26.9515C30.7158 26.9515 28.3305 27.9618 28.3305 29.2079C28.3305 30.4541 30.7158 31.4644 33.6581 31.4644Z" fill="#FFD400"/>
<path d="M30.6183 30.9943C29.7095 30.7123 29.02 30.3049 28.7066 29.8661L33.0001 27.0456C33.2508 27.0456 33.5015 27.0143 33.7209 27.0143C34.5983 27.0143 35.4758 27.1083 36.228 27.2963L30.6183 30.9943Z" fill="#FFFC8F"/>
<path d="M32.9687 31.3704C32.53 31.3391 32.1226 31.3077 31.7151 31.2137L37.2622 27.5784C37.5755 27.7037 37.8576 27.8291 38.1083 27.9858L32.9687 31.3704Z" fill="#FFFC8F"/>
<path d="M33.6581 31.2138C36.6005 31.2138 38.9858 30.2035 38.9858 28.9573C38.9858 27.7112 36.6005 26.7009 33.6581 26.7009C30.7158 26.7009 28.3305 27.7112 28.3305 28.9573C28.3305 30.2035 30.7158 31.2138 33.6581 31.2138Z" fill="#CE7D13"/>
<path d="M28.3305 27.6411V28.7379C28.3305 29.6781 29.6467 30.4616 31.5271 30.8063C31.9658 30.9003 32.4673 30.963 32.9687 30.963C33.1881 30.963 33.4388 30.9944 33.6581 30.9944C34.4103 30.9944 35.1311 30.9317 35.7892 30.8063C37.6695 30.4616 38.641 29.6468 38.641 28.7066L38.9858 27.5157C38.2336 26.6696 35.9146 26.4502 33.6581 26.4502C31.8718 26.4815 29.302 27.077 28.3305 27.6411Z" fill="#FFC50D"/>
<g opacity="0.43">
<path opacity="0.43" d="M31.5271 28.8005V30.8062C31.9658 30.9003 32.4673 30.9629 32.9687 30.9629V28.8005H31.5271Z" fill="#FFFC8F"/>
</g>
<path d="M35.5698 30.8376V26.5442C37.1054 26.6695 38.453 26.9203 38.9858 27.547V28.7379C38.9858 29.6781 37.5755 30.5243 35.5698 30.8376Z" fill="#F19D00"/>
<path d="M33.6581 29.8975C36.6005 29.8975 38.9858 28.8872 38.9858 27.6411C38.9858 26.3949 36.6005 25.3846 33.6581 25.3846C30.7158 25.3846 28.3305 26.3949 28.3305 27.6411C28.3305 28.8872 30.7158 29.8975 33.6581 29.8975Z" fill="#FFD400"/>
<path d="M30.6183 29.4274C29.7095 29.1454 29.02 28.738 28.7066 28.2992L33.0001 25.4787C33.2508 25.4787 33.5015 25.4474 33.7209 25.4474C34.5983 25.4474 35.4758 25.5414 36.228 25.7294L30.6183 29.4274Z" fill="#FFFC8F"/>
<path d="M32.9687 29.8035C32.53 29.7722 32.1226 29.7408 31.7151 29.6468L37.2622 26.0115C37.5755 26.1368 37.8576 26.2622 38.1083 26.4189L32.9687 29.8035Z" fill="#FFFC8F"/>
<path d="M33.6581 29.6467C36.6005 29.6467 38.9858 28.6365 38.9858 27.3903C38.9858 26.1441 36.6005 25.1339 33.6581 25.1339C30.7158 25.1339 28.3305 26.1441 28.3305 27.3903C28.3305 28.6365 30.7158 29.6467 33.6581 29.6467Z" fill="#CE7D13"/>
<path d="M28.3305 26.0741V27.1709C28.3305 28.1111 29.6467 28.8946 31.5271 29.2393C31.9658 29.3333 32.4673 29.396 32.9687 29.396C33.1881 29.396 33.4388 29.4273 33.6581 29.4273C34.4103 29.4273 35.1311 29.3647 35.7892 29.2393C37.6695 28.8946 38.641 28.0798 38.641 27.1396L38.9858 25.9487C38.2336 25.1026 35.9146 24.8832 33.6581 24.8832C31.8718 24.9145 29.302 25.51 28.3305 26.0741Z" fill="#FFC50D"/>
<g opacity="0.43">
<path opacity="0.43" d="M31.5271 27.2335V29.2392C31.9658 29.3332 32.4673 29.3959 32.9687 29.3959V27.2335H31.5271Z" fill="#FFFC8F"/>
</g>
<path d="M35.5698 29.2706V24.9772C37.1054 25.1025 38.453 25.3532 38.9858 25.98V27.1709C38.9858 28.1111 37.5755 28.9572 35.5698 29.2706Z" fill="#F19D00"/>
<path d="M33.6581 28.3304C36.6005 28.3304 38.9858 27.3202 38.9858 26.074C38.9858 24.8279 36.6005 23.8176 33.6581 23.8176C30.7158 23.8176 28.3305 24.8279 28.3305 26.074C28.3305 27.3202 30.7158 28.3304 33.6581 28.3304Z" fill="#FFD400"/>
<path d="M30.6183 27.8604C29.7095 27.5784 29.02 27.171 28.7066 26.7322L33.0001 23.9117C33.2508 23.9117 33.5015 23.8804 33.7209 23.8804C34.5983 23.8804 35.4758 23.9744 36.228 24.1624L30.6183 27.8604Z" fill="#FFFC8F"/>
<path d="M32.9687 28.2365C32.53 28.2051 32.1226 28.1738 31.7151 28.0798L37.2622 24.4445C37.5755 24.5698 37.8576 24.6952 38.1083 24.8519L32.9687 28.2365Z" fill="#FFFC8F"/>
<path d="M33.6581 28.0798C36.6005 28.0798 38.9858 27.0696 38.9858 25.8234C38.9858 24.5772 36.6005 23.567 33.6581 23.567C30.7158 23.567 28.3305 24.5772 28.3305 25.8234C28.3305 27.0696 30.7158 28.0798 33.6581 28.0798Z" fill="#CE7D13"/>
<path d="M28.3305 24.5072V25.604C28.3305 26.5442 29.6467 27.3277 31.5271 27.6724C31.9658 27.7664 32.4673 27.8291 32.9687 27.8291C33.1881 27.8291 33.4388 27.8604 33.6581 27.8604C34.4103 27.8604 35.1311 27.7978 35.7892 27.6724C37.6695 27.3277 38.641 26.5129 38.641 25.5727L38.9858 24.3818C38.2336 23.5357 35.9146 23.3163 33.6581 23.3163C31.8718 23.3476 29.302 23.9431 28.3305 24.5072Z" fill="#FFC50D"/>
<g opacity="0.43">
<path opacity="0.43" d="M31.5271 25.6666V27.6723C31.9658 27.7663 32.4673 27.829 32.9687 27.829V25.6666H31.5271Z" fill="#FFFC8F"/>
</g>
<path d="M35.5698 27.7037V23.4103C37.1054 23.5356 38.453 23.7863 38.9858 24.4131V25.604C38.9858 26.5442 37.5755 27.3903 35.5698 27.7037Z" fill="#F19D00"/>
<path d="M33.6581 26.7636C36.6005 26.7636 38.9858 25.7533 38.9858 24.5071C38.9858 23.261 36.6005 22.2507 33.6581 22.2507C30.7158 22.2507 28.3305 23.261 28.3305 24.5071C28.3305 25.7533 30.7158 26.7636 33.6581 26.7636Z" fill="#FFD400"/>
<path d="M30.6183 26.2935C29.7095 26.0115 29.02 25.6041 28.7066 25.1653L33.0001 22.3448C33.2508 22.3448 33.5015 22.3135 33.7209 22.3135C34.5983 22.3135 35.4758 22.4075 36.228 22.5955L30.6183 26.2935Z" fill="#FFFC8F"/>
<path d="M32.9687 26.6696C32.53 26.6382 32.1226 26.6069 31.7151 26.5129L37.2622 22.8776C37.5755 23.0029 37.8576 23.1283 38.1083 23.285L32.9687 26.6696Z" fill="#FFFC8F"/>
<path d="M33.6581 26.5128C36.6005 26.5128 38.9858 25.5026 38.9858 24.2564C38.9858 23.0102 36.6005 22 33.6581 22C30.7158 22 28.3305 23.0102 28.3305 24.2564C28.3305 25.5026 30.7158 26.5128 33.6581 26.5128Z" fill="#CE7D13"/>
<path d="M28.3305 22.9401V24.037C28.3305 24.9772 29.6467 25.7607 31.5271 26.1054C31.9658 26.1994 32.4673 26.2621 32.9687 26.2621C33.1881 26.2621 33.4388 26.2934 33.6581 26.2934C34.4103 26.2934 35.1311 26.2307 35.7892 26.1054C37.6695 25.7607 38.641 24.9458 38.641 24.0057L38.9858 22.8148C38.2336 21.9686 35.9146 21.7493 33.6581 21.7493C31.8718 21.7806 29.302 22.376 28.3305 22.9401Z" fill="#FFC50D"/>
<g opacity="0.43">
<path opacity="0.43" d="M31.5271 24.0996V26.1053C31.9658 26.1993 32.4673 26.262 32.9687 26.262V24.0996H31.5271Z" fill="#FFFC8F"/>
</g>
<path d="M35.5698 26.1367V21.8433C37.1054 21.9686 38.453 22.2193 38.9858 22.8461V24.037C38.9858 24.9772 37.5755 25.8233 35.5698 26.1367Z" fill="#F19D00"/>
<path d="M33.6581 25.1965C36.6005 25.1965 38.9858 24.1863 38.9858 22.9401C38.9858 21.6939 36.6005 20.6837 33.6581 20.6837C30.7158 20.6837 28.3305 21.6939 28.3305 22.9401C28.3305 24.1863 30.7158 25.1965 33.6581 25.1965Z" fill="#FFD400"/>
<path d="M30.6183 24.7265C29.7095 24.4445 29.02 24.0371 28.7066 23.5983L33.0001 20.7778C33.2508 20.7778 33.5015 20.7465 33.7209 20.7465C34.5983 20.7465 35.4758 20.8405 36.228 21.0285L30.6183 24.7265Z" fill="#FFFC8F"/>
<path d="M32.9687 25.1026C32.53 25.0712 32.1226 25.0399 31.7151 24.9459L37.2622 21.3105C37.5755 21.4359 37.8576 21.5613 38.1083 21.718L32.9687 25.1026Z" fill="#FFFC8F"/>
<path d="M33.6581 24.9459C36.6005 24.9459 38.9858 23.9357 38.9858 22.6895C38.9858 21.4433 36.6005 20.4331 33.6581 20.4331C30.7158 20.4331 28.3305 21.4433 28.3305 22.6895C28.3305 23.9357 30.7158 24.9459 33.6581 24.9459Z" fill="#CE7D13"/>
<path d="M28.3305 21.3733V22.4701C28.3305 23.4103 29.6467 24.1938 31.5271 24.5385C31.9658 24.6325 32.4673 24.6952 32.9687 24.6952C33.1881 24.6952 33.4388 24.7265 33.6581 24.7265C34.4103 24.7265 35.1311 24.6639 35.7892 24.5385C37.6695 24.1938 38.641 23.379 38.641 22.4388L38.9858 21.2479C38.2336 20.4017 35.9146 20.1824 33.6581 20.1824C31.8718 20.2137 29.302 20.8092 28.3305 21.3733Z" fill="#FFC50D"/>
<g opacity="0.43">
<path opacity="0.43" d="M31.5271 22.5327V24.5384C31.9658 24.6324 32.4673 24.6951 32.9687 24.6951V22.5327H31.5271Z" fill="#FFFC8F"/>
</g>
<path d="M35.5698 24.5698V20.2764C37.1054 20.4017 38.453 20.6524 38.9858 21.2792V22.4701C38.9858 23.4103 37.5755 24.2564 35.5698 24.5698Z" fill="#F19D00"/>
<path d="M33.6581 23.6296C36.6005 23.6296 38.9858 22.6194 38.9858 21.3732C38.9858 20.127 36.6005 19.1168 33.6581 19.1168C30.7158 19.1168 28.3305 20.127 28.3305 21.3732C28.3305 22.6194 30.7158 23.6296 33.6581 23.6296Z" fill="#FFD400"/>
<path d="M30.6183 23.1596C29.7095 22.8776 29.02 22.4702 28.7066 22.0314L33.0001 19.2109C33.2508 19.2109 33.5015 19.1796 33.7209 19.1796C34.5983 19.1796 35.4758 19.2736 36.228 19.4616L30.6183 23.1596Z" fill="#FFFC8F"/>
<path d="M32.9687 23.5357C32.53 23.5043 32.1226 23.473 31.7151 23.379L37.2622 19.7437C37.5755 19.869 37.8576 19.9944 38.1083 20.1511L32.9687 23.5357Z" fill="#FFFC8F"/>
<path d="M33.6581 23.3789C36.6005 23.3789 38.9858 22.3687 38.9858 21.1225C38.9858 19.8763 36.6005 18.8661 33.6581 18.8661C30.7158 18.8661 28.3305 19.8763 28.3305 21.1225C28.3305 22.3687 30.7158 23.3789 33.6581 23.3789Z" fill="#CE7D13"/>
<path d="M28.3305 19.8062V20.9031C28.3305 21.8433 29.6467 22.6268 31.5271 22.9715C31.9658 23.0655 32.4673 23.1282 32.9687 23.1282C33.1881 23.1282 33.4388 23.1595 33.6581 23.1595C34.4103 23.1595 35.1311 23.0968 35.7892 22.9715C37.6695 22.6268 38.641 21.8119 38.641 20.8718L38.9858 19.6809C38.2336 18.8347 35.9146 18.6154 33.6581 18.6154C31.8718 18.6467 29.302 19.2421 28.3305 19.8062Z" fill="#FFC50D"/>
<g opacity="0.43">
<path opacity="0.43" d="M31.5271 20.9657V22.9714C31.9658 23.0654 32.4673 23.1281 32.9687 23.1281V20.9657H31.5271Z" fill="#FFFC8F"/>
</g>
<path d="M35.5698 23.0028V18.7094C37.1054 18.8347 38.453 19.0854 38.9858 19.7122V20.9031C38.9858 21.8433 37.5755 22.6894 35.5698 23.0028Z" fill="#F19D00"/>
<path d="M33.6581 22.0626C36.6005 22.0626 38.9858 21.0524 38.9858 19.8062C38.9858 18.56 36.6005 17.5498 33.6581 17.5498C30.7158 17.5498 28.3305 18.56 28.3305 19.8062C28.3305 21.0524 30.7158 22.0626 33.6581 22.0626Z" fill="#FFD400"/>
<path d="M30.6183 21.5926C29.7095 21.3106 29.02 20.9032 28.7066 20.4644L33.0001 17.6439C33.2508 17.6439 33.5015 17.6125 33.7209 17.6125C34.5983 17.6125 35.4758 17.7066 36.228 17.8946L30.6183 21.5926Z" fill="#FFFC8F"/>
<path d="M32.9687 21.9687C32.53 21.9373 32.1226 21.906 31.7151 21.812L37.2622 18.1766C37.5755 18.302 37.8576 18.4273 38.1083 18.584L32.9687 21.9687Z" fill="#FFFC8F"/>
<path d="M33.6581 21.812C36.6005 21.812 38.9858 20.8018 38.9858 19.5556C38.9858 18.3094 36.6005 17.2992 33.6581 17.2992C30.7158 17.2992 28.3305 18.3094 28.3305 19.5556C28.3305 20.8018 30.7158 21.812 33.6581 21.812Z" fill="#CE7D13"/>
<path d="M28.3305 18.2393V19.3362C28.3305 20.2764 29.6467 21.0599 31.5271 21.4046C31.9658 21.4986 32.4673 21.5613 32.9687 21.5613C33.1881 21.5613 33.4388 21.5926 33.6581 21.5926C34.4103 21.5926 35.1311 21.5299 35.7892 21.4046C37.6695 21.0599 38.641 20.245 38.641 19.3049L38.9858 18.114C38.2336 17.2678 35.9146 17.0485 33.6581 17.0485C31.8718 17.0798 29.302 17.6752 28.3305 18.2393Z" fill="#FFC50D"/>
<g opacity="0.43">
<path opacity="0.43" d="M31.5271 19.3988V21.4045C31.9658 21.4985 32.4673 21.5612 32.9687 21.5612V19.3988H31.5271Z" fill="#FFFC8F"/>
</g>
<path d="M35.5698 21.4359V17.1425C37.1054 17.2678 38.453 17.5185 38.9858 18.1453V19.3362C38.9858 20.2764 37.5755 21.1225 35.5698 21.4359Z" fill="#F19D00"/>
<path d="M33.6581 20.4957C36.6005 20.4957 38.9858 19.4855 38.9858 18.2393C38.9858 16.9931 36.6005 15.9829 33.6581 15.9829C30.7158 15.9829 28.3305 16.9931 28.3305 18.2393C28.3305 19.4855 30.7158 20.4957 33.6581 20.4957Z" fill="#FFD400"/>
<path d="M30.6183 20.0257C29.7095 19.7437 29.02 19.3363 28.7066 18.8975L33.0001 16.077C33.2508 16.077 33.5015 16.0457 33.7209 16.0457C34.5983 16.0457 35.4758 16.1397 36.228 16.3277L30.6183 20.0257Z" fill="#FFFC8F"/>
<path d="M32.9687 20.4018C32.53 20.3704 32.1226 20.3391 31.7151 20.2451L37.2622 16.6097C37.5755 16.7351 37.8576 16.8605 38.1083 17.0171L32.9687 20.4018Z" fill="#FFFC8F"/>
<path d="M33.6581 20.245C36.6005 20.245 38.9858 19.2348 38.9858 17.9886C38.9858 16.7424 36.6005 15.7322 33.6581 15.7322C30.7158 15.7322 28.3305 16.7424 28.3305 17.9886C28.3305 19.2348 30.7158 20.245 33.6581 20.245Z" fill="#CE7D13"/>
<path d="M28.3305 16.6723V17.7692C28.3305 18.7094 29.6467 19.4928 31.5271 19.8376C31.9658 19.9316 32.4673 19.9943 32.9687 19.9943C33.1881 19.9943 33.4388 20.0256 33.6581 20.0256C34.4103 20.0256 35.1311 19.9629 35.7892 19.8376C37.6695 19.4928 38.641 18.678 38.641 17.7379L38.9858 16.547C38.2336 15.7008 35.9146 15.4814 33.6581 15.4814C31.8718 15.5128 29.302 16.1082 28.3305 16.6723Z" fill="#FFC50D"/>
<g opacity="0.43">
<path opacity="0.43" d="M31.5271 17.8318V19.8375C31.9658 19.9315 32.4673 19.9942 32.9687 19.9942V17.8318H31.5271Z" fill="#FFFC8F"/>
</g>
<path d="M35.5698 19.8689V15.5754C37.1054 15.7008 38.453 15.9515 38.9858 16.5783V17.7692C38.9858 18.7093 37.5755 19.5555 35.5698 19.8689Z" fill="#F19D00"/>
<path d="M33.6581 18.9287C36.6005 18.9287 38.9858 17.9185 38.9858 16.6723C38.9858 15.4261 36.6005 14.4159 33.6581 14.4159C30.7158 14.4159 28.3305 15.4261 28.3305 16.6723C28.3305 17.9185 30.7158 18.9287 33.6581 18.9287Z" fill="#FFD400"/>
<path d="M30.6183 18.4587C29.7095 18.1766 29.02 17.7692 28.7066 17.3305L33.0001 14.51C33.2508 14.51 33.5015 14.4786 33.7209 14.4786C34.5983 14.4786 35.4758 14.5727 36.228 14.7607L30.6183 18.4587Z" fill="#FFFC8F"/>
<path d="M32.9687 18.8347C32.53 18.8034 32.1226 18.7721 31.7151 18.6781L37.2622 15.0427C37.5755 15.1681 37.8576 15.2934 38.1083 15.4501L32.9687 18.8347Z" fill="#FFFC8F"/>
<path d="M33.6581 18.6781C36.6005 18.6781 38.9858 17.6679 38.9858 16.4217C38.9858 15.1755 36.6005 14.1653 33.6581 14.1653C30.7158 14.1653 28.3305 15.1755 28.3305 16.4217C28.3305 17.6679 30.7158 18.6781 33.6581 18.6781Z" fill="#CE7D13"/>
<path d="M28.3305 15.1054V16.2023C28.3305 17.1425 29.6467 17.9259 31.5271 18.2707C31.9658 18.3647 32.4673 18.4274 32.9687 18.4274C33.1881 18.4274 33.4388 18.4587 33.6581 18.4587C34.4103 18.4587 35.1311 18.396 35.7892 18.2707C37.6695 17.9259 38.641 17.1111 38.641 16.171L38.9858 14.9801C38.2336 14.1339 35.9146 13.9146 33.6581 13.9146C31.8718 13.9459 29.302 14.5413 28.3305 15.1054Z" fill="#FFC50D"/>
<g opacity="0.43">
<path opacity="0.43" d="M31.5271 16.2649V18.2706C31.9658 18.3646 32.4673 18.4273 32.9687 18.4273V16.2649H31.5271Z" fill="#FFFC8F"/>
</g>
<path d="M35.5698 18.302V14.0085C37.1054 14.1339 38.453 14.3846 38.9858 15.0114V16.2023C38.9858 17.1424 37.5755 17.9886 35.5698 18.302Z" fill="#F19D00"/>
<path d="M33.6581 17.3618C36.6005 17.3618 38.9858 16.3516 38.9858 15.1054C38.9858 13.8592 36.6005 12.849 33.6581 12.849C30.7158 12.849 28.3305 13.8592 28.3305 15.1054C28.3305 16.3516 30.7158 17.3618 33.6581 17.3618Z" fill="#FFD400"/>
<path d="M30.6183 16.8918C29.7095 16.6097 29.02 16.2023 28.7066 15.7636L33.0001 12.9431C33.2508 12.9431 33.5015 12.9117 33.7209 12.9117C34.5983 12.9117 35.4758 13.0058 36.228 13.1938L30.6183 16.8918Z" fill="#FFFC8F"/>
<path d="M32.9687 17.2679C32.53 17.2365 32.1226 17.2052 31.7151 17.1112L37.2622 13.4758C37.5755 13.6012 37.8576 13.7265 38.1083 13.8832L32.9687 17.2679Z" fill="#FFFC8F"/>
<path opacity="0.72" d="M28.8006 30.6496C28.8006 31.9031 31.1824 32.906 34.1282 32.906C34.4416 32.906 34.755 32.906 35.0371 32.8747V30.2108C34.755 30.2422 34.4416 30.2422 34.1282 30.2422C32.3732 30.2422 30.8063 29.8661 29.8348 29.302C29.1767 29.6781 28.8006 30.1482 28.8006 30.6496Z" fill="#9C86B7"/>
<path opacity="0.46" d="M17.2992 29.1453C17.1738 30.3989 19.3989 31.8405 22.3134 32.3733C22.6268 32.4359 22.9089 32.4673 23.2223 32.4986L23.5043 17.0485C23.2223 17.0171 22.9089 16.9858 22.5955 16.9231C20.8405 16.6097 19.3362 15.9516 18.4587 15.1995C17.7693 15.4502 17.3305 28.6752 17.2992 29.1453Z" fill="#9C86B7"/>
<path d="M16.7037 30.6497C19.6461 30.6497 22.0314 29.6394 22.0314 28.3933C22.0314 27.1471 19.6461 26.1368 16.7037 26.1368C13.7614 26.1368 11.3761 27.1471 11.3761 28.3933C11.3761 29.6394 13.7614 30.6497 16.7037 30.6497Z" fill="#CE7D13"/>
<path d="M11.3761 27.0456V28.1425C11.3761 29.0827 12.6923 29.8661 14.5727 30.2109C15.0114 30.3049 15.5129 30.3676 16.0143 30.3676C16.2337 30.3676 16.4844 30.3989 16.7037 30.3989C17.4559 30.3989 18.1767 30.3362 18.8348 30.2109C20.7151 29.8661 21.6866 29.0513 21.6866 28.1111L22.0314 26.9203C21.2792 26.0741 18.9601 25.8547 16.7037 25.8547C14.8861 25.8861 12.3476 26.4815 11.3761 27.0456Z" fill="#FFC50D"/>
<g opacity="0.43">
<path opacity="0.43" d="M14.5727 28.2365V30.2421C15.0114 30.3362 15.5129 30.3988 16.0143 30.3988V28.2365H14.5727Z" fill="#FFFC8F"/>
</g>
<path d="M18.6154 30.2422V25.9487C20.151 26.0741 21.4986 26.3248 22.0314 26.9516V28.1425C22.0314 29.114 20.6211 29.9288 18.6154 30.2422Z" fill="#F19D00"/>
<path d="M16.7037 29.3334C19.6461 29.3334 22.0314 28.3231 22.0314 27.077C22.0314 25.8308 19.6461 24.8206 16.7037 24.8206C13.7614 24.8206 11.3761 25.8308 11.3761 27.077C11.3761 28.3231 13.7614 29.3334 16.7037 29.3334Z" fill="#FFD400"/>
<path d="M13.6638 28.832C12.755 28.5499 12.0655 28.1425 11.7521 27.7038L16.0456 24.8833C16.2963 24.8833 16.547 24.8519 16.7664 24.8519C17.6439 24.8519 18.5214 24.9459 19.2735 25.134L13.6638 28.832Z" fill="#FFFC8F"/>
<path d="M16.0143 29.2394C15.5756 29.2081 15.1681 29.1767 14.7607 29.0827L20.3077 25.4474C20.6211 25.5727 20.9032 25.6981 21.1539 25.8548L16.0143 29.2394Z" fill="#FFFC8F"/>
<path d="M16.7037 29.0828C19.6461 29.0828 22.0314 28.0725 22.0314 26.8264C22.0314 25.5802 19.6461 24.5699 16.7037 24.5699C13.7614 24.5699 11.3761 25.5802 11.3761 26.8264C11.3761 28.0725 13.7614 29.0828 16.7037 29.0828Z" fill="#CE7D13"/>
<path d="M11.3761 25.4787V26.5756C11.3761 27.5158 12.6923 28.2992 14.5727 28.644C15.0114 28.738 15.5129 28.8007 16.0143 28.8007C16.2337 28.8007 16.4844 28.832 16.7037 28.832C17.4559 28.832 18.1767 28.7693 18.8348 28.644C20.7151 28.2992 21.6866 27.4844 21.6866 26.5443L22.0314 25.3534C21.2792 24.5072 18.9601 24.2878 16.7037 24.2878C14.8861 24.3192 12.3476 24.9146 11.3761 25.4787Z" fill="#FFC50D"/>
<g opacity="0.43">
<path opacity="0.43" d="M14.5727 26.6696V28.6753C15.0114 28.7693 15.5129 28.8319 16.0143 28.8319V26.6696H14.5727Z" fill="#FFFC8F"/>
</g>
<path d="M18.6154 28.6753V24.3818C20.151 24.5072 21.4986 24.7579 22.0314 25.3847V26.5756C22.0314 27.5471 20.6211 28.3619 18.6154 28.6753Z" fill="#F19D00"/>
<path d="M16.7037 27.7665C19.6461 27.7665 22.0314 26.7563 22.0314 25.5101C22.0314 24.2639 19.6461 23.2537 16.7037 23.2537C13.7614 23.2537 11.3761 24.2639 11.3761 25.5101C11.3761 26.7563 13.7614 27.7665 16.7037 27.7665Z" fill="#FFD400"/>
<path d="M13.6638 27.2651C12.755 26.983 12.0655 26.5756 11.7521 26.1369L16.0456 23.3164C16.2963 23.3164 16.547 23.285 16.7664 23.285C17.6439 23.285 18.5214 23.379 19.2735 23.5671L13.6638 27.2651Z" fill="#FFFC8F"/>
<path d="M16.0143 27.6725C15.5756 27.6412 15.1681 27.6098 14.7607 27.5158L20.3077 23.8805C20.6211 24.0058 20.9032 24.1312 21.1539 24.2879L16.0143 27.6725Z" fill="#FFFC8F"/>
<path d="M16.7037 27.5158C19.6461 27.5158 22.0314 26.5055 22.0314 25.2593C22.0314 24.0132 19.6461 23.0029 16.7037 23.0029C13.7614 23.0029 11.3761 24.0132 11.3761 25.2593C11.3761 26.5055 13.7614 27.5158 16.7037 27.5158Z" fill="#CE7D13"/>
<path d="M11.3761 23.9117V25.0086C11.3761 25.9487 12.6923 26.7322 14.5727 27.077C15.0114 27.171 15.5129 27.2336 16.0143 27.2336C16.2337 27.2336 16.4844 27.265 16.7037 27.265C17.4559 27.265 18.1767 27.2023 18.8348 27.077C20.7151 26.7322 21.6866 25.9174 21.6866 24.9772L22.0314 23.7864C21.2792 22.9402 18.9601 22.7208 16.7037 22.7208C14.8861 22.7522 12.3476 23.3476 11.3761 23.9117Z" fill="#FFC50D"/>
<g opacity="0.43">
<path opacity="0.43" d="M14.5727 25.1025V27.1082C15.0114 27.2023 15.5129 27.2649 16.0143 27.2649V25.1025H14.5727Z" fill="#FFFC8F"/>
</g>
<path d="M18.6154 27.1083V22.8148C20.151 22.9402 21.4986 23.1909 22.0314 23.8177V25.0085C22.0314 25.9801 20.6211 26.7949 18.6154 27.1083Z" fill="#F19D00"/>
<path d="M16.7037 26.1995C19.6461 26.1995 22.0314 25.1892 22.0314 23.9431C22.0314 22.6969 19.6461 21.6866 16.7037 21.6866C13.7614 21.6866 11.3761 22.6969 11.3761 23.9431C11.3761 25.1892 13.7614 26.1995 16.7037 26.1995Z" fill="#FFD400"/>
<path d="M13.6638 25.6981C12.755 25.416 12.0655 25.0086 11.7521 24.5699L16.0456 21.7494C16.2963 21.7494 16.547 21.718 16.7664 21.718C17.6439 21.718 18.5214 21.812 19.2735 22.0001L13.6638 25.6981Z" fill="#FFFC8F"/>
<path d="M16.0143 26.1055C15.5756 26.0742 15.1681 26.0428 14.7607 25.9488L20.3077 22.3135C20.6211 22.4388 20.9032 22.5642 21.1539 22.7209L16.0143 26.1055Z" fill="#FFFC8F"/>
<path d="M16.7037 25.9489C19.6461 25.9489 22.0314 24.9386 22.0314 23.6924C22.0314 22.4463 19.6461 21.436 16.7037 21.436C13.7614 21.436 11.3761 22.4463 11.3761 23.6924C11.3761 24.9386 13.7614 25.9489 16.7037 25.9489Z" fill="#CE7D13"/>
<path d="M11.3761 22.3448V23.4417C11.3761 24.3819 12.6923 25.1653 14.5727 25.5101C15.0114 25.6041 15.5129 25.6668 16.0143 25.6668C16.2337 25.6668 16.4844 25.6981 16.7037 25.6981C17.4559 25.6981 18.1767 25.6354 18.8348 25.5101C20.7151 25.1653 21.6866 24.3505 21.6866 23.4103L22.0314 22.2195C21.2792 21.3733 18.9601 21.1539 16.7037 21.1539C14.8861 21.1853 12.3476 21.7807 11.3761 22.3448Z" fill="#FFC50D"/>
<g opacity="0.43">
<path opacity="0.43" d="M14.5727 23.5356V25.5413C15.0114 25.6354 15.5129 25.698 16.0143 25.698V23.5356H14.5727Z" fill="#FFFC8F"/>
</g>
<path d="M18.6154 25.5414V21.2479C20.151 21.3733 21.4986 21.624 22.0314 22.2508V23.4417C22.0314 24.4132 20.6211 25.228 18.6154 25.5414Z" fill="#F19D00"/>
<path d="M16.7037 24.6326C19.6461 24.6326 22.0314 23.6223 22.0314 22.3762C22.0314 21.13 19.6461 20.1198 16.7037 20.1198C13.7614 20.1198 11.3761 21.13 11.3761 22.3762C11.3761 23.6223 13.7614 24.6326 16.7037 24.6326Z" fill="#FFD400"/>
<path d="M13.6638 24.1312C12.755 23.8491 12.0655 23.4417 11.7521 23.003L16.0456 20.1825C16.2963 20.1825 16.547 20.1511 16.7664 20.1511C17.6439 20.1511 18.5214 20.2451 19.2735 20.4332L13.6638 24.1312Z" fill="#FFFC8F"/>
<path d="M16.0143 24.5386C15.5756 24.5073 15.1681 24.4759 14.7607 24.3819L20.3077 20.7466C20.6211 20.8719 20.9032 20.9973 21.1539 21.154L16.0143 24.5386Z" fill="#FFFC8F"/>
<path d="M16.7037 24.3818C19.6461 24.3818 22.0314 23.3716 22.0314 22.1254C22.0314 20.8792 19.6461 19.869 16.7037 19.869C13.7614 19.869 11.3761 20.8792 11.3761 22.1254C11.3761 23.3716 13.7614 24.3818 16.7037 24.3818Z" fill="#CE7D13"/>
<path d="M11.3761 20.7778V21.8747C11.3761 22.8148 12.6923 23.5983 14.5727 23.943C15.0114 24.0371 15.5129 24.0997 16.0143 24.0997C16.2337 24.0997 16.4844 24.1311 16.7037 24.1311C17.4559 24.1311 18.1767 24.0684 18.8348 23.943C20.7151 23.5983 21.6866 22.7835 21.6866 21.8433L22.0314 20.6524C21.2792 19.8063 18.9601 19.5869 16.7037 19.5869C14.8861 19.6183 12.3476 20.2137 11.3761 20.7778Z" fill="#FFC50D"/>
<g opacity="0.43">
<path opacity="0.43" d="M14.5727 21.9686V23.9743C15.0114 24.0683 15.5129 24.131 16.0143 24.131V21.9686H14.5727Z" fill="#FFFC8F"/>
</g>
<path d="M18.6154 23.9744V19.6809C20.151 19.8063 21.4986 20.057 22.0314 20.6838V21.8746C22.0314 22.8462 20.6211 23.661 18.6154 23.9744Z" fill="#F19D00"/>
<path d="M16.7037 23.0656C19.6461 23.0656 22.0314 22.0553 22.0314 20.8091C22.0314 19.563 19.6461 18.5527 16.7037 18.5527C13.7614 18.5527 11.3761 19.563 11.3761 20.8091C11.3761 22.0553 13.7614 23.0656 16.7037 23.0656Z" fill="#FFD400"/>
<path d="M13.6638 22.5642C12.755 22.2821 12.0655 21.8747 11.7521 21.436L16.0456 18.6154C16.2963 18.6154 16.547 18.5841 16.7664 18.5841C17.6439 18.5841 18.5214 18.6781 19.2735 18.8662L13.6638 22.5642Z" fill="#FFFC8F"/>
<path d="M16.0143 22.9716C15.5756 22.9402 15.1681 22.9089 14.7607 22.8149L20.3077 19.1796C20.6211 19.3049 20.9032 19.4303 21.1539 19.587L16.0143 22.9716Z" fill="#FFFC8F"/>
<path d="M16.7037 22.8149C19.6461 22.8149 22.0314 21.8047 22.0314 20.5585C22.0314 19.3124 19.6461 18.3021 16.7037 18.3021C13.7614 18.3021 11.3761 19.3124 11.3761 20.5585C11.3761 21.8047 13.7614 22.8149 16.7037 22.8149Z" fill="#CE7D13"/>
<path d="M11.3761 19.2109V20.3078C11.3761 21.2479 12.6923 22.0314 14.5727 22.3761C15.0114 22.4702 15.5129 22.5328 16.0143 22.5328C16.2337 22.5328 16.4844 22.5642 16.7037 22.5642C17.4559 22.5642 18.1767 22.5015 18.8348 22.3761C20.7151 22.0314 21.6866 21.2166 21.6866 20.2764L22.0314 19.0855C21.2792 18.2394 18.9601 18.02 16.7037 18.02C14.8861 18.0514 12.3476 18.6468 11.3761 19.2109Z" fill="#FFC50D"/>
<g opacity="0.43">
<path opacity="0.43" d="M14.5727 20.4017V22.4074C15.0114 22.5014 15.5129 22.5641 16.0143 22.5641V20.4017H14.5727Z" fill="#FFFC8F"/>
</g>
<path d="M18.6154 22.4075V18.114C20.151 18.2394 21.4986 18.4901 22.0314 19.1169V20.3077C22.0314 21.2793 20.6211 22.0941 18.6154 22.4075Z" fill="#F19D00"/>
<path d="M16.7037 21.4987C19.6461 21.4987 22.0314 20.4884 22.0314 19.2422C22.0314 17.9961 19.6461 16.9858 16.7037 16.9858C13.7614 16.9858 11.3761 17.9961 11.3761 19.2422C11.3761 20.4884 13.7614 21.4987 16.7037 21.4987Z" fill="#FFD400"/>
<path d="M13.6638 20.9973C12.755 20.7152 12.0655 20.3078 11.7521 19.8691L16.0456 17.0486C16.2963 17.0486 16.547 17.0172 16.7664 17.0172C17.6439 17.0172 18.5214 17.1112 19.2735 17.2993L13.6638 20.9973Z" fill="#FFFC8F"/>
<path d="M16.0143 21.4047C15.5756 21.3734 15.1681 21.342 14.7607 21.248L20.3077 17.6127C20.6211 17.738 20.9032 17.8634 21.1539 18.0201L16.0143 21.4047Z" fill="#FFFC8F"/>
<path d="M25.792 40.0825L31.9031 32.8119V36.6979L25.8234 43.9686L25.792 43.9999H0V40.0825H25.792Z" fill="#47752F"/>
<path d="M31.9032 36.1025V32.2164L25.7921 39.4871V43.3731L31.9032 36.1025Z" fill="#4E8436"/>
<path d="M6.17378 32.3418L0.282043 39.3617H25.7293L31.6211 32.3418H6.17378Z" fill="#ADE069"/>
<path d="M0 43.4044H25.792V39.4871H0V43.4044Z" fill="#70A33C"/>
<path d="M6.14245 32.3104L0.344727 39.299H25.8234L31.5897 32.3104H6.14245ZM3.63533 37.0426L5.64102 34.6295C6.9886 34.6295 8.64957 33.9087 9.37037 33.0312H27.265C26.5442 33.9087 27.0142 34.5982 28.2991 34.6295L26.2934 37.0426C24.9772 37.0426 23.3789 37.7321 22.6268 38.5782H4.73219C5.42165 37.7321 4.92023 37.0426 3.63533 37.0426Z" fill="#70A33C"/>
<path d="M16.3992 36.9722C17.7837 36.4748 18.7211 35.5566 18.4929 34.9213C18.2646 34.2861 16.9572 34.1743 15.5727 34.6718C14.1882 35.1692 13.2508 36.0874 13.479 36.7226C13.7073 37.3579 15.0146 37.4696 16.3992 36.9722Z" fill="#607700"/>
<path d="M20.0883 35.8205C19.7123 36.2592 19.963 36.6039 20.6524 36.6039C21.3105 36.6039 22.1567 36.2592 22.5014 35.8205C22.8775 35.3817 22.6268 35.037 21.9373 35.037C21.2792 35.0056 20.433 35.3817 20.0883 35.8205Z" fill="white"/>
<path d="M9.49573 35.8205C9.11966 36.2592 9.37037 36.6039 10.0598 36.6039C10.718 36.6039 11.5641 36.2592 11.9088 35.8205C12.2849 35.3817 12.0342 35.037 11.3447 35.037C10.6866 35.0056 9.84046 35.3817 9.49573 35.8205Z" fill="white"/>
<path d="M6.11111 32.2164H31.9031L25.792 39.4871H0L6.11111 32.2164ZM31.339 32.4671H6.23647L0.564103 39.2364H25.6667L31.339 32.4671Z" fill="#9FD65E"/>
<path opacity="0.44" d="M17.9259 32.2164H21.4986L15.4188 39.4871V43.4045H11.8148V39.4871L17.9259 32.2164Z" fill="#48842F"/>
<path d="M11.094 39.4871V43.4045H14.6666V39.4871L20.7778 32.2164H17.2051L11.094 39.4871Z" fill="white"/>
<path d="M20.3704 32.2164H21.0912L14.9801 39.4871V43.4045H14.2593V39.4871L20.3704 32.2164Z" fill="#FF895A"/>
<path d="M16.8604 32.2164H17.5812L11.4701 39.4871V43.4045H10.7493V39.4871L16.8604 32.2164Z" fill="#FF895A"/>
<path opacity="0.29" d="M10.7493 39.4871V43.4044H14.98V39.4871H15.0114H11.4074H10.7493Z" fill="#846E56"/>
<path d="M25.792 35.3817L31.9031 28.1111V31.9971L25.8234 39.2678L25.792 39.2991H0V35.3817H25.792Z" fill="#47752F"/>
<path d="M31.9032 31.4017V27.5156L25.7921 34.7863V38.6723L31.9032 31.4017Z" fill="#4E8436"/>
<path d="M6.17378 27.641L0.282043 34.6609H25.7293L31.6211 27.641H6.17378Z" fill="#ADE069"/>
<path d="M0 38.7036H25.792V34.7863H0V38.7036Z" fill="#70A33C"/>
<path d="M6.14245 27.6096L0.344727 34.5982H25.8234L31.5897 27.6096H6.14245ZM3.63533 32.3418L5.64102 29.9287C6.9886 29.9287 8.64957 29.2079 9.37037 28.3304H27.265C26.5442 29.2079 27.0142 29.8974 28.2991 29.9287L26.2934 32.3418C24.9772 32.3418 23.3789 33.0313 22.6268 33.8774H4.73219C5.42165 33.0313 4.92023 32.3418 3.63533 32.3418Z" fill="#70A33C"/>
<path d="M16.3992 32.2714C17.7838 31.774 18.7211 30.8558 18.4929 30.2205C18.2647 29.5853 16.9573 29.4735 15.5728 29.9709C14.1882 30.4684 13.2509 31.3866 13.4791 32.0218C13.7073 32.6571 15.0147 32.7688 16.3992 32.2714Z" fill="#607700"/>
<path d="M20.0883 31.1197C19.7123 31.5584 19.963 31.9031 20.6524 31.9031C21.3105 31.9031 22.1567 31.5584 22.5014 31.1197C22.8775 30.6809 22.6268 30.3362 21.9373 30.3362C21.2792 30.3048 20.433 30.6809 20.0883 31.1197Z" fill="white"/>
<path d="M9.49573 31.1197C9.11966 31.5584 9.37037 31.9031 10.0598 31.9031C10.718 31.9031 11.5641 31.5584 11.9088 31.1197C12.2849 30.6809 12.0342 30.3362 11.3447 30.3362C10.6866 30.3048 9.84046 30.6809 9.49573 31.1197Z" fill="white"/>
<path d="M6.11111 27.5156H31.9031L25.792 34.7863H0L6.11111 27.5156ZM31.339 27.7663H6.23647L0.564103 34.5356H25.6667L31.339 27.7663Z" fill="#9FD65E"/>
<path opacity="0.44" d="M17.9259 27.5156H21.4986L15.4188 34.7863V38.7037H11.8148V34.7863L17.9259 27.5156Z" fill="#48842F"/>
<path d="M11.094 34.7863V38.7037H14.6666V34.7863L20.7778 27.5156H17.2051L11.094 34.7863Z" fill="white"/>
<path d="M20.3704 27.5156H21.0912L14.9801 34.7863V38.7037H14.2593V34.7863L20.3704 27.5156Z" fill="#FF895A"/>
<path d="M16.8604 27.5156H17.5812L11.4701 34.7863V38.7037H10.7493V34.7863L16.8604 27.5156Z" fill="#FF895A"/>
<path opacity="0.29" d="M10.7493 34.7863V38.7036H14.98V34.7863H15.0114H11.4074H10.7493Z" fill="#846E56"/>
</svg>
