<svg width="49" height="44" viewBox="0 0 49 44" fill="none" xmlns="http://www.w3.org/2000/svg">
<path d="M15.7265 25.0609C18.6736 25.0609 21.0628 24.0331 21.0628 22.7653C21.0628 21.4974 18.6736 20.4696 15.7265 20.4696C12.7793 20.4696 10.3901 21.4974 10.3901 22.7653C10.3901 24.0331 12.7793 25.0609 15.7265 25.0609Z" fill="#CE7D13"/>
<path d="M10.3901 21.4261V22.542C10.3901 23.4985 11.7085 24.2956 13.5919 24.6464C14.0314 24.742 14.5336 24.8058 15.0359 24.8058C15.2556 24.8058 15.5067 24.8377 15.7265 24.8377C16.4798 24.8377 17.2018 24.7739 17.861 24.6464C19.7444 24.2956 20.7175 23.4667 20.7175 22.5101L21.0628 21.2985C20.3094 20.4377 17.9865 20.2145 15.7265 20.2145C13.9372 20.2464 11.3632 20.8522 10.3901 21.4261Z" fill="#FFC50D"/>
<g opacity="0.43">
<path opacity="0.43" d="M13.6233 22.6058V24.6464C14.0628 24.7421 14.565 24.8058 15.0672 24.8058V22.6058H13.6233Z" fill="#FFFC8F"/>
</g>
<path d="M17.6412 24.6783V20.2783C19.1794 20.4059 20.5291 20.6609 21.0628 21.2986V22.5102C21.0628 23.4986 19.6502 24.3595 17.6412 24.6783Z" fill="#F19D00"/>
<path d="M15.7265 23.7218C18.6736 23.7218 21.0628 22.694 21.0628 21.4261C21.0628 20.1583 18.6736 19.1305 15.7265 19.1305C12.7793 19.1305 10.3901 20.1583 10.3901 21.4261C10.3901 22.694 12.7793 23.7218 15.7265 23.7218Z" fill="#FFD400"/>
<path d="M12.713 23.2436C11.8027 22.9567 11.1121 22.5422 10.7982 22.0958L15.0987 19.2262C15.3498 19.2262 15.6009 19.1943 15.8206 19.1943C16.6996 19.1943 17.5785 19.29 18.3318 19.4813L12.713 23.2436Z" fill="#FFFC8F"/>
<path d="M15.0359 23.6262C14.5964 23.5943 14.1883 23.5624 13.7803 23.4667L19.3677 19.7682C19.6816 19.8957 19.9641 20.0233 20.2153 20.1827L15.0359 23.6262Z" fill="#FFFC8F"/>
<path d="M15.7265 23.4667C18.6736 23.4667 21.0628 22.4389 21.0628 21.171C21.0628 19.9032 18.6736 18.8754 15.7265 18.8754C12.7793 18.8754 10.3901 19.9032 10.3901 21.171C10.3901 22.4389 12.7793 23.4667 15.7265 23.4667Z" fill="#CE7D13"/>
<path d="M10.3901 19.8318V20.9478C10.3901 21.9043 11.7085 22.7014 13.5919 23.0521C14.0314 23.1478 14.5336 23.2116 15.0359 23.2116C15.2556 23.2116 15.5067 23.2434 15.7265 23.2434C16.4798 23.2434 17.2018 23.1797 17.861 23.0521C19.7444 22.7014 20.7175 21.8724 20.7175 20.9159L21.0628 19.7043C20.3094 18.8434 17.9865 18.6202 15.7265 18.6202C13.9372 18.6521 11.3632 19.2579 10.3901 19.8318Z" fill="#FFC50D"/>
<g opacity="0.43">
<path opacity="0.43" d="M13.6233 21.0116V23.0522C14.0628 23.1478 14.565 23.2116 15.0672 23.2116V21.0116H13.6233Z" fill="#FFFC8F"/>
</g>
<path d="M17.6412 23.0841V18.6841C19.1794 18.8116 20.5291 19.0667 21.0628 19.7044V20.916C21.0628 21.9044 19.6502 22.7652 17.6412 23.0841Z" fill="#F19D00"/>
<path d="M15.7265 22.1276C18.6736 22.1276 21.0628 21.0998 21.0628 19.8319C21.0628 18.5641 18.6736 17.5363 15.7265 17.5363C12.7793 17.5363 10.3901 18.5641 10.3901 19.8319C10.3901 21.0998 12.7793 22.1276 15.7265 22.1276Z" fill="#FFD400"/>
<path d="M12.713 21.6494C11.8027 21.3624 11.1121 20.9479 10.7982 20.5016L15.0987 17.632C15.3498 17.632 15.6009 17.6001 15.8206 17.6001C16.6996 17.6001 17.5785 17.6957 18.3318 17.8871L12.713 21.6494Z" fill="#FFFC8F"/>
<path d="M15.0359 22.0319C14.5964 22 14.1883 21.9682 13.7803 21.8725L19.3677 18.174C19.6816 18.3015 19.9641 18.429 20.2153 18.5884L15.0359 22.0319Z" fill="#FFFC8F"/>
<path d="M15.7265 21.8724C18.6736 21.8724 21.0628 20.8446 21.0628 19.5768C21.0628 18.3089 18.6736 17.2811 15.7265 17.2811C12.7793 17.2811 10.3901 18.3089 10.3901 19.5768C10.3901 20.8446 12.7793 21.8724 15.7265 21.8724Z" fill="#CE7D13"/>
<path d="M10.3901 18.2376V19.3535C10.3901 20.3101 11.7085 21.1072 13.5919 21.4579C14.0314 21.5535 14.5336 21.6173 15.0359 21.6173C15.2556 21.6173 15.5067 21.6492 15.7265 21.6492C16.4798 21.6492 17.2018 21.5854 17.861 21.4579C19.7444 21.1072 20.7175 20.2782 20.7175 19.3217L21.0628 18.1101C20.3094 17.2492 17.9865 17.026 15.7265 17.026C13.9372 17.0579 11.3632 17.6637 10.3901 18.2376Z" fill="#FFC50D"/>
<g opacity="0.43">
<path opacity="0.43" d="M13.6233 19.4174V21.4579C14.0628 21.5536 14.565 21.6174 15.0672 21.6174V19.4174H13.6233Z" fill="#FFFC8F"/>
</g>
<path d="M17.6412 21.4898V17.0898C19.1794 17.2174 20.5291 17.4725 21.0628 18.1101V19.3217C21.0628 20.3101 19.6502 21.171 17.6412 21.4898Z" fill="#F19D00"/>
<path d="M15.7265 20.5333C18.6736 20.5333 21.0628 19.5055 21.0628 18.2377C21.0628 16.9698 18.6736 15.942 15.7265 15.942C12.7793 15.942 10.3901 16.9698 10.3901 18.2377C10.3901 19.5055 12.7793 20.5333 15.7265 20.5333Z" fill="#FFD400"/>
<path d="M12.713 20.0551C11.8027 19.7682 11.1121 19.3537 10.7982 18.9073L15.0987 16.0377C15.3498 16.0377 15.6009 16.0059 15.8206 16.0059C16.6996 16.0059 17.5785 16.1015 18.3318 16.2928L12.713 20.0551Z" fill="#FFFC8F"/>
<path d="M15.0359 20.4377C14.5964 20.4058 14.1883 20.3739 13.7803 20.2783L19.3677 16.5797C19.6816 16.7072 19.9641 16.8348 20.2153 16.9942L15.0359 20.4377Z" fill="#FFFC8F"/>
<path d="M15.7265 20.2782C18.6736 20.2782 21.0628 19.2504 21.0628 17.9825C21.0628 16.7147 18.6736 15.6869 15.7265 15.6869C12.7793 15.6869 10.3901 16.7147 10.3901 17.9825C10.3901 19.2504 12.7793 20.2782 15.7265 20.2782Z" fill="#CE7D13"/>
<path d="M10.3901 16.6434V17.7593C10.3901 18.7158 11.7085 19.5129 13.5919 19.8636C14.0314 19.9593 14.5336 20.0231 15.0359 20.0231C15.2556 20.0231 15.5067 20.055 15.7265 20.055C16.4798 20.055 17.2018 19.9912 17.861 19.8636C19.7444 19.5129 20.7175 18.6839 20.7175 17.7274L21.0628 16.5158C20.3094 15.655 17.9865 15.4318 15.7265 15.4318C13.9372 15.4636 11.3632 16.0694 10.3901 16.6434Z" fill="#FFC50D"/>
<g opacity="0.43">
<path opacity="0.43" d="M13.6233 17.8231V19.8637C14.0628 19.9593 14.565 20.0231 15.0672 20.0231V17.8231H13.6233Z" fill="#FFFC8F"/>
</g>
<path d="M17.6412 19.8956V15.4956C19.1794 15.6231 20.5291 15.8782 21.0628 16.5159V17.7275C21.0628 18.7159 19.6502 19.5768 17.6412 19.8956Z" fill="#F19D00"/>
<path d="M15.7265 18.9391C18.6736 18.9391 21.0628 17.9113 21.0628 16.6434C21.0628 15.3756 18.6736 14.3478 15.7265 14.3478C12.7793 14.3478 10.3901 15.3756 10.3901 16.6434C10.3901 17.9113 12.7793 18.9391 15.7265 18.9391Z" fill="#FFD400"/>
<path d="M12.713 18.4609C11.8027 18.1739 11.1121 17.7594 10.7982 17.3131L15.0987 14.4435C15.3498 14.4435 15.6009 14.4116 15.8206 14.4116C16.6996 14.4116 17.5785 14.5073 18.3318 14.6986L12.713 18.4609Z" fill="#FFFC8F"/>
<path d="M15.0359 18.8434C14.5964 18.8116 14.1883 18.7797 13.7803 18.684L19.3677 14.9855C19.6816 15.113 19.9641 15.2405 20.2153 15.4L15.0359 18.8434Z" fill="#FFFC8F"/>
<path d="M15.7265 18.6841C18.6736 18.6841 21.0628 17.6563 21.0628 16.3884C21.0628 15.1206 18.6736 14.0928 15.7265 14.0928C12.7793 14.0928 10.3901 15.1206 10.3901 16.3884C10.3901 17.6563 12.7793 18.6841 15.7265 18.6841Z" fill="#CE7D13"/>
<path d="M10.3901 15.0492V16.1652C10.3901 17.1217 11.7085 17.9188 13.5919 18.2695C14.0314 18.3652 14.5336 18.429 15.0359 18.429C15.2556 18.429 15.5067 18.4608 15.7265 18.4608C16.4798 18.4608 17.2018 18.3971 17.861 18.2695C19.7444 17.9188 20.7175 17.0898 20.7175 16.1333L21.0628 14.9217C20.3094 14.0608 17.9865 13.8376 15.7265 13.8376C13.9372 13.8695 11.3632 14.4753 10.3901 15.0492Z" fill="#FFC50D"/>
<g opacity="0.43">
<path opacity="0.43" d="M13.6233 16.229V18.2696C14.0628 18.3652 14.565 18.429 15.0672 18.429V16.229H13.6233Z" fill="#FFFC8F"/>
</g>
<path d="M17.6412 18.3015V13.9015C19.1794 14.029 20.5291 14.2841 21.0628 14.9218V16.1334C21.0628 17.1218 19.6502 17.9827 17.6412 18.3015Z" fill="#F19D00"/>
<path d="M15.7265 17.345C18.6736 17.345 21.0628 16.3172 21.0628 15.0493C21.0628 13.7815 18.6736 12.7537 15.7265 12.7537C12.7793 12.7537 10.3901 13.7815 10.3901 15.0493C10.3901 16.3172 12.7793 17.345 15.7265 17.345Z" fill="#FFD400"/>
<path d="M12.713 16.8668C11.8027 16.5798 11.1121 16.1653 10.7982 15.719L15.0987 12.8494C15.3498 12.8494 15.6009 12.8175 15.8206 12.8175C16.6996 12.8175 17.5785 12.9132 18.3318 13.1045L12.713 16.8668Z" fill="#FFFC8F"/>
<path d="M15.0359 17.2493C14.5964 17.2174 14.1883 17.1856 13.7803 17.0899L19.3677 13.3914C19.6816 13.5189 19.9641 13.6464 20.2153 13.8058L15.0359 17.2493Z" fill="#FFFC8F"/>
<path d="M15.7265 17.0898C18.6736 17.0898 21.0628 16.062 21.0628 14.7942C21.0628 13.5263 18.6736 12.4985 15.7265 12.4985C12.7793 12.4985 10.3901 13.5263 10.3901 14.7942C10.3901 16.062 12.7793 17.0898 15.7265 17.0898Z" fill="#CE7D13"/>
<path d="M10.3901 13.455V14.5709C10.3901 15.5275 11.7085 16.3246 13.5919 16.6753C14.0314 16.7709 14.5336 16.8347 15.0359 16.8347C15.2556 16.8347 15.5067 16.8666 15.7265 16.8666C16.4798 16.8666 17.2018 16.8028 17.861 16.6753C19.7444 16.3246 20.7175 15.4956 20.7175 14.5391L21.0628 13.3275C20.3094 12.4666 17.9865 12.2434 15.7265 12.2434C13.9372 12.2753 11.3632 12.8811 10.3901 13.455Z" fill="#FFC50D"/>
<g opacity="0.43">
<path opacity="0.43" d="M13.6233 14.6348V16.6753C14.0628 16.771 14.565 16.8348 15.0672 16.8348V14.6348H13.6233Z" fill="#FFFC8F"/>
</g>
<path d="M17.6412 16.7073V12.3073C19.1794 12.4348 20.5291 12.6899 21.0628 13.3275V14.5391C21.0628 15.5275 19.6502 16.3884 17.6412 16.7073Z" fill="#F19D00"/>
<path d="M15.7265 15.7507C18.6736 15.7507 21.0628 14.7229 21.0628 13.4551C21.0628 12.1872 18.6736 11.1594 15.7265 11.1594C12.7793 11.1594 10.3901 12.1872 10.3901 13.4551C10.3901 14.7229 12.7793 15.7507 15.7265 15.7507Z" fill="#FFD400"/>
<path d="M12.713 15.2725C11.8027 14.9856 11.1121 14.5711 10.7982 14.1247L15.0987 11.2552C15.3498 11.2552 15.6009 11.2233 15.8206 11.2233C16.6996 11.2233 17.5785 11.3189 18.3318 11.5102L12.713 15.2725Z" fill="#FFFC8F"/>
<path d="M15.0359 15.6551C14.5964 15.6232 14.1883 15.5913 13.7803 15.4957L19.3677 11.7971C19.6816 11.9247 19.9641 12.0522 20.2153 12.2116L15.0359 15.6551Z" fill="#FFFC8F"/>
<path d="M15.7265 15.4956C18.6736 15.4956 21.0628 14.4678 21.0628 13.1999C21.0628 11.9321 18.6736 10.9043 15.7265 10.9043C12.7793 10.9043 10.3901 11.9321 10.3901 13.1999C10.3901 14.4678 12.7793 15.4956 15.7265 15.4956Z" fill="#CE7D13"/>
<path d="M10.3901 11.8608V12.9767C10.3901 13.9332 11.7085 14.7303 13.5919 15.0811C14.0314 15.1767 14.5336 15.2405 15.0359 15.2405C15.2556 15.2405 15.5067 15.2724 15.7265 15.2724C16.4798 15.2724 17.2018 15.2086 17.861 15.0811C19.7444 14.7303 20.7175 13.9013 20.7175 12.9448L21.0628 11.7332C20.3094 10.8724 17.9865 10.6492 15.7265 10.6492C13.9372 10.6811 11.3632 11.2869 10.3901 11.8608Z" fill="#FFC50D"/>
<g opacity="0.43">
<path opacity="0.43" d="M13.6233 13.0405V15.0811C14.0628 15.1768 14.565 15.2405 15.0672 15.2405V13.0405H13.6233Z" fill="#FFFC8F"/>
</g>
<path d="M17.6412 15.113V10.713C19.1794 10.8405 20.5291 11.0956 21.0628 11.7333V12.9449C21.0628 13.9333 19.6502 14.7942 17.6412 15.113Z" fill="#F19D00"/>
<path d="M15.7265 14.1565C18.6736 14.1565 21.0628 13.1287 21.0628 11.8608C21.0628 10.593 18.6736 9.56519 15.7265 9.56519C12.7793 9.56519 10.3901 10.593 10.3901 11.8608C10.3901 13.1287 12.7793 14.1565 15.7265 14.1565Z" fill="#FFD400"/>
<path d="M12.713 13.6783C11.8027 13.3913 11.1121 12.9769 10.7982 12.5305L15.0987 9.66091C15.3498 9.66091 15.6009 9.62903 15.8206 9.62903C16.6996 9.62903 17.5785 9.72468 18.3318 9.91598L12.713 13.6783Z" fill="#FFFC8F"/>
<path d="M15.0359 14.0609C14.5964 14.029 14.1883 13.9971 13.7803 13.9014L19.3677 10.2029C19.6816 10.3304 19.9641 10.458 20.2153 10.6174L15.0359 14.0609Z" fill="#FFFC8F"/>
<path d="M15.7265 13.9015C18.6736 13.9015 21.0628 12.8737 21.0628 11.6058C21.0628 10.338 18.6736 9.31018 15.7265 9.31018C12.7793 9.31018 10.3901 10.338 10.3901 11.6058C10.3901 12.8737 12.7793 13.9015 15.7265 13.9015Z" fill="#CE7D13"/>
<path d="M10.3901 10.2666V11.3826C10.3901 12.3391 11.7085 13.1362 13.5919 13.4869C14.0314 13.5826 14.5336 13.6464 15.0359 13.6464C15.2556 13.6464 15.5067 13.6782 15.7265 13.6782C16.4798 13.6782 17.2018 13.6145 17.861 13.4869C19.7444 13.1362 20.7175 12.3072 20.7175 11.3507L21.0628 10.1391C20.3094 9.27824 17.9865 9.05505 15.7265 9.05505C13.9372 9.08694 11.3632 9.69274 10.3901 10.2666Z" fill="#FFC50D"/>
<g opacity="0.43">
<path opacity="0.43" d="M13.6233 11.4464V13.487C14.0628 13.5826 14.565 13.6464 15.0672 13.6464V11.4464H13.6233Z" fill="#FFFC8F"/>
</g>
<path d="M17.6412 13.5189V9.1189C19.1794 9.24643 20.5291 9.5015 21.0628 10.1392V11.3508C21.0628 12.3392 19.6502 13.2001 17.6412 13.5189Z" fill="#F19D00"/>
<path d="M15.7265 12.5624C18.6736 12.5624 21.0628 11.5346 21.0628 10.2667C21.0628 8.99887 18.6736 7.97107 15.7265 7.97107C12.7793 7.97107 10.3901 8.99887 10.3901 10.2667C10.3901 11.5346 12.7793 12.5624 15.7265 12.5624Z" fill="#FFD400"/>
<path d="M12.713 12.0842C11.8027 11.7972 11.1121 11.3827 10.7982 10.9364L15.0987 8.0668C15.3498 8.0668 15.6009 8.03491 15.8206 8.03491C16.6996 8.03491 17.5785 8.13056 18.3318 8.32187L12.713 12.0842Z" fill="#FFFC8F"/>
<path d="M15.0359 12.4667C14.5964 12.4349 14.1883 12.403 13.7803 12.3073L19.3677 8.60876C19.6816 8.7363 19.9641 8.86384 20.2153 9.02326L15.0359 12.4667Z" fill="#FFFC8F"/>
<path d="M15.7265 12.3072C18.6736 12.3072 21.0628 11.2794 21.0628 10.0116C21.0628 8.74374 18.6736 7.71594 15.7265 7.71594C12.7793 7.71594 10.3901 8.74374 10.3901 10.0116C10.3901 11.2794 12.7793 12.3072 15.7265 12.3072Z" fill="#CE7D13"/>
<path d="M10.3901 8.67241V9.78835C10.3901 10.7449 11.7085 11.542 13.5919 11.8927C14.0314 11.9884 14.5336 12.0521 15.0359 12.0521C15.2556 12.0521 15.5067 12.084 15.7265 12.084C16.4798 12.084 17.2018 12.0202 17.861 11.8927C19.7444 11.542 20.7175 10.713 20.7175 9.75647L21.0628 8.54487C20.3094 7.684 17.9865 7.46082 15.7265 7.46082C13.9372 7.4927 11.3632 8.0985 10.3901 8.67241Z" fill="#FFC50D"/>
<g opacity="0.43">
<path opacity="0.43" d="M13.6233 9.85217V11.8928C14.0628 11.9884 14.565 12.0522 15.0672 12.0522V9.85217H13.6233Z" fill="#FFFC8F"/>
</g>
<path d="M17.6412 11.9247V7.52466C19.1794 7.65219 20.5291 7.90727 21.0628 8.54495V9.75654C21.0628 10.7449 19.6502 11.6058 17.6412 11.9247Z" fill="#F19D00"/>
<path d="M15.7265 10.9681C18.6736 10.9681 21.0628 9.94034 21.0628 8.67248C21.0628 7.40463 18.6736 6.37683 15.7265 6.37683C12.7793 6.37683 10.3901 7.40463 10.3901 8.67248C10.3901 9.94034 12.7793 10.9681 15.7265 10.9681Z" fill="#FFD400"/>
<path d="M12.713 10.4899C11.8027 10.203 11.1121 9.7885 10.7982 9.34212L15.0987 6.47256C15.3498 6.47256 15.6009 6.44067 15.8206 6.44067C16.6996 6.44067 17.5785 6.53633 18.3318 6.72763L12.713 10.4899Z" fill="#FFFC8F"/>
<path d="M15.0359 10.8725C14.5964 10.8406 14.1883 10.8087 13.7803 10.7131L19.3677 7.01453C19.6816 7.14206 19.9641 7.2696 20.2153 7.42902L15.0359 10.8725Z" fill="#FFFC8F"/>
<path d="M15.7265 10.713C18.6736 10.713 21.0628 9.68521 21.0628 8.41736C21.0628 7.1495 18.6736 6.1217 15.7265 6.1217C12.7793 6.1217 10.3901 7.1495 10.3901 8.41736C10.3901 9.68521 12.7793 10.713 15.7265 10.713Z" fill="#CE7D13"/>
<path d="M10.3901 7.07817V8.19411C10.3901 9.15064 11.7085 9.94774 13.5919 10.2985C14.0314 10.3941 14.5336 10.4579 15.0359 10.4579C15.2556 10.4579 15.5067 10.4898 15.7265 10.4898C16.4798 10.4898 17.2018 10.426 17.861 10.2985C19.7444 9.94774 20.7175 9.11875 20.7175 8.16223L21.0628 6.95064C20.3094 6.08977 17.9865 5.86658 15.7265 5.86658C13.9372 5.89846 11.3632 6.50426 10.3901 7.07817Z" fill="#FFC50D"/>
<g opacity="0.43">
<path opacity="0.43" d="M13.6233 8.25793V10.2985C14.0628 10.3942 14.565 10.4579 15.0672 10.4579V8.25793H13.6233Z" fill="#FFFC8F"/>
</g>
<path d="M17.6412 10.3304V5.93042C19.1794 6.05796 20.5291 6.31303 21.0628 6.95071V8.1623C21.0628 9.15071 19.6502 10.0116 17.6412 10.3304Z" fill="#F19D00"/>
<path d="M15.7265 9.3739C18.6736 9.3739 21.0628 8.3461 21.0628 7.07824C21.0628 5.81039 18.6736 4.78259 15.7265 4.78259C12.7793 4.78259 10.3901 5.81039 10.3901 7.07824C10.3901 8.3461 12.7793 9.3739 15.7265 9.3739Z" fill="#FFD400"/>
<path d="M12.713 8.89571C11.8027 8.60875 11.1121 8.19426 10.7982 7.74788L15.0987 4.87832C15.3498 4.87832 15.6009 4.84644 15.8206 4.84644C16.6996 4.84644 17.5785 4.94209 18.3318 5.13339L12.713 8.89571Z" fill="#FFFC8F"/>
<path d="M15.0359 9.27826C14.5964 9.24638 14.1883 9.21449 13.7803 9.11884L19.3677 5.42029C19.6816 5.54782 19.9641 5.67536 20.2153 5.83478L15.0359 9.27826Z" fill="#FFFC8F"/>
<path d="M15.7265 9.11877C18.6736 9.11877 21.0628 8.09097 21.0628 6.82312C21.0628 5.55526 18.6736 4.52747 15.7265 4.52747C12.7793 4.52747 10.3901 5.55526 10.3901 6.82312C10.3901 8.09097 12.7793 9.11877 15.7265 9.11877Z" fill="#CE7D13"/>
<path d="M10.3901 5.48393V6.59987C10.3901 7.5564 11.7085 8.3535 13.5919 8.70422C14.0314 8.79987 14.5336 8.86364 15.0359 8.86364C15.2556 8.86364 15.5067 8.89552 15.7265 8.89552C16.4798 8.89552 17.2018 8.83176 17.861 8.70422C19.7444 8.3535 20.7175 7.52451 20.7175 6.56799L21.0628 5.3564C20.3094 4.49553 17.9865 4.27234 15.7265 4.27234C13.9372 4.30422 11.3632 4.91002 10.3901 5.48393Z" fill="#FFC50D"/>
<g opacity="0.43">
<path opacity="0.43" d="M13.6233 6.6637V8.70427C14.0628 8.79993 14.565 8.86369 15.0672 8.86369V6.6637H13.6233Z" fill="#FFFC8F"/>
</g>
<path d="M17.6412 8.73618V4.33618C19.1794 4.46372 20.5291 4.71879 21.0628 5.35647V6.56807C21.0628 7.55647 19.6502 8.41734 17.6412 8.73618Z" fill="#F19D00"/>
<path d="M15.7265 7.77966C18.6736 7.77966 21.0628 6.75186 21.0628 5.48401C21.0628 4.21615 18.6736 3.18835 15.7265 3.18835C12.7793 3.18835 10.3901 4.21615 10.3901 5.48401C10.3901 6.75186 12.7793 7.77966 15.7265 7.77966Z" fill="#FFD400"/>
<path d="M12.713 7.30147C11.8027 7.01452 11.1121 6.60002 10.7982 6.15365L15.0987 3.28408C15.3498 3.28408 15.6009 3.2522 15.8206 3.2522C16.6996 3.2522 17.5785 3.34785 18.3318 3.53915L12.713 7.30147Z" fill="#FFFC8F"/>
<path d="M15.0359 7.68402C14.5964 7.65214 14.1883 7.62025 13.7803 7.5246L19.3677 3.82605C19.6816 3.95359 19.9641 4.08112 20.2153 4.24054L15.0359 7.68402Z" fill="#FFFC8F"/>
<path d="M15.7265 7.52465C18.6736 7.52465 21.0628 6.49685 21.0628 5.229C21.0628 3.96115 18.6736 2.93335 15.7265 2.93335C12.7793 2.93335 10.3901 3.96115 10.3901 5.229C10.3901 6.49685 12.7793 7.52465 15.7265 7.52465Z" fill="#CE7D13"/>
<path d="M10.3901 3.88982V5.00576C10.3901 5.96228 11.7085 6.75938 13.5919 7.11011C14.0314 7.20576 14.5336 7.26953 15.0359 7.26953C15.2556 7.26953 15.5067 7.30141 15.7265 7.30141C16.4798 7.30141 17.2018 7.23764 17.861 7.11011C19.7444 6.75938 20.7175 5.9304 20.7175 4.97388L21.0628 3.76228C20.3094 2.90141 17.9865 2.67822 15.7265 2.67822C13.9372 2.71011 11.3632 3.3159 10.3901 3.88982Z" fill="#FFC50D"/>
<g opacity="0.43">
<path opacity="0.43" d="M13.6233 5.06958V7.11016C14.0628 7.20581 14.565 7.26958 15.0672 7.26958V5.06958H13.6233Z" fill="#FFFC8F"/>
</g>
<path d="M17.6412 7.14207V2.74207C19.1794 2.8696 20.5291 3.12467 21.0628 3.76236V4.97395C21.0628 5.96236 19.6502 6.82322 17.6412 7.14207Z" fill="#F19D00"/>
<path d="M15.7265 6.18554C18.6736 6.18554 21.0628 5.15775 21.0628 3.88989C21.0628 2.62204 18.6736 1.59424 15.7265 1.59424C12.7793 1.59424 10.3901 2.62204 10.3901 3.88989C10.3901 5.15775 12.7793 6.18554 15.7265 6.18554Z" fill="#FFD400"/>
<path d="M12.713 5.70736C11.8027 5.4204 11.1121 5.00591 10.7982 4.55953L15.0987 1.68997C15.3498 1.68997 15.6009 1.65808 15.8206 1.65808C16.6996 1.65808 17.5785 1.75373 18.3318 1.94504L12.713 5.70736Z" fill="#FFFC8F"/>
<path d="M15.0359 6.0899C14.5964 6.05802 14.1883 6.02614 13.7803 5.93048L19.3677 2.23193C19.6816 2.35947 19.9641 2.48701 20.2153 2.64643L15.0359 6.0899Z" fill="#FFFC8F"/>
<path d="M15.7265 5.93042C18.6736 5.93042 21.0628 4.90262 21.0628 3.63476C21.0628 2.36691 18.6736 1.33911 15.7265 1.33911C12.7793 1.33911 10.3901 2.36691 10.3901 3.63476C10.3901 4.90262 12.7793 5.93042 15.7265 5.93042Z" fill="#CE7D13"/>
<path d="M10.3901 2.29558V3.41152C10.3901 4.36804 11.7085 5.16514 13.5919 5.51587C14.0314 5.61152 14.5336 5.67529 15.0359 5.67529C15.2556 5.67529 15.5067 5.70717 15.7265 5.70717C16.4798 5.70717 17.2018 5.6434 17.861 5.51587C19.7444 5.16514 20.7175 4.33616 20.7175 3.37964L21.0628 2.16804C20.3094 1.30717 17.9865 1.08398 15.7265 1.08398C13.9372 1.11587 11.3632 1.72167 10.3901 2.29558Z" fill="#FFC50D"/>
<g opacity="0.43">
<path opacity="0.43" d="M13.6233 3.47534V5.51592C14.0628 5.61157 14.565 5.67534 15.0672 5.67534V3.47534H13.6233Z" fill="#FFFC8F"/>
</g>
<path d="M17.6412 5.54783V1.14783C19.1794 1.27536 20.5291 1.53044 21.0628 2.16812V3.37971C21.0628 4.36812 19.6502 5.22899 17.6412 5.54783Z" fill="#F19D00"/>
<path d="M15.7265 4.5913C18.6736 4.5913 21.0628 3.56351 21.0628 2.29565C21.0628 1.0278 18.6736 0 15.7265 0C12.7793 0 10.3901 1.0278 10.3901 2.29565C10.3901 3.56351 12.7793 4.5913 15.7265 4.5913Z" fill="#FFD400"/>
<path d="M12.713 4.11312C11.8027 3.82616 11.1121 3.41167 10.7982 2.96529L15.0987 0.0957268C15.3498 0.0957268 15.6009 0.0638428 15.8206 0.0638428C16.6996 0.0638428 17.5785 0.159495 18.3318 0.350799L12.713 4.11312Z" fill="#FFFC8F"/>
<path d="M15.0359 4.49567C14.5964 4.46378 14.1883 4.4319 13.7803 4.33625L19.3677 0.637695C19.6816 0.765232 19.9641 0.892768 20.2153 1.05219L15.0359 4.49567Z" fill="#FFFC8F"/>
<path opacity="0.8" d="M9.63678 20.4695C9.63678 21.7449 12.0224 23.4666 14.9731 24.3275C15.287 24.4231 15.6009 24.4869 15.8834 24.5507V13.8376C15.6009 13.7739 15.287 15.5275 14.9731 15.5275C12.5561 15.5275 11.3946 14.6985 10.4215 13.8376C9.79373 14.0289 9.63678 19.9594 9.63678 20.4695Z" fill="#9C86B7"/>
<path d="M1.00452 35.0087C1.00452 36.284 3.39017 37.3043 6.34084 37.3043C9.29151 37.3043 11.6772 36.284 11.6772 35.0087C11.6772 33.7333 9.29151 32.713 6.34084 32.713C3.39017 32.713 1.00452 33.7333 1.00452 35.0087Z" fill="#CE7D13"/>
<path d="M1.00452 33.6695V34.7854C1.00452 35.7419 2.3229 36.539 4.20631 36.8898C4.64577 36.9854 5.14801 37.0492 5.65026 37.0492C5.86999 37.0492 6.12111 37.0811 6.34084 37.0811C7.0942 37.0811 7.81618 37.0173 8.47537 36.8898C10.3588 36.539 11.3319 35.7101 11.3319 34.7535L11.6772 33.5419C10.9238 32.6811 8.60093 32.4579 6.34084 32.4579C4.52021 32.4579 1.97761 33.0637 1.00452 33.6695Z" fill="#FFC50D"/>
<g opacity="0.43">
<path opacity="0.43" d="M4.2063 34.8492V36.8898C4.64576 36.9855 5.148 37.0492 5.65024 37.0492V34.8492H4.2063Z" fill="#FFFC8F"/>
</g>
<path d="M8.25562 36.9217V32.5217C9.79373 32.6493 11.1435 32.9043 11.6771 33.542V34.7536C11.6771 35.742 10.2332 36.571 8.25562 36.9217Z" fill="#F19D00"/>
<path d="M6.34084 35.9652C9.28801 35.9652 11.6772 34.9374 11.6772 33.6696C11.6772 32.4017 9.28801 31.3739 6.34084 31.3739C3.39367 31.3739 1.00452 32.4017 1.00452 33.6696C1.00452 34.9374 3.39367 35.9652 6.34084 35.9652Z" fill="#FFD400"/>
<path d="M3.29602 35.455C2.38571 35.1681 1.69513 34.7536 1.38123 34.3072L5.68167 31.4376C5.93279 31.4376 6.18392 31.4058 6.40365 31.4058C7.28257 31.4058 8.16149 31.5014 8.91486 31.6927L3.29602 35.455Z" fill="#FFFC8F"/>
<path d="M5.65026 35.8696C5.2108 35.8377 4.80273 35.8058 4.39465 35.7101L9.95071 32.0116C10.2646 32.1391 10.5471 32.2667 10.7982 32.4261L5.65026 35.8696Z" fill="#FFFC8F"/>
<path d="M1.00452 33.4144C1.00452 34.6898 3.39017 35.7101 6.34084 35.7101C9.29151 35.7101 11.6772 34.6898 11.6772 33.4144C11.6772 32.1391 9.29151 31.1188 6.34084 31.1188C3.39017 31.1188 1.00452 32.1391 1.00452 33.4144Z" fill="#CE7D13"/>
<path d="M1.00452 32.0752V33.1912C1.00452 34.1477 2.3229 34.9448 4.20631 35.2955C4.64577 35.3912 5.14801 35.455 5.65026 35.455C5.86999 35.455 6.12111 35.4868 6.34084 35.4868C7.0942 35.4868 7.81618 35.4231 8.47537 35.2955C10.3588 34.9448 11.3319 34.1158 11.3319 33.1593L11.6772 31.9477C10.9238 31.0868 8.60093 30.8636 6.34084 30.8636C4.52021 30.8636 1.97761 31.4694 1.00452 32.0752Z" fill="#FFC50D"/>
<g opacity="0.43">
<path opacity="0.43" d="M4.2063 33.255V35.2956C4.64576 35.3912 5.148 35.455 5.65024 35.455V33.255H4.2063Z" fill="#FFFC8F"/>
</g>
<path d="M8.25562 35.3275V30.9275C9.79373 31.055 11.1435 31.3101 11.6771 31.9478V33.1594C11.6771 34.1478 10.2332 34.9768 8.25562 35.3275Z" fill="#F19D00"/>
<path d="M6.34084 34.371C9.28801 34.371 11.6772 33.3432 11.6772 32.0753C11.6772 30.8075 9.28801 29.7797 6.34084 29.7797C3.39367 29.7797 1.00452 30.8075 1.00452 32.0753C1.00452 33.3432 3.39367 34.371 6.34084 34.371Z" fill="#FFD400"/>
<path d="M3.29602 33.8608C2.38571 33.5738 1.69513 33.1593 1.38123 32.713L5.68167 29.8434C5.93279 29.8434 6.18392 29.8115 6.40365 29.8115C7.28257 29.8115 8.16149 29.9072 8.91486 30.0985L3.29602 33.8608Z" fill="#FFFC8F"/>
<path d="M5.65026 34.2753C5.2108 34.2434 4.80273 34.2116 4.39465 34.1159L9.95071 30.4174C10.2646 30.5449 10.5471 30.6724 10.7982 30.8319L5.65026 34.2753Z" fill="#FFFC8F"/>
<path d="M1.00452 31.8202C1.00452 33.0955 3.39017 34.1158 6.34084 34.1158C9.29151 34.1158 11.6772 33.0955 11.6772 31.8202C11.6772 30.5448 9.29151 29.5245 6.34084 29.5245C3.39017 29.5245 1.00452 30.5448 1.00452 31.8202Z" fill="#CE7D13"/>
<path d="M1.00452 30.481V31.5651C1.00452 32.5216 2.3229 33.3187 4.20631 33.6694C4.64577 33.7651 5.14801 33.8289 5.65026 33.8289C5.86999 33.8289 6.12111 33.8607 6.34084 33.8607C7.0942 33.8607 7.81618 33.797 8.47537 33.6694C10.3588 33.3187 11.3319 32.4897 11.3319 31.5332L11.6772 30.3216C10.9238 29.4607 8.60093 29.2375 6.34084 29.2375C4.52021 29.2694 1.97761 29.8752 1.00452 30.481Z" fill="#FFC50D"/>
<g opacity="0.43">
<path opacity="0.43" d="M4.2063 31.6608V33.7013C4.64576 33.797 5.148 33.8608 5.65024 33.8608V31.6608H4.2063Z" fill="#FFFC8F"/>
</g>
<path d="M8.25562 33.7332V29.3333C9.79373 29.4608 11.1435 29.7159 11.6771 30.3535V31.5651C11.6771 32.5535 10.2332 33.3825 8.25562 33.7332Z" fill="#F19D00"/>
<path d="M6.34084 32.7767C9.28801 32.7767 11.6772 31.7489 11.6772 30.4811C11.6772 29.2132 9.28801 28.1854 6.34084 28.1854C3.39367 28.1854 1.00452 29.2132 1.00452 30.4811C1.00452 31.7489 3.39367 32.7767 6.34084 32.7767Z" fill="#FFD400"/>
<path d="M3.29602 32.2666C2.38571 31.9796 1.69513 31.5651 1.38123 31.1187L5.68167 28.2492C5.93279 28.2492 6.18392 28.2173 6.40365 28.2173C7.28257 28.2173 8.16149 28.3129 8.91486 28.5042L3.29602 32.2666Z" fill="#FFFC8F"/>
<path d="M5.65026 32.6811C5.2108 32.6492 4.80273 32.6173 4.39465 32.5217L9.95071 28.8231C10.2646 28.9507 10.5471 29.0782 10.7982 29.2376L5.65026 32.6811Z" fill="#FFFC8F"/>
<path d="M1.00452 30.226C1.00452 31.5013 3.39017 32.5216 6.34084 32.5216C9.29151 32.5216 11.6772 31.5013 11.6772 30.226C11.6772 28.9506 9.29151 27.9303 6.34084 27.9303C3.39017 27.9303 1.00452 28.9506 1.00452 30.226Z" fill="#CE7D13"/>
<path d="M1.00452 28.8868V29.9708C1.00452 30.9274 2.3229 31.7245 4.20631 32.0752C4.64577 32.1708 5.14801 32.2346 5.65026 32.2346C5.86999 32.2346 6.12111 32.2665 6.34084 32.2665C7.0942 32.2665 7.81618 32.2027 8.47537 32.0752C10.3588 31.7245 11.3319 30.8955 11.3319 29.939L11.6772 28.7274C10.9238 27.8665 8.60093 27.6433 6.34084 27.6433C4.52021 27.6752 1.97761 28.281 1.00452 28.8868Z" fill="#FFC50D"/>
<g opacity="0.43">
<path opacity="0.43" d="M4.2063 30.0665V32.1071C4.64576 32.2028 5.148 32.2665 5.65024 32.2665V30.0665H4.2063Z" fill="#FFFC8F"/>
</g>
<path d="M8.25562 32.139V27.739C9.79373 27.8666 11.1435 28.1216 11.6771 28.7593V29.9709C11.6771 30.9593 10.2332 31.7883 8.25562 32.139Z" fill="#F19D00"/>
<path d="M6.34084 31.1825C9.28801 31.1825 11.6772 30.1547 11.6772 28.8868C11.6772 27.619 9.28801 26.5912 6.34084 26.5912C3.39367 26.5912 1.00452 27.619 1.00452 28.8868C1.00452 30.1547 3.39367 31.1825 6.34084 31.1825Z" fill="#FFD400"/>
<path d="M3.29602 30.6723C2.38571 30.3854 1.69513 29.9709 1.38123 29.5245L5.68167 26.6549C5.93279 26.6549 6.18392 26.623 6.40365 26.623C7.28257 26.623 8.16149 26.7187 8.91486 26.91L3.29602 30.6723Z" fill="#FFFC8F"/>
<path d="M5.65026 31.0869C5.2108 31.055 4.80273 31.0231 4.39465 30.9274L9.95071 27.2289C10.2646 27.3564 10.5471 27.484 10.7982 27.6434L5.65026 31.0869Z" fill="#FFFC8F"/>
<path d="M1.00452 28.6318C1.00452 29.9072 3.39017 30.9275 6.34084 30.9275C9.29151 30.9275 11.6772 29.9072 11.6772 28.6318C11.6772 27.3565 9.29151 26.3362 6.34084 26.3362C3.39017 26.3362 1.00452 27.3565 1.00452 28.6318Z" fill="#CE7D13"/>
<path d="M1.00452 27.2927V28.3767C1.00452 29.3333 2.3229 30.1304 4.20631 30.4811C4.64577 30.5767 5.14801 30.6405 5.65026 30.6405C5.86999 30.6405 6.12111 30.6724 6.34084 30.6724C7.0942 30.6724 7.81618 30.6086 8.47537 30.4811C10.3588 30.1304 11.3319 29.3014 11.3319 28.3449L11.6772 27.1333C10.9238 26.2724 8.60093 26.0492 6.34084 26.0492C4.52021 26.0811 1.97761 26.6869 1.00452 27.2927Z" fill="#FFC50D"/>
<g opacity="0.43">
<path opacity="0.43" d="M4.2063 28.4724V30.513C4.64576 30.6086 5.148 30.6724 5.65024 30.6724V28.4724H4.2063Z" fill="#FFFC8F"/>
</g>
<path d="M8.25562 30.5449V26.1449C9.79373 26.2724 11.1435 26.5275 11.6771 27.1652V28.3768C11.6771 29.3652 10.2332 30.1942 8.25562 30.5449Z" fill="#F19D00"/>
<path d="M6.34084 29.5884C9.28801 29.5884 11.6772 28.5606 11.6772 27.2927C11.6772 26.0249 9.28801 24.9971 6.34084 24.9971C3.39367 24.9971 1.00452 26.0249 1.00452 27.2927C1.00452 28.5606 3.39367 29.5884 6.34084 29.5884Z" fill="#FFD400"/>
<path d="M3.29602 29.0782C2.38571 28.7912 1.69513 28.3768 1.38123 27.9304L5.68167 25.0608C5.93279 25.0608 6.18392 25.0289 6.40365 25.0289C7.28257 25.0289 8.16149 25.1246 8.91486 25.3159L3.29602 29.0782Z" fill="#FFFC8F"/>
<path d="M5.65026 29.4927C5.2108 29.4609 4.80273 29.429 4.39465 29.3333L9.95071 25.6348C10.2646 25.7623 10.5471 25.8898 10.7982 26.0493L5.65026 29.4927Z" fill="#FFFC8F"/>
<path d="M1.00452 27.0376C1.00452 28.313 3.39017 29.3332 6.34084 29.3332C9.29151 29.3332 11.6772 28.313 11.6772 27.0376C11.6772 25.7622 9.29151 24.7419 6.34084 24.7419C3.39017 24.7419 1.00452 25.7622 1.00452 27.0376Z" fill="#CE7D13"/>
<path d="M1.00452 25.6984V26.7825C1.00452 27.739 2.3229 28.5361 4.20631 28.8868C4.64577 28.9825 5.14801 29.0463 5.65026 29.0463C5.86999 29.0463 6.12111 29.0781 6.34084 29.0781C7.0942 29.0781 7.81618 29.0144 8.47537 28.8868C10.3588 28.5361 11.3319 27.7071 11.3319 26.7506L11.6772 25.539C10.9238 24.6781 8.60093 24.455 6.34084 24.455C4.52021 24.4868 1.97761 25.0926 1.00452 25.6984Z" fill="#FFC50D"/>
<g opacity="0.43">
<path opacity="0.43" d="M4.2063 26.8782V28.9188C4.64576 29.0144 5.148 29.0782 5.65024 29.0782V26.8782H4.2063Z" fill="#FFFC8F"/>
</g>
<path d="M8.25562 28.9507V24.5507C9.79373 24.6782 11.1435 24.9333 11.6771 25.5709V26.7825C11.6771 27.7709 10.2332 28.5999 8.25562 28.9507Z" fill="#F19D00"/>
<path d="M6.34084 27.9941C9.28801 27.9941 11.6772 26.9663 11.6772 25.6985C11.6772 24.4306 9.28801 23.4028 6.34084 23.4028C3.39367 23.4028 1.00452 24.4306 1.00452 25.6985C1.00452 26.9663 3.39367 27.9941 6.34084 27.9941Z" fill="#FFD400"/>
<path d="M3.29602 27.484C2.38571 27.197 1.69513 26.7825 1.38123 26.3361L5.68167 23.4666C5.93279 23.4666 6.18392 23.4347 6.40365 23.4347C7.28257 23.4347 8.16149 23.5303 8.91486 23.7216L3.29602 27.484Z" fill="#FFFC8F"/>
<path d="M5.65026 27.8985C5.2108 27.8666 4.80273 27.8347 4.39465 27.7391L9.95071 24.0405C10.2646 24.1681 10.5471 24.2956 10.7982 24.455L5.65026 27.8985Z" fill="#FFFC8F"/>
<path d="M1.00452 25.4434C1.00452 26.7187 3.39017 27.739 6.34084 27.739C9.29151 27.739 11.6772 26.7187 11.6772 25.4434C11.6772 24.168 9.29151 23.1477 6.34084 23.1477C3.39017 23.1477 1.00452 24.168 1.00452 25.4434Z" fill="#CE7D13"/>
<path d="M1.00452 24.1042V25.1883C1.00452 26.1448 2.3229 26.9419 4.20631 27.2926C4.64577 27.3883 5.14801 27.452 5.65026 27.452C5.86999 27.452 6.12111 27.4839 6.34084 27.4839C7.0942 27.4839 7.81618 27.4201 8.47537 27.2926C10.3588 26.9419 11.3319 26.1129 11.3319 25.1564L11.6772 23.9448C10.9238 23.0839 8.60093 22.8607 6.34084 22.8607C4.52021 22.8926 1.97761 23.4984 1.00452 24.1042Z" fill="#FFC50D"/>
<g opacity="0.43">
<path opacity="0.43" d="M4.2063 25.2839V27.3245C4.64576 27.4202 5.148 27.4839 5.65024 27.4839V25.2839H4.2063Z" fill="#FFFC8F"/>
</g>
<path d="M8.25562 27.3564V22.9564C9.79373 23.084 11.1435 23.339 11.6771 23.9767V25.1883C11.6771 26.1767 10.2332 27.0057 8.25562 27.3564Z" fill="#F19D00"/>
<path d="M6.34084 26.3999C9.28801 26.3999 11.6772 25.3721 11.6772 24.1042C11.6772 22.8364 9.28801 21.8086 6.34084 21.8086C3.39367 21.8086 1.00452 22.8364 1.00452 24.1042C1.00452 25.3721 3.39367 26.3999 6.34084 26.3999Z" fill="#FFD400"/>
<path d="M3.29602 25.8897C2.38571 25.6028 1.69513 25.1883 1.38123 24.7419L5.68167 21.8723C5.93279 21.8723 6.18392 21.8405 6.40365 21.8405C7.28257 21.8405 8.16149 21.9361 8.91486 22.1274L3.29602 25.8897Z" fill="#FFFC8F"/>
<path d="M5.65026 26.3043C5.2108 26.2724 4.80273 26.2405 4.39465 26.1448L9.95071 22.4463C10.2646 22.5738 10.5471 22.7014 10.7982 22.8608L5.65026 26.3043Z" fill="#FFFC8F"/>
<path d="M1.00452 23.8492C1.00452 25.1246 3.39017 26.1449 6.34084 26.1449C9.29151 26.1449 11.6772 25.1246 11.6772 23.8492C11.6772 22.5739 9.29151 21.5536 6.34084 21.5536C3.39017 21.5536 1.00452 22.5739 1.00452 23.8492Z" fill="#CE7D13"/>
<path d="M1.00452 22.5101V23.5941C1.00452 24.5507 2.3229 25.3478 4.20631 25.6985C4.64577 25.7941 5.14801 25.8579 5.65026 25.8579C5.86999 25.8579 6.12111 25.8898 6.34084 25.8898C7.0942 25.8898 7.81618 25.826 8.47537 25.6985C10.3588 25.3478 11.3319 24.5188 11.3319 23.5623L11.6772 22.3507C10.9238 21.4898 8.60093 21.2666 6.34084 21.2666C4.52021 21.2985 1.97761 21.9043 1.00452 22.5101Z" fill="#FFC50D"/>
<g opacity="0.43">
<path opacity="0.43" d="M4.2063 23.6898V25.7304C4.64576 25.826 5.148 25.8898 5.65024 25.8898V23.6898H4.2063Z" fill="#FFFC8F"/>
</g>
<path d="M8.25562 25.7623V21.3623C9.79373 21.4898 11.1435 21.7449 11.6771 22.3826V23.5942C11.6771 24.5826 10.2332 25.4116 8.25562 25.7623Z" fill="#F19D00"/>
<path d="M6.34084 24.8058C9.28801 24.8058 11.6772 23.778 11.6772 22.5101C11.6772 21.2423 9.28801 20.2145 6.34084 20.2145C3.39367 20.2145 1.00452 21.2423 1.00452 22.5101C1.00452 23.778 3.39367 24.8058 6.34084 24.8058Z" fill="#FFD400"/>
<path d="M3.29602 24.2956C2.38571 24.0087 1.69513 23.5942 1.38123 23.1478L5.68167 20.2782C5.93279 20.2782 6.18392 20.2463 6.40365 20.2463C7.28257 20.2463 8.16149 20.342 8.91486 20.5333L3.29602 24.2956Z" fill="#FFFC8F"/>
<path d="M5.65026 24.7101C5.2108 24.6783 4.80273 24.6464 4.39465 24.5507L9.95071 20.8522C10.2646 20.9797 10.5471 21.1072 10.7982 21.2667L5.65026 24.7101Z" fill="#FFFC8F"/>
<path d="M1.00452 22.255C1.00452 23.5304 3.39017 24.5507 6.34084 24.5507C9.29151 24.5507 11.6772 23.5304 11.6772 22.255C11.6772 20.9796 9.29151 19.9594 6.34084 19.9594C3.39017 19.9594 1.00452 20.9796 1.00452 22.255Z" fill="#CE7D13"/>
<path d="M1.00452 20.9158V21.9999C1.00452 22.9564 2.3229 23.7535 4.20631 24.1042C4.64577 24.1999 5.14801 24.2637 5.65026 24.2637C5.86999 24.2637 6.12111 24.2956 6.34084 24.2956C7.0942 24.2956 7.81618 24.2318 8.47537 24.1042C10.3588 23.7535 11.3319 22.9245 11.3319 21.968L11.6772 20.7564C10.9238 19.8956 8.60093 19.6724 6.34084 19.6724C4.52021 19.7042 1.97761 20.31 1.00452 20.9158Z" fill="#FFC50D"/>
<g opacity="0.43">
<path opacity="0.43" d="M4.2063 22.0956V24.1362C4.64576 24.2318 5.148 24.2956 5.65024 24.2956V22.0956H4.2063Z" fill="#FFFC8F"/>
</g>
<path d="M8.25562 24.1681V19.7681C9.79373 19.8956 11.1435 20.1507 11.6771 20.7884V21.9999C11.6771 22.9884 10.2332 23.8173 8.25562 24.1681Z" fill="#F19D00"/>
<path d="M6.34084 23.2116C9.28801 23.2116 11.6772 22.1838 11.6772 20.9159C11.6772 19.648 9.28801 18.6202 6.34084 18.6202C3.39367 18.6202 1.00452 19.648 1.00452 20.9159C1.00452 22.1838 3.39367 23.2116 6.34084 23.2116Z" fill="#FFD400"/>
<path d="M3.29602 22.7014C2.38571 22.4144 1.69513 21.9999 1.38123 21.5536L5.68167 18.684C5.93279 18.684 6.18392 18.6521 6.40365 18.6521C7.28257 18.6521 8.16149 18.7478 8.91486 18.9391L3.29602 22.7014Z" fill="#FFFC8F"/>
<path d="M5.65026 23.1159C5.2108 23.084 4.80273 23.0521 4.39465 22.9565L9.95071 19.2579C10.2646 19.3855 10.5471 19.513 10.7982 19.6724L5.65026 23.1159Z" fill="#FFFC8F"/>
<path d="M1.00452 20.6608C1.00452 21.9361 3.39017 22.9564 6.34084 22.9564C9.29151 22.9564 11.6772 21.9361 11.6772 20.6608C11.6772 19.3854 9.29151 18.3651 6.34084 18.3651C3.39017 18.3651 1.00452 19.3854 1.00452 20.6608Z" fill="#CE7D13"/>
<path d="M1.00452 19.3216V20.4057C1.00452 21.3622 2.3229 22.1593 4.20631 22.51C4.64577 22.6057 5.14801 22.6694 5.65026 22.6694C5.86999 22.6694 6.12111 22.7013 6.34084 22.7013C7.0942 22.7013 7.81618 22.6375 8.47537 22.51C10.3588 22.1593 11.3319 21.3303 11.3319 20.3738L11.6772 19.1622C10.9238 18.3013 8.60093 18.0781 6.34084 18.0781C4.52021 18.11 1.97761 18.7158 1.00452 19.3216Z" fill="#FFC50D"/>
<g opacity="0.43">
<path opacity="0.43" d="M4.2063 20.5013V22.5419C4.64576 22.6376 5.148 22.7013 5.65024 22.7013V20.5013H4.2063Z" fill="#FFFC8F"/>
</g>
<path d="M8.25562 22.5738V18.1738C9.79373 18.3014 11.1435 18.5564 11.6771 19.1941V20.4057C11.6771 21.3941 10.2332 22.2231 8.25562 22.5738Z" fill="#F19D00"/>
<path d="M6.34084 21.6173C9.28801 21.6173 11.6772 20.5895 11.6772 19.3217C11.6772 18.0538 9.28801 17.026 6.34084 17.026C3.39367 17.026 1.00452 18.0538 1.00452 19.3217C1.00452 20.5895 3.39367 21.6173 6.34084 21.6173Z" fill="#FFD400"/>
<path d="M3.29602 21.1071C2.38571 20.8202 1.69513 20.4057 1.38123 19.9593L5.68167 17.0897C5.93279 17.0897 6.18392 17.0579 6.40365 17.0579C7.28257 17.0579 8.16149 17.1535 8.91486 17.3448L3.29602 21.1071Z" fill="#FFFC8F"/>
<path d="M5.65026 21.5217C5.2108 21.4898 4.80273 21.4579 4.39465 21.3622L9.95071 17.6637C10.2646 17.7912 10.5471 17.9188 10.7982 18.0782L5.65026 21.5217Z" fill="#FFFC8F"/>
<path d="M1.00452 19.0665C1.00452 20.3419 3.39017 21.3622 6.34084 21.3622C9.29151 21.3622 11.6772 20.3419 11.6772 19.0665C11.6772 17.7912 9.29151 16.7709 6.34084 16.7709C3.39017 16.7709 1.00452 17.7912 1.00452 19.0665Z" fill="#CE7D13"/>
<path d="M1.00452 17.7274V18.8114C1.00452 19.7679 2.3229 20.5651 4.20631 20.9158C4.64577 21.0114 5.14801 21.0752 5.65026 21.0752C5.86999 21.0752 6.12111 21.1071 6.34084 21.1071C7.0942 21.1071 7.81618 21.0433 8.47537 20.9158C10.3588 20.5651 11.3319 19.7361 11.3319 18.7795L11.6772 17.5679C10.9238 16.7071 8.60093 16.4839 6.34084 16.4839C4.52021 16.5158 1.97761 17.1216 1.00452 17.7274Z" fill="#FFC50D"/>
<g opacity="0.43">
<path opacity="0.43" d="M4.2063 18.9071V20.9477C4.64576 21.0433 5.148 21.1071 5.65024 21.1071V18.9071H4.2063Z" fill="#FFFC8F"/>
</g>
<path d="M8.25562 20.9796V16.5796C9.79373 16.7071 11.1435 16.9622 11.6771 17.5999V18.8115C11.6771 19.7999 10.2332 20.6289 8.25562 20.9796Z" fill="#F19D00"/>
<path d="M6.34084 20.0231C9.28801 20.0231 11.6772 18.9953 11.6772 17.7274C11.6772 16.4596 9.28801 15.4318 6.34084 15.4318C3.39367 15.4318 1.00452 16.4596 1.00452 17.7274C1.00452 18.9953 3.39367 20.0231 6.34084 20.0231Z" fill="#FFD400"/>
<path d="M3.29602 19.5129C2.38571 19.2259 1.69513 18.8114 1.38123 18.3651L5.68167 15.4955C5.93279 15.4955 6.18392 15.4636 6.40365 15.4636C7.28257 15.4636 8.16149 15.5593 8.91486 15.7506L3.29602 19.5129Z" fill="#FFFC8F"/>
<path d="M5.65026 19.9274C5.2108 19.8955 4.80273 19.8637 4.39465 19.768L9.95071 16.0695C10.2646 16.197 10.5471 16.3245 10.7982 16.484L5.65026 19.9274Z" fill="#FFFC8F"/>
<path d="M1.00452 17.4724C1.00452 18.7478 3.39017 19.7681 6.34084 19.7681C9.29151 19.7681 11.6772 18.7478 11.6772 17.4724C11.6772 16.197 9.29151 15.1768 6.34084 15.1768C3.39017 15.1768 1.00452 16.197 1.00452 17.4724Z" fill="#CE7D13"/>
<path d="M1.00452 16.1332V17.2173C1.00452 18.1738 2.3229 18.9709 4.20631 19.3217C4.64577 19.4173 5.14801 19.4811 5.65026 19.4811C5.86999 19.4811 6.12111 19.513 6.34084 19.513C7.0942 19.513 7.81618 19.4492 8.47537 19.3217C10.3588 18.9709 11.3319 18.1419 11.3319 17.1854L11.6772 15.9738C10.9238 15.113 8.60093 14.8898 6.34084 14.8898C4.52021 14.9217 1.97761 15.5275 1.00452 16.1332Z" fill="#FFC50D"/>
<g opacity="0.43">
<path opacity="0.43" d="M4.2063 17.313V19.3536C4.64576 19.4492 5.148 19.513 5.65024 19.513V17.313H4.2063Z" fill="#FFFC8F"/>
</g>
<path d="M8.25562 19.3855V14.9855C9.79373 15.113 11.1435 15.3681 11.6771 16.0058V17.2174C11.6771 18.2058 10.2332 19.0347 8.25562 19.3855Z" fill="#F19D00"/>
<path d="M6.34084 18.4289C9.28801 18.4289 11.6772 17.4012 11.6772 16.1333C11.6772 14.8654 9.28801 13.8376 6.34084 13.8376C3.39367 13.8376 1.00452 14.8654 1.00452 16.1333C1.00452 17.4012 3.39367 18.4289 6.34084 18.4289Z" fill="#FFD400"/>
<path d="M3.29602 17.9188C2.38571 17.6318 1.69513 17.2173 1.38123 16.771L5.68167 13.9014C5.93279 13.9014 6.18392 13.8695 6.40365 13.8695C7.28257 13.8695 8.16149 13.9652 8.91486 14.1565L3.29602 17.9188Z" fill="#FFFC8F"/>
<path d="M5.65026 18.3333C5.2108 18.3014 4.80273 18.2695 4.39465 18.1739L9.95071 14.4753C10.2646 14.6029 10.5471 14.7304 10.7982 14.8898L5.65026 18.3333Z" fill="#FFFC8F"/>
<path d="M1.00452 15.8782C1.00452 17.1535 3.39017 18.1738 6.34084 18.1738C9.29151 18.1738 11.6772 17.1535 11.6772 15.8782C11.6772 14.6028 9.29151 13.5825 6.34084 13.5825C3.39017 13.5825 1.00452 14.6028 1.00452 15.8782Z" fill="#CE7D13"/>
<path d="M1.00452 14.539V15.6231C1.00452 16.5796 2.3229 17.3767 4.20631 17.7274C4.64577 17.8231 5.14801 17.8868 5.65026 17.8868C5.86999 17.8868 6.12111 17.9187 6.34084 17.9187C7.0942 17.9187 7.81618 17.855 8.47537 17.7274C10.3588 17.3767 11.3319 16.5477 11.3319 15.5912L11.6772 14.3796C10.9238 13.5187 8.60093 13.2955 6.34084 13.2955C4.52021 13.3274 1.97761 13.9332 1.00452 14.539Z" fill="#FFC50D"/>
<g opacity="0.43">
<path opacity="0.43" d="M4.2063 15.7188V17.7593C4.64576 17.855 5.148 17.9187 5.65024 17.9187V15.7188H4.2063Z" fill="#FFFC8F"/>
</g>
<path d="M8.25562 17.7912V13.3912C9.79373 13.5188 11.1435 13.7738 11.6771 14.4115V15.6231C11.6771 16.6115 10.2332 17.4405 8.25562 17.7912Z" fill="#F19D00"/>
<path d="M6.34084 16.8347C9.28801 16.8347 11.6772 15.8069 11.6772 14.5391C11.6772 13.2712 9.28801 12.2434 6.34084 12.2434C3.39367 12.2434 1.00452 13.2712 1.00452 14.5391C1.00452 15.8069 3.39367 16.8347 6.34084 16.8347Z" fill="#FFD400"/>
<path d="M3.29602 16.3245C2.38571 16.0376 1.69513 15.6231 1.38123 15.1767L5.68167 12.3072C5.93279 12.3072 6.18392 12.2753 6.40365 12.2753C7.28257 12.2753 8.16149 12.3709 8.91486 12.5622L3.29602 16.3245Z" fill="#FFFC8F"/>
<path d="M5.65026 16.7391C5.2108 16.7072 4.80273 16.6753 4.39465 16.5797L9.95071 12.8811C10.2646 13.0086 10.5471 13.1362 10.7982 13.2956L5.65026 16.7391Z" fill="#FFFC8F"/>
<path d="M38.3901 29.3971L44.5112 22V25.9536L38.3901 33.3507V33.3826H12.5247V29.3971H38.3901Z" fill="#47752F"/>
<path d="M44.5112 25.3478V21.3942L38.3901 28.7913V32.7449L44.5112 25.3478Z" fill="#4E8436"/>
<path d="M18.7085 21.5217L12.8072 28.6638H38.3274L44.1973 21.5217H18.7085Z" fill="#ADE069"/>
<path d="M12.5247 32.7768H38.3901V28.7913H12.5247V32.7768Z" fill="#70A33C"/>
<path d="M18.6772 21.4897L12.9014 28.5999H38.4215L44.1973 21.4897H18.6772ZM16.1973 26.3042L18.2063 23.8492C19.5561 23.8492 21.2198 23.1158 21.9417 22.2231H39.8655C39.1435 23.1158 39.6144 23.8173 40.9014 23.8492L38.8924 26.3042C37.574 26.3042 35.9731 27.0057 35.2198 27.8666H17.296C17.9552 27.0057 17.4843 26.3042 16.1973 26.3042Z" fill="#70A33C"/>
<path d="M26.3049 25.0608C25.6457 25.8898 26.0852 26.5594 27.3408 26.5594C28.565 26.5594 30.1031 25.8898 30.7937 25.0608C31.4529 24.2318 31.0134 23.5623 29.7578 23.5623C28.5336 23.5623 26.9955 24.2318 26.3049 25.0608Z" fill="#607700"/>
<path d="M32.6457 25.0608C32.2691 25.5072 32.5202 25.8579 33.2108 25.8579C33.8699 25.8579 34.7175 25.5072 35.0628 25.0608C35.4395 24.6144 35.1883 24.2637 34.4978 24.2637C33.8386 24.2318 33.0224 24.6144 32.6457 25.0608Z" fill="white"/>
<path d="M22.0359 25.0608C21.6592 25.5072 21.9103 25.8579 22.6009 25.8579C23.2601 25.8579 24.1076 25.5072 24.4529 25.0608C24.8296 24.6144 24.5785 24.2637 23.8879 24.2637C23.2287 24.2318 22.3812 24.6144 22.0359 25.0608Z" fill="white"/>
<path d="M18.6457 21.3942H44.4798L38.3587 28.7913H12.5247L18.6457 21.3942ZM43.9148 21.6492H18.7713L13.1211 28.5362H38.2646L43.9148 21.6492Z" fill="#9FD65E"/>
<path opacity="0.44" d="M30.5112 21.3942H34.0897L27.9686 28.7913V32.7768H24.3901V28.7913L30.5112 21.3942Z" fill="#48842F"/>
<path d="M23.6368 28.7913V32.7768H27.2153V28.7913L33.3363 21.3942H29.7579L23.6368 28.7913Z" fill="white"/>
<path d="M32.9596 21.3942H33.6816L27.5605 28.7913V32.7768H26.8386V28.7913L32.9596 21.3942Z" fill="#FF895A"/>
<path d="M29.4125 21.3942H30.1345L24.0134 28.7913V32.7768H23.2914V28.7913L29.4125 21.3942Z" fill="#FF895A"/>
<path opacity="0.29" d="M23.3229 28.7913V32.7768H27.5605V28.7913H23.9821H23.3229Z" fill="#846E56"/>
<path d="M38.3901 24.6145L44.5112 17.2174V21.171L38.3901 28.5681V28.6H12.5247V24.6145H38.3901Z" fill="#47752F"/>
<path d="M44.5112 20.5652V16.6116L38.3901 24.0087V27.9623L44.5112 20.5652Z" fill="#4E8436"/>
<path d="M18.7085 16.7391L12.8072 23.8812H38.3274L44.1973 16.7391H18.7085Z" fill="#ADE069"/>
<path d="M12.5247 27.9943H38.3901V24.0088H12.5247V27.9943Z" fill="#70A33C"/>
<path d="M18.6772 16.7072L12.9014 23.8173H38.4215L44.1973 16.7072H18.6772ZM16.1973 21.5216L18.2063 19.0666C19.5561 19.0666 21.2198 18.3332 21.9417 17.4405H39.8655C39.1435 18.3332 39.6144 19.0347 40.9014 19.0666L38.8924 21.5216C37.574 21.5216 35.9731 22.2231 35.2198 23.084H17.296C17.9552 22.2231 17.4843 21.5216 16.1973 21.5216Z" fill="#70A33C"/>
<path d="M26.3049 20.2782C25.6457 21.1072 26.0852 21.7768 27.3408 21.7768C28.565 21.7768 30.1031 21.1072 30.7937 20.2782C31.4529 19.4492 31.0134 18.7797 29.7578 18.7797C28.5336 18.7797 26.9955 19.4492 26.3049 20.2782Z" fill="#607700"/>
<path d="M32.6457 20.2782C32.2691 20.7246 32.5202 21.0753 33.2108 21.0753C33.8699 21.0753 34.7175 20.7246 35.0628 20.2782C35.4395 19.8318 35.1883 19.4811 34.4978 19.4811C33.8386 19.4492 33.0224 19.8318 32.6457 20.2782Z" fill="white"/>
<path d="M22.0359 20.2782C21.6592 20.7246 21.9103 21.0753 22.6009 21.0753C23.2601 21.0753 24.1076 20.7246 24.4529 20.2782C24.8296 19.8318 24.5785 19.4811 23.8879 19.4811C23.2287 19.4492 22.3812 19.8318 22.0359 20.2782Z" fill="white"/>
<path d="M18.6457 16.6116H44.4798L38.3587 24.0087H12.5247L18.6457 16.6116ZM43.9148 16.8666H18.7713L13.1211 23.7536H38.2646L43.9148 16.8666Z" fill="#9FD65E"/>
<path opacity="0.44" d="M30.5112 16.6116H34.0897L27.9686 24.0087V27.9942H24.3901V24.0087L30.5112 16.6116Z" fill="#48842F"/>
<path d="M23.6368 24.0087V27.9942H27.2153V24.0087L33.3363 16.6116H29.7579L23.6368 24.0087Z" fill="white"/>
<path d="M32.9596 16.6116H33.6816L27.5605 24.0087V27.9942H26.8386V24.0087L32.9596 16.6116Z" fill="#FF895A"/>
<path d="M29.4125 16.6116H30.1345L24.0134 24.0087V27.9942H23.2914V24.0087L29.4125 16.6116Z" fill="#FF895A"/>
<path opacity="0.29" d="M23.3229 24.0088V27.9943H27.5605V24.0088H23.9821H23.3229Z" fill="#846E56"/>
<path d="M38.3901 19.8319L44.5112 12.4348V16.3884L38.3901 23.7855V23.8174H12.5247V19.8319H38.3901Z" fill="#47752F"/>
<path d="M44.5112 15.7826V11.829L38.3901 19.2261V23.1797L44.5112 15.7826Z" fill="#4E8436"/>
<path d="M18.7085 11.9565L12.8072 19.0986H38.3274L44.1973 11.9565H18.7085Z" fill="#ADE069"/>
<path d="M12.5247 23.2116H38.3901V19.2261H12.5247V23.2116Z" fill="#70A33C"/>
<path d="M18.6772 11.9246L12.9014 19.0347H38.4215L44.1973 11.9246H18.6772ZM16.1973 16.7391L18.2063 14.284C19.5561 14.284 21.2198 13.5506 21.9417 12.6579H39.8655C39.1435 13.5506 39.6144 14.2521 40.9014 14.284L38.8924 16.7391C37.574 16.7391 35.9731 17.4405 35.2198 18.3014H17.296C17.9552 17.4405 17.4843 16.7391 16.1973 16.7391Z" fill="#70A33C"/>
<path d="M26.3049 15.4956C25.6457 16.3246 26.0852 16.9942 27.3408 16.9942C28.565 16.9942 30.1031 16.3246 30.7937 15.4956C31.4529 14.6666 31.0134 13.9971 29.7578 13.9971C28.5336 13.9971 26.9955 14.6666 26.3049 15.4956Z" fill="#607700"/>
<path d="M32.6457 15.4956C32.2691 15.942 32.5202 16.2927 33.2108 16.2927C33.8699 16.2927 34.7175 15.942 35.0628 15.4956C35.4395 15.0492 35.1883 14.6985 34.4978 14.6985C33.8386 14.6666 33.0224 15.0492 32.6457 15.4956Z" fill="white"/>
<path d="M22.0359 15.4956C21.6592 15.942 21.9103 16.2927 22.6009 16.2927C23.2601 16.2927 24.1076 15.942 24.4529 15.4956C24.8296 15.0492 24.5785 14.6985 23.8879 14.6985C23.2287 14.6666 22.3812 15.0492 22.0359 15.4956Z" fill="white"/>
<path d="M18.6457 11.829H44.4798L38.3587 19.2261H12.5247L18.6457 11.829ZM43.9148 12.0841H18.7713L13.1211 18.971H38.2646L43.9148 12.0841Z" fill="#9FD65E"/>
<path opacity="0.44" d="M30.5112 11.829H34.0897L27.9686 19.2261V23.2116H24.3901V19.2261L30.5112 11.829Z" fill="#48842F"/>
<path d="M23.6368 19.2261V23.2116H27.2153V19.2261L33.3363 11.829H29.7579L23.6368 19.2261Z" fill="white"/>
<path d="M32.9596 11.829H33.6816L27.5605 19.2261V23.2116H26.8386V19.2261L32.9596 11.829Z" fill="#FF895A"/>
<path d="M29.4125 11.829H30.1345L24.0134 19.2261V23.2116H23.2914V19.2261L29.4125 11.829Z" fill="#FF895A"/>
<path opacity="0.29" d="M23.3229 19.2261V23.2116H27.5605V19.2261H23.9821H23.3229Z" fill="#846E56"/>
<path d="M38.3901 15.0492L44.5112 7.6521V11.6057L38.3901 19.0028V19.0347H12.5247V15.0492H38.3901Z" fill="#47752F"/>
<path d="M44.5112 11V7.04639L38.3901 14.4435V18.3971L44.5112 11Z" fill="#4E8436"/>
<path d="M18.7085 7.17395L12.8072 14.316H38.3274L44.1973 7.17395H18.7085Z" fill="#ADE069"/>
<path d="M12.5247 18.429H38.3901V14.4435H12.5247V18.429Z" fill="#70A33C"/>
<path d="M18.6772 7.14197L12.9014 14.2521H38.4215L44.1973 7.14197H18.6772ZM16.1973 11.9565L18.2063 9.50139C19.5561 9.50139 21.2198 8.76806 21.9417 7.8753H39.8655C39.1435 8.76806 39.6144 9.4695 40.9014 9.50139L38.8924 11.9565C37.574 11.9565 35.9731 12.6579 35.2198 13.5188H17.296C17.9552 12.6579 17.4843 11.9565 16.1973 11.9565Z" fill="#70A33C"/>
<path d="M26.3049 10.713C25.6457 11.542 26.0852 12.2116 27.3408 12.2116C28.565 12.2116 30.1031 11.542 30.7937 10.713C31.4529 9.88404 31.0134 9.21448 29.7578 9.21448C28.5336 9.21448 26.9955 9.88404 26.3049 10.713Z" fill="#607700"/>
<path d="M32.6457 10.713C32.2691 11.1594 32.5202 11.5101 33.2108 11.5101C33.8699 11.5101 34.7175 11.1594 35.0628 10.713C35.4395 10.2666 35.1883 9.91592 34.4978 9.91592C33.8386 9.88404 33.0224 10.2666 32.6457 10.713Z" fill="white"/>
<path d="M22.0359 10.713C21.6592 11.1594 21.9103 11.5101 22.6009 11.5101C23.2601 11.5101 24.1076 11.1594 24.4529 10.713C24.8296 10.2666 24.5785 9.91592 23.8879 9.91592C23.2287 9.88404 22.3812 10.2666 22.0359 10.713Z" fill="white"/>
<path d="M18.6457 7.04639H44.4798L38.3587 14.4435H12.5247L18.6457 7.04639ZM43.9148 7.30146H18.7713L13.1211 14.1884H38.2646L43.9148 7.30146Z" fill="#9FD65E"/>
<path opacity="0.44" d="M30.5112 7.04639H34.0897L27.9686 14.4435V18.429H24.3901V14.4435L30.5112 7.04639Z" fill="#48842F"/>
<path d="M23.6368 14.4435V18.429H27.2153V14.4435L33.3363 7.04639H29.7579L23.6368 14.4435Z" fill="white"/>
<path d="M32.9596 7.04639H33.6816L27.5605 14.4435V18.429H26.8386V14.4435L32.9596 7.04639Z" fill="#FF895A"/>
<path d="M29.4125 7.04639H30.1345L24.0134 14.4435V18.429H23.2914V14.4435L29.4125 7.04639Z" fill="#FF895A"/>
<path opacity="0.29" d="M23.3229 14.4435V18.429H27.5605V14.4435H23.9821H23.3229Z" fill="#846E56"/>
<path opacity="0.72" d="M30.4484 33.0319L35.7848 32.0116V21.1073H12.8072V34.3711L30.4484 33.0319Z" fill="#9C86B7"/>
<path d="M25.8341 40.0463L31.9552 32.6173V36.5709L25.8655 43.968L25.8341 43.9999H0V40.0463H25.8341Z" fill="#47752F"/>
<path d="M31.9552 35.9652V32.0116L25.8341 39.4406V43.3623L31.9552 35.9652Z" fill="#4E8436"/>
<path d="M6.18388 32.171L0.282532 39.2812H25.7713L31.6727 32.171H6.18388Z" fill="#ADE069"/>
<path d="M0 43.3942H25.8341V39.4406H0V43.3942Z" fill="#70A33C"/>
<path d="M6.15245 32.1392L0.345276 39.2493H25.8655L31.6412 32.1392H6.15245ZM3.64124 36.9218L5.65021 34.4667C6.99998 34.4667 8.66366 33.7334 9.38563 32.8406H27.3094C26.5874 33.7334 27.0583 34.4348 28.3453 34.4667L26.3363 36.9218C25.0179 36.9218 23.417 37.6232 22.6637 38.4841H4.73989C5.43048 37.6551 4.92824 36.9537 3.64124 36.9218Z" fill="#70A33C"/>
<path d="M13.7803 35.6782C13.1211 36.5072 13.5605 37.1768 14.8161 37.1768C16.0717 37.1768 17.5785 36.5072 18.2691 35.6782C18.9283 34.8493 18.4888 34.1797 17.2332 34.1797C15.9776 34.1797 14.4395 34.8493 13.7803 35.6782Z" fill="#607700"/>
<path d="M20.1211 35.6782C19.7444 36.1246 19.9955 36.4753 20.6861 36.4753C21.3453 36.4753 22.1928 36.1246 22.5381 35.6782C22.9148 35.2318 22.6637 34.8811 21.9731 34.8811C21.3139 34.8811 20.4664 35.2318 20.1211 35.6782Z" fill="white"/>
<path d="M9.51121 35.6782C9.13453 36.1246 9.38565 36.4753 10.0762 36.4753C10.7354 36.4753 11.583 36.1246 11.9283 35.6782C12.3049 35.2318 12.0538 34.8811 11.3632 34.8811C10.704 34.8811 9.8565 35.2318 9.51121 35.6782Z" fill="white"/>
<path d="M6.12108 32.0116H31.9552L25.8341 39.4087H0L6.12108 32.0116ZM31.3901 32.2986H6.24664L0.565022 39.1536H25.7085L31.3901 32.2986Z" fill="#9FD65E"/>
<path opacity="0.44" d="M17.9552 32.0116H21.5337L15.444 39.4406V43.3942H11.8341V39.4406L17.9552 32.0116Z" fill="#48842F"/>
<path d="M11.1121 39.4406V43.3942H14.6906V39.4406L20.8117 32.0116H17.2332L11.1121 39.4406Z" fill="white"/>
<path d="M20.4036 32.0116H21.1256L15.0045 39.4406V43.3942H14.2825V39.4406L20.4036 32.0116Z" fill="#FF895A"/>
<path d="M16.8879 32.0116H17.6098L11.4888 39.4406V43.3942H10.7668V39.4406L16.8879 32.0116Z" fill="#FF895A"/>
<path opacity="0.29" d="M10.7668 39.4406V43.3942H15.0045V39.4406H15.0358H11.426H10.7668Z" fill="#846E56"/>
<path d="M25.8341 35.2638L31.9552 27.8348V31.7885L25.8655 39.1856L25.8341 39.2174H0V35.2638H25.8341Z" fill="#47752F"/>
<path d="M31.9552 31.1826V27.229L25.8341 34.658V38.5797L31.9552 31.1826Z" fill="#4E8436"/>
<path d="M6.18388 27.3884L0.282532 34.4986H25.7713L31.6727 27.3884H6.18388Z" fill="#ADE069"/>
<path d="M0 38.6116H25.8341V34.658H0V38.6116Z" fill="#70A33C"/>
<path d="M6.15245 27.3566L0.345276 34.4667H25.8655L31.6412 27.3566H6.15245ZM3.64124 32.1392L5.65021 29.6841C6.99998 29.6841 8.66366 28.9508 9.38563 28.058H27.3094C26.5874 28.9508 27.0583 29.6522 28.3453 29.6841L26.3363 32.1392C25.0179 32.1392 23.417 32.8406 22.6637 33.7015H4.73989C5.43048 32.8725 4.92824 32.1711 3.64124 32.1392Z" fill="#70A33C"/>
<path d="M13.7803 30.8956C13.1211 31.7246 13.5605 32.3942 14.8161 32.3942C16.0717 32.3942 17.5785 31.7246 18.2691 30.8956C18.9283 30.0667 18.4888 29.3971 17.2332 29.3971C15.9776 29.3971 14.4395 30.0667 13.7803 30.8956Z" fill="#607700"/>
<path d="M20.1211 30.8956C19.7444 31.342 19.9955 31.6927 20.6861 31.6927C21.3453 31.6927 22.1928 31.342 22.5381 30.8956C22.9148 30.4492 22.6637 30.0985 21.9731 30.0985C21.3139 30.0985 20.4664 30.4492 20.1211 30.8956Z" fill="white"/>
<path d="M9.51121 30.8956C9.13453 31.342 9.38565 31.6927 10.0762 31.6927C10.7354 31.6927 11.583 31.342 11.9283 30.8956C12.3049 30.4492 12.0538 30.0985 11.3632 30.0985C10.704 30.0985 9.8565 30.4492 9.51121 30.8956Z" fill="white"/>
<path d="M6.12108 27.229H31.9552L25.8341 34.6261H0L6.12108 27.229ZM31.3901 27.516H6.24664L0.565022 34.371H25.7085L31.3901 27.516Z" fill="#9FD65E"/>
<path opacity="0.44" d="M17.9552 27.229H21.5337L15.444 34.658V38.6116H11.8341V34.658L17.9552 27.229Z" fill="#48842F"/>
<path d="M11.1121 34.658V38.6116H14.6906V34.658L20.8117 27.229H17.2332L11.1121 34.658Z" fill="white"/>
<path d="M20.4036 27.229H21.1256L15.0045 34.658V38.6116H14.2825V34.658L20.4036 27.229Z" fill="#FF895A"/>
<path d="M16.8879 27.229H17.6098L11.4888 34.658V38.6116H10.7668V34.658L16.8879 27.229Z" fill="#FF895A"/>
<path opacity="0.29" d="M10.7668 34.658V38.6116H15.0045V34.658H15.0358H11.426H10.7668Z" fill="#846E56"/>
<path d="M25.8341 30.4811L31.9552 23.0521V27.0057L25.8655 34.4029L25.8341 34.4347H0V30.4811H25.8341Z" fill="#47752F"/>
<path d="M31.9552 26.4V22.4464L25.8341 29.8754V33.7971L31.9552 26.4Z" fill="#4E8436"/>
<path d="M6.18388 22.6058L0.282532 29.716H25.7713L31.6727 22.6058H6.18388Z" fill="#ADE069"/>
<path d="M0 33.829H25.8341V29.8754H0V33.829Z" fill="#70A33C"/>
<path d="M6.15245 22.574L0.345276 29.6841H25.8655L31.6412 22.574H6.15245ZM3.64124 27.3566L5.65021 24.9015C6.99998 24.9015 8.66366 24.1682 9.38563 23.2754H27.3094C26.5874 24.1682 27.0583 24.8696 28.3453 24.9015L26.3363 27.3566C25.0179 27.3566 23.417 28.058 22.6637 28.9189H4.73989C5.43048 28.0899 4.92824 27.3885 3.64124 27.3566Z" fill="#70A33C"/>
<path d="M13.7803 26.1131C13.1211 26.942 13.5605 27.6116 14.8161 27.6116C16.0717 27.6116 17.5785 26.942 18.2691 26.1131C18.9283 25.2841 18.4888 24.6145 17.2332 24.6145C15.9776 24.6145 14.4395 25.2841 13.7803 26.1131Z" fill="#607700"/>
<path d="M20.1211 26.113C19.7444 26.5594 19.9955 26.9101 20.6861 26.9101C21.3453 26.9101 22.1928 26.5594 22.5381 26.113C22.9148 25.6666 22.6637 25.3159 21.9731 25.3159C21.3139 25.3159 20.4664 25.6666 20.1211 26.113Z" fill="white"/>
<path d="M9.51121 26.113C9.13453 26.5594 9.38565 26.9101 10.0762 26.9101C10.7354 26.9101 11.583 26.5594 11.9283 26.113C12.3049 25.6666 12.0538 25.3159 11.3632 25.3159C10.704 25.3159 9.8565 25.6666 9.51121 26.113Z" fill="white"/>
<path d="M6.12108 22.4464H31.9552L25.8341 29.8754H0L6.12108 22.4464ZM31.3901 22.7334H6.24664L0.565022 29.5884H25.7085L31.3901 22.7334Z" fill="#9FD65E"/>
<path opacity="0.44" d="M17.9552 22.4464H21.5337L15.444 29.8754V33.829H11.8341V29.8754L17.9552 22.4464Z" fill="#48842F"/>
<path d="M11.1121 29.8754V33.829H14.6906V29.8754L20.8117 22.4464H17.2332L11.1121 29.8754Z" fill="white"/>
<path d="M20.4036 22.4464H21.1256L15.0045 29.8754V33.829H14.2825V29.8754L20.4036 22.4464Z" fill="#FF895A"/>
<path d="M16.8879 22.4464H17.6098L11.4888 29.8754V33.829H10.7668V29.8754L16.8879 22.4464Z" fill="#FF895A"/>
<path opacity="0.29" d="M10.7668 29.8754V33.829H15.0045V29.8754H15.0358H11.426H10.7668Z" fill="#846E56"/>
<path d="M36.6951 40.7161C39.6423 40.7161 42.0314 39.6883 42.0314 38.4204C42.0314 37.1526 39.6423 36.1248 36.6951 36.1248C33.7479 36.1248 31.3588 37.1526 31.3588 38.4204C31.3588 39.6883 33.7479 40.7161 36.6951 40.7161Z" fill="#CE7D13"/>
<path d="M31.3588 37.0811V38.197C31.3588 39.1536 32.6771 39.9507 34.5606 40.3014C35 40.397 35.5023 40.4608 36.0045 40.4608C36.2242 40.4608 36.4754 40.4927 36.6951 40.4927C37.4484 40.4927 38.1704 40.4289 38.8296 40.3014C40.713 39.9507 41.6861 39.1217 41.6861 38.1652L42.0314 36.9536C41.278 36.0927 38.9552 35.8695 36.6951 35.8695C34.8745 35.8695 32.3319 36.4753 31.3588 37.0811Z" fill="#FFC50D"/>
<g opacity="0.43">
<path opacity="0.43" d="M34.5605 38.2609V40.3014C35 40.3971 35.5023 40.4609 36.0045 40.4609V38.2609H34.5605Z" fill="#FFFC8F"/>
</g>
<path d="M38.6099 40.3334V35.9653C40.148 36.0929 41.4978 36.3479 42.0314 36.9856V38.1972C42.0314 39.1537 40.5875 39.9827 38.6099 40.3334Z" fill="#F19D00"/>
<path d="M36.6951 39.3768C39.6423 39.3768 42.0314 38.349 42.0314 37.0812C42.0314 35.8133 39.6423 34.7855 36.6951 34.7855C33.7479 34.7855 31.3588 35.8133 31.3588 37.0812C31.3588 38.349 33.7479 39.3768 36.6951 39.3768Z" fill="#FFD400"/>
<path d="M33.6503 38.8667C32.74 38.5797 32.0494 38.1652 31.7355 37.7188L36.0359 34.8493C36.287 34.8493 36.5382 34.8174 36.7579 34.8174C37.6368 34.8174 38.5157 34.913 39.2691 35.1043L33.6503 38.8667Z" fill="#FFFC8F"/>
<path d="M36.0045 39.2812C35.565 39.2493 35.157 39.2174 34.7489 39.1218L40.305 35.4232C40.6189 35.5508 40.9014 35.6783 41.1525 35.8377L36.0045 39.2812Z" fill="#FFFC8F"/>
<path d="M36.6951 39.1218C39.6423 39.1218 42.0314 38.094 42.0314 36.8262C42.0314 35.5583 39.6423 34.5305 36.6951 34.5305C33.7479 34.5305 31.3588 35.5583 31.3588 36.8262C31.3588 38.094 33.7479 39.1218 36.6951 39.1218Z" fill="#CE7D13"/>
<path d="M31.3588 35.4869V36.6028C31.3588 37.5593 32.6771 38.3564 34.5606 38.7072C35 38.8028 35.5023 38.8666 36.0045 38.8666C36.2242 38.8666 36.4754 38.8985 36.6951 38.8985C37.4484 38.8985 38.1704 38.8347 38.8296 38.7072C40.713 38.3564 41.6861 37.5274 41.6861 36.5709L42.0314 35.3593C41.278 34.4985 38.9552 34.2753 36.6951 34.2753C34.8745 34.2753 32.3319 34.8811 31.3588 35.4869Z" fill="#FFC50D"/>
<g opacity="0.43">
<path opacity="0.43" d="M34.5605 36.6666V38.7072C35 38.8029 35.5023 38.8666 36.0045 38.8666V36.6666H34.5605Z" fill="#FFFC8F"/>
</g>
<path d="M38.6099 38.7392V34.3711C40.148 34.4986 41.4978 34.7537 42.0314 35.3914V36.603C42.0314 37.5595 40.5875 38.3885 38.6099 38.7392Z" fill="#F19D00"/>
<path d="M36.6951 37.7826C39.6423 37.7826 42.0314 36.7548 42.0314 35.4869C42.0314 34.2191 39.6423 33.1913 36.6951 33.1913C33.7479 33.1913 31.3588 34.2191 31.3588 35.4869C31.3588 36.7548 33.7479 37.7826 36.6951 37.7826Z" fill="#FFD400"/>
<path d="M33.6503 37.2724C32.74 36.9855 32.0494 36.571 31.7355 36.1246L36.0359 33.255C36.287 33.255 36.5382 33.2231 36.7579 33.2231C37.6368 33.2231 38.5157 33.3188 39.2691 33.5101L33.6503 37.2724Z" fill="#FFFC8F"/>
<path d="M36.0045 37.687C35.565 37.6551 35.157 37.6232 34.7489 37.5275L40.305 33.829C40.6189 33.9565 40.9014 34.0841 41.1525 34.2435L36.0045 37.687Z" fill="#FFFC8F"/>
<path d="M36.6951 37.5276C39.6423 37.5276 42.0314 36.4998 42.0314 35.2319C42.0314 33.9641 39.6423 32.9363 36.6951 32.9363C33.7479 32.9363 31.3588 33.9641 31.3588 35.2319C31.3588 36.4998 33.7479 37.5276 36.6951 37.5276Z" fill="#CE7D13"/>
<path d="M31.3588 33.8926V35.0086C31.3588 35.9651 32.6771 36.7622 34.5606 37.1129C35 37.2086 35.5023 37.2723 36.0045 37.2723C36.2242 37.2723 36.4754 37.3042 36.6951 37.3042C37.4484 37.3042 38.1704 37.2405 38.8296 37.1129C40.713 36.7622 41.6861 35.9332 41.6861 34.9767L42.0314 33.7651C41.278 32.9042 38.9552 32.681 36.6951 32.681C34.8745 32.681 32.3319 33.2868 31.3588 33.8926Z" fill="#FFC50D"/>
<g opacity="0.43">
<path opacity="0.43" d="M34.5605 35.0724V37.113C35 37.2086 35.5023 37.2724 36.0045 37.2724V35.0724H34.5605Z" fill="#FFFC8F"/>
</g>
<path d="M38.6099 37.145V32.7769C40.148 32.9044 41.4978 33.1595 42.0314 33.7971V35.0087C42.0314 35.9653 40.5875 36.7942 38.6099 37.145Z" fill="#F19D00"/>
<path d="M36.6951 36.1883C39.6423 36.1883 42.0314 35.1605 42.0314 33.8927C42.0314 32.6248 39.6423 31.597 36.6951 31.597C33.7479 31.597 31.3588 32.6248 31.3588 33.8927C31.3588 35.1605 33.7479 36.1883 36.6951 36.1883Z" fill="#FFD400"/>
<path d="M33.6503 35.6782C32.74 35.3912 32.0494 34.9767 31.7355 34.5304L36.0359 31.6608C36.287 31.6608 36.5382 31.6289 36.7579 31.6289C37.6368 31.6289 38.5157 31.7246 39.2691 31.9159L33.6503 35.6782Z" fill="#FFFC8F"/>
<path d="M36.0045 36.0927C35.565 36.0608 35.157 36.0289 34.7489 35.9333L40.305 32.2347C40.6189 32.3623 40.9014 32.4898 41.1525 32.6492L36.0045 36.0927Z" fill="#FFFC8F"/>
<path d="M36.6951 35.9333C39.6423 35.9333 42.0314 34.9055 42.0314 33.6377C42.0314 32.3698 39.6423 31.342 36.6951 31.342C33.7479 31.342 31.3588 32.3698 31.3588 33.6377C31.3588 34.9055 33.7479 35.9333 36.6951 35.9333Z" fill="#CE7D13"/>
<path d="M31.3588 32.2984V33.4143C31.3588 34.3708 32.6771 35.1679 34.5606 35.5187C35 35.6143 35.5023 35.6781 36.0045 35.6781C36.2242 35.6781 36.4754 35.71 36.6951 35.71C37.4484 35.71 38.1704 35.6462 38.8296 35.5187C40.713 35.1679 41.6861 34.339 41.6861 33.3824L42.0314 32.1708C41.278 31.31 38.9552 31.0868 36.6951 31.0868C34.8745 31.0868 32.3319 31.6926 31.3588 32.2984Z" fill="#FFC50D"/>
<g opacity="0.43">
<path opacity="0.43" d="M34.5605 33.4781V35.5187C35 35.6144 35.5023 35.6782 36.0045 35.6782V33.4781H34.5605Z" fill="#FFFC8F"/>
</g>
<path d="M38.6099 35.5506V31.1506C40.148 31.2782 41.4978 31.5332 42.0314 32.1709V33.3825C42.0314 34.3709 40.5875 35.1999 38.6099 35.5506Z" fill="#F19D00"/>
<path d="M36.6951 34.5941C39.6423 34.5941 42.0314 33.5663 42.0314 32.2985C42.0314 31.0306 39.6423 30.0028 36.6951 30.0028C33.7479 30.0028 31.3588 31.0306 31.3588 32.2985C31.3588 33.5663 33.7479 34.5941 36.6951 34.5941Z" fill="#FFD400"/>
<path d="M33.6503 34.0839C32.74 33.797 32.0494 33.3825 31.7355 32.9361L36.0359 30.0666C36.287 30.0666 36.5382 30.0347 36.7579 30.0347C37.6368 30.0347 38.5157 30.1303 39.2691 30.3216L33.6503 34.0839Z" fill="#FFFC8F"/>
<path d="M36.0045 34.4985C35.565 34.4666 35.157 34.4347 34.7489 34.3391L40.305 30.6405C40.6189 30.768 40.9014 30.8956 41.1525 31.055L36.0045 34.4985Z" fill="#FFFC8F"/>
<path d="M36.6951 34.3391C39.6423 34.3391 42.0314 33.3113 42.0314 32.0435C42.0314 30.7756 39.6423 29.7478 36.6951 29.7478C33.7479 29.7478 31.3588 30.7756 31.3588 32.0435C31.3588 33.3113 33.7479 34.3391 36.6951 34.3391Z" fill="#CE7D13"/>
<path d="M31.3588 30.7043V31.8202C31.3588 32.7767 32.6771 33.5738 34.5606 33.9246C35 34.0202 35.5023 34.084 36.0045 34.084C36.2242 34.084 36.4754 34.1159 36.6951 34.1159C37.4484 34.1159 38.1704 34.0521 38.8296 33.9246C40.713 33.5738 41.6861 32.7448 41.6861 31.7883L42.0314 30.5767C41.278 29.7159 38.9552 29.4927 36.6951 29.4927C34.8745 29.4927 32.3319 30.0985 31.3588 30.7043Z" fill="#FFC50D"/>
<g opacity="0.43">
<path opacity="0.43" d="M34.5605 31.884V33.9246C35 34.0203 35.5023 34.084 36.0045 34.084V31.884H34.5605Z" fill="#FFFC8F"/>
</g>
<path d="M38.6099 33.9565V29.5565C40.148 29.6841 41.4978 29.9391 42.0314 30.5768V31.7884C42.0314 32.7768 40.5875 33.6058 38.6099 33.9565Z" fill="#F19D00"/>
<path d="M36.6951 33C39.6423 33 42.0314 31.9722 42.0314 30.7043C42.0314 29.4365 39.6423 28.4087 36.6951 28.4087C33.7479 28.4087 31.3588 29.4365 31.3588 30.7043C31.3588 31.9722 33.7479 33 36.6951 33Z" fill="#FFD400"/>
<path d="M33.6503 32.4898C32.74 32.2029 32.0494 31.7884 31.7355 31.342L36.0359 28.4724C36.287 28.4724 36.5382 28.4406 36.7579 28.4406C37.6368 28.4406 38.5157 28.5362 39.2691 28.7275L33.6503 32.4898Z" fill="#FFFC8F"/>
<path d="M36.0045 32.9044C35.565 32.8725 35.157 32.8406 34.7489 32.7449L40.305 29.0464C40.6189 29.1739 40.9014 29.3015 41.1525 29.4609L36.0045 32.9044Z" fill="#FFFC8F"/>
<path d="M36.6951 32.7449C39.6423 32.7449 42.0314 31.7171 42.0314 30.4492C42.0314 29.1814 39.6423 28.1536 36.6951 28.1536C33.7479 28.1536 31.3588 29.1814 31.3588 30.4492C31.3588 31.7171 33.7479 32.7449 36.6951 32.7449Z" fill="#CE7D13"/>
<path d="M31.3588 29.11V30.226C31.3588 31.1825 32.6771 31.9796 34.5606 32.3303C35 32.426 35.5023 32.4897 36.0045 32.4897C36.2242 32.4897 36.4754 32.5216 36.6951 32.5216C37.4484 32.5216 38.1704 32.4579 38.8296 32.3303C40.713 31.9796 41.6861 31.1506 41.6861 30.1941L42.0314 28.9825C41.278 28.1216 38.9552 27.8984 36.6951 27.8984C34.8745 27.8984 32.3319 28.5042 31.3588 29.11Z" fill="#FFC50D"/>
<g opacity="0.43">
<path opacity="0.43" d="M34.5605 30.2898V32.3304C35 32.426 35.5023 32.4898 36.0045 32.4898V30.2898H34.5605Z" fill="#FFFC8F"/>
</g>
<path d="M38.6099 32.3623V27.9623C40.148 28.0898 41.4978 28.3449 42.0314 28.9826V30.1942C42.0314 31.1826 40.5875 32.0116 38.6099 32.3623Z" fill="#F19D00"/>
<path d="M36.6951 31.4058C39.6423 31.4058 42.0314 30.378 42.0314 29.1101C42.0314 27.8423 39.6423 26.8145 36.6951 26.8145C33.7479 26.8145 31.3588 27.8423 31.3588 29.1101C31.3588 30.378 33.7479 31.4058 36.6951 31.4058Z" fill="#FFD400"/>
<path d="M33.6503 30.8956C32.74 30.6086 32.0494 30.1941 31.7355 29.7478L36.0359 26.8782C36.287 26.8782 36.5382 26.8463 36.7579 26.8463C37.6368 26.8463 38.5157 26.942 39.2691 27.1333L33.6503 30.8956Z" fill="#FFFC8F"/>
<path d="M36.0045 31.3101C35.565 31.2782 35.157 31.2464 34.7489 31.1507L40.305 27.4521C40.6189 27.5797 40.9014 27.7072 41.1525 27.8666L36.0045 31.3101Z" fill="#FFFC8F"/>
</svg>
