<svg width="67" height="44" viewBox="0 0 67 44" fill="none" xmlns="http://www.w3.org/2000/svg">
<g clip-path="url(#clip0)">
<path d="M55.6711 26.071L60.3024 21.584V23.9822L55.6711 28.4693V28.4886H36.1245V26.071H55.6711Z" fill="#47752F"/>
<path d="M60.3024 23.6148V21.2166L55.6711 25.7036V28.1018L60.3024 23.6148Z" fill="#4E8436"/>
<path d="M40.7795 21.2939L36.3382 25.6262H55.6235L60.0886 21.2939H40.7795Z" fill="#ADE069"/>
<path d="M36.1245 28.1212H55.6711V25.7036H36.1245V28.1212Z" fill="#70A33C"/>
<path d="M40.7558 21.2747L36.3857 25.5876H55.6948L60.0886 21.2747H40.7558ZM38.8795 24.1951L40.3995 22.7059C41.4208 22.7059 42.6796 22.261 43.2258 21.7195H56.7636C56.2173 22.261 56.5736 22.6865 57.5473 22.7059L56.0273 24.1951C55.0298 24.1951 53.8185 24.6206 53.2485 25.1428H39.687C40.2095 24.6206 39.8532 24.1951 38.8795 24.1951Z" fill="#70A33C"/>
<path d="M48.5511 24.1493C49.6004 23.8423 50.3108 23.2757 50.1378 22.8836C49.9649 22.4916 48.974 22.4226 47.9248 22.7296C46.8755 23.0366 46.1651 23.6032 46.338 23.9953C46.511 24.3873 47.5018 24.4563 48.5511 24.1493Z" fill="#607700"/>
<path d="M51.3247 23.4407C51.0397 23.7115 51.2297 23.9242 51.7522 23.9242C52.251 23.9242 52.8922 23.7115 53.1535 23.4407C53.4385 23.1699 53.2485 22.9572 52.726 22.9572C52.251 22.9378 51.6097 23.1699 51.3247 23.4407Z" fill="white"/>
<path d="M43.2971 23.4407C43.0121 23.7115 43.2021 23.9242 43.7246 23.9242C44.2233 23.9242 44.8646 23.7115 45.1258 23.4407C45.4108 23.1699 45.2208 22.9572 44.6983 22.9572C44.1996 22.9378 43.5821 23.1699 43.2971 23.4407Z" fill="white"/>
<path d="M40.732 21.2166H60.2786L55.6473 25.7036H36.1007L40.732 21.2166ZM59.8749 21.3713H40.8508L36.5519 25.5295H55.576L59.8749 21.3713Z" fill="#9FD65E"/>
<path opacity="0.44" d="M49.7097 21.2166H52.4172L47.7859 25.7036V28.1212H45.0783V25.7036L49.7097 21.2166Z" fill="#48842F"/>
<path d="M44.5083 25.7036V28.1212H47.2159V25.7036H47.2396L51.8472 21.2166H49.1397L44.5083 25.7036Z" fill="white"/>
<path d="M51.5622 21.2166H52.1085L47.4771 25.7036V28.1212H46.9309V25.7036L51.5622 21.2166Z" fill="#FF895A"/>
<path d="M48.8784 21.2166H49.4247L44.7933 25.7036V28.1212H44.2471V25.7036L48.8784 21.2166Z" fill="#FF895A"/>
<path opacity="0.29" d="M44.2708 25.7036V28.1212H47.4771V25.7036H44.7696H44.2708Z" fill="#846E56"/>
<path d="M55.6711 23.1701L60.3024 18.6831V21.0813L55.6711 25.5684V25.5877H36.1245V23.1701H55.6711Z" fill="#47752F"/>
<path d="M60.3024 20.7139V18.3157L55.6711 22.8027V25.201L60.3024 20.7139Z" fill="#4E8436"/>
<path d="M40.7795 18.3931L36.3382 22.7254H55.6235L60.0886 18.3931H40.7795Z" fill="#ADE069"/>
<path d="M36.1245 25.2203H55.6711V22.8027H36.1245V25.2203Z" fill="#70A33C"/>
<path d="M40.7558 18.3738L36.3857 22.6867H55.6948L60.0886 18.3738H40.7558ZM38.8795 21.2942L40.3995 19.805C41.4208 19.805 42.6796 19.3602 43.2258 18.8186H56.7636C56.2173 19.3602 56.5736 19.7856 57.5473 19.805L56.0273 21.2942C55.0298 21.2942 53.8185 21.7197 53.2485 22.2419H39.687C40.2095 21.7197 39.8532 21.2942 38.8795 21.2942Z" fill="#70A33C"/>
<path d="M48.5512 21.2484C49.6004 20.9414 50.3108 20.3748 50.1379 19.9827C49.9649 19.5907 48.9741 19.5217 47.9248 19.8287C46.8755 20.1357 46.1651 20.7023 46.3381 21.0944C46.5111 21.4864 47.5019 21.5554 48.5512 21.2484Z" fill="#607700"/>
<path d="M51.3247 20.5398C51.0397 20.8106 51.2297 21.0233 51.7522 21.0233C52.251 21.0233 52.8922 20.8106 53.1535 20.5398C53.4385 20.2691 53.2485 20.0563 52.726 20.0563C52.251 20.037 51.6097 20.2691 51.3247 20.5398Z" fill="white"/>
<path d="M43.2971 20.5398C43.0121 20.8106 43.2021 21.0233 43.7246 21.0233C44.2233 21.0233 44.8646 20.8106 45.1258 20.5398C45.4108 20.2691 45.2208 20.0563 44.6983 20.0563C44.1996 20.037 43.5821 20.2691 43.2971 20.5398Z" fill="white"/>
<path d="M40.732 18.3157H60.2786L55.6473 22.8027H36.1007L40.732 18.3157ZM59.8749 18.4704H40.8508L36.5519 22.6286H55.576L59.8749 18.4704Z" fill="#9FD65E"/>
<path opacity="0.44" d="M49.7097 18.3157H52.4172L47.7859 22.8027V25.2203H45.0783V22.8027L49.7097 18.3157Z" fill="#48842F"/>
<path d="M44.5083 22.8027V25.2203H47.2159V22.8027H47.2396L51.8472 18.3157H49.1397L44.5083 22.8027Z" fill="white"/>
<path d="M51.5622 18.3157H52.1085L47.4771 22.8027V25.2203H46.9309V22.8027L51.5622 18.3157Z" fill="#FF895A"/>
<path d="M48.8784 18.3157H49.4247L44.7933 22.8027V25.2203H44.2471V22.8027L48.8784 18.3157Z" fill="#FF895A"/>
<path opacity="0.29" d="M44.2708 22.8027V25.2203H47.4771V22.8027H44.7696H44.2708Z" fill="#846E56"/>
<path d="M55.6711 20.269L60.3024 15.782V18.1802L55.6711 22.6673V22.6866H36.1245V20.269H55.6711Z" fill="#47752F"/>
<path d="M60.3024 17.8128V15.4146L55.6711 19.9016V22.2998L60.3024 17.8128Z" fill="#4E8436"/>
<path d="M40.7795 15.4919L36.3382 19.8243H55.6235L60.0886 15.4919H40.7795Z" fill="#ADE069"/>
<path d="M36.1245 22.3192H55.6711V19.9016H36.1245V22.3192Z" fill="#70A33C"/>
<path d="M40.7558 15.4727L36.3857 19.7856H55.6948L60.0886 15.4727H40.7558ZM38.8795 18.3931L40.3995 16.9039C41.4208 16.9039 42.6796 16.459 43.2258 15.9175H56.7636C56.2173 16.459 56.5736 16.8845 57.5473 16.9039L56.0273 18.3931C55.0298 18.3931 53.8185 18.8186 53.2485 19.3408H39.687C40.2095 18.8186 39.8532 18.3931 38.8795 18.3931Z" fill="#70A33C"/>
<path d="M48.5512 18.3473C49.6005 18.0403 50.3109 17.4737 50.138 17.0816C49.965 16.6896 48.9742 16.6206 47.9249 16.9276C46.8756 17.2345 46.1652 17.8012 46.3382 18.1933C46.5112 18.5853 47.502 18.6543 48.5512 18.3473Z" fill="#607700"/>
<path d="M51.3247 17.6387C51.0397 17.9095 51.2297 18.1222 51.7522 18.1222C52.251 18.1222 52.8922 17.9095 53.1535 17.6387C53.4385 17.3679 53.2485 17.1552 52.726 17.1552C52.251 17.1358 51.6097 17.3679 51.3247 17.6387Z" fill="white"/>
<path d="M43.2971 17.6387C43.0121 17.9095 43.2021 18.1222 43.7246 18.1222C44.2233 18.1222 44.8646 17.9095 45.1258 17.6387C45.4108 17.3679 45.2208 17.1552 44.6983 17.1552C44.1996 17.1358 43.5821 17.3679 43.2971 17.6387Z" fill="white"/>
<path d="M40.732 15.4146H60.2786L55.6473 19.9016H36.1007L40.732 15.4146ZM59.8749 15.5693H40.8508L36.5519 19.7275H55.576L59.8749 15.5693Z" fill="#9FD65E"/>
<path opacity="0.44" d="M49.7097 15.4146H52.4172L47.7859 19.9016V22.3192H45.0783V19.9016L49.7097 15.4146Z" fill="#48842F"/>
<path d="M44.5083 19.9016V22.3192H47.2159V19.9016H47.2396L51.8472 15.4146H49.1397L44.5083 19.9016Z" fill="white"/>
<path d="M51.5622 15.4146H52.1085L47.4771 19.9016V22.3192H46.9309V19.9016L51.5622 15.4146Z" fill="#FF895A"/>
<path d="M48.8784 15.4146H49.4247L44.7933 19.9016V22.3192H44.2471V19.9016L48.8784 15.4146Z" fill="#FF895A"/>
<path opacity="0.29" d="M44.2708 19.9016V22.3192H47.4771V19.9016H44.7696H44.2708Z" fill="#846E56"/>
<path d="M55.6711 17.3679L60.3024 12.8809V15.2791L55.6711 19.7661V19.7855H36.1245V17.3679H55.6711Z" fill="#47752F"/>
<path d="M60.3024 14.9117V12.5134L55.6711 17.0005V19.3987L60.3024 14.9117Z" fill="#4E8436"/>
<path d="M40.7795 12.5908L36.3382 16.9231H55.6235L60.0886 12.5908H40.7795Z" fill="#ADE069"/>
<path d="M36.1245 19.4181H55.6711V17.0005H36.1245V19.4181Z" fill="#70A33C"/>
<path d="M40.7558 12.5715L36.3857 16.8845H55.6948L60.0886 12.5715H40.7558ZM38.8795 15.492L40.3995 14.0027C41.4208 14.0027 42.6796 13.5579 43.2258 13.0164H56.7636C56.2173 13.5579 56.5736 13.9834 57.5473 14.0027L56.0273 15.492C55.0298 15.492 53.8185 15.9175 53.2485 16.4397H39.687C40.2095 15.9175 39.8532 15.492 38.8795 15.492Z" fill="#70A33C"/>
<path d="M48.5513 15.4462C49.6006 15.1392 50.311 14.5725 50.138 14.1805C49.9651 13.7884 48.9742 13.7195 47.925 14.0265C46.8757 14.3334 46.1653 14.9001 46.3383 15.2921C46.5112 15.6842 47.502 15.7531 48.5513 15.4462Z" fill="#607700"/>
<path d="M51.3247 14.7376C51.0397 15.0083 51.2297 15.2211 51.7522 15.2211C52.251 15.2211 52.8922 15.0083 53.1535 14.7376C53.4385 14.4668 53.2485 14.2541 52.726 14.2541C52.251 14.2347 51.6097 14.4668 51.3247 14.7376Z" fill="white"/>
<path d="M43.2971 14.7376C43.0121 15.0083 43.2021 15.2211 43.7246 15.2211C44.2233 15.2211 44.8646 15.0083 45.1258 14.7376C45.4108 14.4668 45.2208 14.2541 44.6983 14.2541C44.1996 14.2347 43.5821 14.4668 43.2971 14.7376Z" fill="white"/>
<path d="M40.732 12.5134H60.2786L55.6473 17.0005H36.1007L40.732 12.5134ZM59.8749 12.6682H40.8508L36.5519 16.8264H55.576L59.8749 12.6682Z" fill="#9FD65E"/>
<path opacity="0.44" d="M49.7097 12.5134H52.4172L47.7859 17.0005V19.418H45.0783V17.0005L49.7097 12.5134Z" fill="#48842F"/>
<path d="M44.5083 17.0005V19.418H47.2159V17.0005H47.2396L51.8472 12.5134H49.1397L44.5083 17.0005Z" fill="white"/>
<path d="M51.5622 12.5134H52.1085L47.4771 17.0005V19.418H46.9309V17.0005L51.5622 12.5134Z" fill="#FF895A"/>
<path d="M48.8784 12.5134H49.4247L44.7933 17.0005V19.418H44.2471V17.0005L48.8784 12.5134Z" fill="#FF895A"/>
<path opacity="0.29" d="M44.2708 17.0005V19.4181H47.4771V17.0005H44.7696H44.2708Z" fill="#846E56"/>
<path d="M55.6711 14.4668L60.3024 9.97974V12.378L55.6711 16.865V16.8844H36.1245V14.4668H55.6711Z" fill="#47752F"/>
<path d="M60.3024 12.0105V9.6123L55.6711 14.0993V16.4976L60.3024 12.0105Z" fill="#4E8436"/>
<path d="M40.7795 9.6897L36.3382 14.022H55.6235L60.0886 9.6897H40.7795Z" fill="#ADE069"/>
<path d="M36.1245 16.5169H55.6711V14.0994H36.1245V16.5169Z" fill="#70A33C"/>
<path d="M40.7558 9.67041L36.3857 13.9834H55.6948L60.0886 9.67041H40.7558ZM38.8795 12.5909L40.3995 11.1016C41.4208 11.1016 42.6796 10.6568 43.2258 10.1152H56.7636C56.2173 10.6568 56.5736 11.0823 57.5473 11.1016L56.0273 12.5909C55.0298 12.5909 53.8185 13.0163 53.2485 13.5385H39.687C40.2095 13.0163 39.8532 12.5909 38.8795 12.5909Z" fill="#70A33C"/>
<path d="M48.5514 12.545C49.6006 12.2381 50.311 11.6714 50.1381 11.2794C49.9651 10.8873 48.9743 10.8184 47.925 11.1253C46.8758 11.4323 46.1654 11.999 46.3383 12.391C46.5113 12.7831 47.5021 12.852 48.5514 12.545Z" fill="#607700"/>
<path d="M51.3247 11.8365C51.0397 12.1072 51.2297 12.32 51.7522 12.32C52.251 12.32 52.8922 12.1072 53.1535 11.8365C53.4385 11.5657 53.2485 11.3529 52.726 11.3529C52.251 11.3336 51.6097 11.5657 51.3247 11.8365Z" fill="white"/>
<path d="M43.2971 11.8365C43.0121 12.1072 43.2021 12.32 43.7246 12.32C44.2233 12.32 44.8646 12.1072 45.1258 11.8365C45.4108 11.5657 45.2208 11.3529 44.6983 11.3529C44.1996 11.3336 43.5821 11.5657 43.2971 11.8365Z" fill="white"/>
<path d="M40.732 9.6123H60.2786L55.6473 14.0993H36.1007L40.732 9.6123ZM59.8749 9.76703H40.8508L36.5519 13.9253H55.576L59.8749 9.76703Z" fill="#9FD65E"/>
<path opacity="0.44" d="M49.7097 9.6123H52.4172L47.7859 14.0993V16.5169H45.0783V14.0993L49.7097 9.6123Z" fill="#48842F"/>
<path d="M44.5083 14.0993V16.5169H47.2159V14.0993H47.2396L51.8472 9.6123H49.1397L44.5083 14.0993Z" fill="white"/>
<path d="M51.5622 9.6123H52.1085L47.4771 14.0993V16.5169H46.9309V14.0993L51.5622 9.6123Z" fill="#FF895A"/>
<path d="M48.8784 9.6123H49.4247L44.7933 14.0993V16.5169H44.2471V14.0993L48.8784 9.6123Z" fill="#FF895A"/>
<path opacity="0.29" d="M44.2708 14.0994V16.5169H47.4771V14.0994H44.7696H44.2708Z" fill="#846E56"/>
<path d="M55.6711 11.5656L60.3024 7.07861V9.47685L55.6711 13.9639V13.9832H36.1245V11.5656H55.6711Z" fill="#47752F"/>
<path d="M60.3024 9.10942V6.71118L55.6711 11.1982V13.5965L60.3024 9.10942Z" fill="#4E8436"/>
<path d="M40.7795 6.78857L36.3382 11.1209H55.6235L60.0886 6.78857H40.7795Z" fill="#ADE069"/>
<path d="M36.1245 13.6158H55.6711V11.1982H36.1245V13.6158Z" fill="#70A33C"/>
<path d="M40.7558 6.76929L36.3857 11.0823H55.6948L60.0886 6.76929H40.7558ZM38.8795 9.68972L40.3995 8.2005C41.4208 8.2005 42.6796 7.75566 43.2258 7.21412H56.7636C56.2173 7.75566 56.5736 8.18115 57.5473 8.2005L56.0273 9.68972C55.0298 9.68972 53.8185 10.1152 53.2485 10.6374H39.687C40.2095 10.1152 39.8532 9.68972 38.8795 9.68972Z" fill="#70A33C"/>
<path d="M48.5515 9.64392C49.6007 9.33695 50.3111 8.77029 50.1382 8.37824C49.9652 7.9862 48.9744 7.91724 47.9251 8.22421C46.8758 8.53118 46.1654 9.09784 46.3384 9.48989C46.5114 9.88193 47.5022 9.9509 48.5515 9.64392Z" fill="#607700"/>
<path d="M51.3247 8.93533C51.0397 9.2061 51.2297 9.41884 51.7522 9.41884C52.251 9.41884 52.8922 9.2061 53.1535 8.93533C53.4385 8.66456 53.2485 8.45181 52.726 8.45181C52.251 8.43247 51.6097 8.66456 51.3247 8.93533Z" fill="white"/>
<path d="M43.2971 8.93533C43.0121 9.2061 43.2021 9.41884 43.7246 9.41884C44.2233 9.41884 44.8646 9.2061 45.1258 8.93533C45.4108 8.66456 45.2208 8.45181 44.6983 8.45181C44.1996 8.43247 43.5821 8.66456 43.2971 8.93533Z" fill="white"/>
<path d="M40.732 6.71118H60.2786L55.6473 11.1982H36.1007L40.732 6.71118ZM59.8749 6.86591H40.8508L36.5519 11.0241H55.576L59.8749 6.86591Z" fill="#9FD65E"/>
<path opacity="0.44" d="M49.7097 6.71118H52.4172L47.7859 11.1982V13.6158H45.0783V11.1982L49.7097 6.71118Z" fill="#48842F"/>
<path d="M44.5083 11.1982V13.6158H47.2159V11.1982H47.2396L51.8472 6.71118H49.1397L44.5083 11.1982Z" fill="white"/>
<path d="M51.5622 6.71118H52.1085L47.4771 11.1982V13.6158H46.9309V11.1982L51.5622 6.71118Z" fill="#FF895A"/>
<path d="M48.8784 6.71118H49.4247L44.7933 11.1982V13.6158H44.2471V11.1982L48.8784 6.71118Z" fill="#FF895A"/>
<path opacity="0.29" d="M44.2708 11.1982V13.6158H47.4771V11.1982H44.7696H44.2708Z" fill="#846E56"/>
<path d="M19.5466 32.0281L24.1779 27.5217V29.92L19.5704 34.407L19.5466 34.4263H0V32.0281H19.5466Z" fill="#47752F"/>
<path d="M24.178 29.5525V27.1543L19.5466 31.6607V34.0396L24.178 29.5525Z" fill="#4E8436"/>
<path d="M4.67886 27.251L0.213776 31.5639H19.4991L23.9642 27.251H4.67886Z" fill="#ADE069"/>
<path d="M0 34.0589H19.5466V31.6606H0V34.0589Z" fill="#70A33C"/>
<path d="M4.65509 27.2317L0.261261 31.5447H19.5704L23.9405 27.2317H4.65509ZM2.75506 30.1328L4.27509 28.6436C5.29635 28.6436 6.55513 28.1987 7.10139 27.6572H20.6629C20.1166 28.1987 20.4729 28.6242 21.4467 28.6436L19.9266 30.1328C18.9291 30.1328 17.7178 30.5583 17.1478 31.0805H3.58632C4.10883 30.5776 3.72883 30.1521 2.75506 30.1328Z" fill="#70A33C"/>
<path d="M10.4264 29.3785C9.92768 29.8814 10.2602 30.2875 11.2102 30.2875C12.1602 30.2875 13.3002 29.8814 13.8228 29.3785C14.3215 28.8756 13.989 28.4695 13.039 28.4695C12.089 28.4695 10.9252 28.8756 10.4264 29.3785Z" fill="#607700"/>
<path d="M15.224 29.3785C14.939 29.6493 15.129 29.8621 15.6515 29.8621C16.1503 29.8621 16.7916 29.6493 17.0528 29.3785C17.3378 29.1078 17.1478 28.895 16.6253 28.895C16.1265 28.895 15.4853 29.1078 15.224 29.3785Z" fill="white"/>
<path d="M7.19638 29.3785C6.91138 29.6493 7.10138 29.8621 7.62389 29.8621C8.12265 29.8621 8.76391 29.6493 9.02517 29.3785C9.31017 29.1078 9.12017 28.895 8.59766 28.895C8.0989 28.895 7.45764 29.1078 7.19638 29.3785Z" fill="white"/>
<path d="M4.63134 27.1543H24.1779L19.5466 31.6413H0L4.63134 27.1543ZM23.7504 27.3284H4.72634L0.427508 31.4866H19.4516L23.7504 27.3284Z" fill="#9FD65E"/>
<path opacity="0.44" d="M13.5853 27.1543H16.2928L11.6852 31.6607V34.0589H8.95392V31.6607L13.5853 27.1543Z" fill="#48842F"/>
<path d="M8.40765 31.6607V34.0589H11.1152V31.6607V31.6413L15.7465 27.1543H13.039L8.40765 31.6413V31.6607Z" fill="white"/>
<path d="M15.4378 27.1543H15.9841L11.3527 31.6607V34.0589H10.8065V31.6607L15.4378 27.1543Z" fill="#FF895A"/>
<path d="M12.7777 27.1543H13.324L8.69265 31.6607V34.0589H8.14639V31.6607L12.7777 27.1543Z" fill="#FF895A"/>
<path opacity="0.29" d="M8.14639 31.6607V34.0589H11.3527V31.6607L11.3765 31.6414H8.64515L8.14639 31.6607Z" fill="#846E56"/>
<path d="M19.5466 29.127L24.1779 24.6206V27.0188L19.5704 31.5059L19.5466 31.5252H0V29.127H19.5466Z" fill="#47752F"/>
<path d="M24.178 26.6514V24.2532L19.5466 28.7595V31.1384L24.178 26.6514Z" fill="#4E8436"/>
<path d="M4.67886 24.3499L0.213776 28.6628H19.4991L23.9642 24.3499H4.67886Z" fill="#ADE069"/>
<path d="M0 31.1578H19.5466V28.7595H0V31.1578Z" fill="#70A33C"/>
<path d="M4.65509 24.3306L0.261261 28.6435H19.5704L23.9405 24.3306H4.65509ZM2.75506 27.2317L4.27509 25.7424C5.29635 25.7424 6.55513 25.2976 7.10139 24.7561H20.6629C20.1166 25.2976 20.4729 25.7231 21.4467 25.7424L19.9266 27.2317C18.9291 27.2317 17.7178 27.6572 17.1478 28.1794H3.58632C4.10883 27.6765 3.72883 27.251 2.75506 27.2317Z" fill="#70A33C"/>
<path d="M10.4264 26.4774C9.92768 26.9802 10.2602 27.3864 11.2102 27.3864C12.1602 27.3864 13.3002 26.9802 13.8228 26.4774C14.3215 25.9745 13.989 25.5684 13.039 25.5684C12.089 25.5684 10.9252 25.9745 10.4264 26.4774Z" fill="#607700"/>
<path d="M15.224 26.4774C14.939 26.7482 15.129 26.9609 15.6515 26.9609C16.1503 26.9609 16.7916 26.7482 17.0528 26.4774C17.3378 26.2066 17.1478 25.9939 16.6253 25.9939C16.1265 25.9939 15.4853 26.2066 15.224 26.4774Z" fill="white"/>
<path d="M7.19638 26.4774C6.91138 26.7482 7.10138 26.9609 7.62389 26.9609C8.12265 26.9609 8.76391 26.7482 9.02517 26.4774C9.31017 26.2066 9.12017 25.9939 8.59766 25.9939C8.0989 25.9939 7.45764 26.2066 7.19638 26.4774Z" fill="white"/>
<path d="M4.63134 24.2532H24.1779L19.5466 28.7402H0L4.63134 24.2532ZM23.7504 24.4272H4.72634L0.427508 28.5855H19.4516L23.7504 24.4272Z" fill="#9FD65E"/>
<path opacity="0.44" d="M13.5853 24.2532H16.2928L11.6852 28.7595V31.1578H8.95392V28.7595L13.5853 24.2532Z" fill="#48842F"/>
<path d="M8.40765 28.7595V31.1578H11.1152V28.7595V28.7402L15.7465 24.2532H13.039L8.40765 28.7402V28.7595Z" fill="white"/>
<path d="M15.4378 24.2532H15.9841L11.3527 28.7595V31.1578H10.8065V28.7595L15.4378 24.2532Z" fill="#FF895A"/>
<path d="M12.7777 24.2532H13.324L8.69265 28.7595V31.1578H8.14639V28.7595L12.7777 24.2532Z" fill="#FF895A"/>
<path opacity="0.29" d="M8.14639 28.7596V31.1578H11.3527V28.7596L11.3765 28.7402H8.64515L8.14639 28.7596Z" fill="#846E56"/>
<path d="M59.1623 32.531L63.7937 28.0439V30.4422L59.1623 34.9292V34.9486H39.6157V32.531H59.1623Z" fill="#47752F"/>
<path d="M63.7937 30.0748V27.6765L59.1624 32.1635V34.5618L63.7937 30.0748Z" fill="#4E8436"/>
<path d="M44.2708 27.7539L39.8295 32.0862H59.1148L63.5799 27.7539H44.2708Z" fill="#ADE069"/>
<path d="M39.6157 34.5812H59.1623V32.1636H39.6157V34.5812Z" fill="#70A33C"/>
<path d="M44.2471 27.7346L39.877 32.0476H59.1861L63.5562 27.7346H44.2471ZM42.3708 30.6551L43.8908 29.1658C44.9121 29.1658 46.1709 28.721 46.7171 28.1795H60.2786C59.7324 28.721 60.0886 29.1465 61.0624 29.1658L59.5424 30.6551C58.5448 30.6551 57.3336 31.0806 56.7636 31.6027H43.202C43.7008 31.0806 43.3445 30.6744 42.3708 30.6551Z" fill="#70A33C"/>
<path d="M52.0412 30.6105C53.0905 30.3035 53.8008 29.7368 53.6279 29.3448C53.4549 28.9528 52.4641 28.8838 51.4148 29.1908C50.3656 29.4977 49.6552 30.0644 49.8281 30.4564C50.0011 30.8485 50.9919 30.9174 52.0412 30.6105Z" fill="#607700"/>
<path d="M54.8398 29.9008C54.5548 30.1715 54.7448 30.3843 55.2673 30.3843C55.766 30.3843 56.4073 30.1715 56.6686 29.9008C56.9536 29.63 56.7636 29.4172 56.2411 29.4172C55.7423 29.4172 55.101 29.63 54.8398 29.9008Z" fill="white"/>
<path d="M46.7884 29.9008C46.5034 30.1715 46.6934 30.3843 47.2159 30.3843C47.7146 30.3843 48.3559 30.1715 48.6171 29.9008C48.9022 29.63 48.7121 29.4172 48.1896 29.4172C47.6909 29.4172 47.0734 29.63 46.7884 29.9008Z" fill="white"/>
<path d="M44.2233 27.6765H63.7699L59.1386 32.1636H39.592L44.2233 27.6765ZM63.3662 27.8312H44.3421L40.0432 31.9895H59.0673L63.3662 27.8312Z" fill="#9FD65E"/>
<path opacity="0.44" d="M53.201 27.6765H55.9085L51.2772 32.1635V34.5811H48.5696V32.1635L53.201 27.6765Z" fill="#48842F"/>
<path d="M47.9996 32.1635V34.5811H50.7309V32.1635L55.3385 27.6765H52.631L48.0234 32.1635H47.9996Z" fill="white"/>
<path d="M55.0535 27.6765H55.5998L50.9684 32.1635V34.5811H50.4222V32.1635L55.0535 27.6765Z" fill="#FF895A"/>
<path d="M52.3697 27.6765H52.916L48.3084 32.1635V34.5811H47.7621V32.1635L52.3697 27.6765Z" fill="#FF895A"/>
<path opacity="0.29" d="M47.7621 32.1636V34.5812H50.9685V32.1636H48.2609H47.7621Z" fill="#846E56"/>
<path d="M59.1623 29.6299L63.7937 25.1428V27.5411L59.1623 32.0281V32.0474H39.6157V29.6299H59.1623Z" fill="#47752F"/>
<path d="M63.7937 27.1736V24.7754L59.1624 29.2624V31.6607L63.7937 27.1736Z" fill="#4E8436"/>
<path d="M44.2708 24.8528L39.8295 29.1851H59.1148L63.5799 24.8528H44.2708Z" fill="#ADE069"/>
<path d="M39.6157 31.68H59.1623V29.2625H39.6157V31.68Z" fill="#70A33C"/>
<path d="M44.2471 24.8335L39.877 29.1465H59.1861L63.5562 24.8335H44.2471ZM42.3708 27.7539L43.8908 26.2647C44.9121 26.2647 46.1709 25.8199 46.7171 25.2783H60.2786C59.7324 25.8199 60.0886 26.2454 61.0624 26.2647L59.5424 27.7539C58.5448 27.7539 57.3336 28.1794 56.7636 28.7016H43.202C43.7008 28.1794 43.3445 27.7733 42.3708 27.7539Z" fill="#70A33C"/>
<path d="M52.0413 27.7094C53.0906 27.4024 53.801 26.8357 53.628 26.4437C53.4551 26.0516 52.4642 25.9827 51.415 26.2896C50.3657 26.5966 49.6553 27.1633 49.8282 27.5553C50.0012 27.9474 50.992 28.0163 52.0413 27.7094Z" fill="#607700"/>
<path d="M54.8398 26.9996C54.5548 27.2704 54.7448 27.4831 55.2673 27.4831C55.766 27.4831 56.4073 27.2704 56.6686 26.9996C56.9536 26.7289 56.7636 26.5161 56.2411 26.5161C55.7423 26.5161 55.101 26.7289 54.8398 26.9996Z" fill="white"/>
<path d="M46.7884 26.9996C46.5034 27.2704 46.6934 27.4831 47.2159 27.4831C47.7146 27.4831 48.3559 27.2704 48.6171 26.9996C48.9022 26.7289 48.7121 26.5161 48.1896 26.5161C47.6909 26.5161 47.0734 26.7289 46.7884 26.9996Z" fill="white"/>
<path d="M44.2233 24.7754H63.7699L59.1386 29.2624H39.592L44.2233 24.7754ZM63.3662 24.9301H44.3421L40.0432 29.0884H59.0673L63.3662 24.9301Z" fill="#9FD65E"/>
<path opacity="0.44" d="M53.201 24.7754H55.9085L51.2772 29.2624V31.68H48.5696V29.2624L53.201 24.7754Z" fill="#48842F"/>
<path d="M47.9996 29.2624V31.68H50.7309V29.2624L55.3385 24.7754H52.631L48.0234 29.2624H47.9996Z" fill="white"/>
<path d="M55.0535 24.7754H55.5998L50.9684 29.2624V31.68H50.4222V29.2624L55.0535 24.7754Z" fill="#FF895A"/>
<path d="M52.3697 24.7754H52.916L48.3084 29.2624V31.68H47.7621V29.2624L52.3697 24.7754Z" fill="#FF895A"/>
<path opacity="0.29" d="M47.7621 29.2625V31.68H50.9685V29.2625H48.2609H47.7621Z" fill="#846E56"/>
<path d="M59.1623 26.7287L63.7937 22.2417V24.6399L59.1623 29.127V29.1463H39.6157V26.7287H59.1623Z" fill="#47752F"/>
<path d="M63.7937 24.2725V21.8743L59.1624 26.3613V28.7595L63.7937 24.2725Z" fill="#4E8436"/>
<path d="M44.2708 21.9517L39.8295 26.284H59.1148L63.5799 21.9517H44.2708Z" fill="#ADE069"/>
<path d="M39.6157 28.7789H59.1623V26.3613H39.6157V28.7789Z" fill="#70A33C"/>
<path d="M44.2471 21.9324L39.877 26.2453H59.1861L63.5562 21.9324H44.2471ZM42.3708 24.8528L43.8908 23.3636C44.9121 23.3636 46.1709 22.9187 46.7171 22.3772H60.2786C59.7324 22.9187 60.0886 23.3442 61.0624 23.3636L59.5424 24.8528C58.5448 24.8528 57.3336 25.2783 56.7636 25.8005H43.202C43.7008 25.2783 43.3445 24.8722 42.3708 24.8528Z" fill="#70A33C"/>
<path d="M52.0414 24.8082C53.0906 24.5013 53.801 23.9346 53.6281 23.5426C53.4551 23.1505 52.4643 23.0815 51.415 23.3885C50.3657 23.6955 49.6553 24.2622 49.8283 24.6542C50.0013 25.0462 50.9921 25.1152 52.0414 24.8082Z" fill="#607700"/>
<path d="M54.8398 24.0985C54.5548 24.3693 54.7448 24.582 55.2673 24.582C55.766 24.582 56.4073 24.3693 56.6686 24.0985C56.9536 23.8277 56.7636 23.615 56.2411 23.615C55.7423 23.615 55.101 23.8277 54.8398 24.0985Z" fill="white"/>
<path d="M46.7884 24.0985C46.5034 24.3693 46.6934 24.582 47.2159 24.582C47.7146 24.582 48.3559 24.3693 48.6171 24.0985C48.9022 23.8277 48.7121 23.615 48.1896 23.615C47.6909 23.615 47.0734 23.8277 46.7884 24.0985Z" fill="white"/>
<path d="M44.2233 21.8743H63.7699L59.1386 26.3613H39.592L44.2233 21.8743ZM63.3662 22.029H44.3421L40.0432 26.1872H59.0673L63.3662 22.029Z" fill="#9FD65E"/>
<path opacity="0.44" d="M53.201 21.8743H55.9085L51.2772 26.3613V28.7789H48.5696V26.3613L53.201 21.8743Z" fill="#48842F"/>
<path d="M47.9996 26.3613V28.7789H50.7309V26.3613L55.3385 21.8743H52.631L48.0234 26.3613H47.9996Z" fill="white"/>
<path d="M55.0535 21.8743H55.5998L50.9684 26.3613V28.7789H50.4222V26.3613L55.0535 21.8743Z" fill="#FF895A"/>
<path d="M52.3697 21.8743H52.916L48.3084 26.3613V28.7789H47.7621V26.3613L52.3697 21.8743Z" fill="#FF895A"/>
<path opacity="0.29" d="M47.7621 26.3613V28.7789H50.9685V26.3613H48.2609H47.7621Z" fill="#846E56"/>
<path d="M59.1623 23.8276L63.7937 19.3406V21.7388L59.1623 26.2259V26.2452H39.6157V23.8276H59.1623Z" fill="#47752F"/>
<path d="M63.7937 21.3714V18.9731L59.1624 23.4602V25.8584L63.7937 21.3714Z" fill="#4E8436"/>
<path d="M44.2708 19.0505L39.8295 23.3828H59.1148L63.5799 19.0505H44.2708Z" fill="#ADE069"/>
<path d="M39.6157 25.8778H59.1623V23.4602H39.6157V25.8778Z" fill="#70A33C"/>
<path d="M44.2471 19.0312L39.877 23.3442H59.1861L63.5562 19.0312H44.2471ZM42.3708 21.9517L43.8908 20.4625C44.9121 20.4625 46.1709 20.0176 46.7171 19.4761H60.2786C59.7324 20.0176 60.0886 20.4431 61.0624 20.4625L59.5424 21.9517C58.5448 21.9517 57.3336 22.3772 56.7636 22.8994H43.202C43.7008 22.3772 43.3445 21.971 42.3708 21.9517Z" fill="#70A33C"/>
<path d="M52.0414 21.9071C53.0907 21.6001 53.8011 21.0335 53.6281 20.6414C53.4552 20.2494 52.4644 20.1804 51.4151 20.4874C50.3658 20.7944 49.6554 21.361 49.8284 21.7531C50.0014 22.1451 50.9922 22.2141 52.0414 21.9071Z" fill="#607700"/>
<path d="M54.8398 21.1974C54.5548 21.4682 54.7448 21.6809 55.2673 21.6809C55.766 21.6809 56.4073 21.4682 56.6686 21.1974C56.9536 20.9266 56.7636 20.7139 56.2411 20.7139C55.7423 20.7139 55.101 20.9266 54.8398 21.1974Z" fill="white"/>
<path d="M46.7884 21.1974C46.5034 21.4682 46.6934 21.6809 47.2159 21.6809C47.7146 21.6809 48.3559 21.4682 48.6171 21.1974C48.9022 20.9266 48.7121 20.7139 48.1896 20.7139C47.6909 20.7139 47.0734 20.9266 46.7884 21.1974Z" fill="white"/>
<path d="M44.2233 18.9731H63.7699L59.1386 23.4602H39.592L44.2233 18.9731ZM63.3662 19.1279H44.3421L40.0432 23.2861H59.0673L63.3662 19.1279Z" fill="#9FD65E"/>
<path opacity="0.44" d="M53.201 18.9731H55.9085L51.2772 23.4602V25.8778H48.5696V23.4602L53.201 18.9731Z" fill="#48842F"/>
<path d="M47.9996 23.4602V25.8778H50.7309V23.4602L55.3385 18.9731H52.631L48.0234 23.4602H47.9996Z" fill="white"/>
<path d="M55.0535 18.9731H55.5998L50.9684 23.4602V25.8778H50.4222V23.4602L55.0535 18.9731Z" fill="#FF895A"/>
<path d="M52.3697 18.9731H52.916L48.3084 23.4602V25.8778H47.7621V23.4602L52.3697 18.9731Z" fill="#FF895A"/>
<path opacity="0.29" d="M47.7621 23.4602V25.8778H50.9685V23.4602H48.2609H47.7621Z" fill="#846E56"/>
<path d="M35.8632 19.3598L40.4945 14.8728V17.271L35.8632 21.7581V21.7774H16.3166V19.3598H35.8632Z" fill="#47752F"/>
<path d="M40.4945 16.9036V14.5054L35.8632 18.9924V21.3906L40.4945 16.9036Z" fill="#4E8436"/>
<path d="M20.9716 14.5828L16.5303 18.9151H35.8157L40.2808 14.5828H20.9716Z" fill="#ADE069"/>
<path d="M16.3166 21.41H35.8632V18.9924H16.3166V21.41Z" fill="#70A33C"/>
<path d="M20.9479 14.5635L16.5778 18.8764H35.8869L40.257 14.5635H20.9479ZM19.0716 17.4839L20.5916 15.9947C21.6129 15.9947 22.8717 15.5498 23.4179 15.0083H36.9794C36.4332 15.5498 36.7894 15.9753 37.7632 15.9947L36.2432 17.4839C35.2457 17.4839 34.0344 17.9094 33.4644 18.4316H19.9029C20.4016 17.9094 20.0454 17.5033 19.0716 17.4839Z" fill="#70A33C"/>
<path d="M26.743 16.7296C26.2442 17.2324 26.5767 17.6386 27.5268 17.6386C28.4768 17.6386 29.6168 17.2324 30.1393 16.7296C30.6381 16.2267 30.3056 15.8206 29.3555 15.8206C28.4055 15.8206 27.2418 16.2267 26.743 16.7296Z" fill="#607700"/>
<path d="M31.5406 16.7296C31.2556 17.0004 31.4456 17.2131 31.9681 17.2131C32.4669 17.2131 33.1081 17.0004 33.3694 16.7296C33.6544 16.4588 33.4644 16.2461 32.9419 16.2461C32.4431 16.2461 31.8018 16.4588 31.5406 16.7296Z" fill="white"/>
<path d="M23.4892 16.7296C23.2042 17.0004 23.3942 17.2131 23.9167 17.2131C24.4155 17.2131 25.0567 17.0004 25.318 16.7296C25.603 16.4588 25.413 16.2461 24.8905 16.2461C24.3917 16.2461 23.7742 16.4588 23.4892 16.7296Z" fill="white"/>
<path d="M20.9241 14.5054H40.4708L35.8632 18.9924H16.3166L20.9241 14.5054ZM40.067 14.6601H21.0191L16.7441 18.8377H35.7682L40.067 14.6601Z" fill="#9FD65E"/>
<path opacity="0.44" d="M29.9018 14.5054H32.6094L27.978 18.9924V21.41H25.2705V18.9924L29.9018 14.5054Z" fill="#48842F"/>
<path d="M24.7005 18.9924V21.41H27.4318V18.9924L32.0394 14.5054H29.3318L24.7242 18.9924H24.7005Z" fill="white"/>
<path d="M31.7544 14.5054H32.3006L27.6693 18.9924V21.41H27.123V18.9924L31.7544 14.5054Z" fill="#FF895A"/>
<path d="M29.0705 14.5054H29.6168L25.0092 18.9924V21.41H24.463V18.9924L29.0705 14.5054Z" fill="#FF895A"/>
<path opacity="0.29" d="M24.463 18.9924V21.41H27.6693V18.9924H24.9617H24.463Z" fill="#846E56"/>
<path d="M35.8632 16.459L40.4945 11.9719V14.3702L35.8632 18.8572V18.8765H16.3166V16.459H35.8632Z" fill="#47752F"/>
<path d="M40.4945 14.0027V11.6045L35.8632 16.0915V18.4898L40.4945 14.0027Z" fill="#4E8436"/>
<path d="M20.9716 11.6819L16.5303 16.0142H35.8157L40.2808 11.6819H20.9716Z" fill="#ADE069"/>
<path d="M16.3166 18.5091H35.8632V16.0916H16.3166V18.5091Z" fill="#70A33C"/>
<path d="M20.9479 11.6626L16.5778 15.9756H35.8869L40.257 11.6626H20.9479ZM19.0716 14.583L20.5916 13.0938C21.6129 13.0938 22.8717 12.649 23.4179 12.1074H36.9794C36.4332 12.649 36.7894 13.0745 37.7632 13.0938L36.2432 14.583C35.2457 14.583 34.0344 15.0085 33.4644 15.5307H19.9029C20.4016 15.0085 20.0454 14.6024 19.0716 14.583Z" fill="#70A33C"/>
<path d="M26.743 13.8287C26.2442 14.3315 26.5767 14.7377 27.5268 14.7377C28.4768 14.7377 29.6168 14.3315 30.1393 13.8287C30.6381 13.3258 30.3056 12.9197 29.3555 12.9197C28.4055 12.9197 27.2418 13.3258 26.743 13.8287Z" fill="#607700"/>
<path d="M31.5406 13.8287C31.2556 14.0995 31.4456 14.3122 31.9681 14.3122C32.4669 14.3122 33.1081 14.0995 33.3694 13.8287C33.6544 13.558 33.4644 13.3452 32.9419 13.3452C32.4431 13.3452 31.8018 13.558 31.5406 13.8287Z" fill="white"/>
<path d="M23.4892 13.8287C23.2042 14.0995 23.3942 14.3122 23.9167 14.3122C24.4155 14.3122 25.0567 14.0995 25.318 13.8287C25.603 13.558 25.413 13.3452 24.8905 13.3452C24.3917 13.3452 23.7742 13.558 23.4892 13.8287Z" fill="white"/>
<path d="M20.9241 11.6045H40.4708L35.8632 16.0915H16.3166L20.9241 11.6045ZM40.067 11.7592H21.0191L16.7441 15.9368H35.7682L40.067 11.7592Z" fill="#9FD65E"/>
<path opacity="0.44" d="M29.9018 11.6045H32.6094L27.978 16.0915V18.5091H25.2705V16.0915L29.9018 11.6045Z" fill="#48842F"/>
<path d="M24.7005 16.0915V18.5091H27.4318V16.0915L32.0394 11.6045H29.3318L24.7242 16.0915H24.7005Z" fill="white"/>
<path d="M31.7544 11.6045H32.3006L27.6693 16.0915V18.5091H27.123V16.0915L31.7544 11.6045Z" fill="#FF895A"/>
<path d="M29.0705 11.6045H29.6168L25.0092 16.0915V18.5091H24.463V16.0915L29.0705 11.6045Z" fill="#FF895A"/>
<path opacity="0.29" d="M24.463 16.0916V18.5091H27.6693V16.0916H24.9617H24.463Z" fill="#846E56"/>
<path d="M35.8632 13.5578L40.4945 9.0708V11.469L35.8632 15.9561V15.9754H16.3166V13.5578H35.8632Z" fill="#47752F"/>
<path d="M40.4945 11.1016V8.70337L35.8632 13.1904V15.5886L40.4945 11.1016Z" fill="#4E8436"/>
<path d="M20.9716 8.78076L16.5303 13.1131H35.8157L40.2808 8.78076H20.9716Z" fill="#ADE069"/>
<path d="M16.3166 15.608H35.8632V13.1904H16.3166V15.608Z" fill="#70A33C"/>
<path d="M20.9479 8.76147L16.5778 13.0744H35.8869L40.257 8.76147H20.9479ZM19.0716 11.6819L20.5916 10.1927C21.6129 10.1927 22.8717 9.74785 23.4179 9.20631H36.9794C36.4332 9.74785 36.7894 10.1733 37.7632 10.1927L36.2432 11.6819C35.2457 11.6819 34.0344 12.1074 33.4644 12.6296H19.9029C20.4016 12.1074 20.0454 11.7013 19.0716 11.6819Z" fill="#70A33C"/>
<path d="M26.743 10.9276C26.2442 11.4304 26.5767 11.8366 27.5268 11.8366C28.4768 11.8366 29.6168 11.4304 30.1393 10.9276C30.6381 10.4247 30.3056 10.0186 29.3555 10.0186C28.4055 10.0186 27.2418 10.4247 26.743 10.9276Z" fill="#607700"/>
<path d="M31.5406 10.9276C31.2556 11.1984 31.4456 11.4111 31.9681 11.4111C32.4669 11.4111 33.1081 11.1984 33.3694 10.9276C33.6306 10.6568 33.4644 10.4441 32.9419 10.4441C32.4431 10.4441 31.8018 10.6568 31.5406 10.9276Z" fill="white"/>
<path d="M23.4892 10.9276C23.2042 11.1984 23.3942 11.4111 23.9167 11.4111C24.4155 11.4111 25.0567 11.1984 25.318 10.9276C25.5792 10.6568 25.413 10.4441 24.8905 10.4441C24.3917 10.4441 23.7742 10.6568 23.4892 10.9276Z" fill="white"/>
<path d="M20.9241 8.70337H40.4708L35.8632 13.1904H16.3166L20.9241 8.70337ZM40.067 8.85809H21.0191L16.7441 13.0357H35.7682L40.067 8.85809Z" fill="#9FD65E"/>
<path opacity="0.44" d="M29.9018 8.70337H32.6094L27.978 13.1904V15.608H25.2705V13.1904L29.9018 8.70337Z" fill="#48842F"/>
<path d="M24.7005 13.1904V15.608H27.4318V13.1904L32.0394 8.70337H29.3318L24.7242 13.1904H24.7005Z" fill="white"/>
<path d="M31.7544 8.70337H32.3006L27.6693 13.1904V15.608H27.123V13.1904L31.7544 8.70337Z" fill="#FF895A"/>
<path d="M29.0705 8.70337H29.6168L25.0092 13.1904V15.608H24.463V13.1904L29.0705 8.70337Z" fill="#FF895A"/>
<path opacity="0.29" d="M24.463 13.1904V15.608H27.6693V13.1904H24.9617H24.463Z" fill="#846E56"/>
<path d="M35.8632 10.6567L40.4945 6.16968V8.56792L35.8632 13.0549V13.0743H16.3166V10.6567H35.8632Z" fill="#47752F"/>
<path d="M40.4945 8.20049V5.80225L35.8632 10.2893V12.6875L40.4945 8.20049Z" fill="#4E8436"/>
<path d="M20.9716 5.87964L16.5303 10.2119H35.8157L40.2808 5.87964H20.9716Z" fill="#ADE069"/>
<path d="M16.3166 12.7069H35.8632V10.2893H16.3166V12.7069Z" fill="#70A33C"/>
<path d="M20.9479 5.86035L16.5778 10.1733H35.8869L40.257 5.86035H20.9479ZM19.0716 8.78079L20.5916 7.29156C21.6129 7.29156 22.8717 6.84673 23.4179 6.30519H36.9794C36.4332 6.84673 36.7894 7.27222 37.7632 7.29156L36.2432 8.78079C35.2457 8.78079 34.0344 9.20629 33.4644 9.72848H19.9029C20.4016 9.20629 20.0454 8.80013 19.0716 8.78079Z" fill="#70A33C"/>
<path d="M26.743 8.02644C26.2442 8.5293 26.5767 8.93545 27.5268 8.93545C28.4768 8.93545 29.6168 8.5293 30.1393 8.02644C30.6381 7.52359 30.3056 7.11743 29.3555 7.11743C28.4055 7.11743 27.2418 7.52359 26.743 8.02644Z" fill="#607700"/>
<path d="M31.5406 8.02648C31.2556 8.29725 31.4456 8.51 31.9681 8.51C32.4669 8.51 33.1081 8.29725 33.3694 8.02648C33.6306 7.75572 33.4644 7.54297 32.9419 7.54297C32.4431 7.54297 31.8018 7.75572 31.5406 8.02648Z" fill="white"/>
<path d="M23.4892 8.02648C23.2042 8.29725 23.3942 8.51 23.9167 8.51C24.4155 8.51 25.0567 8.29725 25.318 8.02648C25.5792 7.75572 25.413 7.54297 24.8905 7.54297C24.3917 7.54297 23.7742 7.75572 23.4892 8.02648Z" fill="white"/>
<path d="M20.9241 5.80225H40.4708L35.8632 10.2893H16.3166L20.9241 5.80225ZM40.067 5.95697H21.0191L16.7441 10.1346H35.7682L40.067 5.95697Z" fill="#9FD65E"/>
<path opacity="0.44" d="M29.9018 5.80225H32.6094L27.978 10.2893V12.7069H25.2705V10.2893L29.9018 5.80225Z" fill="#48842F"/>
<path d="M24.7005 10.2893V12.7069H27.4318V10.2893L32.0394 5.80225H29.3318L24.7242 10.2893H24.7005Z" fill="white"/>
<path d="M31.7544 5.80225H32.3006L27.6693 10.2893V12.7069H27.123V10.2893L31.7544 5.80225Z" fill="#FF895A"/>
<path d="M29.0705 5.80225H29.6168L25.0092 10.2893V12.7069H24.463V10.2893L29.0705 5.80225Z" fill="#FF895A"/>
<path opacity="0.29" d="M24.463 10.2893V12.7069H27.6693V10.2893H24.9617H24.463Z" fill="#846E56"/>
<path d="M35.8632 7.75559L40.4945 3.26855V5.6668L35.8632 10.1538V10.1732H16.3166V7.75559H35.8632Z" fill="#47752F"/>
<path d="M40.4945 5.29937V2.90112L35.8632 7.38816V9.7864L40.4945 5.29937Z" fill="#4E8436"/>
<path d="M20.9716 2.97852L16.5303 7.31082H35.8157L40.2808 2.97852H20.9716Z" fill="#ADE069"/>
<path d="M16.3166 9.80576H35.8632V7.38818H16.3166V9.80576Z" fill="#70A33C"/>
<path d="M20.9479 2.95923L16.5778 7.27219H35.8869L40.257 2.95923H20.9479ZM19.0716 5.87967L20.5916 4.39044C21.6129 4.39044 22.8717 3.9456 23.4179 3.40406H36.9794C36.4332 3.9456 36.7894 4.3711 37.7632 4.39044L36.2432 5.87967C35.2457 5.87967 34.0344 6.30516 33.4644 6.82736H19.9029C20.4016 6.30516 20.0454 5.89901 19.0716 5.87967Z" fill="#70A33C"/>
<path d="M26.743 5.12532C26.2442 5.62818 26.5767 6.03433 27.5268 6.03433C28.4768 6.03433 29.6168 5.62818 30.1393 5.12532C30.6381 4.62246 30.3056 4.21631 29.3555 4.21631C28.4055 4.21631 27.2418 4.62246 26.743 5.12532Z" fill="#607700"/>
<path d="M31.5406 5.12536C31.2556 5.39613 31.4456 5.60888 31.9681 5.60888C32.4669 5.60888 33.1081 5.39613 33.3694 5.12536C33.6306 4.85459 33.4644 4.64185 32.9419 4.64185C32.4431 4.64185 31.8018 4.85459 31.5406 5.12536Z" fill="white"/>
<path d="M23.4892 5.12536C23.2042 5.39613 23.3942 5.60888 23.9167 5.60888C24.4155 5.60888 25.0567 5.39613 25.318 5.12536C25.5792 4.85459 25.413 4.64185 24.8905 4.64185C24.3917 4.64185 23.7742 4.85459 23.4892 5.12536Z" fill="white"/>
<path d="M20.9241 2.90112H40.4708L35.8632 7.38816H16.3166L20.9241 2.90112ZM40.067 3.05585H21.0191L16.7441 7.23343H35.7682L40.067 3.05585Z" fill="#9FD65E"/>
<path opacity="0.44" d="M29.9018 2.90112H32.6094L27.978 7.38816V9.80574H25.2705V7.38816L29.9018 2.90112Z" fill="#48842F"/>
<path d="M24.7005 7.38816V9.80574H27.4318V7.38816L32.0394 2.90112H29.3318L24.7242 7.38816H24.7005Z" fill="white"/>
<path d="M31.7544 2.90112H32.3006L27.6693 7.38816V9.80574H27.123V7.38816L31.7544 2.90112Z" fill="#FF895A"/>
<path d="M29.0705 2.90112H29.6168L25.0092 7.38816V9.80574H24.463V7.38816L29.0705 2.90112Z" fill="#FF895A"/>
<path opacity="0.29" d="M24.463 7.38818V9.80576H27.6693V7.38818H24.9617H24.463Z" fill="#846E56"/>
<path d="M35.8632 4.85446L40.4945 0.367432V2.76567L35.8632 7.25271V7.27205H16.3166V4.85446H35.8632Z" fill="#47752F"/>
<path d="M40.4945 2.39824V0L35.8632 4.48703V6.88527L40.4945 2.39824Z" fill="#4E8436"/>
<path d="M20.9716 0.0773926L16.5303 4.4097H35.8157L40.2808 0.0773926H20.9716Z" fill="#ADE069"/>
<path d="M16.3166 6.90464H35.8632V4.48706H16.3166V6.90464Z" fill="#70A33C"/>
<path d="M20.9479 0.0581055L16.5778 4.37107H35.8869L40.257 0.0581055H20.9479ZM19.0716 2.97854L20.5916 1.48931C21.6129 1.48931 22.8717 1.04448 23.4179 0.502941H36.9794C36.4332 1.04448 36.7894 1.46997 37.7632 1.48931L36.2432 2.97854C35.2457 2.97854 34.0344 3.40404 33.4644 3.92624H19.9029C20.4016 3.40404 20.0454 2.99789 19.0716 2.97854Z" fill="#70A33C"/>
<path d="M26.743 2.2242C26.2442 2.72705 26.5767 3.13321 27.5268 3.13321C28.4768 3.13321 29.6168 2.72705 30.1393 2.2242C30.6381 1.72134 30.3056 1.31519 29.3555 1.31519C28.4055 1.31519 27.2418 1.72134 26.743 2.2242Z" fill="#607700"/>
<path d="M31.5406 2.22424C31.2556 2.49501 31.4456 2.70776 31.9681 2.70776C32.4669 2.70776 33.1081 2.49501 33.3694 2.22424C33.6306 1.95347 33.4644 1.74072 32.9419 1.74072C32.4431 1.74072 31.8018 1.95347 31.5406 2.22424Z" fill="white"/>
<path d="M23.4892 2.22424C23.2042 2.49501 23.3942 2.70776 23.9167 2.70776C24.4155 2.70776 25.0567 2.49501 25.318 2.22424C25.5792 1.95347 25.413 1.74072 24.9142 1.74072C24.3917 1.74072 23.7742 1.95347 23.4892 2.22424Z" fill="white"/>
<path d="M20.9241 0H40.4708L35.8632 4.48703H16.3166L20.9241 0ZM40.067 0.154725H21.0191L16.7441 4.33231H35.7682L40.067 0.154725Z" fill="#9FD65E"/>
<path opacity="0.44" d="M29.9018 0H32.6094L27.978 4.48703V6.90462H25.2705V4.48703L29.9018 0Z" fill="#48842F"/>
<path d="M24.7005 4.48703V6.90462H27.4318V4.48703L32.0394 0H29.3318L24.7242 4.48703H24.7005Z" fill="white"/>
<path d="M31.7544 0H32.3006L27.6693 4.48703V6.90462H27.123V4.48703L31.7544 0Z" fill="#FF895A"/>
<path d="M29.0705 0H29.6168L25.0092 4.48703V6.90462H24.463V4.48703L29.0705 0Z" fill="#FF895A"/>
<path opacity="0.29" d="M24.463 4.48706V6.90464H27.6693V4.48706H24.9617H24.463Z" fill="#846E56"/>
<path opacity="0.72" d="M21.4229 25.375L25.4605 21.2168V14.6023H16.3166V22.6287L21.4229 25.375Z" fill="#9C86B7"/>
<path d="M26.6243 35.0837L31.2556 30.5967V32.9949L26.6243 37.482V37.5013H7.07764V35.0837H26.6243Z" fill="#47752F"/>
<path d="M31.2556 32.6275V30.2292L26.6243 34.7163V37.1145L31.2556 32.6275Z" fill="#4E8436"/>
<path d="M11.7565 30.3066L7.29141 34.639H26.5768L31.0419 30.3066H11.7565Z" fill="#ADE069"/>
<path d="M7.07764 37.1339H26.6243V34.7163H7.07764V37.1339Z" fill="#70A33C"/>
<path d="M11.7328 30.2874L7.36267 34.6003H26.6718L31.0419 30.2874H11.7328ZM9.83272 33.2078L11.3527 31.7186C12.374 31.7186 13.6328 31.2737 14.179 30.7322H27.7406C27.1943 31.2737 27.5505 31.6992 28.5243 31.7186L27.0043 33.2078C26.0068 33.2078 24.7955 33.6333 24.2255 34.1555H10.664C11.1865 33.6333 10.8065 33.2078 9.83272 33.2078Z" fill="#70A33C"/>
<path d="M19.5047 33.163C20.554 32.856 21.2644 32.2893 21.0914 31.8973C20.9185 31.5052 19.9276 31.4363 18.8784 31.7432C17.8291 32.0502 17.1187 32.6169 17.2917 33.0089C17.4646 33.401 18.4554 33.4699 19.5047 33.163Z" fill="#607700"/>
<path d="M22.3017 32.4534C22.0167 32.7242 22.2067 32.9369 22.7292 32.9369C23.2279 32.9369 23.8692 32.7242 24.1305 32.4534C24.4155 32.1826 24.2255 31.9699 23.7029 31.9699C23.2042 31.9505 22.5629 32.1826 22.3017 32.4534Z" fill="white"/>
<path d="M14.2503 32.4534C13.9653 32.7242 14.1553 32.9369 14.6778 32.9369C15.1765 32.9369 15.8178 32.7242 16.0791 32.4534C16.3641 32.1826 16.1741 31.9699 15.6516 31.9699C15.1528 31.9505 14.5353 32.1826 14.2503 32.4534Z" fill="white"/>
<path d="M11.709 30.2292H31.2556L26.6243 34.7163H7.07764L11.709 30.2292ZM30.8281 30.384H11.804L7.50515 34.5422H26.5293L30.8281 30.384Z" fill="#9FD65E"/>
<path opacity="0.44" d="M20.6629 30.2292H23.3704L18.7391 34.7163V37.1339H16.0316V34.7163L20.6629 30.2292Z" fill="#48842F"/>
<path d="M15.4853 34.7163V37.1339H18.1928V34.7163L22.8004 30.2292H20.0929L15.4853 34.7163Z" fill="white"/>
<path d="M22.5154 30.2292H23.0617L18.4304 34.7163V37.1339H17.8841V34.7163L22.5154 30.2292Z" fill="#FF895A"/>
<path d="M19.8554 30.2292H20.3779L15.7703 34.7163V37.1339H15.224V34.7163L19.8554 30.2292Z" fill="#FF895A"/>
<path opacity="0.29" d="M15.224 34.7163V37.1339H18.4303V34.7163H15.7228H15.224Z" fill="#846E56"/>
<path d="M26.6243 32.1828L31.2556 27.6958V30.094L26.6243 34.5811V34.6004H7.07764V32.1828H26.6243Z" fill="#47752F"/>
<path d="M31.2556 29.7266V27.3284L26.6243 31.8154V34.2136L31.2556 29.7266Z" fill="#4E8436"/>
<path d="M11.7565 27.4058L7.29141 31.7381H26.5768L31.0419 27.4058H11.7565Z" fill="#ADE069"/>
<path d="M7.07764 34.233H26.6243V31.8154H7.07764V34.233Z" fill="#70A33C"/>
<path d="M11.7328 27.3865L7.36267 31.6994H26.6718L31.0419 27.3865H11.7328ZM9.83272 30.3069L11.3527 28.8177C12.374 28.8177 13.6328 28.3728 14.179 27.8313H27.7406C27.1943 28.3728 27.5505 28.7983 28.5243 28.8177L27.0043 30.3069C26.0068 30.3069 24.7955 30.7324 24.2255 31.2546H10.664C11.1865 30.7324 10.8065 30.3069 9.83272 30.3069Z" fill="#70A33C"/>
<path d="M19.5048 30.2621C20.5541 29.9551 21.2645 29.3885 21.0915 28.9964C20.9186 28.6044 19.9277 28.5354 18.8785 28.8424C17.8292 29.1493 17.1188 29.716 17.2917 30.1081C17.4647 30.5001 18.4555 30.5691 19.5048 30.2621Z" fill="#607700"/>
<path d="M22.3017 29.5525C22.0167 29.8233 22.2067 30.036 22.7292 30.036C23.2279 30.036 23.8692 29.8233 24.1305 29.5525C24.4155 29.2817 24.2255 29.069 23.7029 29.069C23.2042 29.0497 22.5629 29.2817 22.3017 29.5525Z" fill="white"/>
<path d="M14.2503 29.5525C13.9653 29.8233 14.1553 30.036 14.6778 30.036C15.1765 30.036 15.8178 29.8233 16.0791 29.5525C16.3641 29.2817 16.1741 29.069 15.6516 29.069C15.1528 29.0497 14.5353 29.2817 14.2503 29.5525Z" fill="white"/>
<path d="M11.709 27.3284H31.2556L26.6243 31.8154H7.07764L11.709 27.3284ZM30.8281 27.4831H11.804L7.50515 31.6413H26.5293L30.8281 27.4831Z" fill="#9FD65E"/>
<path opacity="0.44" d="M20.6629 27.3284H23.3704L18.7391 31.8154V34.233H16.0316V31.8154L20.6629 27.3284Z" fill="#48842F"/>
<path d="M15.4853 31.8154V34.233H18.1928V31.8154L22.8004 27.3284H20.0929L15.4853 31.8154Z" fill="white"/>
<path d="M22.5154 27.3284H23.0617L18.4304 31.8154V34.233H17.8841V31.8154L22.5154 27.3284Z" fill="#FF895A"/>
<path d="M19.8554 27.3284H20.3779L15.7703 31.8154V34.233H15.224V31.8154L19.8554 27.3284Z" fill="#FF895A"/>
<path opacity="0.29" d="M15.224 31.8154V34.233H18.4303V31.8154H15.7228H15.224Z" fill="#846E56"/>
<path d="M26.6243 29.2817L31.2556 24.7947V27.1929L26.6243 31.68V31.6993H7.07764V29.2817H26.6243Z" fill="#47752F"/>
<path d="M31.2556 26.8255V24.4272L26.6243 28.9143V31.3125L31.2556 26.8255Z" fill="#4E8436"/>
<path d="M11.7565 24.5046L7.29141 28.8369H26.5768L31.0419 24.5046H11.7565Z" fill="#ADE069"/>
<path d="M7.07764 31.3319H26.6243V28.9143H7.07764V31.3319Z" fill="#70A33C"/>
<path d="M11.7328 24.4854L7.36267 28.7983H26.6718L31.0419 24.4854H11.7328ZM9.83272 27.4058L11.3527 25.9166C12.374 25.9166 13.6328 25.4717 14.179 24.9302H27.7406C27.1943 25.4717 27.5505 25.8972 28.5243 25.9166L27.0043 27.4058C26.0068 27.4058 24.7955 27.8313 24.2255 28.3535H10.664C11.1865 27.8313 10.8065 27.4058 9.83272 27.4058Z" fill="#70A33C"/>
<path d="M19.5049 27.361C20.5541 27.054 21.2645 26.4873 21.0916 26.0953C20.9186 25.7032 19.9278 25.6343 18.8785 25.9412C17.8292 26.2482 17.1188 26.8149 17.2918 27.2069C17.4648 27.599 18.4556 27.6679 19.5049 27.361Z" fill="#607700"/>
<path d="M22.3017 26.6514C22.0167 26.9222 22.2067 27.1349 22.7292 27.1349C23.2279 27.1349 23.8692 26.9222 24.1305 26.6514C24.4155 26.3806 24.2255 26.1679 23.7029 26.1679C23.2042 26.1485 22.5629 26.3806 22.3017 26.6514Z" fill="white"/>
<path d="M14.2503 26.6514C13.9653 26.9222 14.1553 27.1349 14.6778 27.1349C15.1765 27.1349 15.8178 26.9222 16.0791 26.6514C16.3641 26.3806 16.1741 26.1679 15.6516 26.1679C15.1528 26.1485 14.5353 26.3806 14.2503 26.6514Z" fill="white"/>
<path d="M11.709 24.4272H31.2556L26.6243 28.9143H7.07764L11.709 24.4272ZM30.8281 24.582H11.804L7.50515 28.7402H26.5293L30.8281 24.582Z" fill="#9FD65E"/>
<path opacity="0.44" d="M20.6629 24.4272H23.3704L18.7391 28.9143V31.3319H16.0316V28.9143L20.6629 24.4272Z" fill="#48842F"/>
<path d="M15.4853 28.9143V31.3319H18.1928V28.9143L22.8004 24.4272H20.0929L15.4853 28.9143Z" fill="white"/>
<path d="M22.5154 24.4272H23.0617L18.4304 28.9143V31.3319H17.8841V28.9143L22.5154 24.4272Z" fill="#FF895A"/>
<path d="M19.8554 24.4272H20.3779L15.7703 28.9143V31.3319H15.224V28.9143L19.8554 24.4272Z" fill="#FF895A"/>
<path opacity="0.29" d="M15.224 28.9143V31.3319H18.4303V28.9143H15.7228H15.224Z" fill="#846E56"/>
<path d="M26.6243 26.3806L31.2556 21.8936V24.2918L26.6243 28.7788V28.7982H7.07764V26.3806H26.6243Z" fill="#47752F"/>
<path d="M31.2556 23.9244V21.5261L26.6243 26.0132V28.4114L31.2556 23.9244Z" fill="#4E8436"/>
<path d="M11.7565 21.6035L7.29141 25.9358H26.5768L31.0419 21.6035H11.7565Z" fill="#ADE069"/>
<path d="M7.07764 28.4308H26.6243V26.0132H7.07764V28.4308Z" fill="#70A33C"/>
<path d="M11.7328 21.5842L7.36267 25.8972H26.6718L31.0419 21.5842H11.7328ZM9.83272 24.5047L11.3527 23.0154C12.374 23.0154 13.6328 22.5706 14.179 22.0291H27.7406C27.1943 22.5706 27.5505 22.9961 28.5243 23.0154L27.0043 24.5047C26.0068 24.5047 24.7955 24.9302 24.2255 25.4524H10.664C11.1865 24.9302 10.8065 24.5047 9.83272 24.5047Z" fill="#70A33C"/>
<path d="M19.5049 24.4598C20.5542 24.1529 21.2646 23.5862 21.0916 23.1942C20.9187 22.8021 19.9279 22.7332 18.8786 23.0401C17.8293 23.3471 17.1189 23.9138 17.2919 24.3058C17.4648 24.6978 18.4556 24.7668 19.5049 24.4598Z" fill="#607700"/>
<path d="M22.3017 23.7503C22.0167 24.021 22.2067 24.2338 22.7292 24.2338C23.2279 24.2338 23.8692 24.021 24.1305 23.7503C24.4155 23.4795 24.2255 23.2668 23.7029 23.2668C23.2042 23.2474 22.5629 23.4795 22.3017 23.7503Z" fill="white"/>
<path d="M14.2503 23.7503C13.9653 24.021 14.1553 24.2338 14.6778 24.2338C15.1765 24.2338 15.8178 24.021 16.0791 23.7503C16.3641 23.4795 16.1741 23.2668 15.6516 23.2668C15.1528 23.2474 14.5353 23.4795 14.2503 23.7503Z" fill="white"/>
<path d="M11.709 21.5261H31.2556L26.6243 26.0132H7.07764L11.709 21.5261ZM30.8281 21.6808H11.804L7.50515 25.8391H26.5293L30.8281 21.6808Z" fill="#9FD65E"/>
<path opacity="0.44" d="M20.6629 21.5261H23.3704L18.7391 26.0132V28.4307H16.0316V26.0132L20.6629 21.5261Z" fill="#48842F"/>
<path d="M15.4853 26.0132V28.4307H18.1928V26.0132L22.8004 21.5261H20.0929L15.4853 26.0132Z" fill="white"/>
<path d="M22.5154 21.5261H23.0617L18.4304 26.0132V28.4307H17.8841V26.0132L22.5154 21.5261Z" fill="#FF895A"/>
<path d="M19.8554 21.5261H20.3779L15.7703 26.0132V28.4307H15.224V26.0132L19.8554 21.5261Z" fill="#FF895A"/>
<path opacity="0.29" d="M15.224 26.0132V28.4308H18.4303V26.0132H15.7228H15.224Z" fill="#846E56"/>
<path d="M26.6243 23.4795L31.2556 18.9924V21.3907L26.6243 25.8777V25.897H7.07764V23.4795H26.6243Z" fill="#47752F"/>
<path d="M31.2556 21.0232V18.625L26.6243 23.112V25.5103L31.2556 21.0232Z" fill="#4E8436"/>
<path d="M11.7565 18.7024L7.29141 23.0347H26.5768L31.0419 18.7024H11.7565Z" fill="#ADE069"/>
<path d="M7.07764 25.5297H26.6243V23.1121H7.07764V25.5297Z" fill="#70A33C"/>
<path d="M11.7328 18.6831L7.36267 22.9961H26.6718L31.0419 18.6831H11.7328ZM9.83272 21.6035L11.3527 20.1143C12.374 20.1143 13.6328 19.6695 14.179 19.1279H27.7406C27.1943 19.6695 27.5505 20.095 28.5243 20.1143L27.0043 21.6035C26.0068 21.6035 24.7955 22.029 24.2255 22.5512H10.664C11.1865 22.029 10.8065 21.6035 9.83272 21.6035Z" fill="#70A33C"/>
<path d="M19.505 21.5587C20.5543 21.2517 21.2647 20.6851 21.0917 20.293C20.9188 19.901 19.9279 19.832 18.8787 20.139C17.8294 20.446 17.119 21.0126 17.292 21.4047C17.4649 21.7967 18.4557 21.8657 19.505 21.5587Z" fill="#607700"/>
<path d="M22.3017 20.8491C22.0167 21.1199 22.2067 21.3327 22.7292 21.3327C23.2279 21.3327 23.8692 21.1199 24.1305 20.8491C24.4155 20.5784 24.2255 20.3656 23.7029 20.3656C23.2042 20.3463 22.5629 20.5784 22.3017 20.8491Z" fill="white"/>
<path d="M14.2503 20.8491C13.9653 21.1199 14.1553 21.3327 14.6778 21.3327C15.1765 21.3327 15.8178 21.1199 16.0791 20.8491C16.3641 20.5784 16.1741 20.3656 15.6516 20.3656C15.1528 20.3463 14.5353 20.5784 14.2503 20.8491Z" fill="white"/>
<path d="M11.709 18.625H31.2556L26.6243 23.112H7.07764L11.709 18.625ZM30.8281 18.7797H11.804L7.50515 22.938H26.5293L30.8281 18.7797Z" fill="#9FD65E"/>
<path opacity="0.44" d="M20.6629 18.625H23.3704L18.7391 23.112V25.5296H16.0316V23.112L20.6629 18.625Z" fill="#48842F"/>
<path d="M15.4853 23.112V25.5296H18.1928V23.112L22.8004 18.625H20.0929L15.4853 23.112Z" fill="white"/>
<path d="M22.5154 18.625H23.0617L18.4304 23.112V25.5296H17.8841V23.112L22.5154 18.625Z" fill="#FF895A"/>
<path d="M19.8554 18.625H20.3779L15.7703 23.112V25.5296H15.224V23.112L19.8554 18.625Z" fill="#FF895A"/>
<path opacity="0.29" d="M15.224 23.1121V25.5297H18.4303V23.1121H15.7228H15.224Z" fill="#846E56"/>
<path d="M26.6243 20.5783L31.2556 16.0913V18.4896L26.6243 22.9766V22.9959H7.07764V20.5783H26.6243Z" fill="#47752F"/>
<path d="M31.2556 18.1221V15.7239L26.6243 20.2109V22.6092L31.2556 18.1221Z" fill="#4E8436"/>
<path d="M11.7565 15.8013L7.29141 20.1336H26.5768L31.0419 15.8013H11.7565Z" fill="#ADE069"/>
<path d="M7.07764 22.6285H26.6243V20.2109H7.07764V22.6285Z" fill="#70A33C"/>
<path d="M11.7328 15.782L7.36267 20.095H26.6718L31.0419 15.782H11.7328ZM9.83272 18.7024L11.3527 17.2132C12.374 17.2132 13.6328 16.7684 14.179 16.2268H27.7406C27.1943 16.7684 27.5505 17.1939 28.5243 17.2132L27.0043 18.7024C26.0068 18.7024 24.7955 19.1279 24.2255 19.6501H10.664C11.1865 19.1279 10.8065 18.7024 9.83272 18.7024Z" fill="#70A33C"/>
<path d="M19.5051 18.6576C20.5544 18.3506 21.2647 17.784 21.0918 17.3919C20.9188 16.9999 19.928 16.9309 18.8787 17.2379C17.8295 17.5449 17.1191 18.1115 17.292 18.5036C17.465 18.8956 18.4558 18.9646 19.5051 18.6576Z" fill="#607700"/>
<path d="M22.3017 17.948C22.0167 18.2188 22.2067 18.4315 22.7292 18.4315C23.2279 18.4315 23.8692 18.2188 24.1305 17.948C24.4155 17.6773 24.2255 17.4645 23.7029 17.4645C23.2042 17.4452 22.5629 17.6773 22.3017 17.948Z" fill="white"/>
<path d="M14.2503 17.948C13.9653 18.2188 14.1553 18.4315 14.6778 18.4315C15.1765 18.4315 15.8178 18.2188 16.0791 17.948C16.3641 17.6773 16.1741 17.4645 15.6516 17.4645C15.1528 17.4452 14.5353 17.6773 14.2503 17.948Z" fill="white"/>
<path d="M11.709 15.7239H31.2556L26.6243 20.2109H7.07764L11.709 15.7239ZM30.8281 15.8786H11.804L7.50515 20.0368H26.5293L30.8281 15.8786Z" fill="#9FD65E"/>
<path opacity="0.44" d="M20.6629 15.7239H23.3704L18.7391 20.2109V22.6285H16.0316V20.2109L20.6629 15.7239Z" fill="#48842F"/>
<path d="M15.4853 20.2109V22.6285H18.1928V20.2109L22.8004 15.7239H20.0929L15.4853 20.2109Z" fill="white"/>
<path d="M22.5154 15.7239H23.0617L18.4304 20.2109V22.6285H17.8841V20.2109L22.5154 15.7239Z" fill="#FF895A"/>
<path d="M19.8554 15.7239H20.3779L15.7703 20.2109V22.6285H15.224V20.2109L19.8554 15.7239Z" fill="#FF895A"/>
<path opacity="0.29" d="M15.224 20.2109V22.6285H18.4303V20.2109H15.7228H15.224Z" fill="#846E56"/>
<path d="M43.3446 36.2056L47.9759 31.6992V34.0975L43.3683 38.5845V38.6232H23.7979V36.2056H43.3446Z" fill="#47752F"/>
<path d="M47.9759 33.73V31.3318L43.3445 35.8382L43.3683 38.2364L47.9759 33.73Z" fill="#4E8436"/>
<path d="M28.4768 31.4285L24.0117 35.7608H43.2971L47.7622 31.4285H28.4768Z" fill="#ADE069"/>
<path d="M23.7979 38.2557H43.3683L43.3446 35.8381H23.7979V38.2557Z" fill="#70A33C"/>
<path d="M28.453 31.4092L24.0829 35.7221H43.3921L47.7621 31.4092H28.453ZM26.553 34.3296L28.073 32.8404C29.0943 32.8404 30.3531 32.3956 30.8993 31.854H44.4608C43.9146 32.3956 44.2708 32.8211 45.2446 32.8404L43.7246 34.3296C42.727 34.3296 41.5158 34.7551 40.9458 35.2773H27.3843C27.9068 34.7551 27.5268 34.3296 26.553 34.3296Z" fill="#70A33C"/>
<path d="M34.2244 33.556C33.7256 34.0588 34.0581 34.465 35.0081 34.465C35.9582 34.465 37.0982 34.0588 37.6207 33.556C38.1195 33.0531 37.7869 32.647 36.8369 32.647C35.8869 32.647 34.7231 33.0725 34.2244 33.556Z" fill="#607700"/>
<path d="M39.022 33.556C38.737 33.8268 38.927 34.0395 39.4495 34.0395C39.9482 34.0395 40.5895 33.8268 40.8508 33.556C41.1358 33.2853 40.9458 33.0725 40.4233 33.0725C39.9245 33.0725 39.2832 33.2853 39.022 33.556Z" fill="white"/>
<path d="M30.9943 33.556C30.7093 33.8268 30.8993 34.0395 31.4218 34.0395C31.9206 34.0395 32.5618 33.8268 32.8231 33.556C33.1081 33.2853 32.9181 33.0725 32.3956 33.0725C31.8968 33.0725 31.2556 33.2853 30.9943 33.556Z" fill="white"/>
<path d="M28.4293 31.3318H47.9759L43.3446 35.8188H23.7979L28.4293 31.3318ZM47.5484 31.5059H28.5243L24.2255 35.6641H43.2496L47.5484 31.5059Z" fill="#9FD65E"/>
<path opacity="0.44" d="M37.3832 31.3318H40.0908L35.4832 35.8382V38.2557H32.7519V35.8382L37.3832 31.3318Z" fill="#48842F"/>
<path d="M32.2056 35.8382V38.2364H34.9131V35.8382L39.5445 31.3318H36.8369L32.2056 35.8382Z" fill="white"/>
<path d="M39.2357 31.3318H39.782L35.1507 35.8382V38.2557H34.6044V35.8382L39.2357 31.3318Z" fill="#FF895A"/>
<path d="M36.5757 31.3318H37.1219L32.4906 35.8382V38.2557H31.9443V35.8382L36.5757 31.3318Z" fill="#FF895A"/>
<path opacity="0.29" d="M31.9443 35.8381V38.2364H35.1506V35.8381H35.1744H32.4431H31.9443Z" fill="#846E56"/>
<path d="M43.3446 33.3045L47.9759 28.7981V31.1963L43.3683 35.6834V35.722H23.7979V33.3045H43.3446Z" fill="#47752F"/>
<path d="M47.9759 30.8289V28.4307L43.3445 32.937L43.3683 35.3353L47.9759 30.8289Z" fill="#4E8436"/>
<path d="M28.4768 28.5273L24.0117 32.8596H43.2971L47.7622 28.5273H28.4768Z" fill="#ADE069"/>
<path d="M23.7979 35.3546H43.3683L43.3446 32.937H23.7979V35.3546Z" fill="#70A33C"/>
<path d="M28.453 28.5081L24.0829 32.821H43.3921L47.7621 28.5081H28.453ZM26.553 31.4285L28.073 29.9393C29.0943 29.9393 30.3531 29.4944 30.8993 28.9529H44.4608C43.9146 29.4944 44.2708 29.9199 45.2446 29.9393L43.7246 31.4285C42.727 31.4285 41.5158 31.854 40.9458 32.3762H27.3843C27.9068 31.854 27.5268 31.4285 26.553 31.4285Z" fill="#70A33C"/>
<path d="M34.2244 30.6549C33.7256 31.1577 34.0581 31.5639 35.0081 31.5639C35.9582 31.5639 37.0982 31.1577 37.6207 30.6549C38.1195 30.152 37.7869 29.7458 36.8369 29.7458C35.8869 29.7458 34.7231 30.1713 34.2244 30.6549Z" fill="#607700"/>
<path d="M39.022 30.6549C38.737 30.9257 38.927 31.1384 39.4495 31.1384C39.9482 31.1384 40.5895 30.9257 40.8508 30.6549C41.1358 30.3841 40.9458 30.1714 40.4233 30.1714C39.9245 30.1714 39.2832 30.3841 39.022 30.6549Z" fill="white"/>
<path d="M30.9943 30.6549C30.7093 30.9257 30.8993 31.1384 31.4218 31.1384C31.9206 31.1384 32.5618 30.9257 32.8231 30.6549C33.1081 30.3841 32.9181 30.1714 32.3956 30.1714C31.8968 30.1714 31.2556 30.3841 30.9943 30.6549Z" fill="white"/>
<path d="M28.4293 28.4307H47.9759L43.3446 32.9177H23.7979L28.4293 28.4307ZM47.5484 28.6047H28.5243L24.2255 32.763H43.2496L47.5484 28.6047Z" fill="#9FD65E"/>
<path opacity="0.44" d="M37.3832 28.4307H40.0908L35.4832 32.937V35.3546H32.7519V32.937L37.3832 28.4307Z" fill="#48842F"/>
<path d="M32.2056 32.937V35.3353H34.9131V32.937L39.5445 28.4307H36.8369L32.2056 32.937Z" fill="white"/>
<path d="M39.2357 28.4307H39.782L35.1507 32.937V35.3546H34.6044V32.937L39.2357 28.4307Z" fill="#FF895A"/>
<path d="M36.5757 28.4307H37.1219L32.4906 32.937V35.3546H31.9443V32.937L36.5757 28.4307Z" fill="#FF895A"/>
<path opacity="0.29" d="M31.9443 32.937V35.3352H35.1506V32.937H35.1744H32.4431H31.9443Z" fill="#846E56"/>
<path d="M43.3446 30.4033L47.9759 25.897V28.2952L43.3683 32.7823V32.8209H23.7979V30.4033H43.3446Z" fill="#47752F"/>
<path d="M47.9759 27.9278V25.5295L43.3445 30.0359L43.3683 32.4342L47.9759 27.9278Z" fill="#4E8436"/>
<path d="M28.4768 25.6262L24.0117 29.9585H43.2971L47.7622 25.6262H28.4768Z" fill="#ADE069"/>
<path d="M23.7979 32.4535H43.3683L43.3446 30.0359H23.7979V32.4535Z" fill="#70A33C"/>
<path d="M28.453 25.6069L24.0829 29.9199H43.3921L47.7621 25.6069H28.453ZM26.553 28.5274L28.073 27.0381C29.0943 27.0381 30.3531 26.5933 30.8993 26.0518H44.4608C43.9146 26.5933 44.2708 27.0188 45.2446 27.0381L43.7246 28.5274C42.727 28.5274 41.5158 28.9529 40.9458 29.4751H27.3843C27.9068 28.9529 27.5268 28.5274 26.553 28.5274Z" fill="#70A33C"/>
<path d="M34.2244 27.7537C33.7256 28.2566 34.0581 28.6627 35.0081 28.6627C35.9582 28.6627 37.0982 28.2566 37.6207 27.7537C38.1195 27.2509 37.7869 26.8447 36.8369 26.8447C35.8869 26.8447 34.7231 27.2702 34.2244 27.7537Z" fill="#607700"/>
<path d="M39.022 27.7538C38.737 28.0245 38.927 28.2373 39.4495 28.2373C39.9482 28.2373 40.5895 28.0245 40.8508 27.7538C41.1358 27.483 40.9458 27.2703 40.4233 27.2703C39.9245 27.2703 39.2832 27.483 39.022 27.7538Z" fill="white"/>
<path d="M30.9943 27.7538C30.7093 28.0245 30.8993 28.2373 31.4218 28.2373C31.9206 28.2373 32.5618 28.0245 32.8231 27.7538C33.1081 27.483 32.9181 27.2703 32.3956 27.2703C31.8968 27.2703 31.2556 27.483 30.9943 27.7538Z" fill="white"/>
<path d="M28.4293 25.5295H47.9759L43.3446 30.0166H23.7979L28.4293 25.5295ZM47.5484 25.7036H28.5243L24.2255 29.8618H43.2496L47.5484 25.7036Z" fill="#9FD65E"/>
<path opacity="0.44" d="M37.3832 25.5295H40.0908L35.4832 30.0359V32.4535H32.7519V30.0359L37.3832 25.5295Z" fill="#48842F"/>
<path d="M32.2056 30.0359V32.4342H34.9131V30.0359L39.5445 25.5295H36.8369L32.2056 30.0359Z" fill="white"/>
<path d="M39.2357 25.5295H39.782L35.1507 30.0359V32.4535H34.6044V30.0359L39.2357 25.5295Z" fill="#FF895A"/>
<path d="M36.5757 25.5295H37.1219L32.4906 30.0359V32.4535H31.9443V30.0359L36.5757 25.5295Z" fill="#FF895A"/>
<path opacity="0.29" d="M31.9443 30.0359V32.4341H35.1506V30.0359H35.1744H32.4431H31.9443Z" fill="#846E56"/>
<path d="M43.3446 27.5022L47.9759 22.9958V25.3941L43.3683 29.8811V29.9198H23.7979V27.5022H43.3446Z" fill="#47752F"/>
<path d="M47.9759 25.0267V22.6284L43.3445 27.1348L43.3683 29.533L47.9759 25.0267Z" fill="#4E8436"/>
<path d="M28.4768 22.7251L24.0117 27.0574H43.2971L47.7622 22.7251H28.4768Z" fill="#ADE069"/>
<path d="M23.7979 29.5524H43.3683L43.3446 27.1348H23.7979V29.5524Z" fill="#70A33C"/>
<path d="M28.453 22.7058L24.0829 27.0188H43.3921L47.7621 22.7058H28.453ZM26.553 25.6263L28.073 24.137C29.0943 24.137 30.3531 23.6922 30.8993 23.1506H44.4608C43.9146 23.6922 44.2708 24.1177 45.2446 24.137L43.7246 25.6263C42.727 25.6263 41.5158 26.0517 40.9458 26.5739H27.3843C27.9068 26.0517 27.5268 25.6263 26.553 25.6263Z" fill="#70A33C"/>
<path d="M34.2244 24.8526C33.7256 25.3555 34.0581 25.7616 35.0081 25.7616C35.9582 25.7616 37.0982 25.3555 37.6207 24.8526C38.1195 24.3498 37.7869 23.9436 36.8369 23.9436C35.8869 23.9436 34.7231 24.3691 34.2244 24.8526Z" fill="#607700"/>
<path d="M39.022 24.8527C38.737 25.1234 38.927 25.3362 39.4495 25.3362C39.9482 25.3362 40.5895 25.1234 40.8508 24.8527C41.1358 24.5819 40.9458 24.3691 40.4233 24.3691C39.9245 24.3691 39.2832 24.5819 39.022 24.8527Z" fill="white"/>
<path d="M30.9943 24.8527C30.7093 25.1234 30.8993 25.3362 31.4218 25.3362C31.9206 25.3362 32.5618 25.1234 32.8231 24.8527C33.1081 24.5819 32.9181 24.3691 32.3956 24.3691C31.8968 24.3691 31.2556 24.5819 30.9943 24.8527Z" fill="white"/>
<path d="M28.4293 22.6284H47.9759L43.3446 27.1155H23.7979L28.4293 22.6284ZM47.5484 22.8025H28.5243L24.2255 26.9607H43.2496L47.5484 22.8025Z" fill="#9FD65E"/>
<path opacity="0.44" d="M37.3832 22.6284H40.0908L35.4832 27.1348V29.5524H32.7519V27.1348L37.3832 22.6284Z" fill="#48842F"/>
<path d="M32.2056 27.1348V29.533H34.9131V27.1348L39.5445 22.6284H36.8369L32.2056 27.1348Z" fill="white"/>
<path d="M39.2357 22.6284H39.782L35.1507 27.1348V29.5524H34.6044V27.1348L39.2357 22.6284Z" fill="#FF895A"/>
<path d="M36.5757 22.6284H37.1219L32.4906 27.1348V29.5524H31.9443V27.1348L36.5757 22.6284Z" fill="#FF895A"/>
<path opacity="0.29" d="M31.9443 27.1348V29.533H35.1506V27.1348H35.1744H32.4431H31.9443Z" fill="#846E56"/>
<path d="M43.3446 24.6011L47.9759 20.0947V22.493L43.3683 26.98V27.0187H23.7979V24.6011H43.3446Z" fill="#47752F"/>
<path d="M47.9759 22.1255V19.7273L43.3445 24.2337L43.3683 26.6319L47.9759 22.1255Z" fill="#4E8436"/>
<path d="M28.4768 19.824L24.0117 24.1563H43.2971L47.7622 19.824H28.4768Z" fill="#ADE069"/>
<path d="M23.7979 26.6512H43.3683L43.3446 24.2336H23.7979V26.6512Z" fill="#70A33C"/>
<path d="M28.453 19.8047L24.0829 24.1177H43.3921L47.7621 19.8047H28.453ZM26.553 22.7251L28.073 21.2359C29.0943 21.2359 30.3531 20.7911 30.8993 20.2495H44.4608C43.9146 20.7911 44.2708 21.2166 45.2446 21.2359L43.7246 22.7251C42.727 22.7251 41.5158 23.1506 40.9458 23.6728H27.3843C27.9068 23.1506 27.5268 22.7251 26.553 22.7251Z" fill="#70A33C"/>
<path d="M34.2244 21.9515C33.7256 22.4543 34.0581 22.8605 35.0081 22.8605C35.9582 22.8605 37.0982 22.4543 37.6207 21.9515C38.1195 21.4486 37.7869 21.0425 36.8369 21.0425C35.8869 21.0425 34.7231 21.468 34.2244 21.9515Z" fill="#607700"/>
<path d="M39.022 21.9515C38.737 22.2223 38.927 22.435 39.4495 22.435C39.9482 22.435 40.5895 22.2223 40.8508 21.9515C41.1358 21.6808 40.9458 21.468 40.4233 21.468C39.9245 21.468 39.2832 21.6808 39.022 21.9515Z" fill="white"/>
<path d="M30.9943 21.9515C30.7093 22.2223 30.8993 22.435 31.4218 22.435C31.9206 22.435 32.5618 22.2223 32.8231 21.9515C33.1081 21.6808 32.9181 21.468 32.3956 21.468C31.8968 21.468 31.2556 21.6808 30.9943 21.9515Z" fill="white"/>
<path d="M28.4293 19.7273H47.9759L43.3446 24.2143H23.7979L28.4293 19.7273ZM47.5484 19.9014H28.5243L24.2255 24.0596H43.2496L47.5484 19.9014Z" fill="#9FD65E"/>
<path opacity="0.44" d="M37.3832 19.7273H40.0908L35.4832 24.2337V26.6513H32.7519V24.2337L37.3832 19.7273Z" fill="#48842F"/>
<path d="M32.2056 24.2337V26.6319H34.9131V24.2337L39.5445 19.7273H36.8369L32.2056 24.2337Z" fill="white"/>
<path d="M39.2357 19.7273H39.782L35.1507 24.2337V26.6513H34.6044V24.2337L39.2357 19.7273Z" fill="#FF895A"/>
<path d="M36.5757 19.7273H37.1219L32.4906 24.2337V26.6513H31.9443V24.2337L36.5757 19.7273Z" fill="#FF895A"/>
<path opacity="0.29" d="M31.9443 24.2336V26.6319H35.1506V24.2336H35.1744H32.4431H31.9443Z" fill="#846E56"/>
<path d="M43.3446 21.7002L47.9759 17.1938V19.5921L43.3683 24.0791V24.1178H23.7979V21.7002H43.3446Z" fill="#47752F"/>
<path d="M47.9759 19.2247V16.8264L43.3445 21.3328L43.3683 23.731L47.9759 19.2247Z" fill="#4E8436"/>
<path d="M28.4768 16.9231L24.0117 21.2554H43.2971L47.7622 16.9231H28.4768Z" fill="#ADE069"/>
<path d="M23.7979 23.7503H43.3683L43.3446 21.3328H23.7979V23.7503Z" fill="#70A33C"/>
<path d="M28.453 16.9038L24.0829 21.2168H43.3921L47.7621 16.9038H28.453ZM26.553 19.8242L28.073 18.335C29.0943 18.335 30.3531 17.8902 30.8993 17.3486H44.4608C43.9146 17.8902 44.2708 18.3157 45.2446 18.335L43.7246 19.8242C42.727 19.8242 41.5158 20.2497 40.9458 20.7719H27.3843C27.9068 20.2497 27.5268 19.8242 26.553 19.8242Z" fill="#70A33C"/>
<path d="M34.2244 19.0506C33.7256 19.5535 34.0581 19.9596 35.0081 19.9596C35.9582 19.9596 37.0982 19.5535 37.6207 19.0506C38.1195 18.5478 37.7869 18.1416 36.8369 18.1416C35.8869 18.1416 34.7231 18.5671 34.2244 19.0506Z" fill="#607700"/>
<path d="M39.022 19.0507C38.737 19.3214 38.927 19.5342 39.4495 19.5342C39.9482 19.5342 40.5895 19.3214 40.8508 19.0507C41.1358 18.7799 40.9458 18.5671 40.4233 18.5671C39.9245 18.5671 39.2832 18.7799 39.022 19.0507Z" fill="white"/>
<path d="M30.9943 19.0507C30.7093 19.3214 30.8993 19.5342 31.4218 19.5342C31.9206 19.5342 32.5618 19.3214 32.8231 19.0507C33.1081 18.7799 32.9181 18.5671 32.3956 18.5671C31.8968 18.5671 31.2556 18.7799 30.9943 19.0507Z" fill="white"/>
<path d="M28.4293 16.8264H47.9759L43.3446 21.3134H23.7979L28.4293 16.8264ZM47.5484 17.0005H28.5243L24.2255 21.1587H43.2496L47.5484 17.0005Z" fill="#9FD65E"/>
<path opacity="0.44" d="M37.3832 16.8264H40.0908L35.4832 21.3328V23.7504H32.7519V21.3328L37.3832 16.8264Z" fill="#48842F"/>
<path d="M32.2056 21.3328V23.731H34.9131V21.3328L39.5445 16.8264H36.8369L32.2056 21.3328Z" fill="white"/>
<path d="M39.2357 16.8264H39.782L35.1507 21.3328V23.7504H34.6044V21.3328L39.2357 16.8264Z" fill="#FF895A"/>
<path d="M36.5757 16.8264H37.1219L32.4906 21.3328V23.7504H31.9443V21.3328L36.5757 16.8264Z" fill="#FF895A"/>
<path opacity="0.29" d="M31.9443 21.3328V23.731H35.1506V21.3328H35.1744H32.4431H31.9443Z" fill="#846E56"/>
<path d="M43.3446 18.7991L47.9759 14.2927V16.691L43.3683 21.178V21.2167H23.7979V18.7991H43.3446Z" fill="#47752F"/>
<path d="M47.9759 16.3235V13.9253L43.3445 18.4317L43.3683 20.8299L47.9759 16.3235Z" fill="#4E8436"/>
<path d="M28.4768 14.022L24.0117 18.3543H43.2971L47.7622 14.022H28.4768Z" fill="#ADE069"/>
<path d="M23.7979 20.8492H43.3683L43.3446 18.4316H23.7979V20.8492Z" fill="#70A33C"/>
<path d="M28.453 14.0027L24.0829 18.3157H43.3921L47.7621 14.0027H28.453ZM26.553 16.9231L28.073 15.4339C29.0943 15.4339 30.3531 14.9891 30.8993 14.4475H44.4608C43.9146 14.9891 44.2708 15.4146 45.2446 15.4339L43.7246 16.9231C42.727 16.9231 41.5158 17.3486 40.9458 17.8708H27.3843C27.9068 17.3486 27.5268 16.9231 26.553 16.9231Z" fill="#70A33C"/>
<path d="M34.2244 16.1495C33.7256 16.6523 34.0581 17.0585 35.0081 17.0585C35.9582 17.0585 37.0982 16.6523 37.6207 16.1495C38.1195 15.6466 37.7869 15.2405 36.8369 15.2405C35.8869 15.2405 34.7231 15.666 34.2244 16.1495Z" fill="#607700"/>
<path d="M39.022 16.1495C38.737 16.4203 38.927 16.633 39.4495 16.633C39.9482 16.633 40.5895 16.4203 40.8508 16.1495C41.1358 15.8788 40.9458 15.666 40.4233 15.666C39.9245 15.666 39.2832 15.8788 39.022 16.1495Z" fill="white"/>
<path d="M30.9943 16.1495C30.7093 16.4203 30.8993 16.633 31.4218 16.633C31.9206 16.633 32.5618 16.4203 32.8231 16.1495C33.1081 15.8788 32.9181 15.666 32.3956 15.666C31.8968 15.666 31.2556 15.8788 30.9943 16.1495Z" fill="white"/>
<path d="M28.4293 13.9253H47.9759L43.3446 18.4123H23.7979L28.4293 13.9253ZM47.5484 14.0994H28.5243L24.2255 18.2576H43.2496L47.5484 14.0994Z" fill="#9FD65E"/>
<path opacity="0.44" d="M37.3832 13.9253H40.0908L35.4832 18.4317V20.8493H32.7519V18.4317L37.3832 13.9253Z" fill="#48842F"/>
<path d="M32.2056 18.4317V20.8299H34.9131V18.4317L39.5445 13.9253H36.8369L32.2056 18.4317Z" fill="white"/>
<path d="M39.2357 13.9253H39.782L35.1507 18.4317V20.8493H34.6044V18.4317L39.2357 13.9253Z" fill="#FF895A"/>
<path d="M36.5757 13.9253H37.1219L32.4906 18.4317V20.8493H31.9443V18.4317L36.5757 13.9253Z" fill="#FF895A"/>
<path opacity="0.29" d="M31.9443 18.4316V20.8299H35.1506V18.4316H35.1744H32.4431H31.9443Z" fill="#846E56"/>
<path d="M43.3446 15.898L47.9759 11.3916V13.7898L43.3683 18.2769V18.3156H23.7979V15.898H43.3446Z" fill="#47752F"/>
<path d="M47.9759 13.4224V11.0242L43.3445 15.5305L43.3683 17.9288L47.9759 13.4224Z" fill="#4E8436"/>
<path d="M28.4768 11.1208L24.0117 15.4532H43.2971L47.7622 11.1208H28.4768Z" fill="#ADE069"/>
<path d="M23.7979 17.9481H43.3683L43.3446 15.5305H23.7979V17.9481Z" fill="#70A33C"/>
<path d="M28.453 11.1016L24.0829 15.4145H43.3921L47.7621 11.1016H28.453ZM26.553 14.022L28.073 12.5328C29.0943 12.5328 30.3531 12.0879 30.8993 11.5464H44.4608C43.9146 12.0879 44.2708 12.5134 45.2446 12.5328L43.7246 14.022C42.727 14.022 41.5158 14.4475 40.9458 14.9697H27.3843C27.9068 14.4475 27.5268 14.022 26.553 14.022Z" fill="#70A33C"/>
<path d="M34.2244 13.2484C33.7256 13.7512 34.0581 14.1574 35.0081 14.1574C35.9582 14.1574 37.0982 13.7512 37.6207 13.2484C38.1195 12.7455 37.7869 12.3394 36.8369 12.3394C35.8869 12.3394 34.7231 12.7648 34.2244 13.2484Z" fill="#607700"/>
<path d="M39.022 13.2484C38.737 13.5192 38.927 13.7319 39.4495 13.7319C39.9482 13.7319 40.5895 13.5192 40.8508 13.2484C41.1358 12.9776 40.9458 12.7649 40.4233 12.7649C39.9245 12.7649 39.2832 12.9776 39.022 13.2484Z" fill="white"/>
<path d="M30.9943 13.2484C30.7093 13.5192 30.8993 13.7319 31.4218 13.7319C31.9206 13.7319 32.5618 13.5192 32.8231 13.2484C33.1081 12.9776 32.9181 12.7649 32.3956 12.7649C31.8968 12.7649 31.2556 12.9776 30.9943 13.2484Z" fill="white"/>
<path d="M28.4293 11.0242H47.9759L43.3446 15.5112H23.7979L28.4293 11.0242ZM47.5484 11.1982H28.5243L24.2255 15.3565H43.2496L47.5484 11.1982Z" fill="#9FD65E"/>
<path opacity="0.44" d="M37.3832 11.0242H40.0908L35.4832 15.5305V17.9481H32.7519V15.5305L37.3832 11.0242Z" fill="#48842F"/>
<path d="M32.2056 15.5305V17.9288H34.9131V15.5305L39.5445 11.0242H36.8369L32.2056 15.5305Z" fill="white"/>
<path d="M39.2357 11.0242H39.782L35.1507 15.5305V17.9481H34.6044V15.5305L39.2357 11.0242Z" fill="#FF895A"/>
<path d="M36.5757 11.0242H37.1219L32.4906 15.5305V17.9481H31.9443V15.5305L36.5757 11.0242Z" fill="#FF895A"/>
<path opacity="0.29" d="M31.9443 15.5305V17.9288H35.1506V15.5305H35.1744H32.4431H31.9443Z" fill="#846E56"/>
<path d="M43.3446 12.9969L47.9759 8.49048V10.8887L43.3683 15.3758V15.4144H23.7979V12.9969H43.3446Z" fill="#47752F"/>
<path d="M47.9759 10.5213V8.12305L43.3445 12.6294L43.3683 15.0277L47.9759 10.5213Z" fill="#4E8436"/>
<path d="M28.4768 8.21973L24.0117 12.552H43.2971L47.7622 8.21973H28.4768Z" fill="#ADE069"/>
<path d="M23.7979 15.047H43.3683L43.3446 12.6294H23.7979V15.047Z" fill="#70A33C"/>
<path d="M28.453 8.20044L24.0829 12.5134H43.3921L47.7621 8.20044H28.453ZM26.553 11.1209L28.073 9.63165C29.0943 9.63165 30.3531 9.18681 30.8993 8.64527H44.4608C43.9146 9.18681 44.2708 9.61231 45.2446 9.63165L43.7246 11.1209C42.727 11.1209 41.5158 11.5464 40.9458 12.0686H27.3843C27.9068 11.5464 27.5268 11.1209 26.553 11.1209Z" fill="#70A33C"/>
<path d="M34.2244 10.3472C33.7256 10.8501 34.0581 11.2563 35.0081 11.2563C35.9582 11.2563 37.0982 10.8501 37.6207 10.3472C38.1195 9.84439 37.7869 9.43823 36.8369 9.43823C35.8869 9.43823 34.7231 9.86373 34.2244 10.3472Z" fill="#607700"/>
<path d="M39.022 10.3473C38.737 10.6181 38.927 10.8308 39.4495 10.8308C39.9482 10.8308 40.5895 10.6181 40.8508 10.3473C41.112 10.0765 40.9458 9.86377 40.4232 9.86377C39.9245 9.86377 39.2832 10.0765 39.022 10.3473Z" fill="white"/>
<path d="M30.9943 10.3473C30.7093 10.6181 30.8993 10.8308 31.4218 10.8308C31.9206 10.8308 32.5619 10.6181 32.8231 10.3473C33.0844 10.0765 32.9181 9.86377 32.3956 9.86377C31.8968 9.86377 31.2556 10.0765 30.9943 10.3473Z" fill="white"/>
<path d="M28.4293 8.12305H47.9759L43.3446 12.6101H23.7979L28.4293 8.12305ZM47.5484 8.29711H28.5243L24.2255 12.4554H43.2496L47.5484 8.29711Z" fill="#9FD65E"/>
<path opacity="0.44" d="M37.3832 8.12305H40.0908L35.4832 12.6294V15.047H32.7519V12.6294L37.3832 8.12305Z" fill="#48842F"/>
<path d="M32.2056 12.6294V15.0277H34.9131V12.6294L39.5445 8.12305H36.8369L32.2056 12.6294Z" fill="white"/>
<path d="M39.2357 8.12305H39.782L35.1507 12.6294V15.047H34.6044V12.6294L39.2357 8.12305Z" fill="#FF895A"/>
<path d="M36.5757 8.12305H37.1219L32.4906 12.6294V15.047H31.9443V12.6294L36.5757 8.12305Z" fill="#FF895A"/>
<path opacity="0.29" d="M31.9443 12.6294V15.0276H35.1506V12.6294H35.1744H32.4431H31.9443Z" fill="#846E56"/>
<path d="M48.4271 41.6016L53.0585 37.0952V39.4935L48.4271 43.9805V43.9998H28.8805V41.6016H48.4271Z" fill="#47752F"/>
<path d="M53.0585 39.126V36.7278L48.4271 41.2148V43.6131L53.0585 39.126Z" fill="#4E8436"/>
<path d="M33.5356 36.8052L29.0943 41.1375H48.3797L52.8447 36.8052H33.5356Z" fill="#ADE069"/>
<path d="M28.8805 43.6324H48.4271V41.2148H28.8805V43.6324Z" fill="#70A33C"/>
<path d="M33.5119 36.8052L29.1418 41.1181H48.4509L52.821 36.8052H33.5119ZM31.6356 39.7063L33.1556 38.217C34.1769 38.217 35.4357 37.7722 35.9819 37.2307H49.5434C48.9972 37.7722 49.3534 38.1977 50.3272 38.217L48.8071 39.7063C47.8096 39.7063 46.5984 40.1318 46.0283 40.654H32.4668C32.9656 40.1318 32.6093 39.7256 31.6356 39.7063Z" fill="#70A33C"/>
<path d="M41.3045 39.662C42.3538 39.355 43.0642 38.7884 42.8912 38.3963C42.7183 38.0043 41.7275 37.9353 40.6782 38.2423C39.6289 38.5492 38.9185 39.1159 39.0915 39.508C39.2644 39.9 40.2553 39.969 41.3045 39.662Z" fill="#607700"/>
<path d="M44.1046 38.952C43.8195 39.2228 44.0096 39.4355 44.5321 39.4355C45.0308 39.4355 45.6721 39.2228 45.9333 38.952C46.2184 38.6813 46.0283 38.4685 45.5058 38.4685C44.9833 38.4685 44.3658 38.6813 44.1046 38.952Z" fill="white"/>
<path d="M36.0532 38.952C35.7682 39.2228 35.9582 39.4355 36.4807 39.4355C37.0032 39.4355 37.6207 39.2228 37.8819 38.952C38.167 38.6813 37.9769 38.4685 37.4544 38.4685C36.9557 38.4685 36.3382 38.6813 36.0532 38.952Z" fill="white"/>
<path d="M33.5119 36.7278H53.0585L48.4271 41.2148H28.8805L33.5119 36.7278ZM52.631 36.9019H33.6069L29.308 41.0601H48.3321L52.631 36.9019Z" fill="#9FD65E"/>
<path opacity="0.44" d="M42.4658 36.7278H45.1733L40.542 41.2148V43.6324H37.8344V41.2148L42.4658 36.7278Z" fill="#48842F"/>
<path d="M37.2644 41.2148V43.6324H39.9957V41.2148L44.6033 36.7278H41.8958L37.2882 41.2148H37.2644Z" fill="white"/>
<path d="M44.3183 36.7278H44.8646L40.2332 41.2148V43.6324H39.687V41.2148L44.3183 36.7278Z" fill="#FF895A"/>
<path d="M41.6345 36.7278H42.1808L37.5732 41.2148V43.6324H37.0269V41.2148L41.6345 36.7278Z" fill="#FF895A"/>
<path opacity="0.29" d="M37.0269 41.2148V43.6324H40.2332V41.2148H37.5257H37.0269Z" fill="#846E56"/>
<path d="M48.4271 38.7005L53.0585 34.1941V36.5923L48.4271 41.0794V41.0987H28.8805V38.7005H48.4271Z" fill="#47752F"/>
<path d="M53.0585 36.2249V33.8267L48.4271 38.3137V40.7119L53.0585 36.2249Z" fill="#4E8436"/>
<path d="M33.5356 33.9041L29.0943 38.2364H48.3797L52.8447 33.9041H33.5356Z" fill="#ADE069"/>
<path d="M28.8805 40.7313H48.4271V38.3137H28.8805V40.7313Z" fill="#70A33C"/>
<path d="M33.5119 33.9041L29.1418 38.217H48.4509L52.821 33.9041H33.5119ZM31.6356 36.8052L33.1556 35.3159C34.1769 35.3159 35.4357 34.8711 35.9819 34.3295H49.5434C48.9972 34.8711 49.3534 35.2966 50.3272 35.3159L48.8071 36.8052C47.8096 36.8052 46.5984 37.2306 46.0283 37.7528H32.4668C32.9656 37.2306 32.6093 36.8245 31.6356 36.8052Z" fill="#70A33C"/>
<path d="M41.3046 36.7609C42.3539 36.4539 43.0643 35.8872 42.8913 35.4952C42.7184 35.1031 41.7275 35.0342 40.6783 35.3412C39.629 35.6481 38.9186 36.2148 39.0916 36.6068C39.2645 36.9989 40.2553 37.0678 41.3046 36.7609Z" fill="#607700"/>
<path d="M44.1046 36.0509C43.8195 36.3217 44.0096 36.5344 44.5321 36.5344C45.0308 36.5344 45.6721 36.3217 45.9333 36.0509C46.2184 35.7801 46.0283 35.5674 45.5058 35.5674C44.9833 35.5674 44.3658 35.7801 44.1046 36.0509Z" fill="white"/>
<path d="M36.0532 36.0509C35.7682 36.3217 35.9582 36.5344 36.4807 36.5344C37.0032 36.5344 37.6207 36.3217 37.8819 36.0509C38.167 35.7801 37.9769 35.5674 37.4544 35.5674C36.9557 35.5674 36.3382 35.7801 36.0532 36.0509Z" fill="white"/>
<path d="M33.5119 33.8267H53.0585L48.4271 38.3137H28.8805L33.5119 33.8267ZM52.631 34.0007H33.6069L29.308 38.159H48.3321L52.631 34.0007Z" fill="#9FD65E"/>
<path opacity="0.44" d="M42.4658 33.8267H45.1733L40.542 38.3137V40.7313H37.8344V38.3137L42.4658 33.8267Z" fill="#48842F"/>
<path d="M37.2644 38.3137V40.7313H39.9957V38.3137L44.6033 33.8267H41.8958L37.2882 38.3137H37.2644Z" fill="white"/>
<path d="M44.3183 33.8267H44.8646L40.2332 38.3137V40.7313H39.687V38.3137L44.3183 33.8267Z" fill="#FF895A"/>
<path d="M41.6345 33.8267H42.1808L37.5732 38.3137V40.7313H37.0269V38.3137L41.6345 33.8267Z" fill="#FF895A"/>
<path opacity="0.29" d="M37.0269 38.3137V40.7313H40.2332V38.3137H37.5257H37.0269Z" fill="#846E56"/>
<path d="M48.4271 35.7996L53.0585 31.2932V33.6915L48.4271 38.1785V38.1978H28.8805V35.7996H48.4271Z" fill="#47752F"/>
<path d="M53.0585 33.324V30.9258L48.4271 35.4128V37.8111L53.0585 33.324Z" fill="#4E8436"/>
<path d="M33.5356 31.0032L29.0943 35.3355H48.3797L52.8447 31.0032H33.5356Z" fill="#ADE069"/>
<path d="M28.8805 37.8304H48.4271V35.4128H28.8805V37.8304Z" fill="#70A33C"/>
<path d="M33.5119 31.0032L29.1418 35.3161H48.4509L52.821 31.0032H33.5119ZM31.6356 33.9043L33.1556 32.415C34.1769 32.415 35.4357 31.9702 35.9819 31.4287H49.5434C48.9972 31.9702 49.3534 32.3957 50.3272 32.415L48.8071 33.9043C47.8096 33.9043 46.5984 34.3298 46.0283 34.852H32.4668C32.9656 34.3298 32.6093 33.9236 31.6356 33.9043Z" fill="#70A33C"/>
<path d="M41.3047 33.86C42.3539 33.553 43.0643 32.9864 42.8914 32.5943C42.7184 32.2023 41.7276 32.1333 40.6783 32.4403C39.629 32.7472 38.9187 33.3139 39.0916 33.706C39.2646 34.098 40.2554 34.167 41.3047 33.86Z" fill="#607700"/>
<path d="M44.1046 33.15C43.8195 33.4208 44.0096 33.6335 44.5321 33.6335C45.0308 33.6335 45.6721 33.4208 45.9333 33.15C46.2184 32.8792 46.0283 32.6665 45.5058 32.6665C44.9833 32.6665 44.3658 32.8792 44.1046 33.15Z" fill="white"/>
<path d="M36.0532 33.15C35.7682 33.4208 35.9582 33.6335 36.4807 33.6335C37.0032 33.6335 37.6207 33.4208 37.8819 33.15C38.167 32.8792 37.9769 32.6665 37.4544 32.6665C36.9557 32.6665 36.3382 32.8792 36.0532 33.15Z" fill="white"/>
<path d="M33.5119 30.9258H53.0585L48.4271 35.4128H28.8805L33.5119 30.9258ZM52.631 31.0998H33.6069L29.308 35.2581H48.3321L52.631 31.0998Z" fill="#9FD65E"/>
<path opacity="0.44" d="M42.4658 30.9258H45.1733L40.542 35.4128V37.8304H37.8344V35.4128L42.4658 30.9258Z" fill="#48842F"/>
<path d="M37.2644 35.4128V37.8304H39.9957V35.4128L44.6033 30.9258H41.8958L37.2882 35.4128H37.2644Z" fill="white"/>
<path d="M44.3183 30.9258H44.8646L40.2332 35.4128V37.8304H39.687V35.4128L44.3183 30.9258Z" fill="#FF895A"/>
<path d="M41.6345 30.9258H42.1808L37.5732 35.4128V37.8304H37.0269V35.4128L41.6345 30.9258Z" fill="#FF895A"/>
<path opacity="0.29" d="M37.0269 35.4128V37.8304H40.2332V35.4128H37.5257H37.0269Z" fill="#846E56"/>
<path d="M48.4271 32.8985L53.0585 28.3921V30.7903L48.4271 35.2774V35.2967H28.8805V32.8985H48.4271Z" fill="#47752F"/>
<path d="M53.0585 30.4229V28.0247L48.4271 32.5117V34.9099L53.0585 30.4229Z" fill="#4E8436"/>
<path d="M33.5356 28.1021L29.0943 32.4344H48.3797L52.8447 28.1021H33.5356Z" fill="#ADE069"/>
<path d="M28.8805 34.9293H48.4271V32.5117H28.8805V34.9293Z" fill="#70A33C"/>
<path d="M33.5119 28.1021L29.1418 32.415H48.4509L52.821 28.1021H33.5119ZM31.6356 31.0032L33.1556 29.5139C34.1769 29.5139 35.4357 29.0691 35.9819 28.5275H49.5434C48.9972 29.0691 49.3534 29.4946 50.3272 29.5139L48.8071 31.0032C47.8096 31.0032 46.5984 31.4286 46.0283 31.9508H32.4668C32.9656 31.4286 32.6093 31.0225 31.6356 31.0032Z" fill="#70A33C"/>
<path d="M41.3047 30.9589C42.354 30.6519 43.0644 30.0852 42.8914 29.6932C42.7185 29.3011 41.7277 29.2322 40.6784 29.5391C39.6291 29.8461 38.9187 30.4128 39.0917 30.8048C39.2646 31.1969 40.2555 31.2658 41.3047 30.9589Z" fill="#607700"/>
<path d="M44.1046 30.2489C43.8195 30.5197 44.0096 30.7324 44.5321 30.7324C45.0308 30.7324 45.6721 30.5197 45.9333 30.2489C46.2184 29.9781 46.0283 29.7654 45.5058 29.7654C44.9833 29.7654 44.3658 29.9781 44.1046 30.2489Z" fill="white"/>
<path d="M36.0532 30.2489C35.7682 30.5197 35.9582 30.7324 36.4807 30.7324C37.0032 30.7324 37.6207 30.5197 37.8819 30.2489C38.167 29.9781 37.9769 29.7654 37.4544 29.7654C36.9557 29.7654 36.3382 29.9781 36.0532 30.2489Z" fill="white"/>
<path d="M33.5119 28.0247H53.0585L48.4271 32.5117H28.8805L33.5119 28.0247ZM52.631 28.1987H33.6069L29.308 32.357H48.3321L52.631 28.1987Z" fill="#9FD65E"/>
<path opacity="0.44" d="M42.4658 28.0247H45.1733L40.542 32.5117V34.9293H37.8344V32.5117L42.4658 28.0247Z" fill="#48842F"/>
<path d="M37.2644 32.5117V34.9293H39.9957V32.5117L44.6033 28.0247H41.8958L37.2882 32.5117H37.2644Z" fill="white"/>
<path d="M44.3183 28.0247H44.8646L40.2332 32.5117V34.9293H39.687V32.5117L44.3183 28.0247Z" fill="#FF895A"/>
<path d="M41.6345 28.0247H42.1808L37.5732 32.5117V34.9293H37.0269V32.5117L41.6345 28.0247Z" fill="#FF895A"/>
<path opacity="0.29" d="M37.0269 32.5117V34.9293H40.2332V32.5117H37.5257H37.0269Z" fill="#846E56"/>
<path d="M48.4271 29.9973L53.0585 25.491V27.8892L48.4271 32.3762V32.3956H28.8805V29.9973H48.4271Z" fill="#47752F"/>
<path d="M53.0585 27.5218V25.1235L48.4271 29.6106V32.0088L53.0585 27.5218Z" fill="#4E8436"/>
<path d="M33.5356 25.2009L29.0943 29.5332H48.3797L52.8447 25.2009H33.5356Z" fill="#ADE069"/>
<path d="M28.8805 32.0282H48.4271V29.6106H28.8805V32.0282Z" fill="#70A33C"/>
<path d="M33.5119 25.2009L29.1418 29.5139H48.4509L52.821 25.2009H33.5119ZM31.6356 28.102L33.1556 26.6128C34.1769 26.6128 35.4357 26.168 35.9819 25.6264H49.5434C48.9972 26.168 49.3534 26.5935 50.3272 26.6128L48.8071 28.102C47.8096 28.102 46.5984 28.5275 46.0283 29.0497H32.4668C32.9656 28.5275 32.6093 28.1214 31.6356 28.102Z" fill="#70A33C"/>
<path d="M41.3048 28.0577C42.3541 27.7508 43.0645 27.1841 42.8915 26.7921C42.7186 26.4 41.7278 26.3311 40.6785 26.638C39.6292 26.945 38.9188 27.5117 39.0918 27.9037C39.2647 28.2958 40.2555 28.3647 41.3048 28.0577Z" fill="#607700"/>
<path d="M44.1046 27.3478C43.8195 27.6185 44.0096 27.8313 44.5321 27.8313C45.0308 27.8313 45.6721 27.6185 45.9333 27.3478C46.2184 27.077 46.0283 26.8643 45.5058 26.8643C44.9833 26.8643 44.3658 27.077 44.1046 27.3478Z" fill="white"/>
<path d="M36.0532 27.3478C35.7682 27.6185 35.9582 27.8313 36.4807 27.8313C37.0032 27.8313 37.6207 27.6185 37.8819 27.3478C38.167 27.077 37.9769 26.8643 37.4544 26.8643C36.9557 26.8643 36.3382 27.077 36.0532 27.3478Z" fill="white"/>
<path d="M33.5119 25.1235H53.0585L48.4271 29.6106H28.8805L33.5119 25.1235ZM52.631 25.2976H33.6069L29.308 29.4558H48.3321L52.631 25.2976Z" fill="#9FD65E"/>
<path opacity="0.44" d="M42.4658 25.1235H45.1733L40.542 29.6106V32.0282H37.8344V29.6106L42.4658 25.1235Z" fill="#48842F"/>
<path d="M37.2644 29.6106V32.0282H39.9957V29.6106L44.6033 25.1235H41.8958L37.2882 29.6106H37.2644Z" fill="white"/>
<path d="M44.3183 25.1235H44.8646L40.2332 29.6106V32.0282H39.687V29.6106L44.3183 25.1235Z" fill="#FF895A"/>
<path d="M41.6345 25.1235H42.1808L37.5732 29.6106V32.0282H37.0269V29.6106L41.6345 25.1235Z" fill="#FF895A"/>
<path opacity="0.29" d="M37.0269 29.6106V32.0282H40.2332V29.6106H37.5257H37.0269Z" fill="#846E56"/>
<path d="M48.4271 27.0962L53.0585 22.5898V24.9881L48.4271 29.4751V29.4945H28.8805V27.0962H48.4271Z" fill="#47752F"/>
<path d="M53.0585 24.6207V22.2224L48.4271 26.7094V29.1077L53.0585 24.6207Z" fill="#4E8436"/>
<path d="M33.5356 22.2998L29.0943 26.6321H48.3797L52.8447 22.2998H33.5356Z" fill="#ADE069"/>
<path d="M28.8805 29.1271H48.4271V26.7095H28.8805V29.1271Z" fill="#70A33C"/>
<path d="M33.5119 22.2998L29.1418 26.6128H48.4509L52.821 22.2998H33.5119ZM31.6356 25.2009L33.1556 23.7117C34.1769 23.7117 35.4357 23.2668 35.9819 22.7253H49.5434C48.9972 23.2668 49.3534 23.6923 50.3272 23.7117L48.8071 25.2009C47.8096 25.2009 46.5984 25.6264 46.0283 26.1486H32.4668C32.9656 25.6264 32.6093 25.2202 31.6356 25.2009Z" fill="#70A33C"/>
<path d="M41.3049 25.1566C42.3542 24.8496 43.0645 24.283 42.8916 23.8909C42.7186 23.4989 41.7278 23.4299 40.6785 23.7369C39.6293 24.0439 38.9189 24.6105 39.0918 25.0026C39.2648 25.3946 40.2556 25.4636 41.3049 25.1566Z" fill="#607700"/>
<path d="M44.1046 24.4467C43.8195 24.7174 44.0096 24.9302 44.5321 24.9302C45.0308 24.9302 45.6721 24.7174 45.9333 24.4467C46.2184 24.1759 46.0283 23.9631 45.5058 23.9631C44.9833 23.9631 44.3658 24.1759 44.1046 24.4467Z" fill="white"/>
<path d="M36.0532 24.4467C35.7682 24.7174 35.9582 24.9302 36.4807 24.9302C37.0032 24.9302 37.6207 24.7174 37.8819 24.4467C38.167 24.1759 37.9769 23.9631 37.4544 23.9631C36.9557 23.9631 36.3382 24.1759 36.0532 24.4467Z" fill="white"/>
<path d="M33.5119 22.2224H53.0585L48.4271 26.7095H28.8805L33.5119 22.2224ZM52.631 22.3965H33.6069L29.308 26.5547H48.3321L52.631 22.3965Z" fill="#9FD65E"/>
<path opacity="0.44" d="M42.4658 22.2224H45.1733L40.542 26.7094V29.127H37.8344V26.7094L42.4658 22.2224Z" fill="#48842F"/>
<path d="M37.2644 26.7094V29.127H39.9957V26.7094L44.6033 22.2224H41.8958L37.2882 26.7094H37.2644Z" fill="white"/>
<path d="M44.3183 22.2224H44.8646L40.2332 26.7094V29.127H39.687V26.7094L44.3183 22.2224Z" fill="#FF895A"/>
<path d="M41.6345 22.2224H42.1808L37.5732 26.7094V29.127H37.0269V26.7094L41.6345 22.2224Z" fill="#FF895A"/>
<path opacity="0.29" d="M37.0269 26.7095V29.1271H40.2332V26.7095H37.5257H37.0269Z" fill="#846E56"/>
</g>
<defs>
<clipPath id="clip0">
<rect width="67" height="44" fill="white"/>
</clipPath>
</defs>
</svg>
