<svg width="34" height="34" viewBox="0 0 34 34" fill="none" xmlns="http://www.w3.org/2000/svg">
<circle cx="17" cy="17" r="17" fill="#DA251C"/>
<path d="M9.375 17.2031V20.1406C9.375 20.7135 9.40885 21.0755 9.47656 21.2266C9.54948 21.3724 9.67448 21.4896 9.85156 21.5781C10.0339 21.6667 10.3646 21.7109 10.8438 21.7109V22H5.46094V21.7109C5.95052 21.7109 6.28125 21.6667 6.45312 21.5781C6.63021 21.4844 6.7526 21.3646 6.82031 21.2188C6.89323 21.0729 6.92969 20.7135 6.92969 20.1406V13.2656C6.92969 12.6927 6.89323 12.3333 6.82031 12.1875C6.7526 12.0365 6.63021 11.9167 6.45312 11.8281C6.27604 11.7396 5.94531 11.6953 5.46094 11.6953V11.4062H10.0781C11.599 11.4062 12.6901 11.6771 13.3516 12.2188C14.013 12.7604 14.3438 13.4375 14.3438 14.25C14.3438 14.9375 14.1302 15.526 13.7031 16.0156C13.276 16.5052 12.6875 16.8385 11.9375 17.0156C11.4323 17.1406 10.5781 17.2031 9.375 17.2031ZM9.375 12.0156V16.5938C9.54688 16.6042 9.67708 16.6094 9.76562 16.6094C10.401 16.6094 10.8906 16.4219 11.2344 16.0469C11.5781 15.6667 11.75 15.0807 11.75 14.2891C11.75 13.5026 11.5781 12.9271 11.2344 12.5625C10.8906 12.1979 10.3776 12.0156 9.69531 12.0156H9.375Z" fill="white"/>
<path d="M22.4609 18.3906L25.3359 11.4062H29.6484V11.6953H29.3047C28.9922 11.6953 28.7422 11.75 28.5547 11.8594C28.4245 11.9323 28.3203 12.0547 28.2422 12.2266C28.1849 12.3516 28.1562 12.6771 28.1562 13.2031V20.1875C28.1562 20.7292 28.1849 21.0677 28.2422 21.2031C28.2995 21.3385 28.4167 21.4583 28.5938 21.5625C28.7708 21.6615 29.0078 21.7109 29.3047 21.7109H29.6484V22H24.1172V21.7109H24.4609C24.7734 21.7109 25.0234 21.6562 25.2109 21.5469C25.3411 21.474 25.4453 21.349 25.5234 21.1719C25.5807 21.0469 25.6094 20.7188 25.6094 20.1875V12.3359L21.5469 22H21.3594L17.2344 12.4062V19.8672C17.2344 20.388 17.2474 20.7083 17.2734 20.8281C17.3411 21.0885 17.487 21.3021 17.7109 21.4688C17.9401 21.6302 18.2969 21.7109 18.7812 21.7109V22H15.1562V21.7109H15.2656C15.5 21.7161 15.7188 21.6797 15.9219 21.6016C16.125 21.5182 16.2786 21.4089 16.3828 21.2734C16.487 21.138 16.5677 20.9479 16.625 20.7031C16.6354 20.6458 16.6406 20.3802 16.6406 19.9062V13.2031C16.6406 12.6667 16.612 12.3333 16.5547 12.2031C16.4974 12.0677 16.3802 11.9505 16.2031 11.8516C16.026 11.7474 15.7891 11.6953 15.4922 11.6953H15.1562V11.4062H19.4844L22.4609 18.3906Z" fill="white"/>
</svg>
