<svg width="68" height="68" viewBox="0 0 68 68" fill="none" xmlns="http://www.w3.org/2000/svg">
<circle cx="34" cy="34" r="33" stroke="url(#paint0_linear)" stroke-width="2"/>
<path d="M40.4005 42.8375C39.7373 41.2666 38.7749 39.8397 37.5669 38.6363C36.3625 37.4294 34.9359 36.4672 33.3657 35.8027C33.3517 35.7957 33.3376 35.7922 33.3235 35.7852C35.5138 34.2031 36.9376 31.6262 36.9376 28.7188C36.9376 23.9023 33.0352 20 28.2188 20C23.4024 20 19.5001 23.9023 19.5001 28.7188C19.5001 31.6262 20.9239 34.2031 23.1142 35.7887C23.1001 35.7957 23.086 35.7992 23.072 35.8062C21.497 36.4707 20.0837 37.4234 18.8708 38.6398C17.6639 39.8442 16.7017 41.2708 16.0372 42.841C15.3844 44.3782 15.0324 46.0263 15.0001 47.6961C14.9991 47.7336 15.0057 47.7709 15.0194 47.8059C15.0332 47.8408 15.0537 47.8727 15.0799 47.8995C15.1061 47.9264 15.1375 47.9477 15.1721 47.9623C15.2066 47.9769 15.2438 47.9844 15.2813 47.9844H17.3907C17.5454 47.9844 17.6684 47.8613 17.672 47.7102C17.7423 44.9961 18.8321 42.4543 20.7587 40.5277C22.752 38.5344 25.3993 37.4375 28.2188 37.4375C31.0384 37.4375 33.6856 38.5344 35.679 40.5277C37.6056 42.4543 38.6954 44.9961 38.7657 47.7102C38.7692 47.8648 38.8923 47.9844 39.047 47.9844H41.1563C41.1939 47.9844 41.231 47.9769 41.2656 47.9623C41.3002 47.9477 41.3315 47.9264 41.3577 47.8995C41.3839 47.8727 41.4045 47.8408 41.4182 47.8059C41.4319 47.7709 41.4385 47.7336 41.4376 47.6961C41.4024 46.0156 41.0544 44.3809 40.4005 42.8375ZM28.2188 34.7656C26.6052 34.7656 25.0864 34.1363 23.9438 32.9938C22.8013 31.8512 22.172 30.3324 22.172 28.7188C22.172 27.1051 22.8013 25.5863 23.9438 24.4437C25.0864 23.3012 26.6052 22.6719 28.2188 22.6719C29.8325 22.6719 31.3513 23.3012 32.4938 24.4437C33.6364 25.5863 34.2657 27.1051 34.2657 28.7188C34.2657 30.3324 33.6364 31.8512 32.4938 32.9938C31.3513 34.1363 29.8325 34.7656 28.2188 34.7656Z" fill="#29A3E8"/>
<path d="M52.2544 44.1299C51.7778 42.9511 51.0862 41.8803 50.218 40.9772C49.3525 40.0716 48.3272 39.3495 47.1987 38.8509C47.1886 38.8456 47.1785 38.8429 47.1684 38.8377C48.7425 37.6505 49.7657 35.7167 49.7657 33.5349C49.7657 29.9206 46.9612 26.9922 43.4998 26.9922C40.0384 26.9922 37.2339 29.9206 37.2339 33.5349C37.2339 35.7167 38.2572 37.6505 39.8312 38.8403C39.8211 38.8456 39.811 38.8482 39.8009 38.8535C38.669 39.3521 37.6533 40.0671 36.7817 40.9799C35.9143 41.8836 37.8467 37.9849 37.3691 39.1632C36.9 40.3168 37.2686 40.7531 37.2454 42.0061C37.2447 42.0343 37.2495 42.0623 37.2593 42.0885C37.2692 42.1147 37.284 42.1386 37.3028 42.1588C37.3216 42.179 37.3441 42.195 37.369 42.2059C37.3939 42.2168 37.4206 42.2225 37.4475 42.2225H38.9635C39.0747 42.2225 39.1631 42.1301 39.1656 42.0167C39.2161 39.98 39.9994 38.0726 38.1384 42.3966C39.571 40.9007 41.4735 40.0776 43.4998 40.0776C45.5261 40.0776 47.4287 40.9007 48.8612 42.3966C50.2458 43.8423 51.029 45.7497 51.0796 47.7864C51.0821 47.9025 51.1705 47.9922 51.2817 47.9922H52.7977C52.8246 47.9922 52.8513 47.9866 52.8762 47.9756C52.9011 47.9647 52.9236 47.9487 52.9424 47.9285C52.9612 47.9084 52.976 47.8845 52.9859 47.8582C52.9957 47.832 53.0005 47.804 52.9998 47.7759C52.9745 46.5148 52.7244 45.288 52.2544 44.1299ZM43.4998 38.0726C42.3401 38.0726 41.2486 37.6004 40.4275 36.7429C39.6064 35.8855 39.1541 34.7458 39.1541 33.5349C39.1541 32.324 39.6064 31.1843 40.4275 30.3269C41.2486 29.4694 42.3401 28.9972 43.4998 28.9972C44.6595 28.9972 45.751 29.4694 46.5721 30.3269C47.3933 31.1843 47.8455 32.324 47.8455 33.5349C47.8455 34.7458 47.3933 35.8855 46.5721 36.7429C45.751 37.6004 44.6595 38.0726 43.4998 38.0726Z" fill="#29A3E8"/>
<defs>
<linearGradient id="paint0_linear" x1="9.35" y1="7.65" x2="62.9" y2="68" gradientUnits="userSpaceOnUse">
<stop offset="0.305602" stop-color="#191B46" stop-opacity="0"/>
<stop offset="1" stop-color="#29A3E8"/>
</linearGradient>
</defs>
</svg>
