<svg width="6" height="12" viewBox="0 0 6 12" fill="none" xmlns="http://www.w3.org/2000/svg">
<path d="M0.629716 10.664C0.444153 10.8685 0.459507 11.1847 0.664009 11.3703C0.868512 11.5558 1.18472 11.5405 1.37028 11.336L0.629716 10.664ZM4.62033 7.01015L4.25005 6.67416L4.25005 6.67416L4.62033 7.01015ZM4.62033 4.98985L4.25005 5.32584L4.25005 5.32584L4.62033 4.98985ZM1.37028 0.664009C1.18472 0.459507 0.868513 0.444152 0.66401 0.629716C0.459508 0.815278 0.444154 1.13149 0.629717 1.33599L1.37028 0.664009ZM1.37028 11.336L4.99062 7.34614L4.25005 6.67416L0.629716 10.664L1.37028 11.336ZM4.99062 4.65386L1.37028 0.664009L0.629717 1.33599L4.25005 5.32584L4.99062 4.65386ZM4.99062 7.34614C5.6698 6.59764 5.66979 5.40236 4.99062 4.65386L4.25005 5.32584C4.58332 5.69312 4.58332 6.30688 4.25005 6.67416L4.99062 7.34614Z" fill="#191B46"/>
</svg>
