<svg width="68" height="68" viewBox="0 0 68 68" fill="none" xmlns="http://www.w3.org/2000/svg">
<circle cx="34" cy="33.9998" r="27.2" fill="#29A3E8"/>
<path d="M32.4696 41.4697C32.1768 41.7626 32.1768 42.2374 32.4696 42.5303C32.7625 42.8232 33.2374 42.8232 33.5303 42.5303L32.4696 41.4697ZM40.0572 34.9428L39.5268 34.4125L39.5268 34.4125L40.0572 34.9428ZM40.0572 33.0572L39.5268 33.5875L39.5268 33.5875L40.0572 33.0572ZM33.5303 25.4697C33.2374 25.1768 32.7625 25.1768 32.4696 25.4697C32.1768 25.7626 32.1768 26.2374 32.4696 26.5303L33.5303 25.4697ZM33.5303 42.5303L40.5875 35.4731L39.5268 34.4125L32.4696 41.4697L33.5303 42.5303ZM40.5875 32.5269L33.5303 25.4697L32.4696 26.5303L39.5268 33.5875L40.5875 32.5269ZM40.5875 35.4731C41.4011 34.6595 41.4011 33.3405 40.5875 32.5269L39.5268 33.5875C39.7546 33.8153 39.7546 34.1847 39.5268 34.4125L40.5875 35.4731Z" fill="white"/>
<circle cx="34" cy="34" r="33" stroke="url(#paint0_linear)" stroke-width="2"/>
<defs>
<linearGradient id="paint0_linear" x1="9.35" y1="7.65" x2="62.9" y2="68" gradientUnits="userSpaceOnUse">
<stop offset="0.305602" stop-color="#191B46"/>
<stop offset="1" stop-color="#29A3E8"/>
</linearGradient>
</defs>
</svg>
