<svg width="10" height="5" viewBox="0 0 10 5" fill="none" xmlns="http://www.w3.org/2000/svg">
<path d="M0.521767 3.42225C0.202685 3.68637 0.158131 4.15915 0.422252 4.47823C0.686373 4.79731 1.15915 4.84187 1.47823 4.57775L0.521767 3.42225ZM4.3415 1.23406L3.86326 0.656315L4.3415 1.23406ZM5.6585 1.23406L5.18027 1.81181L5.18027 1.81181L5.6585 1.23406ZM8.52177 4.57775C8.84085 4.84187 9.31363 4.79731 9.57775 4.47823C9.84187 4.15915 9.79731 3.68637 9.47823 3.42225L8.52177 4.57775ZM1.47823 4.57775L4.81973 1.81181L3.86326 0.656315L0.521767 3.42225L1.47823 4.57775ZM5.18027 1.81181L8.52177 4.57775L9.47823 3.42225L6.13674 0.656316L5.18027 1.81181ZM4.81973 1.81181C4.9193 1.7294 5.08071 1.7294 5.18027 1.81181L6.13674 0.656316C5.48225 0.114562 4.51775 0.11456 3.86326 0.656315L4.81973 1.81181Z" fill="#6B6EAF"/>
</svg>
