<svg width="52" height="52" viewBox="0 0 52 52" fill="none" xmlns="http://www.w3.org/2000/svg">
<path fill-rule="evenodd" clip-rule="evenodd" d="M26 47C37.598 47 47 37.598 47 26C47 14.402 37.598 5 26 5C14.402 5 5 14.402 5 26C5 37.598 14.402 47 26 47ZM14.0273 24.4496L33.515 17.1184C34.4042 16.7259 35.2638 17.3275 34.9241 18.656L31.6058 33.9126C31.3739 34.9978 30.7045 35.2551 29.7725 34.7544L24.7175 31.1118L22.2873 33.4172C22.2782 33.4258 22.2692 33.4343 22.2603 33.4427C21.9892 33.6985 21.7644 33.9105 21.275 33.9105L21.6201 28.8793L21.6179 28.8782H21.6201L30.9991 20.6205C31.4102 20.2645 30.9101 20.0897 30.3627 20.4146L18.7865 27.54L13.7833 26.0173C12.705 25.6946 12.6973 24.9708 14.0273 24.4496Z" fill="#29A3E8"/>
<circle cx="26" cy="26" r="25" stroke="url(#paint0_linear)" stroke-width="2"/>
<defs>
<linearGradient id="paint0_linear" x1="7.15" y1="5.85" x2="48.1" y2="52" gradientUnits="userSpaceOnUse">
<stop offset="0.305602" stop-color="#191B46"/>
<stop offset="1" stop-color="#29A3E8"/>
</linearGradient>
</defs>
</svg>
