<svg width="52" height="52" viewBox="0 0 52 52" fill="none" xmlns="http://www.w3.org/2000/svg">
<path fill-rule="evenodd" clip-rule="evenodd" d="M26 47C37.598 47 47 37.598 47 26C47 14.402 37.598 5 26 5C14.402 5 5 14.402 5 26C5 37.598 14.402 47 26 47ZM37.6158 18.3719C38.0192 18.7708 38.3094 19.2673 38.4574 19.8118C39 21.8153 39 26 39 26C39 26 39 30.1847 38.4574 32.1882C38.1585 33.2946 37.2792 34.1659 36.1592 34.4611C34.1308 35 26 35 26 35C26 35 17.8692 35 15.8408 34.4611C14.7237 34.1659 13.8415 33.2946 13.5426 32.1882C13 30.1847 13 26 13 26C13 26 13 21.8153 13.5426 19.8089C13.6902 19.2642 13.9802 18.7674 14.3836 18.3685C14.787 17.9695 15.2896 17.6824 15.8408 17.536C17.8692 17 26 17 26 17C26 17 34.1308 17 36.1592 17.5389C36.7102 17.6857 37.2125 17.973 37.6158 18.3719ZM30.1496 25.9713L23.4174 22.1592V29.8408L30.1496 25.9713Z" fill="#29A3E8"/>
<circle cx="26" cy="26" r="25" stroke="url(#paint0_linear)" stroke-width="2"/>
<defs>
<linearGradient id="paint0_linear" x1="7.15" y1="5.85" x2="48.1" y2="52" gradientUnits="userSpaceOnUse">
<stop offset="0.305602" stop-color="#191B46"/>
<stop offset="1" stop-color="#29A3E8"/>
</linearGradient>
</defs>
</svg>
