<svg width="290" height="268" viewBox="0 0 290 268" fill="none" xmlns="http://www.w3.org/2000/svg">
<path fill-rule="evenodd" clip-rule="evenodd" d="M38.282 183.351C25.507 161.131 53.6431 135.847 67.4844 114.293C77.5406 98.6335 93.9633 90.0867 106.815 76.6295C122.593 60.1067 128.506 29.2031 151.205 26.6255C173.605 24.0817 186.019 52.6539 204.539 65.532C222.356 77.9216 249.749 80.2846 257.521 100.554C265.294 120.824 254.158 144.377 241.539 162.026C231.084 176.65 209.017 175.579 195.45 187.369C180.878 200.031 179.987 229.133 160.912 232.088C142.348 234.963 133.99 206.533 116.526 199.592C91.1473 189.506 51.9006 207.038 38.282 183.351Z" fill="url(#paint0_linear)" fill-opacity="0.68"/>
<defs>
<linearGradient id="paint0_linear" x1="18.9451" y1="94.7814" x2="273.126" y2="216.895" gradientUnits="userSpaceOnUse">
<stop stop-color="#2E2F67"/>
<stop offset="0.590812" stop-color="#161735"/>
</linearGradient>
</defs>
</svg>
