<svg width="335" height="720" viewBox="0 0 335 720" fill="none" xmlns="http://www.w3.org/2000/svg">
<path fill-rule="evenodd" clip-rule="evenodd" d="M-29.0319 36.678C36.0666 32.4833 98.4279 -14.8425 160.663 4.7168C224.619 24.817 276.918 79.7584 303.694 141.247C329.714 200.998 300.697 268.342 303.811 333.444C307.116 402.539 357.835 477.044 322.603 536.562C287.295 596.208 196.986 586.658 135.268 618.162C77.5043 647.648 35.0137 705.886 -29.0319 716.054C-96.5317 726.771 -171.649 716.422 -226.473 675.594C-280.225 635.565 -299.38 564.872 -318.375 500.58C-334.457 446.145 -315.537 388.918 -327.559 333.444C-343.881 258.133 -429.879 189.986 -401.187 118.472C-373.927 50.5278 -276.598 43.9949 -205.126 28.2864C-146.735 15.4531 -88.6913 40.5221 -29.0319 36.678Z" fill="url(#paint0_linear)" fill-opacity="0.68"/>
<defs>
<linearGradient id="paint0_linear" x1="267.904" y1="41.5109" x2="-350.95" y2="767.006" gradientUnits="userSpaceOnUse">
<stop stop-color="#2E2F67"/>
<stop offset="0.590812" stop-color="#161735"/>
</linearGradient>
</defs>
</svg>
