<svg width="871" height="829" viewBox="0 0 871 829" fill="none" xmlns="http://www.w3.org/2000/svg">
<path fill-rule="evenodd" clip-rule="evenodd" d="M484.577 13.3507C589.108 12.9136 678.156 -101.933 778.998 -74.424C881.028 -46.5903 943.811 57.7364 992.058 151.79C1041.78 248.713 1103.44 367.449 1055.96 465.487C1006.56 567.498 850.85 552.776 763.094 624.561C697.117 678.53 697.334 805.234 614.746 826.401C531.566 847.72 470.575 731.16 385.261 721.398C270.414 708.256 139.086 832.503 47.8745 761.536C-36.4008 695.965 11.6562 552.489 34.0347 448.124C51.6806 365.83 136.233 316.108 160.656 235.562C191.173 134.92 104.977 -12.4512 191.735 -71.9678C277.295 -130.662 380.798 13.7848 484.577 13.3507Z" fill="url(#paint0_linear)"/>
<defs>
<linearGradient id="paint0_linear" x1="882.5" y1="-53.4999" x2="1.21936e-06" y2="848" gradientUnits="userSpaceOnUse">
<stop stop-color="#35377A"/>
<stop offset="1" stop-color="#161736"/>
</linearGradient>
</defs>
</svg>
