<svg width="504" height="687" viewBox="0 0 504 687" fill="none" xmlns="http://www.w3.org/2000/svg">
<path fill-rule="evenodd" clip-rule="evenodd" d="M237.925 4.11141C303.184 21.4867 318.26 107.149 367.591 153.27C407.706 190.776 478.237 195.996 497.976 247.243C517.829 298.785 481.479 352.8 464.716 405.428C447.833 458.435 435.09 511.651 400.007 554.826C355.275 609.875 306.956 700.847 237.925 684.531C162.69 666.748 184.777 536.377 123.352 489.436C64.7579 444.658 -39.2124 493.991 -85.998 436.988C-132.29 380.586 -119.381 292.333 -94.8129 223.626C-70.6338 156.005 -13.8812 107.209 46.0625 67.6627C103.709 29.632 171.189 -13.6572 237.925 4.11141Z" fill="url(#paint0_linear)" fill-opacity="0.68"/>
<defs>
<linearGradient id="paint0_linear" x1="447.621" y1="39.5772" x2="-149.639" y2="653.963" gradientUnits="userSpaceOnUse">
<stop stop-color="#2E2F67"/>
<stop offset="0.590812" stop-color="#161735"/>
</linearGradient>
</defs>
</svg>
