<svg width="564" height="575" viewBox="0 0 564 575" fill="none" xmlns="http://www.w3.org/2000/svg">
<path fill-rule="evenodd" clip-rule="evenodd" d="M186.887 64.8786C229.516 79.1494 266.363 100.026 309.633 112.219C388.439 134.425 495.671 98.7689 543.295 165.31C587.487 227.056 554.591 327.23 504.135 383.982C456.437 437.631 362.551 400.938 300.97 437.871C248.851 469.128 246.89 564.519 186.887 574.248C128.624 583.695 97.2137 501.441 42.3022 479.812C-44.094 445.781 -167.969 489.474 -221.253 413.485C-271.305 342.105 -219.998 239.507 -180.796 161.65C-145.59 91.7327 -90.6177 23.528 -14.861 3.58934C54.8145 -14.7489 118.567 42.0076 186.887 64.8786Z" fill="url(#paint0_linear)" fill-opacity="0.68"/>
<defs>
<linearGradient id="paint0_linear" x1="491.117" y1="33.1511" x2="40.5749" y2="751.569" gradientUnits="userSpaceOnUse">
<stop stop-color="#2E2F67"/>
<stop offset="0.590812" stop-color="#161735"/>
</linearGradient>
</defs>
</svg>
