<svg width="755" height="1077" viewBox="0 0 755 1077" fill="none" xmlns="http://www.w3.org/2000/svg">
<path fill-rule="evenodd" clip-rule="evenodd" d="M586.216 0.0997866C704.853 -4.88463 731.647 178.169 821.188 256.169C898.413 323.441 1063.32 320.02 1070.74 422.177C1078.86 533.976 894.781 562.505 850.93 665.662C813.954 752.647 910.671 870.108 849.648 942.282C790.971 1011.68 675.666 962.735 586.216 978.75C468.602 999.808 331.313 1132.31 244.018 1050.71C151.918 964.624 312.651 801.022 269.388 682.598C222.959 555.51 -28.3379 521.698 2.63586 389.986C32.3818 263.496 257.128 347.506 365.163 275.329C465.454 208.324 465.714 5.16261 586.216 0.0997866Z" fill="url(#paint0_linear)" fill-opacity="0.68"/>
<defs>
<linearGradient id="paint0_linear" x1="974.154" y1="62.0934" x2="43.8082" y2="1114.52" gradientUnits="userSpaceOnUse">
<stop stop-color="#2E2F67"/>
<stop offset="0.590812" stop-color="#161735"/>
</linearGradient>
</defs>
</svg>
