<svg width="657" height="338" viewBox="0 0 657 338" fill="none" xmlns="http://www.w3.org/2000/svg">
<g clip-path="url(#clip0)">
<path d="M436.271 114.579L453.95 325.142C453.95 325.142 455.802 337.899 446.34 337.932C430.783 337.966 368.824 337.932 368.824 337.932C368.824 337.932 380.542 335.266 380.407 329.293C380.239 322.239 359.766 112.588 359.766 112.588L436.271 114.579Z" fill="#1B2251"/>
<path d="M441.188 334.085C426.035 334.288 366.871 334.085 363.806 334.085C364.951 334.085 373.841 333.849 375.121 327.166C375.222 326.626 375.255 326.086 375.255 325.479C375.255 324.163 374.515 315.827 373.37 303.137C372.326 291.763 370.912 276.88 369.329 260.376C363.234 196.523 354.614 108.774 354.614 108.774L431.153 110.765L443.713 260.376L446.171 289.57L448.36 315.827L448.832 321.294C448.798 321.294 450.953 333.95 441.188 334.085Z" fill="#EFECEA"/>
<path d="M622.182 0L579.147 173.269L573.255 196.995L553.185 277.69H180.826L254.705 0H622.182Z" fill="#B1C9F6"/>
<path d="M622.182 0L628.142 1.99121L561.132 283.697L553.185 277.69L622.182 0Z" fill="#B1C9F6"/>
<path d="M561.132 283.697H191.029L180.826 277.69H553.185L561.132 283.697Z" fill="#1B2251"/>
<path d="M431.187 334.153H351.044V337.966H431.187V334.153Z" fill="#1B2251"/>
<path d="M446.643 283.596L446.138 289.57L446.104 289.806C446.104 289.806 394.045 294.801 373.336 303.137C372.797 297.433 372.191 290.852 371.518 283.596H446.643Z" fill="#B1C9F6"/>
<g opacity="0.4">
<g opacity="0.4">
<path opacity="0.4" d="M441.188 334.085C426.035 334.288 366.871 334.085 363.806 334.085C364.951 334.085 373.841 333.849 375.121 327.166C381.216 327.47 415.091 328.55 448.36 315.827L448.832 321.294C448.798 321.294 450.953 333.95 441.188 334.085Z" fill="#B1C9F6"/>
</g>
</g>
<g opacity="0.4">
<g opacity="0.4">
<path opacity="0.4" d="M566.25 223.185L552.714 277.69H427.348C480.35 260.815 505.436 236.111 515.572 223.185H566.25Z" fill="#1B2251"/>
</g>
</g>
<path d="M254.705 0L195.238 223.185H195.069L254.166 0H254.705Z" fill="#FD8857"/>
<path d="M619.353 3.67868L566.25 223.185H199.784L259.284 3.67868H619.353Z" fill="#2D3B8F"/>
<path d="M262.315 206.917H398.894L444.656 22.9158H308.077L262.315 206.917Z" fill="#EFECEA"/>
<g opacity="0.5">
<g opacity="0.5">
<g opacity="0.5">
<g opacity="0.5">
<path opacity="0.5" d="M310.502 107.728H400.982C402.093 107.728 403.238 106.817 403.541 105.669L403.743 104.893C404.012 103.779 403.339 102.834 402.228 102.834H311.714C310.603 102.834 309.458 103.746 309.155 104.893L308.953 105.669C308.717 106.817 309.39 107.728 310.502 107.728Z" fill="#F24B46"/>
</g>
</g>
<g opacity="0.5">
<g opacity="0.5">
<path opacity="0.5" d="M318.55 75.3624H409.03C410.141 75.3624 411.286 74.4511 411.589 73.3036L411.791 72.5274C412.06 71.4137 411.387 70.4687 410.276 70.4687H319.762C318.651 70.4687 317.506 71.3799 317.203 72.5274L317.001 73.3036C316.765 74.4511 317.438 75.3624 318.55 75.3624Z" fill="#F24B46"/>
</g>
</g>
<g opacity="0.5">
<g opacity="0.5">
<path opacity="0.5" d="M315.755 86.6009H406.235C407.346 86.6009 408.491 85.6897 408.794 84.5422L408.996 83.766C409.266 82.6522 408.592 81.7072 407.481 81.7072H316.967C315.856 81.7072 314.711 82.6185 314.408 83.766L314.206 84.5422C313.97 85.6897 314.643 86.6009 315.755 86.6009Z" fill="#F24B46"/>
</g>
</g>
<g opacity="0.5">
<g opacity="0.5">
<path opacity="0.5" d="M313.128 97.1645H403.608C404.72 97.1645 405.864 96.2532 406.167 95.1057L406.37 94.3295C406.639 93.2158 405.965 92.2708 404.854 92.2708H314.34C313.229 92.2708 312.084 93.182 311.781 94.3295L311.579 95.1057C311.343 96.2532 312.017 97.1645 313.128 97.1645Z" fill="#F24B46"/>
</g>
</g>
<g opacity="0.5">
<g opacity="0.5">
<path opacity="0.5" d="M305.148 129.26H395.628C396.739 129.26 397.884 128.349 398.187 127.201L398.389 126.425C398.658 125.311 397.985 124.366 396.874 124.366H306.36C305.249 124.366 304.104 125.278 303.801 126.425L303.599 127.201C303.363 128.315 304.036 129.26 305.148 129.26Z" fill="#F24B46"/>
</g>
</g>
<g opacity="0.5">
<g opacity="0.5">
<path opacity="0.5" d="M307.774 118.697H398.254C399.365 118.697 400.51 117.785 400.813 116.638L401.015 115.862C401.285 114.748 400.611 113.803 399.5 113.803H308.986C307.875 113.803 306.73 114.714 306.427 115.862L306.225 116.638C305.989 117.785 306.663 118.697 307.774 118.697Z" fill="#F24B46"/>
</g>
</g>
</g>
<g opacity="0.5">
<g opacity="0.5">
<path opacity="0.5" d="M297.302 162.436H319.29C320.637 162.436 321.984 161.356 322.321 160.006C322.658 158.656 321.85 157.576 320.503 157.576H298.514C297.167 157.576 295.82 158.656 295.483 160.006C295.147 161.322 295.955 162.436 297.302 162.436Z" fill="#F24B46"/>
</g>
</g>
<g opacity="0.5">
<g opacity="0.5">
<path opacity="0.5" d="M364.615 162.436H386.603C387.95 162.436 389.297 161.356 389.634 160.006C389.971 158.656 389.162 157.576 387.816 157.576H365.827C364.48 157.576 363.133 158.656 362.796 160.006C362.46 161.322 363.268 162.436 364.615 162.436Z" fill="#F24B46"/>
</g>
</g>
</g>
<path d="M316.192 188.558H284.135C283.294 188.558 282.553 188.22 282.115 187.647C281.644 187.039 281.475 186.195 281.711 185.318L284.034 176.037C284.472 174.282 286.257 172.831 288.008 172.831H320.065C320.907 172.831 321.647 173.168 322.085 173.742C322.557 174.349 322.725 175.193 322.489 176.071L320.166 185.352C319.728 187.107 317.943 188.558 316.192 188.558ZM288.008 173.067C286.358 173.067 284.674 174.417 284.27 176.071L281.947 185.352C281.745 186.162 281.879 186.904 282.317 187.478C282.721 188.018 283.395 188.288 284.135 188.288H316.192C317.842 188.288 319.526 186.938 319.93 185.284L322.254 176.003C322.456 175.193 322.321 174.451 321.883 173.877C321.479 173.337 320.806 173.067 320.065 173.067H288.008Z" fill="#EB3668"/>
<path d="M383.64 188.558H351.583C350.741 188.558 350 188.22 349.563 187.647C349.091 187.039 348.923 186.195 349.159 185.318L351.482 176.037C351.92 174.282 353.704 172.831 355.456 172.831H387.513C388.354 172.831 389.095 173.168 389.533 173.742C390.004 174.349 390.173 175.193 389.937 176.071L387.614 185.352C387.176 187.107 385.391 188.558 383.64 188.558ZM355.422 173.067C353.772 173.067 352.088 174.417 351.684 176.071L349.361 185.352C349.159 186.162 349.293 186.904 349.731 187.478C350.135 188.018 350.809 188.288 351.549 188.288H383.606C385.256 188.288 386.94 186.938 387.344 185.284L389.668 176.003C389.87 175.193 389.735 174.451 389.297 173.877C388.893 173.337 388.22 173.067 387.479 173.067H355.422Z" fill="#EB3668"/>
<path d="M390.577 171.582C385.694 173.607 380.879 175.801 376.097 178.197C376.299 177.657 376.468 177.117 376.602 176.577C376.737 176.138 376.131 175.868 375.794 176.341C375.626 176.543 375.457 176.745 375.289 176.948C375.424 176.577 374.952 176.341 374.548 176.644C374.515 176.678 374.515 176.678 374.481 176.712C374.683 176.205 373.875 176.104 373.572 176.61L373.134 177.353C372.764 177.792 372.225 178.163 371.686 178.332C371.585 178.095 371.484 177.825 371.484 177.522C371.45 177.285 371.316 177.184 371.114 177.184C371.114 176.914 370.878 176.779 370.508 176.914C370.07 177.117 369.699 177.387 369.396 177.724C369.161 177.285 368.386 177.589 367.982 178.028C367.982 177.994 368.016 177.994 368.016 177.96C368.218 177.555 367.847 177.083 367.376 177.488C366.5 178.23 365.894 179.175 365.591 180.12C365.322 180.424 364.985 180.728 364.682 181.032C364.514 181.167 363.773 181.875 363.604 181.808C363.436 181.74 363.537 181.335 363.604 181.032C363.638 180.998 363.672 180.964 363.672 180.93C364.278 180.053 367.275 176.003 365.153 176.037C364.918 176.037 364.716 176.172 364.581 176.408C363.806 177.589 363.234 178.838 362.864 180.087C362.796 180.323 362.695 180.627 362.628 180.964C362.561 181.032 362.493 181.133 362.46 181.2C361.618 182.28 360.473 183.867 359.126 184.407C358.991 182.685 359.867 180.66 360.506 178.872C360.776 178.095 361.079 177.319 361.382 176.543C361.483 176.509 361.584 176.476 361.685 176.408C363.133 175.193 363.739 173.337 363.066 172.122C362.864 171.784 362.291 172.088 362.123 172.459C361.113 174.721 360.203 176.982 359.395 179.243C358.688 181.268 357.846 183.394 358.149 185.25C358.183 185.453 358.419 185.52 358.621 185.487C360.17 185.149 361.517 183.765 362.594 182.415C362.662 182.584 362.796 182.719 363.032 182.787C363.739 182.989 364.716 182.213 365.423 181.538C365.423 181.774 365.49 182.01 365.557 182.213C365.625 182.449 365.894 182.517 366.164 182.382C366.837 182.112 367.443 181.673 367.982 181.167C368.689 180.964 369.295 180.39 369.8 179.715C370.137 179.445 370.406 179.142 370.71 178.838C370.777 179.007 370.844 179.175 370.945 179.31C371.215 179.614 371.854 179.344 372.292 179.142C372.696 178.973 373.067 178.703 373.403 178.399C373.673 178.365 373.908 178.298 374.178 178.197C374.212 178.264 374.279 178.332 374.346 178.399C374.616 178.568 374.919 178.5 375.222 178.332C375.154 178.534 375.087 178.737 375.02 178.905C374.313 179.243 373.639 179.614 372.932 179.985C372.461 180.222 372.36 180.93 372.865 180.897C373.504 180.863 374.144 180.795 374.784 180.762C375.087 180.728 375.289 180.559 375.424 180.289C375.525 180.019 375.66 179.783 375.761 179.513C380.778 177.015 385.829 174.687 390.914 172.561C391.419 172.156 391.217 171.312 390.577 171.582ZM368.251 178.973C368.218 179.108 368.15 179.243 368.083 179.378C368.049 179.479 367.982 179.547 367.948 179.648C368.049 179.412 368.117 179.175 368.251 178.973ZM366.837 180.154C366.77 180.424 366.736 180.694 366.837 180.897C366.669 180.998 366.534 181.133 366.366 181.2C366.332 180.93 366.366 180.627 366.433 180.289C366.669 180.019 366.871 179.749 367.073 179.479C366.938 179.715 366.904 179.952 366.837 180.154Z" fill="#7F22BA"/>
<path d="M301.006 168.578C299.288 171.784 298.312 175.092 296.931 178.332C296.258 179.918 295.45 181.504 294.406 182.989C293.665 184.035 292.082 186.297 290.735 185.79C290.399 185.655 290.298 185.385 290.432 184.98C290.466 184.879 290.5 184.812 290.5 184.71C290.668 184.812 290.937 184.778 291.207 184.643C291.645 184.407 292.015 183.934 292.183 183.529C292.385 183.09 292.352 182.652 292.015 182.449C291.712 182.28 291.24 182.415 290.937 182.753C290.567 183.124 290.399 183.563 290.23 184.002C290.028 184.508 289.725 185.082 289.759 185.554C289.793 186.297 290.601 186.567 291.375 186.398C292.318 186.195 293.16 185.352 293.8 184.609C294.54 183.732 295.214 182.753 295.786 181.808C296.965 179.85 297.773 177.792 298.548 175.767C299.457 173.404 300.299 171.042 301.545 168.747C301.713 168.376 301.208 168.207 301.006 168.578ZM291.678 183.158C291.746 183.394 291.51 183.698 291.342 183.9C291.274 183.968 291.207 184.035 291.139 184.103C291.106 184.137 291.038 184.17 291.005 184.204C290.971 184.204 290.971 184.204 290.971 184.204C290.937 184.137 290.87 184.103 290.803 184.103C290.87 183.934 290.971 183.765 291.038 183.597C291.106 183.36 291.544 182.685 291.678 183.158Z" fill="#7F22BA"/>
<path d="M312.522 178.602C312.185 178.804 311.781 179.007 311.445 179.074C311.343 179.074 311.242 179.108 311.175 179.074C311.444 178.804 311.68 178.5 311.714 178.23C311.781 177.758 311.276 177.657 310.838 177.893C310.468 178.095 310.199 178.534 310.165 178.905C310.165 179.04 310.165 179.142 310.232 179.243C309.862 179.513 309.222 179.884 308.818 179.817C309.323 179.479 309.761 179.04 310.131 178.534C310.199 178.433 310.199 178.298 310.165 178.23C309.929 177.927 309.491 177.927 309.087 178.163C308.616 178.399 308.313 178.872 308.145 179.31C308.077 179.445 308.044 179.58 308.01 179.715C307.538 179.918 307.067 180.053 306.629 180.019C306.764 179.884 306.932 179.749 307.067 179.614C307.269 179.412 307.168 179.175 306.966 179.175C306.528 179.108 306.191 179.479 306.057 179.884C305.383 180.492 304.642 181.032 303.868 181.47C303.666 181.572 303.397 181.808 303.296 181.673C303.599 181.437 303.902 181.167 304.205 180.897C304.744 180.323 305.249 179.344 304.642 179.007C304.541 178.939 304.306 178.939 304.205 179.108C303.935 179.479 303.666 179.85 303.363 180.222C303.127 180.525 302.858 180.863 302.723 181.2C302.689 181.302 302.656 181.437 302.622 181.538C302.353 181.707 302.05 181.875 301.747 181.977C301.713 181.977 301.713 182.01 301.679 182.01C301.848 181.875 302.016 181.74 302.151 181.605C302.588 181.234 303.026 180.795 303.06 180.289C303.094 179.817 302.79 179.479 302.487 179.175C302.42 179.108 302.218 179.142 302.117 179.209C301.241 179.884 300.534 180.795 300.164 181.74C300.063 182.044 299.996 182.348 300.13 182.55C299.356 183.158 298.548 183.732 297.739 184.305C297.638 184.373 297.436 184.542 297.369 184.542C297.302 184.508 297.335 184.339 297.335 184.238C297.335 184.002 297.335 183.799 297.369 183.563C297.436 183.057 297.537 182.55 297.739 182.044C297.908 181.605 298.11 181.167 298.346 180.728C298.447 180.762 298.548 180.762 298.682 180.66C299.288 180.154 299.591 179.513 299.524 178.905C299.49 178.703 299.154 178.737 299.019 178.905C297.537 180.593 296.628 182.719 296.729 184.542C296.763 184.947 296.931 185.284 297.47 185.048C297.706 184.947 297.941 184.744 298.177 184.609C298.48 184.407 298.75 184.204 299.053 183.968C299.591 183.563 300.13 183.158 300.669 182.753C300.972 182.753 301.309 182.652 301.646 182.55C302.016 182.415 302.386 182.247 302.757 182.01C302.858 182.213 303.06 182.314 303.329 182.28C303.632 182.247 304.036 181.943 304.306 181.774C304.642 181.572 304.946 181.369 305.249 181.133C305.552 180.93 305.855 180.694 306.124 180.458C306.191 180.559 306.292 180.593 306.495 180.593C306.764 180.593 307.033 180.559 307.303 180.492C307.606 180.424 307.909 180.323 308.178 180.188C308.212 180.222 308.279 180.255 308.313 180.289C308.65 180.458 309.087 180.39 309.525 180.222C309.929 180.087 310.3 179.85 310.67 179.58C310.771 179.614 310.872 179.648 311.007 179.682C311.579 179.749 312.185 179.445 312.758 179.142C313.061 178.939 312.926 178.399 312.522 178.602ZM300.804 181.335C301.107 180.762 301.545 180.222 302.05 179.783C302.285 180.019 302.487 180.357 302.184 180.762C302.016 180.964 301.747 181.167 301.545 181.335C301.309 181.538 301.039 181.74 300.804 181.909C300.736 181.977 300.669 182.01 300.602 182.044C300.501 181.909 300.703 181.538 300.804 181.335ZM304.171 179.749C304.104 180.053 303.733 180.458 303.531 180.66C303.498 180.694 303.464 180.728 303.397 180.762C303.632 180.458 303.902 180.087 304.171 179.749ZM309.424 178.568C309.188 178.838 308.953 179.074 308.65 179.277C308.818 178.939 309.155 178.534 309.424 178.568ZM310.838 178.534C310.872 178.467 311.04 178.298 311.007 178.399C311.007 178.467 310.872 178.602 310.771 178.703C310.805 178.669 310.805 178.602 310.838 178.534Z" fill="#7F22BA"/>
<path d="M453.916 111.035H519.31L541.231 22.9158H475.838L453.916 111.035Z" fill="#EFECEA"/>
<g opacity="0.5">
<g opacity="0.5">
<g opacity="0.5">
<g opacity="0.5">
<path opacity="0.5" d="M479.811 47.8566H523.149C523.687 47.8566 524.226 47.4179 524.361 46.8779L524.462 46.5066C524.597 45.9667 524.26 45.5279 523.721 45.5279H480.383C479.845 45.5279 479.306 45.9667 479.171 46.5066L479.07 46.8779C478.936 47.4179 479.272 47.8566 479.811 47.8566Z" fill="#F24B46"/>
</g>
</g>
<g opacity="0.5">
<g opacity="0.5">
<path opacity="0.5" d="M483.65 32.3657H526.987C527.526 32.3657 528.065 31.9269 528.2 31.3869L528.301 31.0157C528.435 30.4757 528.099 30.037 527.56 30.037H484.222C483.683 30.037 483.145 30.4757 483.01 31.0157L482.909 31.3869C482.774 31.9269 483.111 32.3657 483.65 32.3657Z" fill="#F24B46"/>
</g>
</g>
<g opacity="0.5">
<g opacity="0.5">
<path opacity="0.5" d="M482.303 37.7318H525.64C526.179 37.7318 526.718 37.2931 526.853 36.7531L526.954 36.3818C527.088 35.8418 526.752 35.4031 526.213 35.4031H482.875C482.337 35.4031 481.798 35.8418 481.663 36.3818L481.562 36.7531C481.461 37.2931 481.764 37.7318 482.303 37.7318Z" fill="#F24B46"/>
</g>
</g>
<g opacity="0.5">
<g opacity="0.5">
<path opacity="0.5" d="M481.057 42.7942H524.395C524.933 42.7942 525.472 42.3555 525.607 41.8155L525.708 41.4442C525.842 40.9043 525.506 40.4655 524.967 40.4655H481.629C481.091 40.4655 480.552 40.9043 480.417 41.4442L480.316 41.8155C480.181 42.3555 480.518 42.7942 481.057 42.7942Z" fill="#F24B46"/>
</g>
</g>
<g opacity="0.5">
<g opacity="0.5">
<path opacity="0.5" d="M477.218 58.1502H520.556C521.094 58.1502 521.633 57.7114 521.768 57.1714L521.869 56.8002C522.004 56.2602 521.667 55.8215 521.128 55.8215H477.824C477.286 55.8215 476.747 56.2602 476.612 56.8002L476.511 57.1714C476.376 57.7114 476.713 58.1502 477.218 58.1502Z" fill="#F24B46"/>
</g>
</g>
<g opacity="0.5">
<g opacity="0.5">
<path opacity="0.5" d="M478.498 53.0878H521.802C522.34 53.0878 522.879 52.649 523.014 52.109L523.115 51.7378C523.25 51.1978 522.913 50.7591 522.374 50.7591H479.037C478.498 50.7591 477.959 51.1978 477.824 51.7378L477.723 52.109C477.622 52.649 477.959 53.0878 478.498 53.0878Z" fill="#F24B46"/>
</g>
</g>
</g>
<g opacity="0.5">
<g opacity="0.5">
<path opacity="0.5" d="M470.652 89.7058H481.158C481.798 89.7058 482.438 89.1996 482.606 88.5584C482.774 87.9171 482.37 87.4109 481.73 87.4109H471.224C470.585 87.4109 469.945 87.9171 469.776 88.5584C469.608 89.1996 470.012 89.7058 470.652 89.7058Z" fill="#F24B46"/>
</g>
</g>
<g opacity="0.5">
<g opacity="0.5">
<path opacity="0.5" d="M502.877 89.7058H513.383C514.023 89.7058 514.663 89.1996 514.831 88.5584C515 87.9171 514.596 87.4109 513.956 87.4109H503.45C502.81 87.4109 502.17 87.9171 502.002 88.5584C501.867 89.1996 502.237 89.7058 502.877 89.7058Z" fill="#F24B46"/>
</g>
</g>
</g>
<path d="M479.71 102.227H464.355C463.951 102.227 463.614 102.058 463.378 101.788C463.143 101.484 463.075 101.079 463.176 100.674L464.288 96.2195C464.49 95.3757 465.365 94.7008 466.207 94.7008H481.562C481.966 94.7008 482.303 94.8695 482.539 95.1395C482.774 95.4432 482.842 95.8482 482.741 96.2532L481.629 100.708C481.394 101.552 480.552 102.227 479.71 102.227ZM466.207 94.802C465.433 94.802 464.624 95.4432 464.422 96.2532L463.311 100.708C463.21 101.079 463.277 101.451 463.48 101.721C463.682 101.991 463.985 102.126 464.355 102.126H479.71C480.485 102.126 481.293 101.484 481.495 100.674L482.606 96.2195C482.707 95.8482 482.64 95.477 482.438 95.207C482.236 94.937 481.932 94.802 481.562 94.802H466.207Z" fill="#EB3668"/>
<path d="M512.003 102.227H496.648C496.244 102.227 495.907 102.058 495.671 101.788C495.435 101.484 495.368 101.079 495.469 100.674L496.58 96.2195C496.782 95.3757 497.658 94.7008 498.5 94.7008H513.855C514.259 94.7008 514.596 94.8695 514.831 95.1395C515.067 95.4432 515.134 95.8482 515.033 96.2532L513.922 100.708C513.686 101.552 512.845 102.227 512.003 102.227ZM498.5 94.802C497.725 94.802 496.917 95.4432 496.715 96.2532L495.604 100.708C495.503 101.079 495.57 101.451 495.772 101.721C495.974 101.991 496.277 102.126 496.648 102.126H512.003C512.777 102.126 513.585 101.484 513.787 100.674L514.899 96.2195C515 95.8482 514.932 95.477 514.73 95.207C514.528 94.937 514.225 94.802 513.855 94.802H498.5Z" fill="#EB3668"/>
<path d="M515.303 94.0932C512.979 95.072 510.656 96.1182 508.366 97.2657C508.467 96.9957 508.534 96.7595 508.602 96.4895C508.669 96.287 508.366 96.152 508.198 96.3882C508.13 96.4895 508.029 96.5907 507.962 96.692C508.029 96.4895 507.794 96.3882 507.625 96.5232L507.592 96.557C507.693 96.3207 507.288 96.287 507.154 96.5232L506.952 96.8945C506.783 97.097 506.514 97.2657 506.245 97.3669C506.177 97.2319 506.144 97.1307 506.144 96.9957C506.144 96.8945 506.043 96.827 505.975 96.827C505.975 96.692 505.841 96.6245 505.672 96.692C505.47 96.7932 505.302 96.9282 505.133 97.097C505.032 96.8945 504.662 97.0295 504.46 97.232C504.46 97.232 504.46 97.1982 504.494 97.1982C504.595 96.9957 504.426 96.7595 504.191 96.962C503.786 97.3332 503.483 97.7719 503.349 98.2107C503.214 98.3794 503.079 98.5144 502.911 98.6494C502.844 98.7169 502.473 99.0544 502.406 99.0207C502.339 98.9869 502.372 98.7844 502.406 98.6494C502.406 98.6157 502.44 98.6157 502.44 98.5819C502.743 98.1769 504.157 96.2195 503.147 96.2532C503.046 96.2532 502.945 96.3207 502.877 96.422C502.507 96.9957 502.238 97.5694 502.069 98.1769C502.035 98.2782 502.002 98.4469 501.968 98.5819C501.934 98.6157 501.901 98.6494 501.867 98.6832C501.463 99.2232 500.924 99.9657 500.284 100.236C500.217 99.4257 500.655 98.4469 500.958 97.5694C501.093 97.1982 501.227 96.827 501.396 96.4557C501.429 96.4557 501.497 96.422 501.53 96.3882C502.238 95.8145 502.507 94.937 502.204 94.3295C502.103 94.1608 501.833 94.3295 501.766 94.4982C501.295 95.5782 500.857 96.6582 500.453 97.7382C500.116 98.7169 499.712 99.7294 499.847 100.607C499.847 100.708 499.981 100.742 500.082 100.708C500.823 100.539 501.463 99.8982 501.968 99.2232C502.002 99.3244 502.069 99.3582 502.17 99.3919C502.507 99.4932 502.978 99.1219 503.315 98.7844C503.315 98.8857 503.349 99.0207 503.382 99.1219C503.416 99.2232 503.551 99.2569 503.685 99.1894C503.989 99.0544 504.292 98.8519 504.561 98.6157C504.898 98.5144 505.201 98.2444 505.436 97.9069C505.605 97.7719 505.74 97.6369 505.874 97.4682C505.908 97.5357 505.942 97.6369 506.009 97.6707C506.144 97.8057 506.447 97.6707 506.649 97.6032C506.851 97.5019 507.019 97.4007 507.187 97.2657C507.322 97.2657 507.423 97.2319 507.558 97.1644C507.592 97.1982 507.592 97.232 507.659 97.2657C507.794 97.367 507.928 97.3332 508.097 97.232C508.063 97.3332 508.029 97.4344 507.996 97.5019C507.659 97.6707 507.322 97.8394 506.985 98.0082C506.75 98.1094 506.716 98.4469 506.952 98.4469C507.255 98.4132 507.558 98.4132 507.861 98.3794C507.996 98.3794 508.097 98.2782 508.164 98.1432C508.231 98.0082 508.265 97.9069 508.332 97.7719C510.723 96.557 513.148 95.4432 515.572 94.4645C515.74 94.3632 515.606 93.9583 515.303 94.0932ZM504.628 97.6369C504.595 97.7044 504.595 97.7719 504.561 97.8394C504.527 97.8732 504.527 97.9407 504.494 97.9744C504.527 97.8394 504.561 97.7382 504.628 97.6369ZM503.955 98.2107C503.921 98.3457 503.887 98.4807 503.955 98.5482C503.887 98.6157 503.82 98.6494 503.719 98.7169C503.719 98.5819 503.719 98.4469 503.753 98.2782C503.854 98.1432 503.955 98.0082 504.056 97.9069C504.022 98.0082 503.989 98.1094 503.955 98.2107Z" fill="#7F22BA"/>
<path d="M472.437 92.6758C471.628 94.2283 471.157 95.7807 470.484 97.3332C470.147 98.0757 469.776 98.8519 469.271 99.5607C468.935 100.067 468.16 101.147 467.52 100.911C467.352 100.843 467.318 100.708 467.352 100.539C467.352 100.506 467.386 100.472 467.386 100.404C467.453 100.438 467.588 100.438 467.722 100.371C467.924 100.269 468.093 100.033 468.194 99.8307C468.295 99.6282 468.261 99.3919 468.093 99.3244C467.958 99.2569 467.722 99.3244 467.554 99.4594C467.386 99.6282 467.318 99.8644 467.217 100.067C467.116 100.303 466.982 100.573 466.982 100.809C467.015 101.181 467.386 101.282 467.756 101.214C468.194 101.113 468.598 100.708 468.901 100.371C469.271 99.9319 469.574 99.4932 469.844 99.0207C470.416 98.0757 470.787 97.097 471.157 96.1182C471.595 95.0045 471.999 93.857 472.571 92.7433C472.773 92.5745 472.538 92.4733 472.437 92.6758ZM467.958 99.6282C467.992 99.7294 467.891 99.8644 467.79 99.9657C467.756 99.9994 467.722 100.033 467.689 100.067C467.655 100.101 467.655 100.101 467.621 100.101H467.588C467.554 100.067 467.554 100.067 467.487 100.067C467.52 99.9994 467.554 99.8982 467.588 99.8307C467.689 99.7294 467.891 99.4257 467.958 99.6282Z" fill="#7F22BA"/>
<path d="M477.959 97.4682C477.791 97.5694 477.622 97.6707 477.42 97.6707C477.387 97.6707 477.319 97.6707 477.286 97.6707C477.42 97.5357 477.521 97.4007 477.555 97.2657C477.589 97.0295 477.353 96.9957 477.117 97.097C476.915 97.1982 476.814 97.4007 476.814 97.5694C476.814 97.6369 476.814 97.6707 476.848 97.7382C476.679 97.8732 476.376 98.0419 476.174 98.0082C476.41 97.8394 476.646 97.6369 476.78 97.4007C476.814 97.367 476.814 97.2995 476.78 97.2657C476.679 97.1307 476.477 97.1307 476.242 97.232C476.006 97.3332 475.871 97.5694 475.804 97.7719C475.77 97.8394 475.77 97.9069 475.737 97.9744C475.501 98.0757 475.299 98.1432 475.063 98.1094C475.13 98.0419 475.198 97.9744 475.265 97.9069C475.366 97.8057 475.299 97.7044 475.198 97.7044C474.996 97.6707 474.827 97.8732 474.76 98.0419C474.423 98.3457 474.087 98.5819 473.716 98.8182C473.615 98.8857 473.48 98.9869 473.447 98.9194C473.615 98.8182 473.75 98.6832 473.885 98.5482C474.154 98.2782 474.39 97.8057 474.087 97.6369C474.019 97.6032 473.918 97.6032 473.885 97.7044C473.75 97.8732 473.615 98.0419 473.48 98.2444C473.379 98.4132 473.245 98.5482 473.177 98.7169C473.144 98.7844 473.144 98.8182 473.144 98.8857C473.009 98.9869 472.874 99.0544 472.74 99.0882H472.706C472.773 99.0207 472.874 98.9532 472.942 98.8857C473.144 98.7169 473.346 98.5144 473.379 98.2444C473.379 98.0082 473.245 97.8394 473.11 97.7044C473.076 97.6707 472.975 97.6707 472.942 97.7382C472.504 98.0757 472.167 98.4807 471.999 98.9532C471.931 99.0882 471.931 99.2569 471.999 99.3582C471.628 99.6281 471.258 99.9319 470.854 100.202C470.82 100.236 470.719 100.337 470.686 100.303C470.652 100.303 470.652 100.202 470.652 100.168C470.652 100.067 470.652 99.9656 470.686 99.8306C470.719 99.5944 470.787 99.3582 470.854 99.1219C470.921 98.9194 471.022 98.7169 471.157 98.5144C471.191 98.5482 471.258 98.5144 471.325 98.4807C471.628 98.2444 471.763 97.9407 471.729 97.6369C471.729 97.5357 471.561 97.5357 471.494 97.6369C470.787 98.4469 470.349 99.4594 470.383 100.337C470.383 100.539 470.484 100.708 470.753 100.573C470.888 100.539 470.989 100.438 471.09 100.371C471.224 100.269 471.359 100.168 471.494 100.067C471.763 99.8644 472.033 99.6956 472.268 99.4931C472.403 99.4931 472.571 99.4594 472.74 99.3919C472.908 99.3244 473.11 99.2232 473.278 99.1219C473.312 99.2232 473.413 99.2569 473.548 99.2569C473.683 99.2569 473.885 99.0882 474.019 99.0207C474.188 98.9194 474.322 98.8182 474.491 98.7169C474.625 98.6157 474.76 98.5144 474.928 98.3794C474.962 98.4132 475.029 98.4469 475.097 98.4469C475.231 98.4469 475.366 98.4469 475.501 98.4132C475.636 98.3794 475.804 98.3457 475.939 98.2782C475.972 98.3119 475.972 98.3119 476.006 98.3119C476.174 98.3794 476.376 98.3457 476.578 98.2782C476.78 98.2107 476.949 98.1094 477.117 97.9744C477.151 98.0082 477.218 98.0082 477.286 98.0082C477.555 98.0419 477.858 97.9069 478.127 97.7382C478.195 97.6032 478.127 97.3669 477.959 97.4682ZM472.336 98.7844C472.47 98.5144 472.672 98.2444 472.942 98.0419C473.043 98.1432 473.144 98.3119 473.009 98.5144C472.942 98.6157 472.807 98.7169 472.706 98.7844C472.571 98.8857 472.47 98.9869 472.336 99.0544C472.302 99.0882 472.268 99.0882 472.235 99.1219C472.201 99.0544 472.302 98.8519 472.336 98.7844ZM473.952 98.0082C473.918 98.1432 473.75 98.3457 473.649 98.4469C473.615 98.4807 473.615 98.4807 473.581 98.5144C473.683 98.3457 473.817 98.1769 473.952 98.0082ZM476.444 97.4345C476.343 97.5694 476.208 97.6707 476.073 97.7719C476.174 97.6369 476.343 97.4345 476.444 97.4345ZM477.151 97.4345C477.185 97.4007 477.252 97.2995 477.252 97.3669C477.252 97.4007 477.185 97.4682 477.151 97.5019C477.117 97.5019 477.117 97.4682 477.151 97.4345Z" fill="#7F22BA"/>
<path d="M429.267 208.031H494.695L516.582 119.912H451.189L429.267 208.031Z" fill="#EFECEA"/>
<g opacity="0.5">
<g opacity="0.5">
<g opacity="0.5">
<g opacity="0.5">
<path opacity="0.5" d="M456.475 145.662H499.813C500.352 145.662 500.891 145.224 501.025 144.684L501.126 144.312C501.261 143.772 500.924 143.334 500.385 143.334H457.048C456.509 143.334 455.97 143.772 455.836 144.312L455.735 144.684C455.6 145.224 455.937 145.662 456.475 145.662Z" fill="#F24B46"/>
</g>
</g>
<g opacity="0.5">
<g opacity="0.5">
<path opacity="0.5" d="M460.348 130.171H503.652C504.19 130.171 504.729 129.733 504.864 129.193L504.965 128.821C505.1 128.281 504.763 127.843 504.224 127.843H460.887C460.348 127.843 459.809 128.281 459.674 128.821L459.573 129.193C459.472 129.733 459.809 130.171 460.348 130.171Z" fill="#F24B46"/>
</g>
</g>
<g opacity="0.5">
<g opacity="0.5">
<path opacity="0.5" d="M459.001 135.538H502.339C502.877 135.538 503.416 135.099 503.551 134.559L503.652 134.188C503.786 133.648 503.45 133.209 502.911 133.209H459.573C459.035 133.209 458.496 133.648 458.361 134.188L458.26 134.559C458.125 135.099 458.462 135.538 459.001 135.538Z" fill="#F24B46"/>
</g>
</g>
<g opacity="0.5">
<g opacity="0.5">
<path opacity="0.5" d="M457.721 140.6H501.059C501.598 140.6 502.136 140.161 502.271 139.621L502.372 139.25C502.507 138.71 502.17 138.271 501.631 138.271H458.294C457.755 138.271 457.216 138.71 457.082 139.25L456.981 139.621C456.879 140.161 457.216 140.6 457.721 140.6Z" fill="#F24B46"/>
</g>
</g>
<g opacity="0.5">
<g opacity="0.5">
<path opacity="0.5" d="M453.916 155.956H497.254C497.793 155.956 498.331 155.517 498.466 154.977L498.567 154.606C498.702 154.066 498.365 153.627 497.826 153.627H454.522C453.984 153.627 453.445 154.066 453.31 154.606L453.209 154.977C453.041 155.517 453.377 155.956 453.916 155.956Z" fill="#F24B46"/>
</g>
</g>
<g opacity="0.5">
<g opacity="0.5">
<path opacity="0.5" d="M455.162 150.893H498.5C499.039 150.893 499.577 150.455 499.712 149.915L499.813 149.543C499.948 149.003 499.611 148.565 499.072 148.565H455.735C455.196 148.565 454.657 149.003 454.522 149.543L454.421 149.915C454.32 150.455 454.623 150.893 455.162 150.893Z" fill="#F24B46"/>
</g>
</g>
</g>
<g opacity="0.5">
<g opacity="0.5">
<path opacity="0.5" d="M446.037 186.702H456.543C457.183 186.702 457.822 186.195 457.991 185.554C458.159 184.913 457.755 184.407 457.115 184.407H446.609C445.969 184.407 445.33 184.913 445.161 185.554C444.993 186.195 445.397 186.702 446.037 186.702Z" fill="#F24B46"/>
</g>
</g>
<g opacity="0.5">
<g opacity="0.5">
<path opacity="0.5" d="M478.262 186.702H488.768C489.408 186.702 490.048 186.195 490.216 185.554C490.385 184.913 489.98 184.407 489.341 184.407H478.835C478.195 184.407 477.555 184.913 477.387 185.554C477.218 186.195 477.622 186.702 478.262 186.702Z" fill="#F24B46"/>
</g>
</g>
</g>
<path d="M455.095 199.223H439.74C439.336 199.223 438.999 199.054 438.763 198.784C438.528 198.48 438.46 198.075 438.561 197.67L439.672 193.215C439.874 192.371 440.75 191.696 441.592 191.696H456.947C457.351 191.696 457.688 191.865 457.923 192.135C458.159 192.439 458.226 192.844 458.125 193.249L457.014 197.704C456.778 198.548 455.937 199.223 455.095 199.223ZM441.592 191.798C440.817 191.798 440.009 192.439 439.807 193.249L438.696 197.704C438.595 198.075 438.662 198.446 438.864 198.716C439.066 198.986 439.369 199.121 439.74 199.121H455.095C455.869 199.121 456.677 198.48 456.88 197.67L457.991 193.215C458.092 192.844 458.024 192.473 457.822 192.203C457.62 191.933 457.317 191.798 456.947 191.798H441.592Z" fill="#EB3668"/>
<path d="M487.354 199.223H471.999C471.595 199.223 471.258 199.054 471.022 198.784C470.787 198.48 470.719 198.075 470.82 197.67L471.931 193.215C472.134 192.371 473.009 191.696 473.851 191.696H489.206C489.61 191.696 489.947 191.865 490.182 192.135C490.418 192.439 490.485 192.844 490.384 193.249L489.273 197.704C489.071 198.548 488.196 199.223 487.354 199.223ZM473.851 191.798C473.076 191.798 472.268 192.439 472.066 193.249L470.955 197.704C470.854 198.075 470.921 198.446 471.123 198.716C471.325 198.986 471.628 199.121 471.999 199.121H487.354C488.128 199.121 488.936 198.48 489.139 197.67L490.25 193.215C490.351 192.844 490.283 192.473 490.081 192.203C489.879 191.933 489.576 191.798 489.206 191.798H473.851Z" fill="#EB3668"/>
<path d="M490.688 191.089C488.364 192.068 486.041 193.114 483.751 194.261C483.852 193.991 483.919 193.755 483.987 193.485C484.054 193.283 483.751 193.148 483.582 193.384C483.515 193.485 483.414 193.586 483.347 193.688C483.414 193.519 483.178 193.384 483.01 193.519L482.976 193.553C483.077 193.316 482.673 193.249 482.539 193.519L482.337 193.89C482.168 194.093 481.899 194.261 481.629 194.363C481.562 194.228 481.528 194.126 481.528 193.991C481.528 193.89 481.427 193.823 481.36 193.823C481.36 193.688 481.225 193.62 481.057 193.688C480.855 193.789 480.687 193.924 480.518 194.093C480.417 193.89 480.047 194.025 479.845 194.228V194.194C479.946 193.991 479.777 193.755 479.542 193.958C479.138 194.329 478.835 194.768 478.7 195.206C478.565 195.375 478.43 195.51 478.262 195.645C478.195 195.713 477.824 196.05 477.757 196.016C477.69 195.983 477.723 195.78 477.757 195.645C477.757 195.611 477.791 195.611 477.791 195.578C478.094 195.173 479.508 193.215 478.498 193.249C478.397 193.249 478.296 193.316 478.228 193.418C477.858 193.991 477.589 194.565 477.42 195.173C477.387 195.274 477.353 195.443 477.319 195.578C477.286 195.611 477.252 195.645 477.218 195.679C476.814 196.219 476.275 196.961 475.636 197.231C475.568 196.421 476.006 195.443 476.309 194.565C476.444 194.194 476.578 193.823 476.747 193.451C476.78 193.451 476.848 193.418 476.881 193.384C477.589 192.81 477.858 191.933 477.555 191.325C477.454 191.156 477.185 191.325 477.117 191.494C476.646 192.574 476.208 193.654 475.804 194.734C475.467 195.713 475.063 196.725 475.198 197.603C475.198 197.704 475.333 197.738 475.434 197.704C476.174 197.535 476.814 196.894 477.319 196.219C477.353 196.32 477.42 196.354 477.521 196.388C477.858 196.489 478.329 196.118 478.666 195.78C478.666 195.881 478.7 196.016 478.733 196.118C478.767 196.219 478.902 196.253 479.037 196.185C479.34 196.05 479.643 195.848 479.912 195.611C480.249 195.51 480.552 195.24 480.788 194.903C480.956 194.768 481.091 194.633 481.225 194.464C481.259 194.531 481.293 194.633 481.36 194.666C481.495 194.801 481.798 194.666 482 194.599C482.202 194.498 482.37 194.396 482.539 194.261C482.673 194.261 482.774 194.228 482.909 194.16C482.943 194.194 482.943 194.228 483.01 194.261C483.145 194.363 483.279 194.329 483.448 194.228C483.414 194.329 483.38 194.43 483.347 194.498C483.01 194.666 482.673 194.835 482.337 195.004C482.101 195.105 482.067 195.443 482.303 195.443C482.606 195.409 482.909 195.409 483.212 195.375C483.347 195.375 483.448 195.274 483.515 195.139C483.582 195.004 483.616 194.903 483.684 194.768C486.074 193.553 488.499 192.439 490.923 191.46C491.092 191.359 490.991 190.954 490.688 191.089ZM480.013 194.633C479.979 194.7 479.979 194.768 479.946 194.835C479.912 194.869 479.912 194.936 479.878 194.97C479.912 194.835 479.946 194.734 480.013 194.633ZM479.34 195.206C479.306 195.341 479.272 195.476 479.34 195.544C479.272 195.611 479.205 195.645 479.104 195.713C479.104 195.578 479.104 195.443 479.138 195.274C479.239 195.139 479.34 195.004 479.441 194.903C479.373 195.004 479.373 195.105 479.34 195.206Z" fill="#7F22BA"/>
<path d="M447.788 189.671C446.98 191.224 446.508 192.776 445.835 194.329C445.498 195.071 445.128 195.848 444.622 196.556C444.286 197.063 443.511 198.143 442.871 197.906C442.703 197.839 442.669 197.704 442.703 197.535C442.703 197.501 442.737 197.468 442.737 197.4C442.804 197.434 442.939 197.434 443.073 197.366C443.275 197.265 443.444 197.029 443.545 196.826C443.646 196.624 443.612 196.388 443.444 196.32C443.309 196.253 443.073 196.32 442.905 196.455C442.737 196.624 442.669 196.86 442.568 197.063C442.467 197.299 442.333 197.569 442.333 197.805C442.366 198.176 442.737 198.278 443.107 198.21C443.545 198.109 443.949 197.704 444.252 197.366C444.622 196.928 444.925 196.489 445.195 196.016C445.767 195.071 446.138 194.093 446.508 193.114C446.946 192 447.35 190.853 447.922 189.739C448.158 189.57 447.889 189.469 447.788 189.671ZM443.343 196.658C443.376 196.759 443.275 196.894 443.174 196.995C443.141 197.029 443.107 197.063 443.073 197.096C443.04 197.096 443.04 197.13 443.006 197.13H442.972C442.939 197.096 442.939 197.096 442.871 197.096C442.905 197.029 442.939 196.928 442.972 196.86C443.073 196.725 443.275 196.421 443.343 196.658Z" fill="#7F22BA"/>
<path d="M453.344 194.464C453.175 194.565 453.007 194.666 452.805 194.666C452.771 194.666 452.704 194.666 452.67 194.666C452.805 194.531 452.906 194.396 452.94 194.261C452.973 194.025 452.738 193.991 452.502 194.093C452.3 194.194 452.199 194.396 452.199 194.565C452.199 194.633 452.199 194.666 452.233 194.734C452.064 194.869 451.761 195.038 451.559 195.004C451.795 194.835 452.031 194.633 452.165 194.396C452.199 194.363 452.199 194.295 452.165 194.261C452.064 194.126 451.862 194.126 451.626 194.228C451.391 194.329 451.256 194.565 451.189 194.768C451.155 194.835 451.155 194.903 451.121 194.97C450.886 195.071 450.684 195.139 450.448 195.105C450.515 195.038 450.583 194.97 450.65 194.903C450.751 194.801 450.684 194.7 450.583 194.7C450.381 194.666 450.212 194.869 450.145 195.038C449.808 195.341 449.471 195.578 449.101 195.814C449 195.881 448.865 195.983 448.832 195.915C449 195.814 449.135 195.679 449.269 195.544C449.539 195.274 449.774 194.801 449.471 194.633C449.404 194.599 449.303 194.599 449.269 194.7C449.135 194.869 449 195.038 448.865 195.24C448.764 195.409 448.63 195.544 448.562 195.713C448.529 195.78 448.529 195.814 448.529 195.881C448.394 195.949 448.259 196.05 448.124 196.084H448.091C448.158 196.016 448.259 195.949 448.327 195.881C448.529 195.713 448.731 195.51 448.764 195.24C448.764 195.004 448.63 194.835 448.495 194.7C448.461 194.666 448.36 194.666 448.327 194.734C447.889 195.071 447.552 195.476 447.384 195.949C447.316 196.084 447.316 196.253 447.384 196.354C447.013 196.658 446.643 196.928 446.239 197.198C446.205 197.231 446.104 197.333 446.07 197.299C446.037 197.299 446.037 197.198 446.037 197.164C446.037 197.063 446.037 196.961 446.07 196.826C446.104 196.59 446.171 196.354 446.239 196.118C446.306 195.915 446.407 195.713 446.542 195.51C446.575 195.544 446.643 195.51 446.71 195.476C447.013 195.24 447.148 194.936 447.114 194.633C447.114 194.531 446.946 194.531 446.879 194.633C446.171 195.443 445.734 196.455 445.767 197.333C445.767 197.535 445.868 197.704 446.138 197.569C446.272 197.535 446.373 197.434 446.474 197.366C446.609 197.265 446.744 197.164 446.879 197.063C447.148 196.86 447.417 196.691 447.653 196.489C447.788 196.489 447.956 196.455 448.124 196.388C448.293 196.32 448.495 196.219 448.663 196.118C448.697 196.219 448.798 196.253 448.933 196.253C449.067 196.253 449.269 196.084 449.404 196.016C449.572 195.915 449.707 195.814 449.875 195.713C450.01 195.611 450.145 195.51 450.313 195.375C450.347 195.409 450.414 195.443 450.482 195.443C450.616 195.443 450.751 195.443 450.886 195.409C451.02 195.375 451.189 195.308 451.323 195.274C451.357 195.308 451.357 195.308 451.391 195.308C451.559 195.375 451.761 195.341 451.963 195.274C452.165 195.206 452.334 195.105 452.502 194.97C452.536 195.004 452.603 195.004 452.67 195.004C452.94 195.038 453.243 194.903 453.512 194.734C453.58 194.599 453.512 194.363 453.344 194.464ZM447.72 195.78C447.855 195.51 448.057 195.24 448.327 195.038C448.428 195.173 448.529 195.308 448.394 195.51C448.326 195.611 448.192 195.713 448.091 195.78C447.956 195.881 447.855 195.983 447.72 196.05C447.687 196.084 447.653 196.084 447.619 196.118C447.586 196.05 447.687 195.848 447.72 195.78ZM449.337 195.004C449.303 195.139 449.135 195.341 449.034 195.443C449 195.476 449 195.476 448.966 195.51C449.067 195.341 449.202 195.173 449.337 195.004ZM451.829 194.43C451.728 194.565 451.593 194.666 451.458 194.768C451.559 194.633 451.728 194.43 451.829 194.43ZM452.536 194.43C452.569 194.396 452.637 194.295 452.637 194.363C452.637 194.396 452.569 194.464 452.536 194.498C452.502 194.498 452.502 194.464 452.536 194.43Z" fill="#7F22BA"/>
<path d="M130.248 331.756L136.949 331.655C136.949 331.655 126.881 320.45 123.783 314.747L115.297 299.019L104.185 301.787L118.294 321.834L130.248 331.756Z" fill="#FF9792"/>
<path d="M67.4476 25.6833C64.8885 24.232 61.7905 24.0633 59.6691 24.1983C60.2079 23.6245 61.3191 23.4221 61.3191 23.4221C59.9722 23.2196 57.0089 24.5358 57.0089 24.5358C38.4549 17.3809 35.559 44.7517 35.9294 51.0965C36.2998 57.4414 29.6999 59.5339 20.0356 64.5288C1.61632 74.1136 0 86.9384 0 86.9384C0.134693 87.0396 0.30306 87.1071 0.437753 87.2421C1.34693 85.6897 3.23264 82.7872 4.81528 82.3485C4.74794 82.4835 2.92958 86.3646 2.25611 88.5921C7.67751 92.7433 17.8469 101.923 24.9182 108.403C24.8846 107.121 24.9519 105.332 25.3897 104.387L26.2652 109.652C30.0703 113.128 32.6631 115.592 32.6631 115.592C32.1917 110.462 55.864 83.3272 68.1884 75.1936C71.1854 70.7724 72.2629 62.9426 72.3303 62.3013C71.8252 68.5112 70.7476 71.9874 69.8048 73.9449C80.3445 64.2926 74.2496 29.5644 67.4476 25.6833Z" fill="#3A47A2"/>
<path d="M67.515 75.5986C67.5823 75.6323 61.5548 78.771 57.0089 77.5223C52.7324 76.3411 49.9712 70.8062 50.0386 70.8062C51.8569 70.4349 52.362 67.9712 52.3283 57.2727L53.1365 57.4414L66.8415 60.1751C66.8415 60.1751 66.5385 64.495 66.5048 68.5787C66.5385 71.9874 66.7405 75.2274 67.515 75.5986Z" fill="#FF9792"/>
<path d="M52.0253 30.1719C52.0253 30.1719 58.7936 22.9496 67.2793 29.8007C67.2793 29.8007 62.3293 28.957 52.0253 30.1719Z" fill="#F9795A"/>
<path d="M66.8752 60.1414C66.8752 60.1414 66.5721 64.4613 66.5385 68.545C58.861 68.3425 54.8202 61.3226 53.1365 57.4077L66.8752 60.1414Z" fill="#FF7D78"/>
<path d="M51.7222 55.9227C51.7222 55.9227 47.7151 49.5441 46.7386 44.1104C46.0651 40.2293 48.0182 25.8183 62.464 27.877C62.464 27.877 66.6732 28.282 70.6129 30.9482C73.7446 33.0744 78.2905 37.6643 73.2058 50.2191L71.8925 54.4715L51.7222 55.9227Z" fill="#1D2453"/>
<path d="M121.527 309.279L114.254 309.515L106.374 309.752C106.374 309.752 88.1904 289.468 77.9874 256.968C77.7517 256.225 77.516 255.449 77.2466 254.673C71.6568 238.372 60.1069 217.886 54.012 199.358C53.0355 196.421 52.16 193.62 51.3855 190.988C51.1498 190.144 50.8804 189.334 50.6447 188.49C46.1661 172.831 44.8529 162.571 43.6406 151.602L82.567 151.906C82.6007 151.94 94.8241 226.897 121.527 309.279Z" fill="#5625A6"/>
<path d="M81.5568 126.628C82.0619 147.62 84.621 156.631 84.621 156.631C84.621 156.631 65.764 166.216 43.3712 159.162C43.1018 159.095 44.8192 72.4262 51.1834 70.0299C52.6314 71.8524 57.0089 73.6411 60.8814 73.5399C65.3599 73.4386 66.7742 71.5149 66.5721 69.4225C71.2864 72.0887 80.8159 96.557 81.5568 126.628Z" fill="white"/>
<path d="M69.4344 64.0226C69.4344 64.0226 51.2844 64.3263 51.2508 52.9865C51.2508 41.6467 48.8936 34.0531 60.4773 33.3781C72.0609 32.7031 74.317 37.023 75.2599 40.803C76.2027 44.5829 74.1486 63.6513 69.4344 64.0226Z" fill="#FF9792"/>
<path d="M74.7211 34.4919C71.9262 31.0832 69.8048 31.8257 68.6262 32.8381C64.6864 26.9658 52.2947 35.4706 52.2947 35.4706C46.1998 41.3092 45.2233 48.2616 45.2233 48.2616C45.2233 48.2616 48.5232 50.3203 56.1671 48.3291C62.1609 46.7766 66.5385 38.2043 68.1211 34.6269C69.1986 35.6056 71.4884 37.7993 72.1619 39.993C73.0711 42.8955 73.4752 48.8354 75.1925 48.6329C75.1925 48.6666 78.9302 39.6218 74.7211 34.4919Z" fill="#1D2453"/>
<path d="M142.505 82.8209C142.505 82.8209 145.065 73.5736 155.2 74.8899C156.379 75.2611 159.78 76.6111 157.591 80.256C155.975 82.9559 155.301 81.5722 152.776 85.1834C150.25 88.7946 147.523 89.6046 144.391 89.1996L142.505 82.8209Z" fill="#FF9792"/>
<path d="M55.8304 331.115C55.2242 327.706 54.0457 321.834 54.0457 321.834L54.3151 300.943H41.6539L46.4018 320.957C46.5028 321.902 46.7722 325.479 45.4253 329.326C45.4253 329.326 44.2131 334.895 49.6681 334.996C55.1232 335.03 56.4365 334.524 55.8304 331.115Z" fill="#FF9792"/>
<path d="M45.3916 329.293C45.3916 329.293 44.3141 335.165 44.9202 337.932C44.9202 337.932 46.5365 337.932 50.4763 337.932C54.2477 337.932 56.3691 337.932 56.3691 337.932C56.3691 337.932 56.4028 331.554 55.4263 329.124C55.4599 329.124 51.5875 334.963 45.3916 329.293Z" fill="#6615B2"/>
<path d="M137.05 331.723C137.017 331.723 136.983 331.689 136.949 331.655C134.255 331.723 131.562 330.744 129.137 328.01C121.695 319.607 117.52 318.662 116.072 318.695C114.826 321.294 113.445 324.196 115.23 327.47L117.89 337.932H120.752L120.786 328.078C122.672 328.584 124.524 329.495 125.332 331.115C127.352 335.131 128.733 337.932 130.585 337.932C131.629 337.932 143.482 337.932 143.482 337.932C143.482 337.932 143.213 334.524 137.05 331.723Z" fill="#6615B2"/>
<path d="M142.505 82.821C142.505 82.821 130.585 89.5033 126.342 91.427C123.918 92.5408 118.328 95.1395 114.388 96.9957C111.896 98.1769 108.899 97.5357 107.115 95.4095C100.65 87.8496 83.9139 71.4474 66.6395 69.4225L66.6731 69.4562L66.5721 69.4225C66.5721 69.4225 77.0782 95.4432 77.3813 100.708C77.6843 105.973 78.6272 186.803 78.6272 186.803C78.6272 186.803 78.0211 190.515 85.1261 188.963C92.2312 187.41 94.0832 185.858 94.0832 185.858C94.0832 185.858 87.2475 136.01 89.0996 118.697C89.47 115.288 89.1332 111.44 88.3588 107.458C98.8985 113.87 111.324 116.739 111.324 116.739C111.324 116.739 120.651 112.655 133.38 103.307C137.387 100.371 144.391 89.1658 144.391 89.1658L142.505 82.821Z" fill="#9E30CA"/>
<path d="M114.254 309.515L106.374 309.752C106.374 309.752 88.1904 289.468 77.9874 256.968C77.7517 256.225 77.516 255.449 77.2466 254.673C71.6568 238.372 60.1069 217.886 54.012 199.358C53.0355 196.421 52.16 193.62 51.3855 190.988C51.1498 190.144 50.8804 189.334 50.6447 188.49L57.1436 183.563C57.1436 183.563 76.6068 215.152 82.6343 244.885C87.8873 270.704 108.832 301.787 114.254 309.515Z" fill="#3B1A72"/>
<path d="M93.6118 113.837L93.2414 115.018L72.8691 108.369C72.8691 108.369 72.5997 108.066 72.7344 107.627C72.9027 107.188 73.2395 107.188 73.2395 107.188L93.6118 113.837Z" fill="#1D2453"/>
<path d="M57.8508 247.653C57.9518 262.098 57.2446 295.341 55.3589 309.111H48.3885C44.5498 309.111 42.6304 309.043 42.6304 309.043C37.9161 285.115 34.5825 265.338 32.1243 248.26C30.1376 234.254 28.3529 222.273 26.9723 211.946C25.5917 201.551 24.6489 192.844 24.2785 185.487C24.2111 184.339 24.1774 183.192 24.1774 182.112C24.1438 180.998 24.1438 179.952 24.1438 178.905L62.1946 175.193C61.6895 200.539 57.7834 239.249 57.8508 247.653Z" fill="#5625A6"/>
<path d="M48.3549 309.111C44.5161 309.111 42.5967 309.043 42.5967 309.043C37.8825 285.115 34.5488 265.338 32.0907 248.26C30.1039 234.254 28.3193 222.273 26.9387 211.946C25.558 201.551 24.6152 192.844 24.2448 185.487L38.1855 193.721C38.1855 193.721 29.2621 196.86 32.6631 220.721C36.0978 244.582 43.6406 305.736 48.3549 309.111Z" fill="#3B1A72"/>
<path d="M50.1732 185.25C50.1732 185.25 47.4794 194.936 38.2192 193.721C28.9591 192.473 15.7591 186.904 15.7591 186.904C15.7591 186.904 19.7326 174.349 24.6489 157.88C30.609 137.934 37.9835 112.217 41.4855 95.9832C42.462 91.427 43.1355 87.6471 43.3712 84.9134L51.1834 70.0299C51.1834 70.0299 62.5313 95.747 63.1375 102.261C63.7436 108.774 50.1732 185.25 50.1732 185.25Z" fill="#9E30CA"/>
<path d="M49.7355 115.895C49.3314 126.425 46.8396 146.877 24.8172 157.812C24.7499 157.846 24.7162 157.88 24.6489 157.88C30.609 137.934 37.9835 112.217 41.4855 95.9832C45.5263 102.058 49.9712 110.09 49.7355 115.895Z" fill="#7F22BA"/>
<path d="M89.6384 110.124C89.6384 111.373 86.0016 120.182 79.6037 125.446C78.3578 126.459 77.3813 126.965 76.5731 127.1C66.1681 130.678 57.1099 132.534 49.7692 133.445V121.801C58.8273 121.228 70.0068 120.62 74.6201 120.35C75.3609 119.135 76.2701 117.448 76.5731 115.693C77.1119 112.487 78.8292 110.124 83.3078 109.517C87.719 108.943 89.6384 108.875 89.6384 110.124Z" fill="#FF9792"/>
<path d="M151.228 71.8862L171.836 85.3184C172.105 85.4872 172.274 86.0609 172.206 86.3646L162.306 120.013C162.172 120.485 161.7 120.553 161.296 120.283L141.294 105.298C141.058 105.129 140.89 104.927 140.957 104.657L150.049 72.4599C150.218 71.9537 150.857 71.6499 151.228 71.8862Z" fill="#1D2453"/>
<path d="M150.52 71.4137L171.296 84.9809C171.566 85.1497 171.667 85.4872 171.599 85.7572L161.699 119.372C161.565 119.844 160.992 120.013 160.588 119.743L140.62 104.758C140.384 104.589 140.283 104.286 140.35 104.016L149.442 71.8187C149.577 71.3462 150.116 71.1437 150.52 71.4137Z" fill="#EB3668"/>
<path d="M150.385 72.8986L170.555 85.7909L161.396 115.389L142.404 101.586L150.385 72.8986Z" fill="#242E6C"/>
<path d="M148.836 109.044C148.836 108.572 149.206 108.234 149.644 108.234C150.116 108.234 150.452 108.605 150.452 109.044C150.452 109.517 150.082 109.854 149.644 109.854C149.206 109.854 148.836 109.483 148.836 109.044Z" fill="#1D2453"/>
<path d="M157.221 110.765L147.489 103.948L154.19 76.7461L163.922 83.5635L157.221 110.765Z" fill="white"/>
<g opacity="0.5">
<g opacity="0.5">
<g opacity="0.5">
<g opacity="0.5">
<path opacity="0.5" d="M159.174 94.937L152.742 90.4146C152.675 90.3471 152.641 90.1783 152.675 90.0096L152.708 89.9083C152.742 89.7396 152.843 89.6383 152.944 89.7058L159.376 94.2283C159.443 94.2958 159.477 94.4645 159.443 94.6333L159.41 94.7345C159.342 94.9033 159.241 94.9708 159.174 94.937Z" fill="#F24B46"/>
</g>
</g>
<g opacity="0.5">
<g opacity="0.5">
<path opacity="0.5" d="M160.352 90.1446L153.887 85.6222C153.82 85.5547 153.786 85.3859 153.82 85.2172L153.853 85.1159C153.887 84.9472 153.988 84.8459 154.089 84.9134L160.521 89.4358C160.588 89.5033 160.622 89.6721 160.588 89.8408L160.554 89.9421C160.521 90.1108 160.42 90.2121 160.352 90.1446Z" fill="#F24B46"/>
</g>
</g>
<g opacity="0.5">
<g opacity="0.5">
<path opacity="0.5" d="M159.915 91.7983L153.483 87.2759C153.416 87.2084 153.382 87.0396 153.416 86.8709L153.449 86.7696C153.483 86.6009 153.584 86.4996 153.685 86.5671L160.117 91.0895C160.184 91.157 160.218 91.3258 160.184 91.4945L160.15 91.5958C160.117 91.7645 160.016 91.8658 159.915 91.7983Z" fill="#F24B46"/>
</g>
</g>
<g opacity="0.5">
<g opacity="0.5">
<path opacity="0.5" d="M159.544 93.3845L153.113 88.8621C153.045 88.7946 153.012 88.6259 153.045 88.4571L153.079 88.3559C153.113 88.1871 153.214 88.0859 153.315 88.1534L159.746 92.6758C159.814 92.7433 159.847 92.912 159.814 93.0807L159.78 93.182C159.713 93.317 159.611 93.4182 159.544 93.3845Z" fill="#F24B46"/>
</g>
</g>
<g opacity="0.5">
<g opacity="0.5">
<path opacity="0.5" d="M158.366 98.1094L151.934 93.587C151.867 93.5195 151.833 93.3508 151.867 93.182L151.9 93.0808C151.934 92.912 152.035 92.8108 152.136 92.8783L158.568 97.4007C158.635 97.4682 158.669 97.6369 158.635 97.8057L158.601 97.9069C158.568 98.0757 158.467 98.1769 158.366 98.1094Z" fill="#F24B46"/>
</g>
</g>
<g opacity="0.5">
<g opacity="0.5">
<path opacity="0.5" d="M158.77 96.5569L152.339 92.0345C152.271 91.967 152.238 91.7983 152.271 91.6295L152.305 91.5283C152.339 91.3596 152.44 91.2583 152.541 91.3258L158.939 95.8482C159.006 95.9157 159.04 96.0845 159.006 96.2532L158.972 96.3544C158.939 96.5232 158.838 96.5907 158.77 96.5569Z" fill="#F24B46"/>
</g>
</g>
</g>
<g opacity="0.5">
<g opacity="0.5">
<path opacity="0.5" d="M157.153 103.003L155.604 101.923C155.503 101.856 155.47 101.653 155.537 101.451C155.571 101.248 155.705 101.147 155.806 101.214L157.355 102.294C157.456 102.362 157.49 102.564 157.423 102.767C157.355 102.969 157.221 103.071 157.153 103.003Z" fill="#F24B46"/>
</g>
</g>
<g opacity="0.5">
<g opacity="0.5">
<path opacity="0.5" d="M152.338 99.6282L150.789 98.5482C150.688 98.4807 150.654 98.2782 150.722 98.0757C150.755 97.8732 150.89 97.7719 150.991 97.8394L152.54 98.9194C152.641 98.9869 152.675 99.1894 152.607 99.3919C152.54 99.5944 152.439 99.6957 152.338 99.6282Z" fill="#F24B46"/>
</g>
</g>
</g>
<path d="M156.749 107.222C156.716 107.222 156.682 107.222 156.682 107.188L154.392 105.602C154.257 105.501 154.224 105.231 154.291 104.961L154.628 103.577C154.662 103.374 154.796 103.239 154.897 103.239C154.931 103.239 154.965 103.239 154.965 103.273L157.254 104.859C157.389 104.961 157.423 105.231 157.355 105.501L157.019 106.884C156.951 107.087 156.85 107.222 156.749 107.222ZM154.864 103.273C154.763 103.273 154.662 103.408 154.628 103.577L154.291 104.961C154.224 105.197 154.291 105.467 154.392 105.568L156.682 107.154C156.716 107.154 156.716 107.188 156.749 107.188C156.85 107.188 156.951 107.053 156.985 106.884L157.322 105.501C157.389 105.264 157.322 104.994 157.221 104.893L154.931 103.307C154.931 103.273 154.897 103.273 154.864 103.273Z" fill="#EB3668"/>
<path d="M151.934 103.847C151.9 103.847 151.867 103.847 151.867 103.813L149.577 102.227C149.442 102.126 149.408 101.856 149.476 101.586L149.813 100.202C149.846 99.9994 149.981 99.8644 150.082 99.8644C150.116 99.8644 150.149 99.8644 150.149 99.8981L152.439 101.484C152.574 101.586 152.607 101.856 152.54 102.126L152.203 103.509C152.17 103.712 152.069 103.847 151.934 103.847ZM150.082 99.8981C149.981 99.8981 149.88 100.033 149.846 100.202L149.51 101.586C149.442 101.822 149.509 102.092 149.611 102.193L151.9 103.779C151.934 103.779 151.934 103.813 151.968 103.813C152.069 103.813 152.17 103.678 152.203 103.509L152.54 102.126C152.607 101.889 152.54 101.619 152.439 101.518L150.149 99.9319C150.116 99.9319 150.082 99.8981 150.082 99.8981Z" fill="#EB3668"/>
<path d="M154.897 80.4923C155.032 79.986 155.301 79.716 155.537 79.8848C155.705 79.986 155.739 80.1885 155.773 80.391L155.604 80.5598C155.571 80.391 155.537 80.2898 155.436 80.2223C155.301 80.121 155.133 80.2898 155.066 80.5935C154.998 80.8973 155.032 81.201 155.167 81.3022C155.268 81.3697 155.335 81.336 155.436 81.2685L155.503 81.606C155.369 81.741 155.234 81.7747 155.099 81.6735C154.864 81.5385 154.796 80.9985 154.897 80.4923Z" fill="#EB3668"/>
<path d="M155.773 81.0997C155.907 80.5935 156.177 80.3235 156.446 80.526C156.716 80.6947 156.783 81.2347 156.682 81.741C156.547 82.2472 156.278 82.5172 156.008 82.3147C155.739 82.146 155.638 81.606 155.773 81.0997ZM156.446 81.606C156.514 81.3022 156.48 80.9985 156.345 80.8972C156.21 80.796 156.042 80.9647 155.975 81.2685C155.907 81.5722 155.941 81.876 156.076 81.9772C156.21 82.0785 156.379 81.876 156.446 81.606Z" fill="#EB3668"/>
<path d="M157.019 80.9647L157.187 81.0997L157.322 82.4497L157.591 81.3697L157.759 81.5047L157.322 83.226L157.153 83.1247L157.019 81.741L156.749 82.8547L156.581 82.7197L157.019 80.9647Z" fill="#EB3668"/>
<path d="M158.063 82.1122L157.793 81.9435L157.894 81.606L158.568 82.0785L158.467 82.416L158.197 82.2472L157.861 83.6309L157.692 83.4959L158.063 82.1122Z" fill="#EB3668"/>
<path d="M158.736 82.1797L159.106 82.4497C159.207 82.5172 159.275 82.6522 159.308 82.7872C159.342 82.9222 159.308 83.0572 159.275 83.226C159.207 83.496 159.106 83.631 158.972 83.631L159.039 84.4072L158.837 84.2722L158.803 83.5972L158.669 83.496L158.534 84.0359L158.366 83.901L158.736 82.1797ZM158.904 83.2597C159.005 83.3272 159.073 83.2597 159.106 83.1247C159.14 82.956 159.106 82.8547 159.039 82.7872L158.871 82.6522L158.736 83.1585L158.904 83.2597Z" fill="#EB3668"/>
<path d="M159.881 82.956L160.049 83.0572L159.982 85.0484L159.78 84.9134L159.814 84.4747L159.477 84.2384L159.308 84.5759L159.106 84.4409L159.881 82.956ZM159.814 84.1034L159.847 83.4622L159.612 83.9347L159.814 84.1034Z" fill="#EB3668"/>
<path d="M160.218 84.2384C160.352 83.7322 160.622 83.4622 160.857 83.631C161.026 83.7322 161.059 83.9347 161.093 84.1372L160.925 84.3059C160.891 84.1372 160.857 84.036 160.756 83.9685C160.622 83.8672 160.453 84.0359 160.386 84.3397C160.319 84.6434 160.352 84.9472 160.487 85.0484C160.588 85.1159 160.655 85.0822 160.756 85.0147L160.824 85.3522C160.689 85.4872 160.554 85.5209 160.42 85.4197C160.184 85.2509 160.083 84.7447 160.218 84.2384Z" fill="#EB3668"/>
<path d="M161.464 84.4747L161.194 84.3059L161.295 83.9684L161.969 84.4409L161.868 84.7784L161.598 84.6097L161.261 85.9934L161.093 85.8584L161.464 84.4747Z" fill="#EB3668"/>
<path d="M157.49 104.826C157.12 104.927 156.749 105.028 156.379 105.197C156.413 105.129 156.413 105.028 156.446 104.961C156.446 104.893 156.413 104.826 156.379 104.893C156.379 104.927 156.345 104.961 156.345 104.961C156.345 104.893 156.345 104.859 156.312 104.859C156.345 104.792 156.278 104.724 156.244 104.792L156.211 104.893C156.177 104.961 156.143 104.994 156.109 104.994C156.109 104.961 156.109 104.893 156.109 104.859C156.109 104.826 156.109 104.792 156.076 104.792C156.076 104.758 156.076 104.724 156.042 104.724C156.008 104.724 155.975 104.758 155.941 104.792C155.941 104.691 155.874 104.724 155.84 104.758C155.874 104.691 155.84 104.589 155.806 104.657C155.739 104.724 155.672 104.859 155.638 104.994C155.604 105.028 155.604 105.062 155.571 105.096C155.571 105.096 155.503 105.197 155.47 105.163C155.47 105.129 155.47 105.096 155.47 105.028C155.537 104.927 155.806 104.387 155.638 104.286C155.638 104.286 155.604 104.286 155.604 104.319C155.537 104.488 155.47 104.657 155.436 104.826C155.436 104.859 155.402 104.893 155.402 104.961V104.994C155.335 105.129 155.234 105.332 155.133 105.366C155.133 105.062 155.234 104.792 155.301 104.522C155.335 104.421 155.369 104.286 155.402 104.184C155.402 104.184 155.402 104.184 155.436 104.184C155.571 104.049 155.638 103.779 155.604 103.543C155.604 103.476 155.537 103.509 155.537 103.543C155.436 103.881 155.335 104.184 155.268 104.522C155.2 104.826 155.099 105.129 155.099 105.433C155.099 105.467 155.099 105.501 155.133 105.501C155.234 105.534 155.369 105.366 155.47 105.197C155.47 105.231 155.47 105.264 155.503 105.264C155.537 105.332 155.638 105.264 155.705 105.163C155.705 105.197 155.705 105.231 155.705 105.264C155.705 105.298 155.739 105.332 155.739 105.332C155.806 105.332 155.84 105.298 155.874 105.231C155.941 105.231 155.975 105.163 156.008 105.096C156.042 105.062 156.076 105.028 156.076 104.994C156.076 105.028 156.076 105.062 156.076 105.096C156.076 105.163 156.143 105.163 156.177 105.129C156.211 105.129 156.244 105.096 156.278 105.062C156.312 105.062 156.312 105.062 156.345 105.062V105.096C156.345 105.129 156.379 105.129 156.413 105.129C156.413 105.163 156.413 105.197 156.379 105.231C156.312 105.264 156.278 105.264 156.211 105.298C156.177 105.298 156.143 105.433 156.211 105.433C156.244 105.467 156.312 105.467 156.345 105.501C156.379 105.501 156.379 105.501 156.413 105.467C156.413 105.433 156.446 105.399 156.446 105.366C156.85 105.197 157.221 105.062 157.625 104.994C157.524 104.961 157.524 104.826 157.49 104.826ZM155.806 104.927C155.806 104.961 155.806 104.961 155.806 104.994V105.028C155.773 104.994 155.806 104.961 155.806 104.927ZM155.672 105.062C155.672 105.096 155.672 105.129 155.672 105.197L155.638 105.231C155.638 105.163 155.638 105.096 155.672 105.062C155.672 105.028 155.672 104.994 155.705 104.961C155.705 104.994 155.705 105.028 155.672 105.062Z" fill="#7F22BA"/>
<path d="M151.193 99.8981C151.025 100.337 150.924 100.843 150.789 101.282C150.722 101.518 150.654 101.721 150.553 101.923C150.486 102.058 150.351 102.362 150.25 102.193C150.217 102.159 150.217 102.092 150.25 102.058V102.024C150.25 102.058 150.284 102.058 150.318 102.058C150.351 102.058 150.385 101.991 150.419 101.923C150.452 101.856 150.452 101.788 150.419 101.721C150.385 101.687 150.351 101.687 150.351 101.721C150.318 101.754 150.318 101.822 150.284 101.889C150.25 101.957 150.25 102.024 150.217 102.126C150.217 102.261 150.25 102.328 150.318 102.328C150.385 102.328 150.452 102.261 150.52 102.159C150.587 102.058 150.654 101.923 150.688 101.788C150.789 101.518 150.89 101.214 150.957 100.944C151.058 100.607 151.16 100.269 151.261 99.9319C151.227 99.8981 151.193 99.8306 151.193 99.8981ZM150.318 101.822C150.318 101.856 150.284 101.889 150.284 101.923C150.284 101.923 150.284 101.957 150.25 101.957V101.923C150.25 101.889 150.25 101.889 150.284 101.856C150.284 101.822 150.318 101.754 150.318 101.822Z" fill="#7F22BA"/>
<path d="M151.867 102.126C151.834 102.126 151.8 102.159 151.8 102.159C151.8 102.159 151.8 102.159 151.766 102.159C151.8 102.126 151.8 102.092 151.8 102.058C151.8 101.991 151.766 101.957 151.733 101.957C151.699 101.957 151.665 102.024 151.665 102.092C151.665 102.126 151.665 102.126 151.665 102.159C151.632 102.193 151.598 102.227 151.564 102.193C151.598 102.159 151.632 102.126 151.665 102.058V102.024C151.665 101.957 151.632 101.957 151.598 101.957C151.564 101.957 151.531 102.024 151.531 102.092C151.531 102.126 151.531 102.126 151.531 102.159C151.497 102.159 151.463 102.159 151.43 102.126L151.463 102.092C151.497 102.058 151.463 102.024 151.463 102.024C151.429 101.991 151.396 102.024 151.396 102.092C151.328 102.159 151.295 102.193 151.227 102.261C151.227 102.261 151.194 102.294 151.194 102.261C151.227 102.227 151.261 102.193 151.261 102.159C151.295 102.092 151.362 101.957 151.328 101.856C151.328 101.856 151.295 101.822 151.295 101.856C151.261 101.889 151.261 101.957 151.227 101.991C151.194 102.024 151.194 102.058 151.16 102.126C151.16 102.126 151.16 102.159 151.16 102.193C151.126 102.193 151.126 102.227 151.093 102.227L151.126 102.193C151.16 102.159 151.194 102.092 151.194 102.024C151.194 101.957 151.194 101.889 151.16 101.822C151.16 101.822 151.126 101.788 151.126 101.822C151.059 101.889 150.992 101.991 150.958 102.126C150.958 102.159 150.924 102.227 150.958 102.261C150.891 102.328 150.823 102.362 150.756 102.429L150.722 102.463V102.429C150.722 102.396 150.722 102.362 150.722 102.328C150.722 102.261 150.756 102.159 150.756 102.092C150.79 102.024 150.79 101.957 150.823 101.923C150.823 101.923 150.823 101.923 150.857 101.923C150.891 101.856 150.924 101.788 150.924 101.687C150.924 101.653 150.891 101.653 150.891 101.653C150.756 101.856 150.655 102.159 150.655 102.463C150.655 102.531 150.655 102.598 150.689 102.598C150.722 102.598 150.722 102.564 150.756 102.564C150.79 102.531 150.79 102.531 150.823 102.497C150.857 102.463 150.924 102.429 150.958 102.362C150.992 102.362 150.992 102.362 151.025 102.362C151.059 102.362 151.093 102.362 151.126 102.328C151.126 102.362 151.16 102.396 151.16 102.396C151.194 102.396 151.227 102.362 151.227 102.362C151.261 102.362 151.295 102.328 151.295 102.294C151.328 102.261 151.328 102.261 151.362 102.227C151.362 102.261 151.362 102.261 151.396 102.261C151.43 102.261 151.429 102.294 151.463 102.294C151.497 102.294 151.497 102.294 151.531 102.294C151.531 102.294 151.531 102.294 151.531 102.328C151.564 102.362 151.598 102.396 151.632 102.362C151.665 102.362 151.699 102.328 151.733 102.328C151.733 102.328 151.733 102.362 151.766 102.362C151.8 102.396 151.867 102.396 151.901 102.362C151.901 102.193 151.901 102.092 151.867 102.126ZM150.992 101.991C151.025 101.923 151.059 101.856 151.093 101.788C151.093 101.856 151.126 101.889 151.093 101.957C151.093 101.991 151.059 101.991 151.025 102.024C150.992 102.058 150.992 102.058 150.958 102.092C150.992 102.058 150.992 102.024 150.992 101.991ZM151.261 101.889C151.261 101.923 151.227 101.991 151.194 102.024C151.227 101.991 151.261 101.923 151.261 101.889ZM151.665 101.957C151.632 101.991 151.632 102.024 151.598 102.024C151.598 101.991 151.632 101.957 151.665 101.957ZM151.766 102.024C151.766 102.024 151.766 101.991 151.766 102.024C151.766 102.058 151.766 102.024 151.766 102.024Z" fill="#7F22BA"/>
<path d="M95.0598 114.984L93.6118 113.837L93.2077 115.018L95.0598 114.984Z" fill="#1D2453"/>
<path d="M51.1834 70.0299C51.1834 70.0299 32.259 71.2787 27.7131 81.4035C23.1672 91.5283 21.753 125.176 27.5111 135.065C27.5111 135.065 35.458 137.326 49.4998 134.694C49.6681 134.66 49.8365 134.626 50.0049 134.592C50.0049 134.592 54.4834 123.59 50.4763 121.43C50.4763 121.43 38.6233 122.038 39.8692 118.123C41.1151 114.242 51.1834 70.0299 51.1834 70.0299Z" fill="#9E30CA"/>
<path d="M505.201 324.365C505.201 324.365 506.009 337.764 503.584 337.933C503.248 337.966 491.26 337.966 491.26 337.966L475.939 337.865C475.939 337.865 476.04 333.883 480.518 333.039C484.997 332.195 492.876 329.124 494.223 322.239C495.503 315.422 505.201 324.365 505.201 324.365Z" fill="#6615B2"/>
<path d="M475.972 324.365C475.972 324.365 476.781 337.764 474.356 337.933C474.019 337.966 462.032 337.966 462.032 337.966L446.71 337.865C446.71 337.865 446.811 333.883 451.29 333.039C455.768 332.195 463.648 329.124 464.995 322.239C466.308 315.422 475.972 324.365 475.972 324.365Z" fill="#6615B2"/>
<path d="M540.053 227.37L553.488 232.027C553.488 232.027 562.041 214.579 564.129 212.216C566.52 209.516 568.203 188.727 569.281 169.894C570.224 153.425 570.662 138.507 570.662 138.507C570.662 138.507 566.082 139.554 563.085 147.282C557.967 160.546 558 186.465 555.138 199.83C553.556 207.491 542.814 226.29 540.053 227.37Z" fill="#C0D3F8"/>
<path d="M553.488 232.027C558.607 226.053 562.041 214.579 564.129 212.216C566.52 209.516 577.733 194.16 567.261 169.996C562.109 185.284 566.419 193.586 564.803 202.631C563.153 211.541 553.96 226.053 553.488 232.027Z" fill="#B1C9F6"/>
<path d="M592.314 332.06C592.314 332.06 593.559 333.174 596.556 333.174C599.924 333.174 600.799 332.06 600.799 332.06V284.541H592.314V332.06Z" fill="#B1C9F6"/>
<path d="M545.71 265.27C545.71 265.304 545.71 265.338 545.71 265.371C546.013 267.498 546.417 269.455 546.922 271.244C547.898 274.754 549.144 277.589 550.357 279.58C554.936 287.342 563.624 295.948 584.501 298.783C585.512 298.918 586.555 299.053 587.633 299.154C589.586 299.357 591.64 299.492 593.762 299.593C593.896 299.593 594.031 299.593 594.166 299.593C594.3 299.593 594.435 299.593 594.57 299.593C600.631 299.424 607.433 298.344 615.009 296.522C630.533 292.843 640.668 285.216 647.066 275.969C647.605 275.192 648.11 274.382 648.615 273.572C649.895 271.48 651.006 269.286 651.949 267.093C655.518 258.756 656.865 249.779 657 241.477C656.865 233.579 655.653 226.458 654.306 221.396C653.262 217.447 651.612 213.667 649.356 210.36C648.784 209.482 648.144 208.639 647.47 207.829C645.349 205.264 642.79 203.07 639.793 201.349C632.385 197.096 607.938 192.878 587.263 203.812C549.212 223.995 543.487 248.868 545.71 265.27Z" fill="#6615B2"/>
<path d="M552.108 282.28C558.169 289.367 563.658 296.623 584.501 298.952C585.512 299.053 586.555 299.154 587.633 299.256C589.586 299.424 591.64 299.559 593.762 299.627C593.896 299.627 594.031 299.627 594.166 299.627C594.3 299.627 594.435 299.627 594.57 299.627C600.631 299.458 607.433 298.378 615.009 296.556C630.533 292.877 640.668 285.25 647.066 276.002C647.605 275.226 648.11 274.416 648.615 273.606C636.83 270.771 611.642 265.844 586.623 267.869C573.052 268.949 558.977 270.164 546.922 271.244C546.518 271.277 550.087 279.951 552.108 282.28Z" fill="#6615B2"/>
<path d="M623.495 158.082C623.293 157.272 623.091 156.496 622.889 155.72C619.892 145.156 615.043 137.495 607.433 136.246C606.49 138.845 597.129 143.199 588.946 142.794C588.037 142.76 586.724 141.511 586.69 141.511C580.225 140.6 577.161 137.124 577.464 136.651C577.194 136.685 570.695 138.507 570.695 138.507C565.038 163.279 564.365 177.015 571.167 212.317C573.658 225.21 569.853 232.229 570.695 233.073C572.177 234.558 588.441 234.963 601.506 235.469C603.089 235.537 604.638 235.571 606.12 235.638C615.683 235.942 623.562 236.077 623.562 236.077C624.202 235.267 625.414 227.775 626.223 217.245C627.536 200.404 627.873 175.8 623.495 158.082Z" fill="#C0D3F8"/>
<path d="M602.921 137.427L595.142 143.874L583.289 142.051C583.39 140.904 583.996 135.942 584.501 131.724C584.905 128.281 585.276 125.311 585.276 125.311L599.419 119.642L599.856 119.473C599.856 119.54 599.856 119.608 599.856 119.675C599.823 120.249 599.789 120.789 599.789 121.329C599.52 131.049 602.921 137.427 602.921 137.427Z" fill="#FF9792"/>
<path d="M570.291 270.771C530.691 273.606 518.367 273.1 516.986 275.024C508.231 287.038 507.356 289.097 489.644 313.16C486.276 317.75 482.269 323.15 477.488 329.563H458.967C458.967 329.563 478.936 291.358 494.897 265.506C501.194 255.28 506.884 247.012 510.454 243.738C522.812 232.432 572.11 232.702 572.11 232.702C572.11 232.702 614.908 231.656 618.276 238.034C619.017 239.351 600.092 268.611 570.291 270.771Z" fill="#F9795A"/>
<path d="M570.291 270.771C530.691 273.606 518.367 273.1 516.986 275.024C508.231 287.038 507.356 289.097 489.644 313.16L494.897 265.473C501.194 255.247 506.884 246.978 510.454 243.704C522.812 232.398 572.11 232.668 572.11 232.668C572.11 232.668 614.908 231.622 618.276 238.001C619.017 239.351 600.092 268.611 570.291 270.771Z" fill="#F24B46"/>
<path d="M593.021 142.929L585.242 142.085C585.242 142.085 584.266 142.287 584.468 143.536C584.67 144.751 587.229 148.092 588.205 148.261C589.115 148.43 595.142 145.19 593.021 142.929Z" fill="#242E6C"/>
<path d="M621.946 244.548C621.946 244.548 620.633 268.578 590.798 270.738C551.198 273.572 543.049 272.661 540.457 275.057C527.728 286.971 536.146 289.502 506.312 329.529H487.59C487.59 329.529 510.454 253.593 520.825 244.514C533.419 233.478 584.804 232.634 584.804 232.634C584.804 232.634 619.05 230.002 622.417 236.347C623.125 237.731 621.946 244.548 621.946 244.548Z" fill="#F9795A"/>
<path d="M584.501 298.783C584.501 298.918 588.609 299.492 590.866 299.593C591.775 299.627 592.684 299.661 593.627 299.627C593.694 299.627 593.795 299.627 593.863 299.627C594.098 299.627 594.334 299.627 594.603 299.627C600.665 299.458 607.467 298.344 615.043 296.556C635.348 291.73 646.393 280.221 651.983 267.126C655.552 258.79 656.899 249.813 657.034 241.511C656.899 233.613 655.687 226.492 654.34 221.43C653.296 217.481 651.646 213.735 649.39 210.394C648.952 209.752 648.481 209.111 647.976 208.47C647.807 208.267 647.639 208.065 647.504 207.862C633.496 222.51 591.236 269.117 584.501 298.783Z" fill="#9E30CA"/>
<path d="M585.545 298.783C585.545 298.918 589.653 299.492 591.91 299.593C592.482 299.627 593.054 299.627 593.627 299.627C593.694 299.627 593.795 299.627 593.863 299.627C594.098 299.627 594.334 299.627 594.603 299.627C600.665 299.458 607.467 298.344 615.043 296.556C635.348 291.73 646.393 280.221 651.983 267.126C655.552 258.79 656.899 249.813 657.034 241.511C656.899 233.613 655.687 226.492 654.34 221.43C653.296 217.481 651.646 213.735 649.39 210.394C648.952 209.752 648.481 209.111 647.976 208.47C633.429 223.758 592.179 269.523 585.545 298.783Z" fill="#9E30CA"/>
<path d="M584.232 134.154C584.232 134.154 585.545 139.959 588.946 142.76L583.66 149.645C583.66 149.645 577.262 142.051 577.464 136.651C577.464 136.651 582.515 134.356 584.232 134.154Z" fill="#B1C9F6"/>
<path d="M584.232 134.154C584.232 134.154 585.209 139.621 588.643 142.422L583.592 148.666C583.592 148.666 578.036 142.186 577.497 136.617C577.464 136.651 582.515 134.356 584.232 134.154Z" fill="#C0D3F8"/>
<path d="M601.978 134.154C601.978 134.154 593.896 141.815 588.643 142.422L592.246 151.467C592.246 151.467 607.972 142.152 608.005 136.55C608.005 136.55 603.661 134.221 601.978 134.154Z" fill="#B1C9F6"/>
<path d="M601.405 133.85C601.405 133.85 593.93 141.815 588.643 142.422L591.573 150.758C591.573 150.758 607.399 141.815 607.433 136.246C607.433 136.246 603.089 133.918 601.405 133.85Z" fill="#C0D3F8"/>
<path d="M626.223 217.211C625.414 227.741 625.616 233.242 622.384 236.347C622.384 236.347 615.818 238.811 606.12 235.604C602.82 233.917 600.227 231.588 598.947 228.382C592.549 212.486 604.705 199.29 605.345 188.76C605.951 178.23 615.582 170.536 615.582 170.536C615.582 170.536 627.536 200.404 626.223 217.211Z" fill="#B1C9F6"/>
<path d="M589.35 147.35C589.35 147.35 590.832 161.322 591.101 165.979C591.842 179.142 592.112 218.628 592.112 218.628C592.112 218.628 592.516 222.071 590.192 224.838C587.902 227.606 585.512 229.462 585.512 229.462C585.512 229.462 582.144 226.492 580.797 220.957C579.922 217.245 582.043 186.229 584.198 165.574C585.276 155.18 587.061 147.046 587.061 147.046C587.061 147.046 588.845 146.776 589.35 147.35Z" fill="#242E6C"/>
<path d="M644.44 337.932H551.805C556.216 328.28 575.275 320.99 598.105 320.99C621.003 320.99 640.062 328.28 644.44 337.932Z" fill="#6615B2"/>
<path d="M596.792 219.337C596.792 219.337 590.495 220.991 588.441 222.138C586.387 223.286 582.245 228.72 583.188 229.563C587.835 233.849 588.542 229.091 594.267 227.538C595.311 227.268 600.092 221.902 600.092 221.902L596.792 219.337Z" fill="#FF9792"/>
<path d="M591.707 232.499L582.279 199.83H528.368L538.1 233.816H538.268H592.078H608.847V232.499H591.707Z" fill="#C643DB"/>
<path d="M555.239 216.266C554.903 215.085 555.576 214.106 556.788 214.106C557.967 214.106 559.213 215.085 559.583 216.266C559.92 217.447 559.246 218.426 558.034 218.426C556.822 218.426 555.576 217.481 555.239 216.266Z" fill="#7F22BA"/>
<path d="M607.433 136.246C607.433 136.246 618.141 138.001 623.495 143.57C628.849 149.138 637.907 194.768 635.651 201.18C633.395 207.592 615.245 220.586 602.281 225.952C602.281 225.952 595.883 223.05 595.479 218.122C595.479 218.122 617.535 199.526 618.545 194.599C619.555 189.604 607.433 136.246 607.433 136.246Z" fill="#C0D3F8"/>
<path d="M599.856 119.675C599.823 120.249 599.789 120.789 599.789 121.329C597.061 124.299 590.63 130.576 584.535 131.724C584.939 128.281 585.309 125.311 585.309 125.311L599.452 119.642L599.856 119.675Z" fill="#FF7D78"/>
<path d="M583.828 126.459C583.828 126.459 600.799 127.235 601.102 116.638C601.439 106.041 603.83 98.9869 593.021 98.0757C582.212 97.1307 579.989 101.113 579.013 104.623C578.036 108.099 579.417 125.986 583.828 126.459Z" fill="#FF9792"/>
<path d="M601.102 116.638C601.102 116.638 599.823 102.497 584.703 103.003C569.584 103.509 576.117 89.1658 589.115 87.0734C589.115 87.0734 587.768 92.1358 595.917 92.912C613.09 94.5995 602.618 114.377 601.102 116.638Z" fill="#F24B46"/>
<path d="M357.139 251.365C358.217 245.898 363.503 241.443 368.958 241.443C374.414 241.443 377.983 245.864 376.939 251.365C375.862 256.833 370.575 261.288 365.12 261.288C359.631 261.288 356.062 256.867 357.139 251.365Z" fill="#1B2251"/>
<path d="M335.523 54H334.428L335.91 45.4688H337.006L335.523 54ZM343.938 54H342.871L339.824 47.3789L338.676 54H337.568L339.051 45.4688H340.117L343.17 52.1191L344.324 45.4688H345.42L343.938 54ZM348.941 52.4941L352.404 45.4688H353.646L349.24 54H348.268L346.539 45.4688H347.693L348.941 52.4941ZM358.762 50.0566H355.176L354.648 53.0801H358.82L358.656 54H353.389L354.871 45.4688H360.08L359.916 46.3945H355.809L355.334 49.1367H358.92L358.762 50.0566ZM364.861 51.8027C364.947 51.1777 364.623 50.7207 363.889 50.4316L362.875 50.0625L362.535 49.916C361.395 49.3965 360.861 48.666 360.936 47.7246C360.975 47.252 361.137 46.834 361.422 46.4707C361.707 46.1074 362.084 45.8281 362.553 45.6328C363.025 45.4336 363.527 45.3398 364.059 45.3516C364.574 45.3633 365.033 45.4785 365.436 45.6973C365.842 45.916 366.15 46.2227 366.361 46.6172C366.572 47.0078 366.666 47.4492 366.643 47.9414L365.535 47.9355C365.574 47.4121 365.457 47.0078 365.184 46.7227C364.91 46.4336 364.52 46.2852 364.012 46.2773C363.477 46.2695 363.029 46.3945 362.67 46.6523C362.311 46.9102 362.104 47.2617 362.049 47.707C361.971 48.2891 362.328 48.7305 363.121 49.0312L363.994 49.3418L364.434 49.5293C365.535 50.0371 366.045 50.791 365.963 51.791C365.92 52.2715 365.758 52.6875 365.477 53.0391C365.195 53.3867 364.812 53.6562 364.328 53.8477C363.848 54.0391 363.33 54.1289 362.775 54.1172C362.24 54.1133 361.75 54 361.305 53.7773C360.863 53.5508 360.527 53.2422 360.297 52.8516C360.066 52.4609 359.965 52.0176 359.992 51.5215L361.094 51.5273C361.059 52.0352 361.195 52.4395 361.504 52.7402C361.816 53.0371 362.256 53.1895 362.822 53.1973C363.389 53.2051 363.855 53.082 364.223 52.8281C364.59 52.5742 364.803 52.2324 364.861 51.8027ZM374.084 46.3945H371.43L370.111 54H369.016L370.334 46.3945H367.68L367.844 45.4688H374.248L374.084 46.3945ZM376.92 45.4688L378.414 52.418L382.328 45.4688H383.775L382.293 54H381.197L381.783 50.625L382.48 47.1914L378.613 54H377.77L376.246 47.0566L375.719 50.7363L375.15 54H374.049L375.531 45.4688H376.92ZM389.641 50.0566H386.055L385.527 53.0801H389.699L389.535 54H384.268L385.75 45.4688H390.959L390.795 46.3945H386.688L386.213 49.1367H389.799L389.641 50.0566ZM397.316 54H396.25L393.203 47.3789L392.055 54H390.947L392.43 45.4688H393.496L396.549 52.1191L397.703 45.4688H398.799L397.316 54ZM406.17 46.3945H403.516L402.197 54H401.102L402.42 46.3945H399.766L399.93 45.4688H406.334L406.17 46.3945Z" fill="#29A3E8"/>
</g>
<defs>
<clipPath id="clip0">
<rect width="657" height="338" fill="white"/>
</clipPath>
</defs>
</svg>
