<svg width="68" height="68" viewBox="0 0 68 68" fill="none" xmlns="http://www.w3.org/2000/svg">
<circle cx="34" cy="34" r="33" stroke="url(#paint0_linear)" stroke-width="2"/>
<path d="M46.1817 42.8453C45.5185 41.2744 44.5561 39.8475 43.3481 38.6441C42.1438 37.4373 40.7171 36.475 39.147 35.8105C39.1329 35.8035 39.1188 35.8 39.1048 35.793C41.295 34.2109 42.7188 31.634 42.7188 28.7266C42.7188 23.9102 38.8165 20.0078 34.0001 20.0078C29.1837 20.0078 25.2813 23.9102 25.2813 28.7266C25.2813 31.634 26.7052 34.2109 28.8954 35.7965C28.8813 35.8035 28.8673 35.807 28.8532 35.8141C27.2782 36.4785 25.8649 37.4312 24.652 38.6477C23.4452 39.852 22.4829 41.2786 21.8184 42.8488C21.1657 44.386 20.8136 46.0341 20.7813 47.7039C20.7804 47.7414 20.787 47.7788 20.8007 47.8137C20.8144 47.8486 20.835 47.8805 20.8612 47.9073C20.8874 47.9342 20.9187 47.9556 20.9533 47.9701C20.9879 47.9847 21.0251 47.9922 21.0626 47.9922H23.172C23.3267 47.9922 23.4497 47.8691 23.4532 47.718C23.5235 45.0039 24.6134 42.4621 26.5399 40.5355C28.5333 38.5422 31.1806 37.4453 34.0001 37.4453C36.8196 37.4453 39.4669 38.5422 41.4602 40.5355C43.3868 42.4621 44.4767 45.0039 44.547 47.718C44.5505 47.8727 44.6735 47.9922 44.8282 47.9922H46.9376C46.9751 47.9922 47.0123 47.9847 47.0469 47.9701C47.0815 47.9556 47.1128 47.9342 47.139 47.9073C47.1652 47.8805 47.1858 47.8486 47.1995 47.8137C47.2132 47.7788 47.2198 47.7414 47.2188 47.7039C47.1837 46.0234 46.8356 44.3887 46.1817 42.8453ZM34.0001 34.7734C32.3864 34.7734 30.8677 34.1441 29.7251 33.0016C28.5825 31.859 27.9532 30.3402 27.9532 28.7266C27.9532 27.1129 28.5825 25.5941 29.7251 24.4516C30.8677 23.309 32.3864 22.6797 34.0001 22.6797C35.6138 22.6797 37.1325 23.309 38.2751 24.4516C39.4177 25.5941 40.047 27.1129 40.047 28.7266C40.047 30.3402 39.4177 31.859 38.2751 33.0016C37.1325 34.1441 35.6138 34.7734 34.0001 34.7734Z" fill="#29A3E8"/>
<defs>
<linearGradient id="paint0_linear" x1="9.35" y1="7.65" x2="62.9" y2="68" gradientUnits="userSpaceOnUse">
<stop offset="0.305602" stop-color="#191B46"/>
<stop offset="1" stop-color="#29A3E8"/>
</linearGradient>
</defs>
</svg>
