<svg width="174" height="139" viewBox="0 0 174 139" fill="none" xmlns="http://www.w3.org/2000/svg">
<circle cx="3" cy="3" r="3" fill="#202256"/>
<circle cx="24" cy="3" r="3" fill="#202256"/>
<circle cx="45" cy="3" r="3" fill="#202256"/>
<circle cx="66" cy="3" r="3" fill="#202256"/>
<circle cx="87" cy="3" r="3" fill="#202256"/>
<circle cx="108" cy="3" r="3" fill="#202256"/>
<circle cx="129" cy="3" r="3" fill="#202256"/>
<circle cx="150" cy="3" r="3" fill="#202256"/>
<circle cx="171" cy="3" r="3" fill="#202256"/>
<circle cx="3" cy="22" r="3" fill="#202256"/>
<circle cx="24" cy="22" r="3" fill="#202256"/>
<circle cx="45" cy="22" r="3" fill="#202256"/>
<circle cx="66" cy="22" r="3" fill="#202256"/>
<circle cx="87" cy="22" r="3" fill="#202256"/>
<circle cx="108" cy="22" r="3" fill="#202256"/>
<circle cx="129" cy="22" r="3" fill="#202256"/>
<circle cx="150" cy="22" r="3" fill="#202256"/>
<circle cx="171" cy="22" r="3" fill="#202256"/>
<circle cx="3" cy="41" r="3" fill="#202256"/>
<circle cx="24" cy="41" r="3" fill="#202256"/>
<circle cx="45" cy="41" r="3" fill="#202256"/>
<circle cx="66" cy="41" r="3" fill="#202256"/>
<circle cx="87" cy="41" r="3" fill="#202256"/>
<circle cx="108" cy="41" r="3" fill="#202256"/>
<circle cx="129" cy="41" r="3" fill="#202256"/>
<circle cx="150" cy="41" r="3" fill="#202256"/>
<circle cx="171" cy="41" r="3" fill="#202256"/>
<circle cx="3" cy="60" r="3" fill="#202256"/>
<circle cx="24" cy="60" r="3" fill="#202256"/>
<circle cx="45" cy="60" r="3" fill="#202256"/>
<circle cx="66" cy="60" r="3" fill="#202256"/>
<circle cx="87" cy="60" r="3" fill="#202256"/>
<circle cx="108" cy="60" r="3" fill="#202256"/>
<circle cx="129" cy="60" r="3" fill="#202256"/>
<circle cx="150" cy="60" r="3" fill="#202256"/>
<circle cx="171" cy="60" r="3" fill="#202256"/>
<circle cx="3" cy="79" r="3" fill="#202256"/>
<circle cx="24" cy="79" r="3" fill="#202256"/>
<circle cx="45" cy="79" r="3" fill="#202256"/>
<circle cx="66" cy="79" r="3" fill="#202256"/>
<circle cx="87" cy="79" r="3" fill="#202256"/>
<circle cx="108" cy="79" r="3" fill="#202256"/>
<circle cx="129" cy="79" r="3" fill="#202256"/>
<circle cx="150" cy="79" r="3" fill="#202256"/>
<circle cx="171" cy="79" r="3" fill="#202256"/>
<circle cx="3" cy="98" r="3" fill="#202256"/>
<circle cx="24" cy="98" r="3" fill="#202256"/>
<circle cx="45" cy="98" r="3" fill="#202256"/>
<circle cx="66" cy="98" r="3" fill="#202256"/>
<circle cx="87" cy="98" r="3" fill="#202256"/>
<circle cx="108" cy="98" r="3" fill="#202256"/>
<circle cx="129" cy="98" r="3" fill="#202256"/>
<circle cx="150" cy="98" r="3" fill="#202256"/>
<circle cx="171" cy="98" r="3" fill="#202256"/>
<circle cx="3" cy="117" r="3" fill="#202256"/>
<circle cx="24" cy="117" r="3" fill="#202256"/>
<circle cx="45" cy="117" r="3" fill="#202256"/>
<circle cx="66" cy="117" r="3" fill="#202256"/>
<circle cx="87" cy="117" r="3" fill="#202256"/>
<circle cx="108" cy="117" r="3" fill="#202256"/>
<circle cx="129" cy="117" r="3" fill="#202256"/>
<circle cx="150" cy="117" r="3" fill="#202256"/>
<circle cx="171" cy="117" r="3" fill="#202256"/>
<circle cx="3" cy="136" r="3" fill="#202256"/>
<circle cx="24" cy="136" r="3" fill="#202256"/>
<circle cx="45" cy="136" r="3" fill="#202256"/>
<circle cx="66" cy="136" r="3" fill="#202256"/>
<circle cx="87" cy="136" r="3" fill="#202256"/>
<circle cx="108" cy="136" r="3" fill="#202256"/>
<circle cx="129" cy="136" r="3" fill="#202256"/>
<circle cx="150" cy="136" r="3" fill="#202256"/>
<circle cx="171" cy="136" r="3" fill="#202256"/>
</svg>
